%TF.GenerationSoftware,KiCad,Pcbnew,9.0.0*%
%TF.CreationDate,2025-05-07T16:38:21+03:00*%
%TF.ProjectId,Testing_USB-CAN,54657374-696e-4675-9f55-53422d43414e,rev?*%
%TF.SameCoordinates,Original*%
%TF.FileFunction,Profile,NP*%
%FSLAX46Y46*%
G04 Gerber Fmt 4.6, Leading zero omitted, Abs format (unit mm)*
G04 Created by KiCad (PCBNEW 9.0.0) date 2025-05-07 16:38:21*
%MOMM*%
%LPD*%
G01*
G04 APERTURE LIST*
%TA.AperFunction,Profile*%
%ADD10C,0.100000*%
%TD*%
G04 APERTURE END LIST*
D10*
X115130000Y-89280000D02*
G75*
G02*
X112130000Y-89280000I-1500000J0D01*
G01*
X112130000Y-89280000D02*
G75*
G02*
X115130000Y-89280000I1500000J0D01*
G01*
X122250000Y-87280000D02*
X113630000Y-87280000D01*
X131410000Y-86620000D02*
X122250000Y-86620000D01*
X131410000Y-87280000D02*
X140030000Y-87280000D01*
X140040000Y-138280000D02*
X136445000Y-138280000D01*
X140040000Y-138280000D02*
G75*
G02*
X140040000Y-142280000I0J-2000000D01*
G01*
X117225000Y-138279975D02*
X113630000Y-138279975D01*
X115130000Y-140280000D02*
G75*
G02*
X112130000Y-140280000I-1500000J0D01*
G01*
X112130000Y-140280000D02*
G75*
G02*
X115130000Y-140280000I1500000J0D01*
G01*
X117225000Y-91280000D02*
X117225000Y-138279975D01*
X113630000Y-142280025D02*
G75*
G02*
X113630000Y-138279975I0J2000025D01*
G01*
X122250000Y-87280000D02*
X122250000Y-86620000D01*
X140030000Y-91280000D02*
X136445000Y-91280000D01*
X141530000Y-89280000D02*
G75*
G02*
X138530000Y-89280000I-1500000J0D01*
G01*
X138530000Y-89280000D02*
G75*
G02*
X141530000Y-89280000I1500000J0D01*
G01*
X131410000Y-86680000D02*
X131410000Y-86620000D01*
X118340000Y-142890000D02*
X135500000Y-142890000D01*
X135500000Y-142890000D02*
X135500000Y-142280000D01*
X118340000Y-142280000D02*
X118340000Y-142890000D01*
X131410000Y-87280000D02*
X131410000Y-86680000D01*
X113630000Y-142280025D02*
X118340000Y-142280025D01*
X113630000Y-91280000D02*
X117225000Y-91280000D01*
X140040000Y-142280000D02*
X135500000Y-142280000D01*
X141540000Y-140280000D02*
G75*
G02*
X138540000Y-140280000I-1500000J0D01*
G01*
X138540000Y-140280000D02*
G75*
G02*
X141540000Y-140280000I1500000J0D01*
G01*
X136445000Y-138280000D02*
X136445000Y-91280000D01*
X113630000Y-91280000D02*
G75*
G02*
X113630000Y-87280000I0J2000000D01*
G01*
X140030000Y-87280000D02*
G75*
G02*
X140030000Y-91280000I0J-2000000D01*
G01*
M02*
