%TF.GenerationSoftware,KiCad,Pcbnew,9.0.0*%
%TF.CreationDate,2025-05-07T16:38:21+03:00*%
%TF.ProjectId,Testing_USB-CAN,54657374-696e-4675-9f55-53422d43414e,rev?*%
%TF.SameCoordinates,Original*%
%TF.FileFunction,Copper,L4,Bot*%
%TF.FilePolarity,Positive*%
%FSLAX46Y46*%
G04 Gerber Fmt 4.6, Leading zero omitted, Abs format (unit mm)*
G04 Created by KiCad (PCBNEW 9.0.0) date 2025-05-07 16:38:21*
%MOMM*%
%LPD*%
G01*
G04 APERTURE LIST*
G04 Aperture macros list*
%AMRoundRect*
0 Rectangle with rounded corners*
0 $1 Rounding radius*
0 $2 $3 $4 $5 $6 $7 $8 $9 X,Y pos of 4 corners*
0 Add a 4 corners polygon primitive as box body*
4,1,4,$2,$3,$4,$5,$6,$7,$8,$9,$2,$3,0*
0 Add four circle primitives for the rounded corners*
1,1,$1+$1,$2,$3*
1,1,$1+$1,$4,$5*
1,1,$1+$1,$6,$7*
1,1,$1+$1,$8,$9*
0 Add four rect primitives between the rounded corners*
20,1,$1+$1,$2,$3,$4,$5,0*
20,1,$1+$1,$4,$5,$6,$7,0*
20,1,$1+$1,$6,$7,$8,$9,0*
20,1,$1+$1,$8,$9,$2,$3,0*%
G04 Aperture macros list end*
%TA.AperFunction,ComponentPad*%
%ADD10R,2.550000X2.550000*%
%TD*%
%TA.AperFunction,ComponentPad*%
%ADD11C,2.550000*%
%TD*%
%TA.AperFunction,HeatsinkPad*%
%ADD12O,0.900000X2.000000*%
%TD*%
%TA.AperFunction,HeatsinkPad*%
%ADD13O,0.900000X1.700000*%
%TD*%
%TA.AperFunction,ComponentPad*%
%ADD14R,1.700000X1.700000*%
%TD*%
%TA.AperFunction,ComponentPad*%
%ADD15O,1.700000X1.700000*%
%TD*%
%TA.AperFunction,SMDPad,CuDef*%
%ADD16RoundRect,0.250000X-0.475000X0.250000X-0.475000X-0.250000X0.475000X-0.250000X0.475000X0.250000X0*%
%TD*%
%TA.AperFunction,SMDPad,CuDef*%
%ADD17RoundRect,0.150000X-0.150000X0.587500X-0.150000X-0.587500X0.150000X-0.587500X0.150000X0.587500X0*%
%TD*%
%TA.AperFunction,SMDPad,CuDef*%
%ADD18RoundRect,0.225000X0.225000X0.250000X-0.225000X0.250000X-0.225000X-0.250000X0.225000X-0.250000X0*%
%TD*%
%TA.AperFunction,SMDPad,CuDef*%
%ADD19RoundRect,0.225000X0.250000X-0.225000X0.250000X0.225000X-0.250000X0.225000X-0.250000X-0.225000X0*%
%TD*%
%TA.AperFunction,SMDPad,CuDef*%
%ADD20RoundRect,0.225000X-0.250000X0.225000X-0.250000X-0.225000X0.250000X-0.225000X0.250000X0.225000X0*%
%TD*%
%TA.AperFunction,SMDPad,CuDef*%
%ADD21R,1.180000X1.170000*%
%TD*%
%TA.AperFunction,SMDPad,CuDef*%
%ADD22RoundRect,0.250000X0.475000X-0.250000X0.475000X0.250000X-0.475000X0.250000X-0.475000X-0.250000X0*%
%TD*%
%TA.AperFunction,SMDPad,CuDef*%
%ADD23RoundRect,0.243750X-0.456250X0.243750X-0.456250X-0.243750X0.456250X-0.243750X0.456250X0.243750X0*%
%TD*%
%TA.AperFunction,SMDPad,CuDef*%
%ADD24RoundRect,0.200000X-0.275000X0.200000X-0.275000X-0.200000X0.275000X-0.200000X0.275000X0.200000X0*%
%TD*%
%TA.AperFunction,SMDPad,CuDef*%
%ADD25RoundRect,0.040200X-0.294800X0.544800X-0.294800X-0.544800X0.294800X-0.544800X0.294800X0.544800X0*%
%TD*%
%TA.AperFunction,SMDPad,CuDef*%
%ADD26RoundRect,0.225000X-0.225000X-0.250000X0.225000X-0.250000X0.225000X0.250000X-0.225000X0.250000X0*%
%TD*%
%TA.AperFunction,SMDPad,CuDef*%
%ADD27RoundRect,0.200000X0.275000X-0.200000X0.275000X0.200000X-0.275000X0.200000X-0.275000X-0.200000X0*%
%TD*%
%TA.AperFunction,SMDPad,CuDef*%
%ADD28RoundRect,0.250000X-0.250000X-0.475000X0.250000X-0.475000X0.250000X0.475000X-0.250000X0.475000X0*%
%TD*%
%TA.AperFunction,SMDPad,CuDef*%
%ADD29RoundRect,0.150000X-0.150000X0.825000X-0.150000X-0.825000X0.150000X-0.825000X0.150000X0.825000X0*%
%TD*%
%TA.AperFunction,ViaPad*%
%ADD30C,0.500000*%
%TD*%
%TA.AperFunction,Conductor*%
%ADD31C,0.250000*%
%TD*%
%TA.AperFunction,Conductor*%
%ADD32C,0.200000*%
%TD*%
%TA.AperFunction,Conductor*%
%ADD33C,0.150000*%
%TD*%
G04 APERTURE END LIST*
D10*
%TO.P,J3,1,Pin_1*%
%TO.N,/CAN_N*%
X131990000Y-132732500D03*
D11*
%TO.P,J3,2,Pin_2*%
%TO.N,GND*%
X126910001Y-132732500D03*
%TO.P,J3,3,Pin_3*%
%TO.N,/CAN_P*%
X121830000Y-132732500D03*
%TD*%
D12*
%TO.P,J1,S1,SHIELD*%
%TO.N,GND*%
X131150000Y-93505000D03*
D13*
X131150000Y-89335000D03*
D12*
X122510000Y-93505000D03*
D13*
X122510000Y-89335000D03*
%TD*%
D14*
%TO.P,J4,1,Pin_1*%
%TO.N,+5V*%
X120060000Y-104340000D03*
D15*
%TO.P,J4,2,Pin_2*%
%TO.N,+3.3V*%
X120060000Y-106880000D03*
%TO.P,J4,3,Pin_3*%
%TO.N,/UART_TX*%
X120060000Y-109420000D03*
%TO.P,J4,4,Pin_4*%
%TO.N,/UART_RX*%
X120060000Y-111960000D03*
%TD*%
D16*
%TO.P,C27,1*%
%TO.N,+3.3V*%
X131130000Y-115250001D03*
%TO.P,C27,2*%
%TO.N,GND*%
X131130000Y-117149999D03*
%TD*%
%TO.P,C30,1*%
%TO.N,VDD*%
X125820000Y-94860001D03*
%TO.P,C30,2*%
%TO.N,GND*%
X125820000Y-96759999D03*
%TD*%
D17*
%TO.P,D1,1,A1*%
%TO.N,/CAN_P*%
X125970000Y-126102500D03*
%TO.P,D1,2,A2*%
%TO.N,/CAN_N*%
X127870000Y-126102500D03*
%TO.P,D1,3,common*%
%TO.N,GND*%
X126920000Y-127977501D03*
%TD*%
D18*
%TO.P,C1,1*%
%TO.N,/CAN_P*%
X125220000Y-124387500D03*
%TO.P,C1,2*%
%TO.N,GND*%
X123670000Y-124387500D03*
%TD*%
D19*
%TO.P,C65,1*%
%TO.N,Net-(U7-BP)*%
X127520000Y-103435000D03*
%TO.P,C65,2*%
%TO.N,GND*%
X127520000Y-101885000D03*
%TD*%
D20*
%TO.P,C14,1*%
%TO.N,/Vref*%
X126920000Y-122822500D03*
%TO.P,C14,2*%
%TO.N,GND*%
X126920000Y-124372500D03*
%TD*%
D21*
%TO.P,D4,A,A*%
%TO.N,Net-(D4-PadA)*%
X127920000Y-98740000D03*
%TO.P,D4,C,K*%
%TO.N,+5V*%
X124740000Y-98740000D03*
%TD*%
D22*
%TO.P,C66,1*%
%TO.N,+5V*%
X122840000Y-99189999D03*
%TO.P,C66,2*%
%TO.N,GND*%
X122840000Y-97290001D03*
%TD*%
D23*
%TO.P,F1,1*%
%TO.N,VDD*%
X127810000Y-94852499D03*
%TO.P,F1,2*%
%TO.N,Net-(D4-PadA)*%
X127810000Y-96727501D03*
%TD*%
D24*
%TO.P,R34,1*%
%TO.N,Net-(U9-Rs)*%
X123210000Y-117495000D03*
%TO.P,R34,2*%
%TO.N,GND*%
X123210000Y-119145000D03*
%TD*%
D25*
%TO.P,U7,1,VIN*%
%TO.N,+5V*%
X124020000Y-101010000D03*
%TO.P,U7,2,GND*%
%TO.N,GND*%
X124960000Y-101010000D03*
%TO.P,U7,3,EN*%
%TO.N,+5V*%
X125900000Y-101010000D03*
%TO.P,U7,4,BP*%
%TO.N,Net-(U7-BP)*%
X125900000Y-103450000D03*
%TO.P,U7,5,VOUT*%
%TO.N,+3.3V*%
X124020000Y-103450000D03*
%TD*%
D26*
%TO.P,C2,1*%
%TO.N,/CAN_N*%
X128620000Y-124367500D03*
%TO.P,C2,2*%
%TO.N,GND*%
X130170000Y-124367500D03*
%TD*%
D27*
%TO.P,R35,1*%
%TO.N,/Vref*%
X127710000Y-121392500D03*
%TO.P,R35,2*%
%TO.N,/CAN_N*%
X127710000Y-119742500D03*
%TD*%
D14*
%TO.P,J7,1,Pin_1*%
%TO.N,GND*%
X136160000Y-89290000D03*
%TD*%
D28*
%TO.P,C68,1*%
%TO.N,+3.3V*%
X123990001Y-105320000D03*
%TO.P,C68,2*%
%TO.N,GND*%
X125889999Y-105320000D03*
%TD*%
D20*
%TO.P,C20,1*%
%TO.N,+3.3V*%
X132850000Y-115285000D03*
%TO.P,C20,2*%
%TO.N,GND*%
X132850000Y-116835000D03*
%TD*%
D19*
%TO.P,C34,1*%
%TO.N,+3.3V*%
X128810000Y-107005000D03*
%TO.P,C34,2*%
%TO.N,GND*%
X128810000Y-105455000D03*
%TD*%
D14*
%TO.P,J6,1,Pin_1*%
%TO.N,GND*%
X117530000Y-89280000D03*
%TD*%
D29*
%TO.P,U9,1,D*%
%TO.N,Net-(U9-D)*%
X125010000Y-112542500D03*
%TO.P,U9,2,GND*%
%TO.N,GND*%
X126280000Y-112542500D03*
%TO.P,U9,3,VCC*%
%TO.N,+3.3V*%
X127550000Y-112542500D03*
%TO.P,U9,4,R*%
%TO.N,Net-(U9-R)*%
X128820000Y-112542500D03*
%TO.P,U9,5,Vref*%
%TO.N,/Vref*%
X128820000Y-117492500D03*
%TO.P,U9,6,CANL*%
%TO.N,/CAN_N*%
X127550000Y-117492500D03*
%TO.P,U9,7,CANH*%
%TO.N,/CAN_P*%
X126280000Y-117492500D03*
%TO.P,U9,8,Rs*%
%TO.N,Net-(U9-Rs)*%
X125010000Y-117492500D03*
%TD*%
D27*
%TO.P,R33,1*%
%TO.N,Net-(U9-R)*%
X128810000Y-110445000D03*
%TO.P,R33,2*%
%TO.N,/Rx*%
X128810000Y-108795000D03*
%TD*%
D14*
%TO.P,J5,1,Pin_1*%
%TO.N,/SDA*%
X133600000Y-104340000D03*
D15*
%TO.P,J5,2,Pin_2*%
%TO.N,/SCL*%
X133600000Y-106880000D03*
%TO.P,J5,3,Pin_3*%
%TO.N,/SWDIO*%
X133600000Y-109420000D03*
%TO.P,J5,4,Pin_4*%
%TO.N,/SWCLK*%
X133600000Y-111960000D03*
%TD*%
D22*
%TO.P,C67,1*%
%TO.N,+5V*%
X120840000Y-99189999D03*
%TO.P,C67,2*%
%TO.N,GND*%
X120840000Y-97290001D03*
%TD*%
D27*
%TO.P,R32,1*%
%TO.N,Net-(U9-D)*%
X125000000Y-110445000D03*
%TO.P,R32,2*%
%TO.N,/Tx*%
X125000000Y-108795000D03*
%TD*%
D24*
%TO.P,R3,1*%
%TO.N,/CAN_P*%
X126120000Y-119742500D03*
%TO.P,R3,2*%
%TO.N,/Vref*%
X126120000Y-121392500D03*
%TD*%
D30*
%TO.N,GND*%
X135380000Y-99560000D03*
X118470000Y-125523611D03*
X135270000Y-132928333D03*
X129540000Y-128490000D03*
X128840000Y-102090000D03*
X118470000Y-124043333D03*
X121230000Y-90740000D03*
X127880000Y-123570000D03*
X118470000Y-129964444D03*
X130350000Y-98520000D03*
X130550000Y-123600000D03*
X121290000Y-94680000D03*
X135270000Y-141810000D03*
X129450000Y-137369167D03*
X118470000Y-134405278D03*
X118470000Y-135885556D03*
X125670000Y-115970000D03*
X118470000Y-95119167D03*
X124270000Y-140330555D03*
X118470000Y-99560000D03*
X127852500Y-89480000D03*
X127030000Y-108050000D03*
X135270000Y-131448055D03*
X121230000Y-89713335D03*
X124270000Y-141810833D03*
X118470000Y-140326389D03*
X129460000Y-132900000D03*
X124270000Y-132900000D03*
X135260000Y-117060000D03*
X124270000Y-138850277D03*
X135270000Y-128487500D03*
X135380000Y-96599445D03*
X118470000Y-118800000D03*
X132430000Y-89713335D03*
X121220000Y-87860000D03*
X125157500Y-87740000D03*
X121230000Y-88686667D03*
X124270000Y-135889722D03*
X129440000Y-131460278D03*
X123810000Y-89480000D03*
X130350000Y-100390000D03*
X129450000Y-138849444D03*
X118470000Y-131444722D03*
X129480000Y-119130000D03*
X135270000Y-134408611D03*
X122410000Y-101810000D03*
X124270000Y-137370000D03*
X124380000Y-115950000D03*
X132420000Y-87860000D03*
X129440000Y-134450000D03*
X123860000Y-120200000D03*
X127000000Y-104970000D03*
X135270000Y-138849444D03*
X135270000Y-135888889D03*
X120670000Y-127009722D03*
X124250000Y-134450000D03*
X118470000Y-96599445D03*
X129450000Y-140329722D03*
X118470000Y-132925000D03*
X124250000Y-131460278D03*
X125980000Y-134450000D03*
X129200000Y-89480000D03*
X129450000Y-135888889D03*
X135270000Y-129967777D03*
X118470000Y-141806667D03*
X120670000Y-128490000D03*
X126505000Y-89480000D03*
X129450000Y-141810000D03*
X118470000Y-138846111D03*
X129540000Y-127009722D03*
X135380000Y-95119167D03*
X132430000Y-88686667D03*
X127710000Y-134450000D03*
X131150000Y-103320000D03*
X126505000Y-87740000D03*
X122390000Y-100710000D03*
X132110000Y-93440000D03*
X135270000Y-140329722D03*
X135270000Y-127007222D03*
X128850000Y-103330000D03*
X125157500Y-89480000D03*
X128860000Y-119570000D03*
X135270000Y-137369167D03*
X134570000Y-114100000D03*
X129480000Y-120090000D03*
X132430000Y-90740000D03*
X118470000Y-128484167D03*
X118470000Y-98079722D03*
X127000000Y-106240000D03*
X131150000Y-102090000D03*
X123810000Y-87740000D03*
X135270000Y-125526944D03*
X121290000Y-96200000D03*
X135270000Y-124046666D03*
X132110000Y-95100000D03*
X127852500Y-87740000D03*
X118470000Y-127003889D03*
X135380000Y-98079722D03*
X129200000Y-87740000D03*
X121270000Y-93290000D03*
X118470000Y-137365834D03*
%TO.N,+3.3V*%
X132370000Y-121953000D03*
X132850000Y-114060000D03*
%TO.N,VDD*%
X126510000Y-91610000D03*
X124713333Y-91610000D03*
X129205000Y-91610000D03*
X125611667Y-91610000D03*
X127408333Y-91610000D03*
X128306667Y-91610000D03*
X123815000Y-91610000D03*
%TO.N,+5V*%
X128590000Y-101020000D03*
%TO.N,/Tx*%
X119860000Y-116110000D03*
%TO.N,/Rx*%
X120460000Y-116600000D03*
%TD*%
D31*
%TO.N,GND*%
X126920000Y-124372500D02*
X126920000Y-131810000D01*
X126920000Y-131810000D02*
X126850000Y-131880000D01*
D32*
%TO.N,/CAN_P*%
X121920000Y-131880000D02*
X121769999Y-131880000D01*
D31*
X125220000Y-124387500D02*
X125967500Y-125135000D01*
X122700000Y-131880000D02*
X121920000Y-131880000D01*
X125967500Y-128612500D02*
X122700000Y-131880000D01*
X126280000Y-119537500D02*
X126280000Y-117492500D01*
X125967500Y-126380000D02*
X125967500Y-128612500D01*
X125220000Y-124387500D02*
X125220000Y-120597500D01*
X125220000Y-120597500D02*
X126280000Y-119537500D01*
X125967500Y-125135000D02*
X125967500Y-126332500D01*
%TO.N,/CAN_N*%
X127867500Y-125120000D02*
X127867500Y-128610000D01*
X128620000Y-120607500D02*
X127550000Y-119537500D01*
X128620000Y-124367500D02*
X128620000Y-120607500D01*
X131137500Y-131880000D02*
X131929999Y-131880000D01*
X128620000Y-124367500D02*
X127867500Y-125120000D01*
X127550000Y-119537500D02*
X127550000Y-117492500D01*
X127867500Y-128610000D02*
X131137500Y-131880000D01*
%TO.N,/Vref*%
X126920000Y-116300000D02*
X126920000Y-122822500D01*
X126920000Y-121402500D02*
X126910000Y-121392500D01*
X127220000Y-116000000D02*
X126920000Y-116300000D01*
X128820000Y-116300000D02*
X128520000Y-116000000D01*
X128520000Y-116000000D02*
X127220000Y-116000000D01*
X128820000Y-117492500D02*
X128820000Y-116300000D01*
X126910000Y-121392500D02*
X126150000Y-121392500D01*
X127680000Y-121392500D02*
X126910000Y-121392500D01*
%TO.N,+3.3V*%
X129740000Y-107000000D02*
X124740000Y-107000000D01*
D32*
X132850000Y-114060000D02*
X132850000Y-115285000D01*
X132370000Y-121953000D02*
X134030000Y-120293000D01*
X132815001Y-115250001D02*
X132850000Y-115285000D01*
D31*
X131130000Y-115250001D02*
X131130000Y-108390000D01*
X128690001Y-115250001D02*
X127550000Y-114110000D01*
D32*
X134030000Y-115750000D02*
X133565000Y-115285000D01*
X132493000Y-121953000D02*
X132500000Y-121960000D01*
X133565000Y-115285000D02*
X132850000Y-115285000D01*
D31*
X131130000Y-115250001D02*
X128690001Y-115250001D01*
D32*
X132370000Y-121953000D02*
X132493000Y-121953000D01*
X134030000Y-120293000D02*
X134030000Y-115750000D01*
D31*
X131130000Y-108390000D02*
X129740000Y-107000000D01*
D33*
X127550000Y-112542500D02*
X127550000Y-113030000D01*
D31*
X131130000Y-115250001D02*
X132815001Y-115250001D01*
X127550000Y-114110000D02*
X127550000Y-112542500D01*
D33*
%TO.N,VDD*%
X125827502Y-94852499D02*
X125820000Y-94860001D01*
%TO.N,+5V*%
X128580000Y-101010000D02*
X125900000Y-101010000D01*
X125900000Y-98900000D02*
X125740000Y-98740000D01*
X125740000Y-98740000D02*
X124740000Y-98740000D01*
X125900000Y-101010000D02*
X125900000Y-98900000D01*
X128590000Y-101020000D02*
X128580000Y-101010000D01*
%TO.N,Net-(U7-BP)*%
X127500000Y-103435000D02*
X127520000Y-103455000D01*
X125900000Y-103450000D02*
X125915000Y-103435000D01*
X125915000Y-103435000D02*
X127500000Y-103435000D01*
D32*
%TO.N,Net-(U9-D)*%
X125010000Y-110455000D02*
X125000000Y-110445000D01*
X125010000Y-112542500D02*
X125010000Y-110455000D01*
D33*
%TO.N,/Tx*%
X122410000Y-112880000D02*
X122410000Y-111385000D01*
X122410000Y-111385000D02*
X125000000Y-108795000D01*
X119860000Y-115430000D02*
X122410000Y-112880000D01*
X119860000Y-116110000D02*
X119860000Y-115430000D01*
%TO.N,/Rx*%
X120460000Y-115350000D02*
X122740000Y-113070000D01*
X122740000Y-111551292D02*
X124671292Y-109620000D01*
X127985000Y-109620000D02*
X128810000Y-108795000D01*
X120460000Y-116600000D02*
X120460000Y-115350000D01*
X122740000Y-113070000D02*
X122740000Y-111551292D01*
X124671292Y-109620000D02*
X127985000Y-109620000D01*
D32*
%TO.N,Net-(U9-R)*%
X128820000Y-110455000D02*
X128810000Y-110445000D01*
X128820000Y-112542500D02*
X128820000Y-110455000D01*
D33*
%TO.N,Net-(U9-Rs)*%
X125007500Y-117495000D02*
X125010000Y-117492500D01*
X123070000Y-117500000D02*
X123075000Y-117495000D01*
X123075000Y-117495000D02*
X125007500Y-117495000D01*
%TO.N,Net-(D4-PadA)*%
X127810000Y-98630000D02*
X127920000Y-98740000D01*
%TD*%
%TA.AperFunction,Conductor*%
%TO.N,VDD*%
G36*
X129895677Y-90589685D02*
G01*
X129916319Y-90606319D01*
X130093681Y-90783681D01*
X130127166Y-90845004D01*
X130130000Y-90871362D01*
X130130000Y-92268638D01*
X130121355Y-92298078D01*
X130114832Y-92328065D01*
X130111077Y-92333080D01*
X130110315Y-92335677D01*
X130093681Y-92356319D01*
X129946319Y-92503681D01*
X129884996Y-92537166D01*
X129858638Y-92540000D01*
X128989999Y-92540000D01*
X128730000Y-92799999D01*
X128730000Y-95298638D01*
X128721355Y-95328078D01*
X128714832Y-95358065D01*
X128711077Y-95363080D01*
X128710315Y-95365677D01*
X128693681Y-95386319D01*
X128536319Y-95543681D01*
X128474996Y-95577166D01*
X128448638Y-95580000D01*
X125051362Y-95580000D01*
X124984323Y-95560315D01*
X124963681Y-95543681D01*
X124896319Y-95476319D01*
X124862834Y-95414996D01*
X124860000Y-95388638D01*
X124860000Y-92800000D01*
X124600000Y-92540000D01*
X123351362Y-92540000D01*
X123284323Y-92520315D01*
X123263681Y-92503681D01*
X123026319Y-92266319D01*
X122992834Y-92204996D01*
X122990000Y-92178638D01*
X122990000Y-90921362D01*
X123009685Y-90854323D01*
X123026319Y-90833681D01*
X123253681Y-90606319D01*
X123315004Y-90572834D01*
X123341362Y-90570000D01*
X129828638Y-90570000D01*
X129895677Y-90589685D01*
G37*
%TD.AperFunction*%
%TD*%
%TA.AperFunction,Conductor*%
%TO.N,+5V*%
G36*
X125395677Y-97609685D02*
G01*
X125416319Y-97626319D01*
X125573681Y-97783681D01*
X125607166Y-97845004D01*
X125610000Y-97871362D01*
X125610000Y-99658638D01*
X125601355Y-99688078D01*
X125594832Y-99718065D01*
X125591077Y-99723080D01*
X125590315Y-99725677D01*
X125573681Y-99746319D01*
X125426319Y-99893681D01*
X125364996Y-99927166D01*
X125338638Y-99930000D01*
X124609999Y-99930000D01*
X124500000Y-100039999D01*
X124500000Y-100241575D01*
X124480315Y-100308614D01*
X124479102Y-100310466D01*
X124438465Y-100371282D01*
X124438463Y-100371285D01*
X124424500Y-100441486D01*
X124424500Y-101578507D01*
X124427147Y-101591811D01*
X124420918Y-101661403D01*
X124378054Y-101716579D01*
X124312163Y-101739822D01*
X124305529Y-101740000D01*
X123675674Y-101740000D01*
X123672088Y-101738947D01*
X123668450Y-101739789D01*
X123638821Y-101729178D01*
X123608635Y-101720315D01*
X123605164Y-101717125D01*
X123602671Y-101716233D01*
X123577389Y-101691605D01*
X123556567Y-101664537D01*
X123531295Y-101599398D01*
X123530852Y-101589028D01*
X123529859Y-100308990D01*
X123460786Y-100241575D01*
X123336222Y-100120000D01*
X123336221Y-100120000D01*
X121980000Y-100120000D01*
X122090000Y-100010000D01*
X122090000Y-98240000D01*
X123710000Y-98240000D01*
X123880000Y-98070000D01*
X123880000Y-97851362D01*
X123888644Y-97821921D01*
X123895168Y-97791935D01*
X123898922Y-97786919D01*
X123899685Y-97784323D01*
X123916319Y-97763681D01*
X124053681Y-97626319D01*
X124115004Y-97592834D01*
X124141362Y-97590000D01*
X125328638Y-97590000D01*
X125395677Y-97609685D01*
G37*
%TD.AperFunction*%
%TD*%
%TA.AperFunction,Conductor*%
%TO.N,+5V*%
G36*
X122090000Y-100010000D02*
G01*
X121980000Y-100120000D01*
X121269999Y-100120000D01*
X121170000Y-100219999D01*
X121170000Y-105108638D01*
X121161355Y-105138078D01*
X121154832Y-105168065D01*
X121151077Y-105173080D01*
X121150315Y-105175677D01*
X121133681Y-105196319D01*
X121066319Y-105263681D01*
X121004996Y-105297166D01*
X120978638Y-105300000D01*
X119101362Y-105300000D01*
X119034323Y-105280315D01*
X119013681Y-105263681D01*
X118966319Y-105216319D01*
X118932834Y-105154996D01*
X118930000Y-105128638D01*
X118930000Y-103551362D01*
X118938644Y-103521921D01*
X118945168Y-103491935D01*
X118948922Y-103486919D01*
X118949685Y-103484323D01*
X118966319Y-103463681D01*
X119003681Y-103426319D01*
X119065004Y-103392834D01*
X119091362Y-103390000D01*
X119470000Y-103390000D01*
X119610000Y-103250000D01*
X119610000Y-98601362D01*
X119629685Y-98534323D01*
X119646319Y-98513681D01*
X119883681Y-98276319D01*
X119945004Y-98242834D01*
X119971362Y-98240000D01*
X122090000Y-98240000D01*
X122090000Y-100010000D01*
G37*
%TD.AperFunction*%
%TD*%
%TA.AperFunction,Conductor*%
%TO.N,Net-(D4-PadA)*%
G36*
X128435677Y-96239685D02*
G01*
X128456319Y-96256319D01*
X128513681Y-96313681D01*
X128547166Y-96375004D01*
X128550000Y-96401362D01*
X128550000Y-99238638D01*
X128541355Y-99268078D01*
X128534832Y-99298065D01*
X128531077Y-99303080D01*
X128530315Y-99305677D01*
X128513681Y-99326319D01*
X128456318Y-99383682D01*
X128394995Y-99417167D01*
X128368637Y-99420001D01*
X126391363Y-99420001D01*
X126324324Y-99400316D01*
X126303681Y-99383681D01*
X126256318Y-99336317D01*
X126222834Y-99274994D01*
X126220000Y-99248637D01*
X126220000Y-98281362D01*
X126228644Y-98251921D01*
X126235168Y-98221935D01*
X126238922Y-98216919D01*
X126239685Y-98214323D01*
X126256319Y-98193681D01*
X126303681Y-98146319D01*
X126365004Y-98112834D01*
X126391362Y-98110000D01*
X126970000Y-98110000D01*
X127070000Y-98010000D01*
X127070000Y-96421362D01*
X127078644Y-96391921D01*
X127085168Y-96361935D01*
X127088922Y-96356919D01*
X127089685Y-96354323D01*
X127106319Y-96333681D01*
X127183681Y-96256319D01*
X127245004Y-96222834D01*
X127271362Y-96220000D01*
X128368638Y-96220000D01*
X128435677Y-96239685D01*
G37*
%TD.AperFunction*%
%TD*%
%TA.AperFunction,Conductor*%
%TO.N,+3.3V*%
G36*
X124535677Y-102589685D02*
G01*
X124556319Y-102606319D01*
X124753681Y-102803681D01*
X124787166Y-102865004D01*
X124790000Y-102891362D01*
X124790000Y-107418638D01*
X124770315Y-107485677D01*
X124753681Y-107506319D01*
X124386319Y-107873681D01*
X124324996Y-107907166D01*
X124298638Y-107910000D01*
X122119999Y-107910000D01*
X121856319Y-108173681D01*
X121794996Y-108207166D01*
X121768638Y-108210000D01*
X119181362Y-108210000D01*
X119151921Y-108201355D01*
X119121935Y-108194832D01*
X119116919Y-108191077D01*
X119114323Y-108190315D01*
X119093681Y-108173681D01*
X118966319Y-108046319D01*
X118932834Y-107984996D01*
X118930000Y-107958638D01*
X118930000Y-105951362D01*
X118949685Y-105884323D01*
X118966319Y-105863681D01*
X119113681Y-105716319D01*
X119175004Y-105682834D01*
X119201362Y-105680000D01*
X121770000Y-105680000D01*
X122070000Y-105380000D01*
X122070000Y-102891362D01*
X122089685Y-102824323D01*
X122106319Y-102803681D01*
X122303681Y-102606319D01*
X122365004Y-102572834D01*
X122391362Y-102570000D01*
X124468638Y-102570000D01*
X124535677Y-102589685D01*
G37*
%TD.AperFunction*%
%TD*%
%TA.AperFunction,Conductor*%
%TO.N,GND*%
G36*
X131352539Y-86649685D02*
G01*
X131398294Y-86702489D01*
X131409500Y-86754000D01*
X131409500Y-87280207D01*
X131409793Y-87280500D01*
X131420000Y-87280500D01*
X131420000Y-87440000D01*
X122240000Y-87440000D01*
X122240000Y-87291859D01*
X122249694Y-87282149D01*
X122250500Y-87280206D01*
X122250500Y-86754000D01*
X122270185Y-86686961D01*
X122322989Y-86641206D01*
X122374500Y-86630000D01*
X131285500Y-86630000D01*
X131352539Y-86649685D01*
G37*
%TD.AperFunction*%
%TD*%
%TA.AperFunction,Conductor*%
%TO.N,GND*%
G36*
X136443063Y-87300185D02*
G01*
X136488818Y-87352989D01*
X136500024Y-87404478D01*
X136500701Y-91173465D01*
X136481028Y-91240508D01*
X136459416Y-91259241D01*
X136462234Y-91262059D01*
X136444500Y-91279792D01*
X136444500Y-138280207D01*
X136462234Y-138297941D01*
X136461475Y-138298699D01*
X136487051Y-138319309D01*
X136509116Y-138385604D01*
X136509195Y-138390008D01*
X136509874Y-142155478D01*
X136490202Y-142222521D01*
X136437406Y-142268285D01*
X136385874Y-142279500D01*
X135499792Y-142279500D01*
X135499500Y-142279792D01*
X135499500Y-142734239D01*
X135479815Y-142801278D01*
X135427011Y-142847033D01*
X135375308Y-142858239D01*
X118464308Y-142832006D01*
X118397299Y-142812217D01*
X118351626Y-142759342D01*
X118340500Y-142708006D01*
X118340500Y-142279793D01*
X118340207Y-142279500D01*
X118339793Y-142279500D01*
X118315193Y-142279500D01*
X118315068Y-142279525D01*
X117294121Y-142279525D01*
X117227082Y-142259840D01*
X117181327Y-142207036D01*
X117170121Y-142155503D01*
X117170800Y-138385842D01*
X117190497Y-138318806D01*
X117210944Y-138301094D01*
X117207766Y-138297916D01*
X117225206Y-138280475D01*
X117225207Y-138280475D01*
X117225500Y-138280182D01*
X117225500Y-117263475D01*
X122534500Y-117263475D01*
X122534500Y-117726517D01*
X122541466Y-117770500D01*
X122549354Y-117820304D01*
X122606950Y-117933342D01*
X122606952Y-117933344D01*
X122606954Y-117933347D01*
X122696652Y-118023045D01*
X122696654Y-118023046D01*
X122696658Y-118023050D01*
X122809694Y-118080645D01*
X122809698Y-118080647D01*
X122903475Y-118095499D01*
X122903481Y-118095500D01*
X123516518Y-118095499D01*
X123610304Y-118080646D01*
X123723342Y-118023050D01*
X123813050Y-117933342D01*
X123844592Y-117871436D01*
X123861526Y-117838204D01*
X123909500Y-117787409D01*
X123972010Y-117770500D01*
X124385500Y-117770500D01*
X124452539Y-117790185D01*
X124498294Y-117842989D01*
X124509500Y-117894500D01*
X124509500Y-118350760D01*
X124519426Y-118418891D01*
X124570803Y-118523985D01*
X124653514Y-118606696D01*
X124653515Y-118606696D01*
X124653517Y-118606698D01*
X124758607Y-118658073D01*
X124790254Y-118662684D01*
X124826739Y-118668000D01*
X124826740Y-118668000D01*
X125193261Y-118668000D01*
X125215971Y-118664691D01*
X125261393Y-118658073D01*
X125366483Y-118606698D01*
X125449198Y-118523983D01*
X125500573Y-118418893D01*
X125510500Y-118350760D01*
X125510500Y-116634240D01*
X125500573Y-116566107D01*
X125449198Y-116461017D01*
X125449196Y-116461015D01*
X125449196Y-116461014D01*
X125366485Y-116378303D01*
X125261391Y-116326926D01*
X125193261Y-116317000D01*
X125193260Y-116317000D01*
X124826740Y-116317000D01*
X124826739Y-116317000D01*
X124758608Y-116326926D01*
X124653514Y-116378303D01*
X124570803Y-116461014D01*
X124519426Y-116566108D01*
X124509500Y-116634239D01*
X124509500Y-117095500D01*
X124489815Y-117162539D01*
X124437011Y-117208294D01*
X124385500Y-117219500D01*
X123972010Y-117219500D01*
X123904971Y-117199815D01*
X123861526Y-117151796D01*
X123832841Y-117095500D01*
X123813050Y-117056658D01*
X123813047Y-117056655D01*
X123813045Y-117056652D01*
X123723347Y-116966954D01*
X123723344Y-116966952D01*
X123723342Y-116966950D01*
X123646517Y-116927805D01*
X123610301Y-116909352D01*
X123516524Y-116894500D01*
X122903482Y-116894500D01*
X122822519Y-116907323D01*
X122809696Y-116909354D01*
X122696658Y-116966950D01*
X122696657Y-116966951D01*
X122696652Y-116966954D01*
X122606954Y-117056652D01*
X122606951Y-117056657D01*
X122606950Y-117056658D01*
X122587751Y-117094337D01*
X122549352Y-117169698D01*
X122534500Y-117263475D01*
X117225500Y-117263475D01*
X117225500Y-111856530D01*
X119009500Y-111856530D01*
X119009500Y-112063469D01*
X119049868Y-112266412D01*
X119049870Y-112266420D01*
X119129058Y-112457596D01*
X119244024Y-112629657D01*
X119390342Y-112775975D01*
X119390345Y-112775977D01*
X119562402Y-112890941D01*
X119753580Y-112970130D01*
X119956530Y-113010499D01*
X119956534Y-113010500D01*
X119956535Y-113010500D01*
X120163466Y-113010500D01*
X120163467Y-113010499D01*
X120366420Y-112970130D01*
X120557598Y-112890941D01*
X120729655Y-112775977D01*
X120875977Y-112629655D01*
X120990941Y-112457598D01*
X121070130Y-112266420D01*
X121110500Y-112063465D01*
X121110500Y-111856535D01*
X121070130Y-111653580D01*
X120990941Y-111462402D01*
X120875977Y-111290345D01*
X120875975Y-111290342D01*
X120729657Y-111144024D01*
X120561977Y-111031985D01*
X120557598Y-111029059D01*
X120366420Y-110949870D01*
X120366412Y-110949868D01*
X120163469Y-110909500D01*
X120163465Y-110909500D01*
X119956535Y-110909500D01*
X119956530Y-110909500D01*
X119753587Y-110949868D01*
X119753579Y-110949870D01*
X119562403Y-111029058D01*
X119390342Y-111144024D01*
X119244024Y-111290342D01*
X119129058Y-111462403D01*
X119049870Y-111653579D01*
X119049868Y-111653587D01*
X119009500Y-111856530D01*
X117225500Y-111856530D01*
X117225500Y-103551362D01*
X118724500Y-103551362D01*
X118724500Y-103557516D01*
X118724500Y-105128638D01*
X118725678Y-105150618D01*
X118728511Y-105176965D01*
X118728512Y-105176967D01*
X118752470Y-105253478D01*
X118752471Y-105253483D01*
X118763106Y-105272958D01*
X118785956Y-105314805D01*
X118785958Y-105314808D01*
X118785960Y-105314811D01*
X118820998Y-105361615D01*
X118821001Y-105361619D01*
X118821009Y-105361629D01*
X118821017Y-105361637D01*
X118868365Y-105408986D01*
X118868366Y-105408987D01*
X118884716Y-105423674D01*
X118884730Y-105423686D01*
X118884738Y-105423693D01*
X118899608Y-105435675D01*
X118905139Y-105440133D01*
X118944987Y-105497526D01*
X118947480Y-105567352D01*
X118915014Y-105624365D01*
X118821004Y-105718375D01*
X118806325Y-105734716D01*
X118806313Y-105734730D01*
X118789672Y-105755379D01*
X118752509Y-105826424D01*
X118732826Y-105893456D01*
X118732825Y-105893464D01*
X118724832Y-105949059D01*
X118724500Y-105951365D01*
X118724500Y-107958638D01*
X118725678Y-107980618D01*
X118728511Y-108006965D01*
X118728512Y-108006967D01*
X118752470Y-108083478D01*
X118752471Y-108083483D01*
X118766872Y-108109855D01*
X118785956Y-108144805D01*
X118785958Y-108144808D01*
X118785960Y-108144811D01*
X118820998Y-108191615D01*
X118821002Y-108191619D01*
X118821009Y-108191629D01*
X118893739Y-108264359D01*
X118948379Y-108318999D01*
X118959669Y-108329141D01*
X118959695Y-108329163D01*
X118964738Y-108333693D01*
X118985380Y-108350327D01*
X118985387Y-108350330D01*
X118990477Y-108353667D01*
X118990320Y-108353905D01*
X118997884Y-108358670D01*
X118998782Y-108359342D01*
X119029013Y-108373148D01*
X119056445Y-108387496D01*
X119059041Y-108388258D01*
X119059402Y-108387026D01*
X119078253Y-108395636D01*
X119096762Y-108399662D01*
X119105310Y-108401844D01*
X119123464Y-108407175D01*
X119181362Y-108415500D01*
X119279505Y-108415500D01*
X119346544Y-108435185D01*
X119392299Y-108487989D01*
X119402243Y-108557147D01*
X119373218Y-108620703D01*
X119367186Y-108627181D01*
X119244025Y-108750341D01*
X119244024Y-108750342D01*
X119129058Y-108922403D01*
X119049870Y-109113579D01*
X119049868Y-109113587D01*
X119009500Y-109316530D01*
X119009500Y-109523469D01*
X119049868Y-109726412D01*
X119049870Y-109726420D01*
X119129058Y-109917596D01*
X119244024Y-110089657D01*
X119390342Y-110235975D01*
X119390345Y-110235977D01*
X119562402Y-110350941D01*
X119753580Y-110430130D01*
X119956530Y-110470499D01*
X119956534Y-110470500D01*
X119956535Y-110470500D01*
X120163466Y-110470500D01*
X120163467Y-110470499D01*
X120366420Y-110430130D01*
X120557598Y-110350941D01*
X120729655Y-110235977D01*
X120875977Y-110089655D01*
X120990941Y-109917598D01*
X121070130Y-109726420D01*
X121110500Y-109523465D01*
X121110500Y-109316535D01*
X121070130Y-109113580D01*
X120990941Y-108922402D01*
X120875977Y-108750345D01*
X120875975Y-108750342D01*
X120752814Y-108627181D01*
X120719329Y-108565858D01*
X120724313Y-108496166D01*
X120766185Y-108440233D01*
X120831649Y-108415816D01*
X120840495Y-108415500D01*
X121768639Y-108415500D01*
X121771180Y-108415363D01*
X121790607Y-108414322D01*
X121790614Y-108414321D01*
X121790618Y-108414321D01*
X121816965Y-108411488D01*
X121893482Y-108387529D01*
X121954805Y-108354044D01*
X122001630Y-108318991D01*
X122168802Y-108151817D01*
X122230123Y-108118334D01*
X122256482Y-108115500D01*
X124298639Y-108115500D01*
X124299883Y-108115433D01*
X124320607Y-108114322D01*
X124328182Y-108113507D01*
X124396941Y-108125905D01*
X124448084Y-108173510D01*
X124465370Y-108241207D01*
X124443313Y-108307504D01*
X124429131Y-108324475D01*
X124396954Y-108356652D01*
X124396951Y-108356657D01*
X124396950Y-108356658D01*
X124390407Y-108369500D01*
X124339352Y-108469698D01*
X124324500Y-108563475D01*
X124324500Y-109029520D01*
X124304815Y-109096559D01*
X124288181Y-109117201D01*
X122253942Y-111151443D01*
X122176444Y-111228940D01*
X122134500Y-111330199D01*
X122134500Y-112714522D01*
X122114815Y-112781561D01*
X122098181Y-112802203D01*
X119703942Y-115196443D01*
X119626444Y-115273940D01*
X119584500Y-115375199D01*
X119584500Y-115541007D01*
X119576365Y-115585180D01*
X119450714Y-115914760D01*
X119447184Y-115924017D01*
X119440201Y-115936114D01*
X119434590Y-115957048D01*
X119432327Y-115962986D01*
X119432325Y-115962995D01*
X119427694Y-115975142D01*
X119422365Y-115991047D01*
X119421834Y-115992875D01*
X119420404Y-115998053D01*
X119419298Y-116005339D01*
X119419242Y-116005330D01*
X119416267Y-116025435D01*
X119409500Y-116050691D01*
X119409500Y-116169309D01*
X119440201Y-116283886D01*
X119499511Y-116386613D01*
X119583387Y-116470489D01*
X119686114Y-116529799D01*
X119800691Y-116560500D01*
X119800694Y-116560500D01*
X119887876Y-116560500D01*
X119954915Y-116580185D01*
X120000670Y-116632989D01*
X120007651Y-116652406D01*
X120009500Y-116659306D01*
X120009500Y-116659309D01*
X120040201Y-116773886D01*
X120099511Y-116876613D01*
X120183387Y-116960489D01*
X120286114Y-117019799D01*
X120400691Y-117050500D01*
X120400694Y-117050500D01*
X120519306Y-117050500D01*
X120519309Y-117050500D01*
X120633886Y-117019799D01*
X120736613Y-116960489D01*
X120820489Y-116876613D01*
X120879799Y-116773886D01*
X120910500Y-116659309D01*
X120910500Y-116540691D01*
X120895823Y-116485919D01*
X120892300Y-116465132D01*
X120885414Y-116447071D01*
X120879799Y-116426114D01*
X120877758Y-116422579D01*
X120869281Y-116404753D01*
X120743635Y-116075180D01*
X120735500Y-116031008D01*
X120735500Y-115515477D01*
X120755185Y-115448438D01*
X120771819Y-115427796D01*
X121863003Y-114336612D01*
X122973557Y-113226058D01*
X123015500Y-113124800D01*
X123015500Y-111716769D01*
X123035185Y-111649730D01*
X123051819Y-111629088D01*
X123561899Y-111119008D01*
X124112821Y-110568085D01*
X124174142Y-110534602D01*
X124243834Y-110539586D01*
X124299767Y-110581458D01*
X124324184Y-110646922D01*
X124324500Y-110655763D01*
X124324500Y-110676516D01*
X124334649Y-110740596D01*
X124339354Y-110770304D01*
X124396950Y-110883342D01*
X124396952Y-110883344D01*
X124396954Y-110883347D01*
X124486652Y-110973045D01*
X124486654Y-110973046D01*
X124486658Y-110973050D01*
X124599696Y-111030646D01*
X124604893Y-111031469D01*
X124635679Y-111046062D01*
X124666703Y-111060230D01*
X124667199Y-111061002D01*
X124668029Y-111061396D01*
X124686049Y-111090334D01*
X124704477Y-111119008D01*
X124704648Y-111120201D01*
X124704963Y-111120706D01*
X124709500Y-111153943D01*
X124709500Y-111324502D01*
X124689815Y-111391541D01*
X124657555Y-111425418D01*
X124653516Y-111428301D01*
X124570803Y-111511014D01*
X124519426Y-111616108D01*
X124509500Y-111684239D01*
X124509500Y-113400760D01*
X124519426Y-113468891D01*
X124570803Y-113573985D01*
X124653514Y-113656696D01*
X124653515Y-113656696D01*
X124653517Y-113656698D01*
X124758607Y-113708073D01*
X124790254Y-113712684D01*
X124826739Y-113718000D01*
X124826740Y-113718000D01*
X125193261Y-113718000D01*
X125215971Y-113714691D01*
X125261393Y-113708073D01*
X125366483Y-113656698D01*
X125449198Y-113573983D01*
X125500573Y-113468893D01*
X125510500Y-113400760D01*
X125510500Y-111684240D01*
X125500573Y-111616107D01*
X125449198Y-111511017D01*
X125449196Y-111511015D01*
X125449196Y-111511014D01*
X125366483Y-111428301D01*
X125362445Y-111425418D01*
X125358747Y-111420704D01*
X125353297Y-111418215D01*
X125337431Y-111393528D01*
X125319324Y-111370442D01*
X125317929Y-111363181D01*
X125315523Y-111359437D01*
X125310500Y-111324502D01*
X125310500Y-111149916D01*
X125330185Y-111082877D01*
X125382989Y-111037122D01*
X125396181Y-111031985D01*
X125400296Y-111030647D01*
X125400304Y-111030646D01*
X125513342Y-110973050D01*
X125603050Y-110883342D01*
X125660646Y-110770304D01*
X125660646Y-110770302D01*
X125660647Y-110770301D01*
X125675499Y-110676524D01*
X125675500Y-110676519D01*
X125675499Y-110213482D01*
X125660646Y-110119696D01*
X125638276Y-110075793D01*
X125625380Y-110007127D01*
X125651656Y-109942386D01*
X125708762Y-109902128D01*
X125748761Y-109895500D01*
X128052013Y-109895500D01*
X128052013Y-109897087D01*
X128107677Y-109902068D01*
X128162855Y-109944930D01*
X128186100Y-110010819D01*
X128172763Y-110073752D01*
X128149353Y-110119695D01*
X128149352Y-110119698D01*
X128134500Y-110213475D01*
X128134500Y-110676517D01*
X128145292Y-110744657D01*
X128149354Y-110770304D01*
X128206950Y-110883342D01*
X128206952Y-110883344D01*
X128206954Y-110883347D01*
X128296652Y-110973045D01*
X128296654Y-110973046D01*
X128296658Y-110973050D01*
X128409696Y-111030646D01*
X128414893Y-111031469D01*
X128445679Y-111046062D01*
X128476703Y-111060230D01*
X128477199Y-111061002D01*
X128478029Y-111061396D01*
X128496049Y-111090334D01*
X128514477Y-111119008D01*
X128514648Y-111120201D01*
X128514963Y-111120706D01*
X128519500Y-111153943D01*
X128519500Y-111324502D01*
X128499815Y-111391541D01*
X128467555Y-111425418D01*
X128463516Y-111428301D01*
X128380803Y-111511014D01*
X128329426Y-111616108D01*
X128319500Y-111684239D01*
X128319500Y-113400760D01*
X128329426Y-113468891D01*
X128380803Y-113573985D01*
X128463514Y-113656696D01*
X128463515Y-113656696D01*
X128463517Y-113656698D01*
X128568607Y-113708073D01*
X128600254Y-113712684D01*
X128636739Y-113718000D01*
X128636740Y-113718000D01*
X129003261Y-113718000D01*
X129025971Y-113714691D01*
X129071393Y-113708073D01*
X129176483Y-113656698D01*
X129259198Y-113573983D01*
X129310573Y-113468893D01*
X129320500Y-113400760D01*
X129320500Y-111684240D01*
X129310573Y-111616107D01*
X129259198Y-111511017D01*
X129259196Y-111511015D01*
X129259196Y-111511014D01*
X129176483Y-111428301D01*
X129172445Y-111425418D01*
X129168747Y-111420704D01*
X129163297Y-111418215D01*
X129147431Y-111393528D01*
X129129324Y-111370442D01*
X129127929Y-111363181D01*
X129125523Y-111359437D01*
X129120500Y-111324502D01*
X129120500Y-111149916D01*
X129140185Y-111082877D01*
X129192989Y-111037122D01*
X129206181Y-111031985D01*
X129210296Y-111030647D01*
X129210304Y-111030646D01*
X129323342Y-110973050D01*
X129413050Y-110883342D01*
X129470646Y-110770304D01*
X129470646Y-110770302D01*
X129470647Y-110770301D01*
X129485499Y-110676524D01*
X129485500Y-110676519D01*
X129485499Y-110213482D01*
X129470646Y-110119696D01*
X129413050Y-110006658D01*
X129413046Y-110006654D01*
X129413045Y-110006652D01*
X129323347Y-109916954D01*
X129323344Y-109916952D01*
X129323342Y-109916950D01*
X129246517Y-109877805D01*
X129210301Y-109859352D01*
X129116524Y-109844500D01*
X128503481Y-109844500D01*
X128460544Y-109851301D01*
X128391251Y-109842345D01*
X128337800Y-109797348D01*
X128317161Y-109730596D01*
X128335887Y-109663282D01*
X128353463Y-109641150D01*
X128562796Y-109431818D01*
X128624119Y-109398333D01*
X128650477Y-109395499D01*
X129116517Y-109395499D01*
X129116518Y-109395499D01*
X129210304Y-109380646D01*
X129323342Y-109323050D01*
X129413050Y-109233342D01*
X129470646Y-109120304D01*
X129470646Y-109120302D01*
X129470647Y-109120301D01*
X129485499Y-109026524D01*
X129485500Y-109026519D01*
X129485499Y-108563482D01*
X129470646Y-108469696D01*
X129413050Y-108356658D01*
X129413046Y-108356654D01*
X129413045Y-108356652D01*
X129323347Y-108266954D01*
X129323344Y-108266952D01*
X129323342Y-108266950D01*
X129246517Y-108227805D01*
X129210301Y-108209352D01*
X129116524Y-108194500D01*
X128503482Y-108194500D01*
X128422519Y-108207323D01*
X128409696Y-108209354D01*
X128296658Y-108266950D01*
X128296657Y-108266951D01*
X128296652Y-108266954D01*
X128206954Y-108356652D01*
X128206951Y-108356657D01*
X128206950Y-108356658D01*
X128200407Y-108369500D01*
X128149352Y-108469698D01*
X128134500Y-108563475D01*
X128134500Y-109029519D01*
X128114815Y-109096558D01*
X128098182Y-109117200D01*
X127907204Y-109308181D01*
X127845881Y-109341666D01*
X127819522Y-109344500D01*
X125748762Y-109344500D01*
X125681723Y-109324815D01*
X125635968Y-109272011D01*
X125626024Y-109202853D01*
X125638277Y-109164205D01*
X125660646Y-109120304D01*
X125660646Y-109120302D01*
X125660647Y-109120301D01*
X125675499Y-109026524D01*
X125675500Y-109026519D01*
X125675499Y-108563482D01*
X125660646Y-108469696D01*
X125603050Y-108356658D01*
X125603046Y-108356654D01*
X125603045Y-108356652D01*
X125513347Y-108266954D01*
X125513344Y-108266952D01*
X125513342Y-108266950D01*
X125436517Y-108227805D01*
X125400301Y-108209352D01*
X125306524Y-108194500D01*
X124693481Y-108194500D01*
X124669562Y-108198289D01*
X124600268Y-108189333D01*
X124546817Y-108144335D01*
X124526179Y-108077583D01*
X124544905Y-108010270D01*
X124562477Y-107988142D01*
X124898991Y-107651629D01*
X124913693Y-107635262D01*
X124930327Y-107614620D01*
X124967490Y-107543575D01*
X124987175Y-107476536D01*
X124990668Y-107452239D01*
X124993601Y-107431850D01*
X125022627Y-107368295D01*
X125081406Y-107330522D01*
X125116338Y-107325500D01*
X128055123Y-107325500D01*
X128122162Y-107345185D01*
X128165605Y-107393202D01*
X128208067Y-107476537D01*
X128211473Y-107483221D01*
X128211476Y-107483225D01*
X128306774Y-107578523D01*
X128306778Y-107578526D01*
X128306780Y-107578528D01*
X128426874Y-107639719D01*
X128426876Y-107639719D01*
X128426878Y-107639720D01*
X128526507Y-107655500D01*
X128526512Y-107655500D01*
X129093493Y-107655500D01*
X129193121Y-107639720D01*
X129193121Y-107639719D01*
X129193126Y-107639719D01*
X129313220Y-107578528D01*
X129408528Y-107483220D01*
X129450659Y-107400532D01*
X129498629Y-107349740D01*
X129566450Y-107332944D01*
X129632585Y-107355480D01*
X129648822Y-107369149D01*
X130768181Y-108488508D01*
X130801666Y-108549831D01*
X130804500Y-108576189D01*
X130804500Y-114425501D01*
X130784815Y-114492540D01*
X130732011Y-114538295D01*
X130680500Y-114549501D01*
X130600730Y-114549501D01*
X130570300Y-114552354D01*
X130570298Y-114552354D01*
X130442119Y-114597207D01*
X130442117Y-114597208D01*
X130370206Y-114650281D01*
X130332850Y-114677851D01*
X130252207Y-114787119D01*
X130233193Y-114841457D01*
X130192473Y-114898232D01*
X130127520Y-114923979D01*
X130116153Y-114924501D01*
X128876190Y-114924501D01*
X128809151Y-114904816D01*
X128788509Y-114888182D01*
X127911819Y-114011492D01*
X127897115Y-113984564D01*
X127880523Y-113958746D01*
X127879631Y-113952545D01*
X127878334Y-113950169D01*
X127875500Y-113923811D01*
X127875500Y-113739043D01*
X127895185Y-113672004D01*
X127911814Y-113651366D01*
X127989198Y-113573983D01*
X128040573Y-113468893D01*
X128050500Y-113400760D01*
X128050500Y-111684240D01*
X128040573Y-111616107D01*
X127989198Y-111511017D01*
X127989196Y-111511015D01*
X127989196Y-111511014D01*
X127906485Y-111428303D01*
X127801391Y-111376926D01*
X127733261Y-111367000D01*
X127733260Y-111367000D01*
X127366740Y-111367000D01*
X127366739Y-111367000D01*
X127298608Y-111376926D01*
X127193514Y-111428303D01*
X127110803Y-111511014D01*
X127059426Y-111616108D01*
X127049500Y-111684239D01*
X127049500Y-113400760D01*
X127059426Y-113468891D01*
X127059427Y-113468893D01*
X127110802Y-113573983D01*
X127188182Y-113651363D01*
X127221666Y-113712684D01*
X127224500Y-113739043D01*
X127224500Y-114152852D01*
X127246682Y-114235640D01*
X127268108Y-114272750D01*
X127289535Y-114309862D01*
X127289537Y-114309864D01*
X128442492Y-115462819D01*
X128475977Y-115524142D01*
X128470993Y-115593834D01*
X128429121Y-115649767D01*
X128363657Y-115674184D01*
X128354811Y-115674500D01*
X127177147Y-115674500D01*
X127094359Y-115696682D01*
X127020138Y-115739535D01*
X127020135Y-115739537D01*
X126659537Y-116100135D01*
X126659535Y-116100138D01*
X126616682Y-116174360D01*
X126602673Y-116226645D01*
X126566308Y-116286306D01*
X126503461Y-116316835D01*
X126467738Y-116317227D01*
X126467731Y-116317324D01*
X126466572Y-116317240D01*
X126465027Y-116317257D01*
X126463262Y-116317000D01*
X126463260Y-116317000D01*
X126096740Y-116317000D01*
X126096739Y-116317000D01*
X126028608Y-116326926D01*
X125923514Y-116378303D01*
X125840803Y-116461014D01*
X125789426Y-116566108D01*
X125779500Y-116634239D01*
X125779500Y-118350760D01*
X125789426Y-118418891D01*
X125789427Y-118418893D01*
X125840802Y-118523983D01*
X125918182Y-118601363D01*
X125951666Y-118662684D01*
X125954500Y-118689043D01*
X125954500Y-119018000D01*
X125934815Y-119085039D01*
X125882011Y-119130794D01*
X125830506Y-119142000D01*
X125813484Y-119142000D01*
X125737345Y-119154058D01*
X125719696Y-119156854D01*
X125606658Y-119214450D01*
X125606657Y-119214451D01*
X125606652Y-119214454D01*
X125516954Y-119304152D01*
X125516951Y-119304157D01*
X125459352Y-119417198D01*
X125444500Y-119510975D01*
X125444500Y-119861310D01*
X125424815Y-119928349D01*
X125408181Y-119948991D01*
X124959537Y-120397635D01*
X124959535Y-120397638D01*
X124916682Y-120471860D01*
X124900177Y-120533460D01*
X124894500Y-120554645D01*
X124894500Y-123635170D01*
X124874815Y-123702209D01*
X124826795Y-123745654D01*
X124741780Y-123788972D01*
X124741779Y-123788973D01*
X124741774Y-123788976D01*
X124646476Y-123884274D01*
X124646473Y-123884278D01*
X124646472Y-123884280D01*
X124595470Y-123984378D01*
X124585279Y-124004378D01*
X124569500Y-124104006D01*
X124569500Y-124670993D01*
X124585279Y-124770621D01*
X124585280Y-124770624D01*
X124585281Y-124770626D01*
X124646472Y-124890720D01*
X124646473Y-124890721D01*
X124646476Y-124890725D01*
X124741774Y-124986023D01*
X124741778Y-124986026D01*
X124741780Y-124986028D01*
X124861874Y-125047219D01*
X124861876Y-125047219D01*
X124861878Y-125047220D01*
X124961507Y-125063000D01*
X124961512Y-125063000D01*
X125383812Y-125063000D01*
X125413252Y-125071644D01*
X125443239Y-125078168D01*
X125448254Y-125081922D01*
X125450851Y-125082685D01*
X125471493Y-125099319D01*
X125518978Y-125146804D01*
X125552463Y-125208127D01*
X125547479Y-125277819D01*
X125532216Y-125306536D01*
X125530803Y-125308514D01*
X125479426Y-125413608D01*
X125469500Y-125481739D01*
X125469500Y-126723260D01*
X125479426Y-126791391D01*
X125479427Y-126791393D01*
X125530802Y-126896483D01*
X125605682Y-126971363D01*
X125639166Y-127032684D01*
X125642000Y-127059043D01*
X125642000Y-128426310D01*
X125622315Y-128493349D01*
X125605681Y-128513991D01*
X122697377Y-131422294D01*
X122636054Y-131455779D01*
X122566362Y-131450795D01*
X122553401Y-131445098D01*
X122396400Y-131365101D01*
X122175514Y-131293331D01*
X121946129Y-131257000D01*
X121946124Y-131257000D01*
X121713876Y-131257000D01*
X121713871Y-131257000D01*
X121484485Y-131293331D01*
X121263599Y-131365101D01*
X121056668Y-131470539D01*
X120868773Y-131607053D01*
X120704553Y-131771273D01*
X120568039Y-131959168D01*
X120462601Y-132166099D01*
X120390831Y-132386985D01*
X120354500Y-132616370D01*
X120354500Y-132848629D01*
X120390831Y-133078014D01*
X120462601Y-133298900D01*
X120568039Y-133505831D01*
X120704551Y-133693724D01*
X120868776Y-133857949D01*
X121056669Y-133994461D01*
X121121017Y-134027248D01*
X121263599Y-134099898D01*
X121263601Y-134099898D01*
X121263604Y-134099900D01*
X121484486Y-134171669D01*
X121602668Y-134190386D01*
X121713871Y-134208000D01*
X121713876Y-134208000D01*
X121946129Y-134208000D01*
X122047502Y-134191943D01*
X122175514Y-134171669D01*
X122396396Y-134099900D01*
X122603331Y-133994461D01*
X122791224Y-133857949D01*
X122955449Y-133693724D01*
X123091961Y-133505831D01*
X123197400Y-133298896D01*
X123269169Y-133078014D01*
X123289443Y-132950002D01*
X123305500Y-132848629D01*
X123305500Y-132616370D01*
X123286232Y-132494722D01*
X123269169Y-132386986D01*
X123197400Y-132166104D01*
X123197398Y-132166101D01*
X123197398Y-132166099D01*
X123129214Y-132032282D01*
X123116318Y-131963613D01*
X123142594Y-131898872D01*
X123152009Y-131888315D01*
X126167359Y-128872966D01*
X126167362Y-128872965D01*
X126227965Y-128812362D01*
X126249391Y-128775250D01*
X126270818Y-128738139D01*
X126293000Y-128655353D01*
X126293000Y-128569647D01*
X126293000Y-127064043D01*
X126312685Y-126997004D01*
X126329314Y-126976366D01*
X126409198Y-126896483D01*
X126460573Y-126791393D01*
X126470500Y-126723260D01*
X126470500Y-125481740D01*
X126460573Y-125413607D01*
X126409198Y-125308517D01*
X126409196Y-125308515D01*
X126409196Y-125308514D01*
X126329320Y-125228638D01*
X126297268Y-125173206D01*
X126293001Y-125157363D01*
X126293001Y-125092147D01*
X126270818Y-125009362D01*
X126245799Y-124966028D01*
X126227965Y-124935138D01*
X126167362Y-124874535D01*
X126167361Y-124874534D01*
X126163031Y-124870204D01*
X126163020Y-124870194D01*
X125906819Y-124613992D01*
X125873334Y-124552669D01*
X125870500Y-124526311D01*
X125870500Y-124104006D01*
X125854720Y-124004378D01*
X125854719Y-124004376D01*
X125854719Y-124004374D01*
X125793528Y-123884280D01*
X125793526Y-123884278D01*
X125793523Y-123884274D01*
X125698225Y-123788976D01*
X125698222Y-123788974D01*
X125698220Y-123788972D01*
X125613204Y-123745654D01*
X125562409Y-123697680D01*
X125545500Y-123635170D01*
X125545500Y-122091738D01*
X125565185Y-122024699D01*
X125617989Y-121978944D01*
X125687147Y-121969000D01*
X125710049Y-121976262D01*
X125710417Y-121975131D01*
X125719698Y-121978147D01*
X125813475Y-121992999D01*
X125813481Y-121993000D01*
X126402658Y-121992999D01*
X126469697Y-122012683D01*
X126515452Y-122065487D01*
X126525396Y-122134646D01*
X126496371Y-122198202D01*
X126458954Y-122227483D01*
X126416781Y-122248971D01*
X126416774Y-122248976D01*
X126321476Y-122344274D01*
X126321473Y-122344278D01*
X126260279Y-122464378D01*
X126244500Y-122564006D01*
X126244500Y-123080993D01*
X126260279Y-123180621D01*
X126260280Y-123180624D01*
X126260281Y-123180626D01*
X126321472Y-123300720D01*
X126321473Y-123300721D01*
X126321476Y-123300725D01*
X126416774Y-123396023D01*
X126416778Y-123396026D01*
X126416780Y-123396028D01*
X126536874Y-123457219D01*
X126536876Y-123457219D01*
X126536878Y-123457220D01*
X126636507Y-123473000D01*
X126636512Y-123473000D01*
X127203493Y-123473000D01*
X127303121Y-123457220D01*
X127303121Y-123457219D01*
X127303126Y-123457219D01*
X127423220Y-123396028D01*
X127518528Y-123300720D01*
X127579719Y-123180626D01*
X127579720Y-123180621D01*
X127595500Y-123080993D01*
X127595500Y-122564006D01*
X127579720Y-122464378D01*
X127579719Y-122464376D01*
X127579719Y-122464374D01*
X127518528Y-122344280D01*
X127518526Y-122344278D01*
X127518523Y-122344274D01*
X127423225Y-122248976D01*
X127423221Y-122248973D01*
X127423220Y-122248972D01*
X127385224Y-122229612D01*
X127381046Y-122227483D01*
X127330251Y-122179509D01*
X127313456Y-122111688D01*
X127335994Y-122045553D01*
X127390709Y-122002102D01*
X127437337Y-121992999D01*
X128016518Y-121992999D01*
X128110304Y-121978146D01*
X128114204Y-121976158D01*
X128119454Y-121975172D01*
X128119582Y-121975131D01*
X128119587Y-121975147D01*
X128182870Y-121963261D01*
X128247612Y-121989535D01*
X128287871Y-122046640D01*
X128294500Y-122086642D01*
X128294500Y-123615170D01*
X128274815Y-123682209D01*
X128226795Y-123725654D01*
X128141780Y-123768972D01*
X128141779Y-123768973D01*
X128141774Y-123768976D01*
X128046476Y-123864274D01*
X128046473Y-123864278D01*
X127985279Y-123984378D01*
X127969500Y-124084006D01*
X127969500Y-124506311D01*
X127949815Y-124573350D01*
X127933181Y-124593992D01*
X127607037Y-124920135D01*
X127607035Y-124920138D01*
X127598374Y-124935140D01*
X127564182Y-124994361D01*
X127550019Y-125047219D01*
X127550019Y-125047220D01*
X127550018Y-125047219D01*
X127542000Y-125077145D01*
X127542000Y-125145956D01*
X127522315Y-125212995D01*
X127505681Y-125233637D01*
X127430803Y-125308514D01*
X127379426Y-125413608D01*
X127369500Y-125481739D01*
X127369500Y-126723260D01*
X127379426Y-126791391D01*
X127379427Y-126791393D01*
X127430802Y-126896483D01*
X127505682Y-126971363D01*
X127539166Y-127032684D01*
X127542000Y-127059043D01*
X127542000Y-128567147D01*
X127542000Y-128652853D01*
X127542670Y-128655352D01*
X127564182Y-128735640D01*
X127565625Y-128738139D01*
X127607035Y-128809862D01*
X127607037Y-128809864D01*
X130478181Y-131681008D01*
X130511666Y-131742331D01*
X130514500Y-131768689D01*
X130514500Y-134027252D01*
X130526131Y-134085729D01*
X130526132Y-134085730D01*
X130570447Y-134152052D01*
X130636769Y-134196367D01*
X130636770Y-134196368D01*
X130695247Y-134207999D01*
X130695250Y-134208000D01*
X130695252Y-134208000D01*
X133284750Y-134208000D01*
X133284751Y-134207999D01*
X133299568Y-134205052D01*
X133343229Y-134196368D01*
X133343229Y-134196367D01*
X133343231Y-134196367D01*
X133409552Y-134152052D01*
X133453867Y-134085731D01*
X133453867Y-134085729D01*
X133453868Y-134085729D01*
X133465499Y-134027252D01*
X133465500Y-134027250D01*
X133465500Y-131437749D01*
X133465499Y-131437747D01*
X133453868Y-131379270D01*
X133453867Y-131379269D01*
X133409552Y-131312947D01*
X133343230Y-131268632D01*
X133343229Y-131268631D01*
X133284752Y-131257000D01*
X133284748Y-131257000D01*
X131026189Y-131257000D01*
X130959150Y-131237315D01*
X130938508Y-131220681D01*
X128229319Y-128511492D01*
X128195834Y-128450169D01*
X128193000Y-128423811D01*
X128193000Y-127064043D01*
X128212685Y-126997004D01*
X128229314Y-126976366D01*
X128309198Y-126896483D01*
X128360573Y-126791393D01*
X128370500Y-126723260D01*
X128370500Y-125481740D01*
X128360573Y-125413607D01*
X128309198Y-125308517D01*
X128309195Y-125308514D01*
X128309195Y-125308513D01*
X128303227Y-125300153D01*
X128303306Y-125300096D01*
X128300348Y-125297882D01*
X128291112Y-125273119D01*
X128278450Y-125249930D01*
X128279095Y-125240899D01*
X128275932Y-125232417D01*
X128281548Y-125206596D01*
X128283434Y-125180238D01*
X128289252Y-125171184D01*
X128290784Y-125164144D01*
X128311936Y-125135890D01*
X128368509Y-125079318D01*
X128429832Y-125045834D01*
X128456189Y-125043000D01*
X128878493Y-125043000D01*
X128978121Y-125027220D01*
X128978121Y-125027219D01*
X128978126Y-125027219D01*
X129098220Y-124966028D01*
X129193528Y-124870720D01*
X129254719Y-124750626D01*
X129267332Y-124670993D01*
X129270500Y-124650993D01*
X129270500Y-124084006D01*
X129254720Y-123984378D01*
X129254719Y-123984376D01*
X129254719Y-123984374D01*
X129193528Y-123864280D01*
X129193526Y-123864278D01*
X129193523Y-123864274D01*
X129098225Y-123768976D01*
X129098222Y-123768974D01*
X129098220Y-123768972D01*
X129013204Y-123725654D01*
X128962409Y-123677680D01*
X128945500Y-123615170D01*
X128945500Y-120670740D01*
X128945500Y-120650356D01*
X128945501Y-120650353D01*
X128945501Y-120564648D01*
X128923318Y-120481862D01*
X128920806Y-120477511D01*
X128880465Y-120407638D01*
X128819862Y-120347035D01*
X128819861Y-120347034D01*
X128815531Y-120342704D01*
X128815520Y-120342694D01*
X128421818Y-119948992D01*
X128388333Y-119887669D01*
X128385499Y-119861311D01*
X128385499Y-119510982D01*
X128385498Y-119510975D01*
X128370646Y-119417196D01*
X128313050Y-119304158D01*
X128313046Y-119304154D01*
X128313045Y-119304152D01*
X128223347Y-119214454D01*
X128223344Y-119214452D01*
X128223342Y-119214450D01*
X128146517Y-119175305D01*
X128110301Y-119156852D01*
X128016524Y-119142000D01*
X128016519Y-119142000D01*
X127999500Y-119142000D01*
X127932461Y-119122315D01*
X127886706Y-119069511D01*
X127875500Y-119018000D01*
X127875500Y-118689043D01*
X127895185Y-118622004D01*
X127911814Y-118601366D01*
X127989198Y-118523983D01*
X128040573Y-118418893D01*
X128050500Y-118350760D01*
X128050500Y-116634240D01*
X128040573Y-116566107D01*
X128010190Y-116503958D01*
X128009905Y-116502289D01*
X128008798Y-116501011D01*
X128004051Y-116468002D01*
X127998432Y-116435087D01*
X127999094Y-116433528D01*
X127998854Y-116431853D01*
X128012716Y-116401498D01*
X128025776Y-116370790D01*
X128027175Y-116369837D01*
X128027879Y-116368297D01*
X128055958Y-116350251D01*
X128083540Y-116331483D01*
X128085688Y-116331145D01*
X128086657Y-116330523D01*
X128121592Y-116325500D01*
X128248408Y-116325500D01*
X128315447Y-116345185D01*
X128361202Y-116397989D01*
X128371146Y-116467147D01*
X128359809Y-116503960D01*
X128329426Y-116566108D01*
X128319500Y-116634239D01*
X128319500Y-118350760D01*
X128329426Y-118418891D01*
X128380803Y-118523985D01*
X128463514Y-118606696D01*
X128463515Y-118606696D01*
X128463517Y-118606698D01*
X128568607Y-118658073D01*
X128600254Y-118662684D01*
X128636739Y-118668000D01*
X128636740Y-118668000D01*
X129003261Y-118668000D01*
X129025971Y-118664691D01*
X129071393Y-118658073D01*
X129176483Y-118606698D01*
X129259198Y-118523983D01*
X129310573Y-118418893D01*
X129320500Y-118350760D01*
X129320500Y-116634240D01*
X129310573Y-116566107D01*
X129259198Y-116461017D01*
X129259196Y-116461015D01*
X129259196Y-116461014D01*
X129181819Y-116383637D01*
X129148334Y-116322314D01*
X129145500Y-116295956D01*
X129145500Y-116257149D01*
X129145500Y-116257147D01*
X129123318Y-116174361D01*
X129120399Y-116169306D01*
X129117575Y-116164414D01*
X129080465Y-116100138D01*
X128767509Y-115787182D01*
X128734024Y-115725859D01*
X128739008Y-115656167D01*
X128780880Y-115600234D01*
X128846344Y-115575817D01*
X128855190Y-115575501D01*
X130116153Y-115575501D01*
X130183192Y-115595186D01*
X130228947Y-115647990D01*
X130233187Y-115658529D01*
X130252207Y-115712883D01*
X130332850Y-115822151D01*
X130442118Y-115902794D01*
X130476315Y-115914760D01*
X130570299Y-115947647D01*
X130600730Y-115950501D01*
X130600734Y-115950501D01*
X131659270Y-115950501D01*
X131689699Y-115947647D01*
X131689701Y-115947647D01*
X131769510Y-115919720D01*
X131817882Y-115902794D01*
X131927150Y-115822151D01*
X132007793Y-115712883D01*
X132007793Y-115712882D01*
X132013311Y-115705406D01*
X132014645Y-115706390D01*
X132055880Y-115664013D01*
X132123944Y-115648230D01*
X132189736Y-115671750D01*
X132227273Y-115715726D01*
X132251472Y-115763220D01*
X132251474Y-115763222D01*
X132251476Y-115763225D01*
X132346774Y-115858523D01*
X132346778Y-115858526D01*
X132346780Y-115858528D01*
X132466874Y-115919719D01*
X132466876Y-115919719D01*
X132466878Y-115919720D01*
X132566507Y-115935500D01*
X132566512Y-115935500D01*
X133133493Y-115935500D01*
X133233121Y-115919720D01*
X133233121Y-115919719D01*
X133233126Y-115919719D01*
X133353220Y-115858528D01*
X133445708Y-115766039D01*
X133453652Y-115761701D01*
X133459078Y-115754454D01*
X133483836Y-115745219D01*
X133507029Y-115732555D01*
X133516059Y-115733200D01*
X133524542Y-115730037D01*
X133550363Y-115735654D01*
X133576720Y-115737539D01*
X133585773Y-115743357D01*
X133592815Y-115744889D01*
X133621069Y-115766040D01*
X133693181Y-115838152D01*
X133726666Y-115899475D01*
X133729500Y-115925833D01*
X133729500Y-120117167D01*
X133709815Y-120184206D01*
X133693181Y-120204848D01*
X132431848Y-121466181D01*
X132370525Y-121499666D01*
X132344167Y-121502500D01*
X132310691Y-121502500D01*
X132196114Y-121533201D01*
X132196112Y-121533201D01*
X132196112Y-121533202D01*
X132093387Y-121592511D01*
X132093384Y-121592513D01*
X132009513Y-121676384D01*
X132009511Y-121676387D01*
X131950201Y-121779114D01*
X131919500Y-121893691D01*
X131919500Y-122012309D01*
X131950201Y-122126886D01*
X132009511Y-122229613D01*
X132093387Y-122313489D01*
X132196114Y-122372799D01*
X132310691Y-122403500D01*
X132310694Y-122403500D01*
X132429306Y-122403500D01*
X132429309Y-122403500D01*
X132543886Y-122372799D01*
X132646613Y-122313489D01*
X132730489Y-122229613D01*
X132789799Y-122126886D01*
X132820500Y-122012309D01*
X132820500Y-121978833D01*
X132840185Y-121911794D01*
X132856819Y-121891152D01*
X133281790Y-121466181D01*
X134270460Y-120477511D01*
X134310022Y-120408988D01*
X134330500Y-120332562D01*
X134330500Y-120253438D01*
X134330500Y-115710438D01*
X134310021Y-115634011D01*
X134290520Y-115600234D01*
X134270464Y-115565495D01*
X134270458Y-115565487D01*
X133749512Y-115044541D01*
X133749511Y-115044540D01*
X133718285Y-115026512D01*
X133680989Y-115004979D01*
X133604562Y-114984500D01*
X133593037Y-114984500D01*
X133573944Y-114977757D01*
X133555712Y-114964600D01*
X133535151Y-114955503D01*
X133524534Y-114942101D01*
X133517287Y-114936871D01*
X133514229Y-114929091D01*
X133504754Y-114917131D01*
X133448528Y-114806780D01*
X133448525Y-114806777D01*
X133448523Y-114806774D01*
X133353225Y-114711476D01*
X133353222Y-114711474D01*
X133353220Y-114711472D01*
X133233126Y-114650281D01*
X133233124Y-114650280D01*
X133224431Y-114645851D01*
X133225416Y-114643916D01*
X133215771Y-114637318D01*
X133193297Y-114627055D01*
X133187438Y-114617939D01*
X133178494Y-114611821D01*
X133168879Y-114589060D01*
X133155523Y-114568277D01*
X133153161Y-114551849D01*
X133151306Y-114547458D01*
X133150500Y-114533342D01*
X133150500Y-114447964D01*
X133170185Y-114380925D01*
X133186819Y-114360283D01*
X133210489Y-114336613D01*
X133269799Y-114233886D01*
X133300500Y-114119309D01*
X133300500Y-114000691D01*
X133269799Y-113886114D01*
X133210489Y-113783387D01*
X133126613Y-113699511D01*
X133023886Y-113640201D01*
X132909309Y-113609500D01*
X132790691Y-113609500D01*
X132676114Y-113640201D01*
X132676112Y-113640201D01*
X132676112Y-113640202D01*
X132573387Y-113699511D01*
X132573384Y-113699513D01*
X132489513Y-113783384D01*
X132489511Y-113783387D01*
X132430201Y-113886114D01*
X132399500Y-114000691D01*
X132399500Y-114119309D01*
X132430201Y-114233886D01*
X132489511Y-114336613D01*
X132489513Y-114336615D01*
X132513181Y-114360283D01*
X132527884Y-114387210D01*
X132544477Y-114413029D01*
X132545368Y-114419229D01*
X132546666Y-114421606D01*
X132549500Y-114447964D01*
X132549500Y-114533342D01*
X132529815Y-114600381D01*
X132477011Y-114646136D01*
X132468518Y-114649443D01*
X132418723Y-114674814D01*
X132346780Y-114711472D01*
X132346779Y-114711473D01*
X132346774Y-114711476D01*
X132251476Y-114806774D01*
X132251471Y-114806781D01*
X132242791Y-114823817D01*
X132194816Y-114874613D01*
X132126995Y-114891407D01*
X132060860Y-114868869D01*
X132017409Y-114814153D01*
X132015266Y-114808476D01*
X132014673Y-114806780D01*
X132007793Y-114787119D01*
X131927150Y-114677851D01*
X131817882Y-114597208D01*
X131817880Y-114597207D01*
X131689700Y-114552354D01*
X131659270Y-114549501D01*
X131659266Y-114549501D01*
X131579500Y-114549501D01*
X131512461Y-114529816D01*
X131466706Y-114477012D01*
X131455500Y-114425501D01*
X131455500Y-111856530D01*
X132549500Y-111856530D01*
X132549500Y-112063469D01*
X132589868Y-112266412D01*
X132589870Y-112266420D01*
X132669058Y-112457596D01*
X132784024Y-112629657D01*
X132930342Y-112775975D01*
X132930345Y-112775977D01*
X133102402Y-112890941D01*
X133293580Y-112970130D01*
X133496530Y-113010499D01*
X133496534Y-113010500D01*
X133496535Y-113010500D01*
X133703466Y-113010500D01*
X133703467Y-113010499D01*
X133906420Y-112970130D01*
X134097598Y-112890941D01*
X134269655Y-112775977D01*
X134415977Y-112629655D01*
X134530941Y-112457598D01*
X134610130Y-112266420D01*
X134650500Y-112063465D01*
X134650500Y-111856535D01*
X134610130Y-111653580D01*
X134530941Y-111462402D01*
X134415977Y-111290345D01*
X134415975Y-111290342D01*
X134269657Y-111144024D01*
X134101977Y-111031985D01*
X134097598Y-111029059D01*
X133906420Y-110949870D01*
X133906412Y-110949868D01*
X133703469Y-110909500D01*
X133703465Y-110909500D01*
X133496535Y-110909500D01*
X133496530Y-110909500D01*
X133293587Y-110949868D01*
X133293579Y-110949870D01*
X133102403Y-111029058D01*
X132930342Y-111144024D01*
X132784024Y-111290342D01*
X132669058Y-111462403D01*
X132589870Y-111653579D01*
X132589868Y-111653587D01*
X132549500Y-111856530D01*
X131455500Y-111856530D01*
X131455500Y-109316530D01*
X132549500Y-109316530D01*
X132549500Y-109523469D01*
X132589868Y-109726412D01*
X132589870Y-109726420D01*
X132669058Y-109917596D01*
X132784024Y-110089657D01*
X132930342Y-110235975D01*
X132930345Y-110235977D01*
X133102402Y-110350941D01*
X133293580Y-110430130D01*
X133496530Y-110470499D01*
X133496534Y-110470500D01*
X133496535Y-110470500D01*
X133703466Y-110470500D01*
X133703467Y-110470499D01*
X133906420Y-110430130D01*
X134097598Y-110350941D01*
X134269655Y-110235977D01*
X134415977Y-110089655D01*
X134530941Y-109917598D01*
X134610130Y-109726420D01*
X134650500Y-109523465D01*
X134650500Y-109316535D01*
X134610130Y-109113580D01*
X134530941Y-108922402D01*
X134415977Y-108750345D01*
X134415975Y-108750342D01*
X134269657Y-108604024D01*
X134108234Y-108496166D01*
X134097598Y-108489059D01*
X134050854Y-108469697D01*
X133906420Y-108409870D01*
X133906412Y-108409868D01*
X133703469Y-108369500D01*
X133703465Y-108369500D01*
X133496535Y-108369500D01*
X133496530Y-108369500D01*
X133293587Y-108409868D01*
X133293579Y-108409870D01*
X133102403Y-108489058D01*
X132930342Y-108604024D01*
X132784024Y-108750342D01*
X132669058Y-108922403D01*
X132589870Y-109113579D01*
X132589868Y-109113587D01*
X132549500Y-109316530D01*
X131455500Y-109316530D01*
X131455500Y-108347147D01*
X131455499Y-108347144D01*
X131451895Y-108333693D01*
X131447956Y-108318991D01*
X131433318Y-108264361D01*
X131390465Y-108190138D01*
X129976857Y-106776530D01*
X132549500Y-106776530D01*
X132549500Y-106983469D01*
X132589868Y-107186412D01*
X132589870Y-107186420D01*
X132669058Y-107377596D01*
X132784024Y-107549657D01*
X132930342Y-107695975D01*
X132930345Y-107695977D01*
X133102402Y-107810941D01*
X133293580Y-107890130D01*
X133496530Y-107930499D01*
X133496534Y-107930500D01*
X133496535Y-107930500D01*
X133703466Y-107930500D01*
X133703467Y-107930499D01*
X133906420Y-107890130D01*
X134097598Y-107810941D01*
X134269655Y-107695977D01*
X134415977Y-107549655D01*
X134530941Y-107377598D01*
X134610130Y-107186420D01*
X134650500Y-106983465D01*
X134650500Y-106776535D01*
X134610130Y-106573580D01*
X134530941Y-106382402D01*
X134415977Y-106210345D01*
X134415975Y-106210342D01*
X134269657Y-106064024D01*
X134101049Y-105951365D01*
X134097598Y-105949059D01*
X133906420Y-105869870D01*
X133906412Y-105869868D01*
X133703469Y-105829500D01*
X133703465Y-105829500D01*
X133496535Y-105829500D01*
X133496530Y-105829500D01*
X133293587Y-105869868D01*
X133293579Y-105869870D01*
X133102403Y-105949058D01*
X132930342Y-106064024D01*
X132784024Y-106210342D01*
X132669058Y-106382403D01*
X132589870Y-106573579D01*
X132589868Y-106573587D01*
X132549500Y-106776530D01*
X129976857Y-106776530D01*
X129939862Y-106739535D01*
X129902750Y-106718108D01*
X129865640Y-106696682D01*
X129824246Y-106685591D01*
X129782853Y-106674500D01*
X129782852Y-106674500D01*
X129559783Y-106674500D01*
X129492744Y-106654815D01*
X129449299Y-106606796D01*
X129420614Y-106550500D01*
X129408528Y-106526780D01*
X129408525Y-106526777D01*
X129408523Y-106526774D01*
X129313225Y-106431476D01*
X129313221Y-106431473D01*
X129313220Y-106431472D01*
X129193126Y-106370281D01*
X129193124Y-106370280D01*
X129193121Y-106370279D01*
X129093493Y-106354500D01*
X129093488Y-106354500D01*
X128526512Y-106354500D01*
X128526507Y-106354500D01*
X128426878Y-106370279D01*
X128306778Y-106431473D01*
X128306774Y-106431476D01*
X128211476Y-106526774D01*
X128211471Y-106526781D01*
X128170701Y-106606796D01*
X128122727Y-106657591D01*
X128060217Y-106674500D01*
X125119500Y-106674500D01*
X125052461Y-106654815D01*
X125006706Y-106602011D01*
X124995500Y-106550500D01*
X124995500Y-102891362D01*
X124995000Y-102882040D01*
X124995000Y-102882039D01*
X124994970Y-102881486D01*
X125364500Y-102881486D01*
X125364500Y-104018506D01*
X125378465Y-104088717D01*
X125431664Y-104168335D01*
X125511282Y-104221534D01*
X125511285Y-104221536D01*
X125553330Y-104229898D01*
X125581491Y-104235500D01*
X126218508Y-104235499D01*
X126288717Y-104221535D01*
X126368335Y-104168335D01*
X126421535Y-104088717D01*
X126435500Y-104018509D01*
X126435500Y-103834500D01*
X126438050Y-103825814D01*
X126436762Y-103816853D01*
X126447740Y-103792812D01*
X126455185Y-103767461D01*
X126462025Y-103761533D01*
X126465787Y-103753297D01*
X126488021Y-103739007D01*
X126507989Y-103721706D01*
X126518503Y-103719418D01*
X126524565Y-103715523D01*
X126559500Y-103710500D01*
X126743343Y-103710500D01*
X126810382Y-103730185D01*
X126856137Y-103782989D01*
X126859445Y-103791486D01*
X126876445Y-103824851D01*
X126921472Y-103913220D01*
X126921474Y-103913222D01*
X126921476Y-103913225D01*
X127016774Y-104008523D01*
X127016778Y-104008526D01*
X127016780Y-104008528D01*
X127136874Y-104069719D01*
X127136876Y-104069719D01*
X127136878Y-104069720D01*
X127236507Y-104085500D01*
X127236512Y-104085500D01*
X127803493Y-104085500D01*
X127903121Y-104069720D01*
X127903121Y-104069719D01*
X127903126Y-104069719D01*
X128023220Y-104008528D01*
X128118528Y-103913220D01*
X128179719Y-103793126D01*
X128184723Y-103761533D01*
X128195500Y-103693493D01*
X128195500Y-103470247D01*
X132549500Y-103470247D01*
X132549500Y-105209752D01*
X132561131Y-105268229D01*
X132561132Y-105268230D01*
X132605447Y-105334552D01*
X132671769Y-105378867D01*
X132671770Y-105378868D01*
X132730247Y-105390499D01*
X132730250Y-105390500D01*
X132730252Y-105390500D01*
X134469750Y-105390500D01*
X134469751Y-105390499D01*
X134484568Y-105387552D01*
X134528229Y-105378868D01*
X134528229Y-105378867D01*
X134528231Y-105378867D01*
X134594552Y-105334552D01*
X134638867Y-105268231D01*
X134638867Y-105268229D01*
X134638868Y-105268229D01*
X134650499Y-105209752D01*
X134650500Y-105209750D01*
X134650500Y-103470249D01*
X134650499Y-103470247D01*
X134638868Y-103411770D01*
X134638867Y-103411769D01*
X134594552Y-103345447D01*
X134528230Y-103301132D01*
X134528229Y-103301131D01*
X134469752Y-103289500D01*
X134469748Y-103289500D01*
X132730252Y-103289500D01*
X132730247Y-103289500D01*
X132671770Y-103301131D01*
X132671769Y-103301132D01*
X132605447Y-103345447D01*
X132561132Y-103411769D01*
X132561131Y-103411770D01*
X132549500Y-103470247D01*
X128195500Y-103470247D01*
X128195500Y-103176506D01*
X128179720Y-103076878D01*
X128179719Y-103076876D01*
X128179719Y-103076874D01*
X128118528Y-102956780D01*
X128118526Y-102956778D01*
X128118523Y-102956774D01*
X128023225Y-102861476D01*
X128023221Y-102861473D01*
X128023220Y-102861472D01*
X127903126Y-102800281D01*
X127903124Y-102800280D01*
X127903121Y-102800279D01*
X127803493Y-102784500D01*
X127803488Y-102784500D01*
X127236512Y-102784500D01*
X127236507Y-102784500D01*
X127136878Y-102800279D01*
X127136874Y-102800280D01*
X127136874Y-102800281D01*
X127071764Y-102833456D01*
X127016778Y-102861473D01*
X127016774Y-102861476D01*
X126921476Y-102956774D01*
X126921474Y-102956778D01*
X126921472Y-102956780D01*
X126868624Y-103060500D01*
X126855851Y-103085569D01*
X126853914Y-103084582D01*
X126847323Y-103094221D01*
X126837056Y-103116703D01*
X126827947Y-103122556D01*
X126821836Y-103131494D01*
X126799070Y-103141114D01*
X126778278Y-103154477D01*
X126761867Y-103156836D01*
X126757477Y-103158692D01*
X126743343Y-103159500D01*
X126559499Y-103159500D01*
X126492460Y-103139815D01*
X126446705Y-103087011D01*
X126435499Y-103035500D01*
X126435499Y-102881493D01*
X126435498Y-102881486D01*
X126421535Y-102811283D01*
X126403639Y-102784500D01*
X126368335Y-102731664D01*
X126288717Y-102678465D01*
X126288714Y-102678463D01*
X126218511Y-102664500D01*
X125581493Y-102664500D01*
X125511282Y-102678465D01*
X125431664Y-102731664D01*
X125378465Y-102811282D01*
X125378463Y-102811285D01*
X125364500Y-102881486D01*
X124994970Y-102881486D01*
X124994321Y-102869381D01*
X124991488Y-102843034D01*
X124991487Y-102843032D01*
X124988491Y-102833464D01*
X124967529Y-102766518D01*
X124934044Y-102705195D01*
X124934039Y-102705188D01*
X124899001Y-102658384D01*
X124898998Y-102658381D01*
X124898991Y-102658371D01*
X124898983Y-102658363D01*
X124701634Y-102461013D01*
X124701633Y-102461012D01*
X124685283Y-102446325D01*
X124685269Y-102446313D01*
X124664620Y-102429672D01*
X124593575Y-102392509D01*
X124526543Y-102372826D01*
X124525894Y-102372732D01*
X124468638Y-102364500D01*
X122391362Y-102364500D01*
X122391361Y-102364500D01*
X122369381Y-102365678D01*
X122343034Y-102368511D01*
X122343032Y-102368512D01*
X122266521Y-102392470D01*
X122266516Y-102392471D01*
X122205188Y-102425960D01*
X122158384Y-102460998D01*
X122158363Y-102461016D01*
X121961013Y-102658365D01*
X121961012Y-102658366D01*
X121946325Y-102674716D01*
X121946313Y-102674730D01*
X121929672Y-102695379D01*
X121892509Y-102766424D01*
X121872826Y-102833456D01*
X121872825Y-102833464D01*
X121865841Y-102882040D01*
X121864500Y-102891365D01*
X121864500Y-105243518D01*
X121855855Y-105272958D01*
X121849332Y-105302945D01*
X121845577Y-105307960D01*
X121844815Y-105310557D01*
X121828181Y-105331199D01*
X121721199Y-105438181D01*
X121659876Y-105471666D01*
X121633518Y-105474500D01*
X121428349Y-105474500D01*
X121361310Y-105454815D01*
X121315555Y-105402011D01*
X121305611Y-105332853D01*
X121317941Y-105297910D01*
X121316567Y-105297283D01*
X121319330Y-105291234D01*
X121331772Y-105263989D01*
X121334660Y-105258087D01*
X121347502Y-105233535D01*
X121348264Y-105230938D01*
X121348267Y-105230928D01*
X121348275Y-105230902D01*
X121350775Y-105222385D01*
X121355636Y-105211745D01*
X121360596Y-105188939D01*
X121367175Y-105166538D01*
X121375500Y-105108638D01*
X121375500Y-100449500D01*
X121395185Y-100382461D01*
X121447989Y-100336706D01*
X121499500Y-100325500D01*
X121980000Y-100325500D01*
X123200468Y-100325500D01*
X123267507Y-100345185D01*
X123313262Y-100397989D01*
X123324467Y-100449402D01*
X123324501Y-100492125D01*
X123325351Y-101589185D01*
X123325538Y-101597793D01*
X123325982Y-101608172D01*
X123339707Y-101673723D01*
X123364981Y-101738868D01*
X123392346Y-101787459D01*
X123393684Y-101789834D01*
X123414506Y-101816902D01*
X123433995Y-101838807D01*
X123437611Y-101842329D01*
X123437662Y-101842380D01*
X123447789Y-101852244D01*
X123459277Y-101863435D01*
X123459281Y-101863438D01*
X123464515Y-101867543D01*
X123464232Y-101867903D01*
X123467498Y-101870378D01*
X123470921Y-101872845D01*
X123470923Y-101872846D01*
X123504011Y-101891354D01*
X123533441Y-101909721D01*
X123535934Y-101910613D01*
X123536352Y-101909443D01*
X123550741Y-101917492D01*
X123563412Y-101921212D01*
X123571734Y-101923656D01*
X123578589Y-101925887D01*
X123599153Y-101933252D01*
X123599155Y-101933253D01*
X123599158Y-101933253D01*
X123599164Y-101933256D01*
X123623332Y-101940275D01*
X123628729Y-101940258D01*
X123629934Y-101940255D01*
X123647967Y-101941516D01*
X123675674Y-101945500D01*
X123675675Y-101945500D01*
X124305524Y-101945500D01*
X124305529Y-101945500D01*
X124311041Y-101945426D01*
X124317675Y-101945248D01*
X124380524Y-101933618D01*
X124446415Y-101910375D01*
X124469566Y-101900578D01*
X124540338Y-101842651D01*
X124583202Y-101787475D01*
X124597381Y-101766717D01*
X124625600Y-101679724D01*
X124631829Y-101610132D01*
X124630178Y-101579344D01*
X124630000Y-101572705D01*
X124630000Y-100492125D01*
X124635864Y-100454444D01*
X124641172Y-100437800D01*
X124649968Y-100424638D01*
X124651011Y-100423061D01*
X124652224Y-100421209D01*
X124677490Y-100366512D01*
X124697175Y-100299473D01*
X124705500Y-100241575D01*
X124705500Y-100236121D01*
X124710062Y-100221819D01*
X124724082Y-100201074D01*
X124734486Y-100178296D01*
X124743312Y-100172623D01*
X124749187Y-100163932D01*
X124772198Y-100154060D01*
X124793265Y-100140522D01*
X124809044Y-100138253D01*
X124813398Y-100136386D01*
X124817387Y-100137054D01*
X124828198Y-100135500D01*
X125304023Y-100135500D01*
X125371062Y-100155185D01*
X125416817Y-100207989D01*
X125426761Y-100277147D01*
X125407125Y-100328389D01*
X125388284Y-100356586D01*
X125378464Y-100371284D01*
X125378463Y-100371285D01*
X125364500Y-100441486D01*
X125364500Y-101578506D01*
X125378465Y-101648717D01*
X125431664Y-101728335D01*
X125511282Y-101781534D01*
X125511285Y-101781536D01*
X125553001Y-101789833D01*
X125581491Y-101795500D01*
X126218508Y-101795499D01*
X126288717Y-101781535D01*
X126368335Y-101728335D01*
X126421535Y-101648717D01*
X126435500Y-101578509D01*
X126435500Y-101409500D01*
X126455185Y-101342461D01*
X126507989Y-101296706D01*
X126559500Y-101285500D01*
X128167036Y-101285500D01*
X128234075Y-101305185D01*
X128254717Y-101321819D01*
X128313387Y-101380489D01*
X128416114Y-101439799D01*
X128530691Y-101470500D01*
X128530694Y-101470500D01*
X128649306Y-101470500D01*
X128649309Y-101470500D01*
X128763886Y-101439799D01*
X128866613Y-101380489D01*
X128950489Y-101296613D01*
X129009799Y-101193886D01*
X129040500Y-101079309D01*
X129040500Y-100960691D01*
X129009799Y-100846114D01*
X128950489Y-100743387D01*
X128866613Y-100659511D01*
X128763886Y-100600201D01*
X128649309Y-100569500D01*
X128530691Y-100569500D01*
X128416114Y-100600201D01*
X128416112Y-100600201D01*
X128416112Y-100600202D01*
X128313387Y-100659511D01*
X128313384Y-100659513D01*
X128274717Y-100698181D01*
X128213394Y-100731666D01*
X128187036Y-100734500D01*
X126559499Y-100734500D01*
X126492460Y-100714815D01*
X126446705Y-100662011D01*
X126435499Y-100610500D01*
X126435499Y-100441493D01*
X126431465Y-100421209D01*
X126421535Y-100371283D01*
X126390943Y-100325500D01*
X126368335Y-100291664D01*
X126288717Y-100238465D01*
X126288715Y-100238464D01*
X126275307Y-100235797D01*
X126213396Y-100203411D01*
X126178823Y-100142695D01*
X126175500Y-100114180D01*
X126175500Y-99736438D01*
X126195185Y-99669399D01*
X126247989Y-99623644D01*
X126317147Y-99613700D01*
X126329110Y-99616303D01*
X126329126Y-99616233D01*
X126333447Y-99617172D01*
X126333455Y-99617173D01*
X126333465Y-99617176D01*
X126391363Y-99625501D01*
X126391367Y-99625501D01*
X128368638Y-99625501D01*
X128371179Y-99625364D01*
X128390606Y-99624323D01*
X128390613Y-99624322D01*
X128390617Y-99624322D01*
X128416964Y-99621489D01*
X128493481Y-99597530D01*
X128554804Y-99564045D01*
X128601628Y-99528992D01*
X128658991Y-99471629D01*
X128673693Y-99455262D01*
X128690327Y-99434620D01*
X128690330Y-99434612D01*
X128693668Y-99429520D01*
X128693909Y-99429677D01*
X128698680Y-99422100D01*
X128699330Y-99421234D01*
X128713141Y-99390993D01*
X128727502Y-99363535D01*
X128728264Y-99360938D01*
X128727034Y-99360577D01*
X128735636Y-99341745D01*
X128739655Y-99323263D01*
X128741844Y-99314688D01*
X128747175Y-99296538D01*
X128755500Y-99238638D01*
X128755500Y-96401362D01*
X128754322Y-96379393D01*
X128751488Y-96353035D01*
X128727529Y-96276518D01*
X128694044Y-96215195D01*
X128694039Y-96215188D01*
X128659001Y-96168384D01*
X128658998Y-96168381D01*
X128658991Y-96168371D01*
X128601629Y-96111009D01*
X128601628Y-96111008D01*
X128601624Y-96111004D01*
X128585283Y-96096325D01*
X128585269Y-96096313D01*
X128564620Y-96079672D01*
X128493576Y-96042510D01*
X128441342Y-96027172D01*
X128382565Y-95989396D01*
X128353541Y-95925840D01*
X128363485Y-95856682D01*
X128409241Y-95803878D01*
X128468966Y-95784599D01*
X128468956Y-95784500D01*
X128468971Y-95784498D01*
X128468968Y-95784454D01*
X128469567Y-95784405D01*
X128469671Y-95784372D01*
X128470607Y-95784322D01*
X128470623Y-95784320D01*
X128470628Y-95784320D01*
X128496965Y-95781488D01*
X128573482Y-95757529D01*
X128634805Y-95724044D01*
X128681629Y-95688991D01*
X128838991Y-95531629D01*
X128853693Y-95515262D01*
X128870327Y-95494620D01*
X128870330Y-95494612D01*
X128873668Y-95489520D01*
X128873909Y-95489677D01*
X128878680Y-95482100D01*
X128879330Y-95481234D01*
X128893141Y-95450993D01*
X128907502Y-95423535D01*
X128908264Y-95420938D01*
X128907034Y-95420577D01*
X128915636Y-95401745D01*
X128919655Y-95383263D01*
X128921844Y-95374688D01*
X128927175Y-95356538D01*
X128935500Y-95298638D01*
X128935500Y-92936481D01*
X128944144Y-92907040D01*
X128950668Y-92877054D01*
X128954422Y-92872038D01*
X128955185Y-92869442D01*
X128971819Y-92848800D01*
X129038800Y-92781819D01*
X129100123Y-92748334D01*
X129126481Y-92745500D01*
X129322192Y-92745500D01*
X129389231Y-92765185D01*
X129434986Y-92817989D01*
X129444930Y-92887147D01*
X129441967Y-92901594D01*
X129439980Y-92909009D01*
X129439979Y-92909011D01*
X129419500Y-92985438D01*
X129419500Y-93064562D01*
X129433152Y-93115513D01*
X129439979Y-93140990D01*
X129439982Y-93140995D01*
X129479535Y-93209504D01*
X129479539Y-93209509D01*
X129479540Y-93209511D01*
X129535489Y-93265460D01*
X129535491Y-93265461D01*
X129535495Y-93265464D01*
X129604004Y-93305017D01*
X129604011Y-93305021D01*
X129680438Y-93325500D01*
X129680440Y-93325500D01*
X129759560Y-93325500D01*
X129759562Y-93325500D01*
X129835989Y-93305021D01*
X129904511Y-93265460D01*
X129960460Y-93209511D01*
X130000021Y-93140989D01*
X130020500Y-93064562D01*
X130020500Y-92985438D01*
X130000021Y-92909011D01*
X129975496Y-92866532D01*
X129959023Y-92798631D01*
X129981876Y-92732605D01*
X130023453Y-92695702D01*
X130044805Y-92684044D01*
X130091629Y-92648991D01*
X130238991Y-92501629D01*
X130253693Y-92485262D01*
X130270327Y-92464620D01*
X130270330Y-92464612D01*
X130273668Y-92459520D01*
X130273909Y-92459677D01*
X130278680Y-92452100D01*
X130279330Y-92451234D01*
X130293141Y-92420993D01*
X130307502Y-92393535D01*
X130308264Y-92390938D01*
X130307034Y-92390577D01*
X130315636Y-92371745D01*
X130319655Y-92353263D01*
X130321844Y-92344688D01*
X130327175Y-92326538D01*
X130335500Y-92268638D01*
X130335500Y-90871362D01*
X130334322Y-90849393D01*
X130331488Y-90823035D01*
X130307529Y-90746518D01*
X130274044Y-90685195D01*
X130238991Y-90638371D01*
X130238983Y-90638363D01*
X130061634Y-90461013D01*
X130061633Y-90461012D01*
X130045283Y-90446325D01*
X130045269Y-90446313D01*
X130024620Y-90429672D01*
X129953575Y-90392509D01*
X129886543Y-90372826D01*
X129885894Y-90372732D01*
X129828638Y-90364500D01*
X123341362Y-90364500D01*
X123341361Y-90364500D01*
X123319381Y-90365678D01*
X123293034Y-90368511D01*
X123293032Y-90368512D01*
X123216521Y-90392470D01*
X123216516Y-90392471D01*
X123155188Y-90425960D01*
X123108384Y-90460998D01*
X123108363Y-90461016D01*
X122881013Y-90688365D01*
X122881012Y-90688366D01*
X122866325Y-90704716D01*
X122866313Y-90704730D01*
X122849672Y-90725379D01*
X122812509Y-90796424D01*
X122792826Y-90863456D01*
X122784500Y-90921365D01*
X122784500Y-92178638D01*
X122785678Y-92200618D01*
X122788511Y-92226965D01*
X122788512Y-92226967D01*
X122812470Y-92303478D01*
X122812471Y-92303483D01*
X122825058Y-92326533D01*
X122845956Y-92364805D01*
X122845958Y-92364808D01*
X122845960Y-92364811D01*
X122880998Y-92411615D01*
X122881002Y-92411619D01*
X122881009Y-92411629D01*
X122881016Y-92411636D01*
X123118365Y-92648986D01*
X123118366Y-92648987D01*
X123134716Y-92663674D01*
X123134730Y-92663686D01*
X123134738Y-92663693D01*
X123143136Y-92670460D01*
X123155379Y-92680327D01*
X123226424Y-92717490D01*
X123293456Y-92737173D01*
X123293458Y-92737173D01*
X123293464Y-92737175D01*
X123351362Y-92745500D01*
X123542192Y-92745500D01*
X123609231Y-92765185D01*
X123654986Y-92817989D01*
X123664930Y-92887147D01*
X123661967Y-92901594D01*
X123659980Y-92909009D01*
X123659979Y-92909011D01*
X123639500Y-92985438D01*
X123639500Y-93064562D01*
X123653152Y-93115513D01*
X123659979Y-93140990D01*
X123659982Y-93140995D01*
X123699535Y-93209504D01*
X123699539Y-93209509D01*
X123699540Y-93209511D01*
X123755489Y-93265460D01*
X123755491Y-93265461D01*
X123755495Y-93265464D01*
X123824004Y-93305017D01*
X123824011Y-93305021D01*
X123900438Y-93325500D01*
X123900440Y-93325500D01*
X123979560Y-93325500D01*
X123979562Y-93325500D01*
X124055989Y-93305021D01*
X124124511Y-93265460D01*
X124180460Y-93209511D01*
X124220021Y-93140989D01*
X124240500Y-93064562D01*
X124240500Y-92985438D01*
X124220021Y-92909011D01*
X124220019Y-92909009D01*
X124218033Y-92901594D01*
X124218628Y-92876598D01*
X124215070Y-92851853D01*
X124219445Y-92842272D01*
X124219696Y-92831744D01*
X124233708Y-92811040D01*
X124244095Y-92788297D01*
X124252955Y-92782602D01*
X124258858Y-92773882D01*
X124281838Y-92764040D01*
X124302873Y-92750523D01*
X124318727Y-92748243D01*
X124323086Y-92746377D01*
X124337808Y-92745500D01*
X124463518Y-92745500D01*
X124530557Y-92765185D01*
X124551199Y-92781819D01*
X124618181Y-92848801D01*
X124651666Y-92910124D01*
X124654500Y-92936482D01*
X124654500Y-95388638D01*
X124655678Y-95410618D01*
X124658511Y-95436965D01*
X124658512Y-95436967D01*
X124672643Y-95482096D01*
X124681232Y-95509526D01*
X124682470Y-95513478D01*
X124682471Y-95513483D01*
X124686211Y-95520332D01*
X124715956Y-95574805D01*
X124715958Y-95574808D01*
X124715960Y-95574811D01*
X124750998Y-95621615D01*
X124751002Y-95621619D01*
X124751009Y-95621629D01*
X124818369Y-95688989D01*
X124818375Y-95688995D01*
X124834716Y-95703674D01*
X124834730Y-95703686D01*
X124834738Y-95703693D01*
X124843136Y-95710460D01*
X124855379Y-95720327D01*
X124926424Y-95757490D01*
X124993456Y-95777173D01*
X124993458Y-95777173D01*
X124993464Y-95777175D01*
X125051362Y-95785500D01*
X125051366Y-95785500D01*
X127156209Y-95785500D01*
X127223248Y-95805185D01*
X127269003Y-95857989D01*
X127278947Y-95927147D01*
X127249922Y-95990703D01*
X127193263Y-96027834D01*
X127146521Y-96042470D01*
X127146516Y-96042471D01*
X127085188Y-96075960D01*
X127038384Y-96110998D01*
X127038370Y-96111010D01*
X126961000Y-96188379D01*
X126950837Y-96199692D01*
X126950791Y-96199745D01*
X126946307Y-96204738D01*
X126941578Y-96210606D01*
X126941547Y-96210643D01*
X126929670Y-96225383D01*
X126926332Y-96230476D01*
X126926100Y-96230324D01*
X126921355Y-96237848D01*
X126920646Y-96238795D01*
X126920641Y-96238803D01*
X126908258Y-96265919D01*
X126906873Y-96268951D01*
X126892525Y-96296375D01*
X126891762Y-96298971D01*
X126892999Y-96299334D01*
X126885549Y-96315652D01*
X126885550Y-96315652D01*
X126884367Y-96318242D01*
X126884367Y-96318243D01*
X126880376Y-96336583D01*
X126878311Y-96344733D01*
X126877416Y-96347821D01*
X126877393Y-96347856D01*
X126877317Y-96348114D01*
X126877297Y-96348226D01*
X126872823Y-96363466D01*
X126872823Y-96363467D01*
X126864500Y-96421359D01*
X126864500Y-97780500D01*
X126844815Y-97847539D01*
X126792011Y-97893294D01*
X126740500Y-97904500D01*
X126391361Y-97904500D01*
X126369381Y-97905678D01*
X126343034Y-97908511D01*
X126343032Y-97908512D01*
X126266521Y-97932470D01*
X126266516Y-97932471D01*
X126205188Y-97965960D01*
X126158384Y-98000998D01*
X126158362Y-98001017D01*
X126111013Y-98048365D01*
X126111004Y-98048374D01*
X126100837Y-98059692D01*
X126100791Y-98059745D01*
X126096307Y-98064738D01*
X126091578Y-98070606D01*
X126091547Y-98070643D01*
X126079670Y-98085383D01*
X126076332Y-98090476D01*
X126076100Y-98090324D01*
X126071355Y-98097848D01*
X126070646Y-98098795D01*
X126070641Y-98098803D01*
X126058258Y-98125919D01*
X126055338Y-98131885D01*
X126049371Y-98143289D01*
X126000854Y-98193564D01*
X125932856Y-98209629D01*
X125866968Y-98186381D01*
X125824108Y-98131201D01*
X125815500Y-98085807D01*
X125815500Y-97871361D01*
X125815345Y-97868487D01*
X125814322Y-97849393D01*
X125811488Y-97823035D01*
X125787529Y-97746518D01*
X125754044Y-97685195D01*
X125735539Y-97660476D01*
X125719001Y-97638384D01*
X125718998Y-97638381D01*
X125718991Y-97638371D01*
X125561629Y-97481009D01*
X125561628Y-97481008D01*
X125561624Y-97481004D01*
X125545283Y-97466325D01*
X125545269Y-97466313D01*
X125524620Y-97449672D01*
X125453575Y-97412509D01*
X125386543Y-97392826D01*
X125385894Y-97392732D01*
X125328638Y-97384500D01*
X124141362Y-97384500D01*
X124141361Y-97384500D01*
X124119381Y-97385678D01*
X124093034Y-97388511D01*
X124093032Y-97388512D01*
X124016521Y-97412470D01*
X124016516Y-97412471D01*
X123955188Y-97445960D01*
X123908384Y-97480998D01*
X123908370Y-97481010D01*
X123771000Y-97618379D01*
X123760837Y-97629692D01*
X123760791Y-97629745D01*
X123756307Y-97634738D01*
X123751578Y-97640606D01*
X123751547Y-97640643D01*
X123739670Y-97655383D01*
X123736332Y-97660476D01*
X123736100Y-97660324D01*
X123731355Y-97667848D01*
X123730646Y-97668795D01*
X123730641Y-97668803D01*
X123718258Y-97695919D01*
X123716873Y-97698951D01*
X123702525Y-97726375D01*
X123701762Y-97728971D01*
X123702999Y-97729334D01*
X123695549Y-97745652D01*
X123695550Y-97745652D01*
X123694367Y-97748242D01*
X123694367Y-97748243D01*
X123690376Y-97766583D01*
X123688311Y-97774733D01*
X123687416Y-97777821D01*
X123687393Y-97777856D01*
X123687317Y-97778114D01*
X123687297Y-97778226D01*
X123682823Y-97793466D01*
X123682823Y-97793467D01*
X123674500Y-97851359D01*
X123674500Y-97910500D01*
X123654815Y-97977539D01*
X123602011Y-98023294D01*
X123550500Y-98034500D01*
X119971361Y-98034500D01*
X119949381Y-98035678D01*
X119923034Y-98038511D01*
X119923032Y-98038512D01*
X119846521Y-98062470D01*
X119846516Y-98062471D01*
X119785188Y-98095960D01*
X119738384Y-98130998D01*
X119738363Y-98131016D01*
X119501013Y-98368365D01*
X119501012Y-98368366D01*
X119486325Y-98384716D01*
X119486313Y-98384730D01*
X119469672Y-98405379D01*
X119432509Y-98476424D01*
X119412826Y-98543456D01*
X119404500Y-98601365D01*
X119404500Y-103060500D01*
X119384815Y-103127539D01*
X119332011Y-103173294D01*
X119280500Y-103184500D01*
X119091361Y-103184500D01*
X119069381Y-103185678D01*
X119043034Y-103188511D01*
X119043032Y-103188512D01*
X118966521Y-103212470D01*
X118966516Y-103212471D01*
X118905188Y-103245960D01*
X118858384Y-103280998D01*
X118858362Y-103281017D01*
X118821013Y-103318365D01*
X118821004Y-103318374D01*
X118810837Y-103329692D01*
X118810791Y-103329745D01*
X118806307Y-103334738D01*
X118801578Y-103340606D01*
X118801547Y-103340643D01*
X118789670Y-103355383D01*
X118786332Y-103360476D01*
X118786100Y-103360324D01*
X118781355Y-103367848D01*
X118780646Y-103368795D01*
X118780641Y-103368803D01*
X118768258Y-103395919D01*
X118766873Y-103398951D01*
X118752525Y-103426375D01*
X118751762Y-103428971D01*
X118752999Y-103429334D01*
X118745549Y-103445652D01*
X118745550Y-103445652D01*
X118744367Y-103448242D01*
X118744367Y-103448243D01*
X118740376Y-103466583D01*
X118739634Y-103469484D01*
X118739308Y-103471380D01*
X118732823Y-103493470D01*
X118724500Y-103551362D01*
X117225500Y-103551362D01*
X117225500Y-91279793D01*
X117225207Y-91279500D01*
X117215619Y-91269912D01*
X117182134Y-91208589D01*
X117179300Y-91182214D01*
X117179977Y-87423775D01*
X117199674Y-87356742D01*
X117252486Y-87310996D01*
X117303773Y-87299800D01*
X122240000Y-87291859D01*
X122240000Y-87440000D01*
X131420000Y-87440000D01*
X131420000Y-87280500D01*
X136376024Y-87280500D01*
X136443063Y-87300185D01*
G37*
%TD.AperFunction*%
%TD*%
%TA.AperFunction,Conductor*%
%TO.N,/Tx*%
G36*
X119935213Y-115618231D02*
G01*
X119937872Y-115622336D01*
X120100281Y-116048337D01*
X120100027Y-116057288D01*
X120093517Y-116063437D01*
X120091677Y-116063971D01*
X119862328Y-116110527D01*
X119857672Y-116110527D01*
X119628322Y-116063971D01*
X119620896Y-116058967D01*
X119619184Y-116050177D01*
X119619718Y-116048337D01*
X119782128Y-115622336D01*
X119788277Y-115615826D01*
X119793060Y-115614804D01*
X119926940Y-115614804D01*
X119935213Y-115618231D01*
G37*
%TD.AperFunction*%
%TD*%
%TA.AperFunction,Conductor*%
%TO.N,/Rx*%
G36*
X120535213Y-116108231D02*
G01*
X120537872Y-116112336D01*
X120700281Y-116538337D01*
X120700027Y-116547288D01*
X120693517Y-116553437D01*
X120691677Y-116553971D01*
X120462328Y-116600527D01*
X120457672Y-116600527D01*
X120228322Y-116553971D01*
X120220896Y-116548967D01*
X120219184Y-116540177D01*
X120219718Y-116538337D01*
X120382128Y-116112336D01*
X120388277Y-116105826D01*
X120393060Y-116104804D01*
X120526940Y-116104804D01*
X120535213Y-116108231D01*
G37*
%TD.AperFunction*%
%TD*%
M02*
