%TF.GenerationSoftware,KiCad,Pcbnew,9.0.0*%
%TF.CreationDate,2025-05-07T16:38:21+03:00*%
%TF.ProjectId,Testing_USB-CAN,54657374-696e-4675-9f55-53422d43414e,rev?*%
%TF.SameCoordinates,Original*%
%TF.FileFunction,Paste,Bot*%
%TF.FilePolarity,Positive*%
%FSLAX46Y46*%
G04 Gerber Fmt 4.6, Leading zero omitted, Abs format (unit mm)*
G04 Created by KiCad (PCBNEW 9.0.0) date 2025-05-07 16:38:21*
%MOMM*%
%LPD*%
G01*
G04 APERTURE LIST*
G04 Aperture macros list*
%AMRoundRect*
0 Rectangle with rounded corners*
0 $1 Rounding radius*
0 $2 $3 $4 $5 $6 $7 $8 $9 X,Y pos of 4 corners*
0 Add a 4 corners polygon primitive as box body*
4,1,4,$2,$3,$4,$5,$6,$7,$8,$9,$2,$3,0*
0 Add four circle primitives for the rounded corners*
1,1,$1+$1,$2,$3*
1,1,$1+$1,$4,$5*
1,1,$1+$1,$6,$7*
1,1,$1+$1,$8,$9*
0 Add four rect primitives between the rounded corners*
20,1,$1+$1,$2,$3,$4,$5,0*
20,1,$1+$1,$4,$5,$6,$7,0*
20,1,$1+$1,$6,$7,$8,$9,0*
20,1,$1+$1,$8,$9,$2,$3,0*%
G04 Aperture macros list end*
%ADD10RoundRect,0.250000X-0.475000X0.250000X-0.475000X-0.250000X0.475000X-0.250000X0.475000X0.250000X0*%
%ADD11RoundRect,0.150000X-0.150000X0.587500X-0.150000X-0.587500X0.150000X-0.587500X0.150000X0.587500X0*%
%ADD12RoundRect,0.225000X0.225000X0.250000X-0.225000X0.250000X-0.225000X-0.250000X0.225000X-0.250000X0*%
%ADD13RoundRect,0.225000X0.250000X-0.225000X0.250000X0.225000X-0.250000X0.225000X-0.250000X-0.225000X0*%
%ADD14RoundRect,0.225000X-0.250000X0.225000X-0.250000X-0.225000X0.250000X-0.225000X0.250000X0.225000X0*%
%ADD15R,1.180000X1.170000*%
%ADD16RoundRect,0.250000X0.475000X-0.250000X0.475000X0.250000X-0.475000X0.250000X-0.475000X-0.250000X0*%
%ADD17RoundRect,0.243750X-0.456250X0.243750X-0.456250X-0.243750X0.456250X-0.243750X0.456250X0.243750X0*%
%ADD18RoundRect,0.200000X-0.275000X0.200000X-0.275000X-0.200000X0.275000X-0.200000X0.275000X0.200000X0*%
%ADD19RoundRect,0.040200X-0.294800X0.544800X-0.294800X-0.544800X0.294800X-0.544800X0.294800X0.544800X0*%
%ADD20RoundRect,0.225000X-0.225000X-0.250000X0.225000X-0.250000X0.225000X0.250000X-0.225000X0.250000X0*%
%ADD21RoundRect,0.200000X0.275000X-0.200000X0.275000X0.200000X-0.275000X0.200000X-0.275000X-0.200000X0*%
%ADD22RoundRect,0.250000X-0.250000X-0.475000X0.250000X-0.475000X0.250000X0.475000X-0.250000X0.475000X0*%
%ADD23RoundRect,0.150000X-0.150000X0.825000X-0.150000X-0.825000X0.150000X-0.825000X0.150000X0.825000X0*%
G04 APERTURE END LIST*
D10*
%TO.C,C27*%
X131130000Y-115250001D03*
X131130000Y-117149999D03*
%TD*%
%TO.C,C30*%
X125820000Y-94860001D03*
X125820000Y-96759999D03*
%TD*%
D11*
%TO.C,D1*%
X125970000Y-126102500D03*
X127870000Y-126102500D03*
X126920000Y-127977501D03*
%TD*%
D12*
%TO.C,C1*%
X125220000Y-124387500D03*
X123670000Y-124387500D03*
%TD*%
D13*
%TO.C,C65*%
X127520000Y-103435000D03*
X127520000Y-101885000D03*
%TD*%
D14*
%TO.C,C14*%
X126920000Y-122822500D03*
X126920000Y-124372500D03*
%TD*%
D15*
%TO.C,D4*%
X127920000Y-98740000D03*
X124740000Y-98740000D03*
%TD*%
D16*
%TO.C,C66*%
X122840000Y-99189999D03*
X122840000Y-97290001D03*
%TD*%
D17*
%TO.C,F1*%
X127810000Y-94852499D03*
X127810000Y-96727501D03*
%TD*%
D18*
%TO.C,R34*%
X123210000Y-117495000D03*
X123210000Y-119145000D03*
%TD*%
D19*
%TO.C,U7*%
X124020000Y-101010000D03*
X124960000Y-101010000D03*
X125900000Y-101010000D03*
X125900000Y-103450000D03*
X124020000Y-103450000D03*
%TD*%
D20*
%TO.C,C2*%
X128620000Y-124367500D03*
X130170000Y-124367500D03*
%TD*%
D21*
%TO.C,R35*%
X127710000Y-121392500D03*
X127710000Y-119742500D03*
%TD*%
D22*
%TO.C,C68*%
X123990001Y-105320000D03*
X125889999Y-105320000D03*
%TD*%
D14*
%TO.C,C20*%
X132850000Y-115285000D03*
X132850000Y-116835000D03*
%TD*%
D13*
%TO.C,C34*%
X128810000Y-107005000D03*
X128810000Y-105455000D03*
%TD*%
D23*
%TO.C,U9*%
X125010000Y-112542500D03*
X126280000Y-112542500D03*
X127550000Y-112542500D03*
X128820000Y-112542500D03*
X128820000Y-117492500D03*
X127550000Y-117492500D03*
X126280000Y-117492500D03*
X125010000Y-117492500D03*
%TD*%
D21*
%TO.C,R33*%
X128810000Y-110445000D03*
X128810000Y-108795000D03*
%TD*%
D16*
%TO.C,C67*%
X120840000Y-99189999D03*
X120840000Y-97290001D03*
%TD*%
D21*
%TO.C,R32*%
X125000000Y-110445000D03*
X125000000Y-108795000D03*
%TD*%
D18*
%TO.C,R3*%
X126120000Y-119742500D03*
X126120000Y-121392500D03*
%TD*%
M02*
