M48
; DRILL file {KiCad 9.0.0} date 2025-05-07T16:38:20+0300
; FORMAT={-:-/ absolute / metric / decimal}
; #@! TF.CreationDate,2025-05-07T16:38:20+03:00
; #@! TF.GenerationSoftware,Kicad,Pcbnew,9.0.0
; #@! TF.FileFunction,Plated,1,4,PTH
FMAT,2
METRIC
; #@! TA.AperFunction,Plated,PTH,ViaDrill
T1C0.200
; #@! TA.AperFunction,Plated,PTH,ComponentDrill
T2C0.650
; #@! TA.AperFunction,Plated,PTH,ComponentDrill
T3C1.000
; #@! TA.AperFunction,Plated,PTH,ComponentDrill
T4C1.700
%
G90
G05
T1
X118.47Y-95.119
X118.47Y-96.599
X118.47Y-98.08
X118.47Y-99.56
X118.47Y-118.8
X118.47Y-124.043
X118.47Y-125.524
X118.47Y-127.004
X118.47Y-128.484
X118.47Y-129.964
X118.47Y-131.445
X118.47Y-132.925
X118.47Y-134.405
X118.47Y-135.886
X118.47Y-137.366
X118.47Y-138.846
X118.47Y-140.326
X118.47Y-141.807
X119.86Y-116.11
X120.46Y-116.6
X120.67Y-127.01
X120.67Y-128.49
X121.22Y-87.86
X121.23Y-88.687
X121.23Y-89.713
X121.23Y-90.74
X121.27Y-93.29
X121.29Y-94.68
X121.29Y-96.2
X122.39Y-100.71
X122.41Y-101.81
X123.81Y-87.74
X123.81Y-89.48
X123.815Y-91.61
X123.86Y-120.2
X124.25Y-131.46
X124.25Y-134.45
X124.27Y-132.9
X124.27Y-135.89
X124.27Y-137.37
X124.27Y-138.85
X124.27Y-140.331
X124.27Y-141.811
X124.38Y-115.95
X124.713Y-91.61
X125.157Y-87.74
X125.157Y-89.48
X125.612Y-91.61
X125.67Y-115.97
X125.98Y-134.45
X126.505Y-87.74
X126.505Y-89.48
X126.51Y-91.61
X127.0Y-104.97
X127.0Y-106.24
X127.03Y-108.05
X127.408Y-91.61
X127.71Y-134.45
X127.852Y-87.74
X127.852Y-89.48
X127.88Y-123.57
X128.307Y-91.61
X128.59Y-101.02
X128.84Y-102.09
X128.85Y-103.33
X128.86Y-119.57
X129.2Y-87.74
X129.2Y-89.48
X129.205Y-91.61
X129.44Y-131.46
X129.44Y-134.45
X129.45Y-135.889
X129.45Y-137.369
X129.45Y-138.849
X129.45Y-140.33
X129.45Y-141.81
X129.46Y-132.9
X129.48Y-119.13
X129.48Y-120.09
X129.54Y-127.01
X129.54Y-128.49
X130.35Y-98.52
X130.35Y-100.39
X130.55Y-123.6
X131.15Y-102.09
X131.15Y-103.32
X132.11Y-93.44
X132.11Y-95.1
X132.37Y-121.953
X132.42Y-87.86
X132.43Y-88.687
X132.43Y-89.713
X132.43Y-90.74
X132.85Y-114.06
X134.57Y-114.1
X135.26Y-117.06
X135.27Y-124.047
X135.27Y-125.527
X135.27Y-127.007
X135.27Y-128.487
X135.27Y-129.968
X135.27Y-131.448
X135.27Y-132.928
X135.27Y-134.409
X135.27Y-135.889
X135.27Y-137.369
X135.27Y-138.849
X135.27Y-140.33
X135.27Y-141.81
X135.38Y-95.119
X135.38Y-96.599
X135.38Y-98.08
X135.38Y-99.56
T3
X117.53Y-89.28
X120.06Y-104.34
X120.06Y-106.88
X120.06Y-109.42
X120.06Y-111.96
X133.6Y-104.34
X133.6Y-106.88
X133.6Y-109.42
X133.6Y-111.96
X136.16Y-89.29
T4
X121.83Y-132.732
X126.91Y-132.732
X131.99Y-132.732
T2
G00X122.51Y-88.96
M15
G01X122.51Y-89.71
M16
G05
G00X122.51Y-92.98
M15
G01X122.51Y-94.03
M16
G05
G00X131.15Y-88.96
M15
G01X131.15Y-89.71
M16
G05
G00X131.15Y-92.98
M15
G01X131.15Y-94.03
M16
G05
M30
