%TF.GenerationSoftware,KiCad,Pcbnew,9.0.0*%
%TF.CreationDate,2025-05-07T16:38:21+03:00*%
%TF.ProjectId,Testing_USB-CAN,54657374-696e-4675-9f55-53422d43414e,rev?*%
%TF.SameCoordinates,Original*%
%TF.FileFunction,Legend,Bot*%
%TF.FilePolarity,Positive*%
%FSLAX46Y46*%
G04 Gerber Fmt 4.6, Leading zero omitted, Abs format (unit mm)*
G04 Created by KiCad (PCBNEW 9.0.0) date 2025-05-07 16:38:21*
%MOMM*%
%LPD*%
G01*
G04 APERTURE LIST*
%ADD10C,0.200000*%
%ADD11C,0.300000*%
%ADD12C,0.120000*%
%ADD13C,0.127000*%
%ADD14C,0.140000*%
G04 APERTURE END LIST*
D10*
G36*
X120299780Y-88163249D02*
G01*
X120370686Y-88198702D01*
X120437758Y-88265774D01*
X120472780Y-88370838D01*
X120472780Y-88492707D01*
X119672780Y-88492707D01*
X119672780Y-88370839D01*
X119707802Y-88265774D01*
X119774875Y-88198702D01*
X119845780Y-88163249D01*
X120013661Y-88121279D01*
X120131899Y-88121279D01*
X120299780Y-88163249D01*
G37*
G36*
X120783891Y-90899056D02*
G01*
X119361669Y-90899056D01*
X119361669Y-90259374D01*
X119472780Y-90259374D01*
X119472780Y-90354612D01*
X119473752Y-90364485D01*
X119473565Y-90367120D01*
X119474352Y-90370583D01*
X119474701Y-90374121D01*
X119475712Y-90376562D01*
X119477912Y-90386235D01*
X119525532Y-90529093D01*
X119533524Y-90546993D01*
X119535878Y-90549707D01*
X119537253Y-90553026D01*
X119549689Y-90568180D01*
X119644927Y-90663418D01*
X119652593Y-90669709D01*
X119654326Y-90671707D01*
X119657337Y-90673602D01*
X119660081Y-90675854D01*
X119662518Y-90676863D01*
X119670917Y-90682150D01*
X119766154Y-90729769D01*
X119767582Y-90730315D01*
X119768162Y-90730745D01*
X119776338Y-90733666D01*
X119784463Y-90736775D01*
X119785183Y-90736826D01*
X119786622Y-90737340D01*
X119977098Y-90784959D01*
X119980479Y-90785459D01*
X119981843Y-90786024D01*
X119989193Y-90786747D01*
X119996491Y-90787827D01*
X119997949Y-90787609D01*
X120001352Y-90787945D01*
X120144209Y-90787945D01*
X120147611Y-90787609D01*
X120149070Y-90787827D01*
X120156367Y-90786747D01*
X120163718Y-90786024D01*
X120165081Y-90785459D01*
X120168463Y-90784959D01*
X120358938Y-90737340D01*
X120360375Y-90736826D01*
X120361098Y-90736775D01*
X120369222Y-90733666D01*
X120377399Y-90730745D01*
X120377979Y-90730314D01*
X120379406Y-90729769D01*
X120474644Y-90682150D01*
X120483040Y-90676864D01*
X120485480Y-90675854D01*
X120488226Y-90673600D01*
X120491234Y-90671707D01*
X120492963Y-90669712D01*
X120500634Y-90663418D01*
X120595872Y-90568180D01*
X120608308Y-90553026D01*
X120609682Y-90549707D01*
X120612038Y-90546992D01*
X120620029Y-90529092D01*
X120667648Y-90386235D01*
X120669847Y-90376562D01*
X120670859Y-90374121D01*
X120671207Y-90370583D01*
X120671995Y-90367120D01*
X120671807Y-90364485D01*
X120672780Y-90354612D01*
X120672780Y-90211755D01*
X120670859Y-90192246D01*
X120669483Y-90188925D01*
X120669229Y-90185342D01*
X120662223Y-90167033D01*
X120614604Y-90071796D01*
X120604161Y-90055205D01*
X120574684Y-90029641D01*
X120537668Y-90017302D01*
X120498748Y-90020068D01*
X120463849Y-90037517D01*
X120438285Y-90066994D01*
X120425946Y-90104010D01*
X120428712Y-90142930D01*
X120435718Y-90161238D01*
X120472780Y-90235362D01*
X120472780Y-90338385D01*
X120437758Y-90443449D01*
X120370686Y-90510521D01*
X120299780Y-90545974D01*
X120131899Y-90587945D01*
X120013661Y-90587945D01*
X119845780Y-90545974D01*
X119774875Y-90510522D01*
X119707802Y-90443449D01*
X119672780Y-90338384D01*
X119672780Y-90275601D01*
X119707802Y-90170536D01*
X119709441Y-90168898D01*
X119901352Y-90168898D01*
X119901352Y-90259374D01*
X119903273Y-90278883D01*
X119918205Y-90314931D01*
X119945795Y-90342521D01*
X119981843Y-90357453D01*
X120020861Y-90357453D01*
X120056909Y-90342521D01*
X120084499Y-90314931D01*
X120099431Y-90278883D01*
X120101352Y-90259374D01*
X120101352Y-90068898D01*
X120099431Y-90049389D01*
X120084499Y-90013341D01*
X120056909Y-89985751D01*
X120020861Y-89970819D01*
X120001352Y-89968898D01*
X119668019Y-89968898D01*
X119648510Y-89970819D01*
X119623019Y-89981377D01*
X119612461Y-89985751D01*
X119597308Y-89998188D01*
X119549689Y-90045806D01*
X119537253Y-90060960D01*
X119535878Y-90064278D01*
X119533524Y-90066993D01*
X119525532Y-90084893D01*
X119477912Y-90227751D01*
X119475712Y-90237423D01*
X119474701Y-90239865D01*
X119474352Y-90243402D01*
X119473565Y-90246866D01*
X119473752Y-90249500D01*
X119472780Y-90259374D01*
X119361669Y-90259374D01*
X119361669Y-89075883D01*
X119473024Y-89075883D01*
X119474701Y-89082031D01*
X119474701Y-89088407D01*
X119479792Y-89100697D01*
X119483291Y-89113526D01*
X119487193Y-89118564D01*
X119489633Y-89124455D01*
X119499038Y-89133860D01*
X119507181Y-89144375D01*
X119515356Y-89150178D01*
X119517223Y-89152045D01*
X119519055Y-89152803D01*
X119523166Y-89155722D01*
X120196224Y-89540326D01*
X119572780Y-89540326D01*
X119553271Y-89542247D01*
X119517223Y-89557179D01*
X119489633Y-89584769D01*
X119474701Y-89620817D01*
X119474701Y-89659835D01*
X119489633Y-89695883D01*
X119517223Y-89723473D01*
X119553271Y-89738405D01*
X119572780Y-89740326D01*
X120572780Y-89740326D01*
X120577797Y-89739831D01*
X120579765Y-89740082D01*
X120582311Y-89739387D01*
X120592289Y-89738405D01*
X120604575Y-89733315D01*
X120617408Y-89729816D01*
X120622449Y-89725911D01*
X120628337Y-89723473D01*
X120637740Y-89714069D01*
X120648257Y-89705925D01*
X120651419Y-89700390D01*
X120655927Y-89695883D01*
X120661015Y-89683597D01*
X120667616Y-89672048D01*
X120668419Y-89665723D01*
X120670859Y-89659835D01*
X120670859Y-89646535D01*
X120672536Y-89633342D01*
X120670859Y-89627192D01*
X120670859Y-89620817D01*
X120665769Y-89608530D01*
X120662270Y-89595698D01*
X120658365Y-89590656D01*
X120655927Y-89584769D01*
X120646523Y-89575365D01*
X120638379Y-89564849D01*
X120630203Y-89559045D01*
X120628337Y-89557179D01*
X120626504Y-89556420D01*
X120622394Y-89553502D01*
X119949336Y-89168898D01*
X120572780Y-89168898D01*
X120592289Y-89166977D01*
X120628337Y-89152045D01*
X120655927Y-89124455D01*
X120670859Y-89088407D01*
X120670859Y-89049389D01*
X120655927Y-89013341D01*
X120628337Y-88985751D01*
X120592289Y-88970819D01*
X120572780Y-88968898D01*
X119572780Y-88968898D01*
X119567762Y-88969392D01*
X119565795Y-88969142D01*
X119563248Y-88969836D01*
X119553271Y-88970819D01*
X119540980Y-88975910D01*
X119528152Y-88979409D01*
X119523113Y-88983311D01*
X119517223Y-88985751D01*
X119507817Y-88995156D01*
X119497303Y-89003299D01*
X119494140Y-89008833D01*
X119489633Y-89013341D01*
X119484544Y-89025626D01*
X119477944Y-89037176D01*
X119477140Y-89043500D01*
X119474701Y-89049389D01*
X119474701Y-89062689D01*
X119473024Y-89075883D01*
X119361669Y-89075883D01*
X119361669Y-88354612D01*
X119472780Y-88354612D01*
X119472780Y-88592707D01*
X119474701Y-88612216D01*
X119489633Y-88648264D01*
X119517223Y-88675854D01*
X119553271Y-88690786D01*
X119572780Y-88692707D01*
X120572780Y-88692707D01*
X120592289Y-88690786D01*
X120628337Y-88675854D01*
X120655927Y-88648264D01*
X120670859Y-88612216D01*
X120672780Y-88592707D01*
X120672780Y-88354612D01*
X120671807Y-88344738D01*
X120671995Y-88342104D01*
X120671207Y-88338640D01*
X120670859Y-88335103D01*
X120669847Y-88332661D01*
X120667648Y-88322989D01*
X120620029Y-88180132D01*
X120612038Y-88162232D01*
X120609682Y-88159516D01*
X120608308Y-88156198D01*
X120595872Y-88141044D01*
X120500634Y-88045806D01*
X120492963Y-88039511D01*
X120491234Y-88037517D01*
X120488226Y-88035623D01*
X120485480Y-88033370D01*
X120483040Y-88032359D01*
X120474644Y-88027074D01*
X120379406Y-87979455D01*
X120377979Y-87978909D01*
X120377399Y-87978479D01*
X120369222Y-87975557D01*
X120361098Y-87972449D01*
X120360375Y-87972397D01*
X120358938Y-87971884D01*
X120168463Y-87924265D01*
X120165081Y-87923764D01*
X120163718Y-87923200D01*
X120156367Y-87922476D01*
X120149070Y-87921397D01*
X120147611Y-87921614D01*
X120144209Y-87921279D01*
X120001352Y-87921279D01*
X119997949Y-87921614D01*
X119996491Y-87921397D01*
X119989193Y-87922476D01*
X119981843Y-87923200D01*
X119980479Y-87923764D01*
X119977098Y-87924265D01*
X119786622Y-87971884D01*
X119785183Y-87972397D01*
X119784463Y-87972449D01*
X119776338Y-87975557D01*
X119768162Y-87978479D01*
X119767582Y-87978908D01*
X119766154Y-87979455D01*
X119670917Y-88027074D01*
X119662518Y-88032360D01*
X119660081Y-88033370D01*
X119657337Y-88035621D01*
X119654326Y-88037517D01*
X119652593Y-88039514D01*
X119644927Y-88045806D01*
X119549689Y-88141044D01*
X119537253Y-88156198D01*
X119535878Y-88159516D01*
X119533524Y-88162231D01*
X119525532Y-88180131D01*
X119477912Y-88322989D01*
X119475712Y-88332661D01*
X119474701Y-88335103D01*
X119474352Y-88338640D01*
X119473565Y-88342104D01*
X119473752Y-88344738D01*
X119472780Y-88354612D01*
X119361669Y-88354612D01*
X119361669Y-87810168D01*
X120783891Y-87810168D01*
X120783891Y-90899056D01*
G37*
G36*
X133879780Y-88173249D02*
G01*
X133950686Y-88208702D01*
X134017758Y-88275774D01*
X134052780Y-88380838D01*
X134052780Y-88502707D01*
X133252780Y-88502707D01*
X133252780Y-88380839D01*
X133287802Y-88275774D01*
X133354875Y-88208702D01*
X133425780Y-88173249D01*
X133593661Y-88131279D01*
X133711899Y-88131279D01*
X133879780Y-88173249D01*
G37*
G36*
X134363891Y-90909056D02*
G01*
X132941669Y-90909056D01*
X132941669Y-90269374D01*
X133052780Y-90269374D01*
X133052780Y-90364612D01*
X133053752Y-90374485D01*
X133053565Y-90377120D01*
X133054352Y-90380583D01*
X133054701Y-90384121D01*
X133055712Y-90386562D01*
X133057912Y-90396235D01*
X133105532Y-90539093D01*
X133113524Y-90556993D01*
X133115878Y-90559707D01*
X133117253Y-90563026D01*
X133129689Y-90578180D01*
X133224927Y-90673418D01*
X133232593Y-90679709D01*
X133234326Y-90681707D01*
X133237337Y-90683602D01*
X133240081Y-90685854D01*
X133242518Y-90686863D01*
X133250917Y-90692150D01*
X133346154Y-90739769D01*
X133347582Y-90740315D01*
X133348162Y-90740745D01*
X133356338Y-90743666D01*
X133364463Y-90746775D01*
X133365183Y-90746826D01*
X133366622Y-90747340D01*
X133557098Y-90794959D01*
X133560479Y-90795459D01*
X133561843Y-90796024D01*
X133569193Y-90796747D01*
X133576491Y-90797827D01*
X133577949Y-90797609D01*
X133581352Y-90797945D01*
X133724209Y-90797945D01*
X133727611Y-90797609D01*
X133729070Y-90797827D01*
X133736367Y-90796747D01*
X133743718Y-90796024D01*
X133745081Y-90795459D01*
X133748463Y-90794959D01*
X133938938Y-90747340D01*
X133940375Y-90746826D01*
X133941098Y-90746775D01*
X133949222Y-90743666D01*
X133957399Y-90740745D01*
X133957979Y-90740314D01*
X133959406Y-90739769D01*
X134054644Y-90692150D01*
X134063040Y-90686864D01*
X134065480Y-90685854D01*
X134068226Y-90683600D01*
X134071234Y-90681707D01*
X134072963Y-90679712D01*
X134080634Y-90673418D01*
X134175872Y-90578180D01*
X134188308Y-90563026D01*
X134189682Y-90559707D01*
X134192038Y-90556992D01*
X134200029Y-90539092D01*
X134247648Y-90396235D01*
X134249847Y-90386562D01*
X134250859Y-90384121D01*
X134251207Y-90380583D01*
X134251995Y-90377120D01*
X134251807Y-90374485D01*
X134252780Y-90364612D01*
X134252780Y-90221755D01*
X134250859Y-90202246D01*
X134249483Y-90198925D01*
X134249229Y-90195342D01*
X134242223Y-90177033D01*
X134194604Y-90081796D01*
X134184161Y-90065205D01*
X134154684Y-90039641D01*
X134117668Y-90027302D01*
X134078748Y-90030068D01*
X134043849Y-90047517D01*
X134018285Y-90076994D01*
X134005946Y-90114010D01*
X134008712Y-90152930D01*
X134015718Y-90171238D01*
X134052780Y-90245362D01*
X134052780Y-90348385D01*
X134017758Y-90453449D01*
X133950686Y-90520521D01*
X133879780Y-90555974D01*
X133711899Y-90597945D01*
X133593661Y-90597945D01*
X133425780Y-90555974D01*
X133354875Y-90520522D01*
X133287802Y-90453449D01*
X133252780Y-90348384D01*
X133252780Y-90285601D01*
X133287802Y-90180536D01*
X133289441Y-90178898D01*
X133481352Y-90178898D01*
X133481352Y-90269374D01*
X133483273Y-90288883D01*
X133498205Y-90324931D01*
X133525795Y-90352521D01*
X133561843Y-90367453D01*
X133600861Y-90367453D01*
X133636909Y-90352521D01*
X133664499Y-90324931D01*
X133679431Y-90288883D01*
X133681352Y-90269374D01*
X133681352Y-90078898D01*
X133679431Y-90059389D01*
X133664499Y-90023341D01*
X133636909Y-89995751D01*
X133600861Y-89980819D01*
X133581352Y-89978898D01*
X133248019Y-89978898D01*
X133228510Y-89980819D01*
X133203019Y-89991377D01*
X133192461Y-89995751D01*
X133177308Y-90008188D01*
X133129689Y-90055806D01*
X133117253Y-90070960D01*
X133115878Y-90074278D01*
X133113524Y-90076993D01*
X133105532Y-90094893D01*
X133057912Y-90237751D01*
X133055712Y-90247423D01*
X133054701Y-90249865D01*
X133054352Y-90253402D01*
X133053565Y-90256866D01*
X133053752Y-90259500D01*
X133052780Y-90269374D01*
X132941669Y-90269374D01*
X132941669Y-89085883D01*
X133053024Y-89085883D01*
X133054701Y-89092031D01*
X133054701Y-89098407D01*
X133059792Y-89110697D01*
X133063291Y-89123526D01*
X133067193Y-89128564D01*
X133069633Y-89134455D01*
X133079038Y-89143860D01*
X133087181Y-89154375D01*
X133095356Y-89160178D01*
X133097223Y-89162045D01*
X133099055Y-89162803D01*
X133103166Y-89165722D01*
X133776224Y-89550326D01*
X133152780Y-89550326D01*
X133133271Y-89552247D01*
X133097223Y-89567179D01*
X133069633Y-89594769D01*
X133054701Y-89630817D01*
X133054701Y-89669835D01*
X133069633Y-89705883D01*
X133097223Y-89733473D01*
X133133271Y-89748405D01*
X133152780Y-89750326D01*
X134152780Y-89750326D01*
X134157797Y-89749831D01*
X134159765Y-89750082D01*
X134162311Y-89749387D01*
X134172289Y-89748405D01*
X134184575Y-89743315D01*
X134197408Y-89739816D01*
X134202449Y-89735911D01*
X134208337Y-89733473D01*
X134217740Y-89724069D01*
X134228257Y-89715925D01*
X134231419Y-89710390D01*
X134235927Y-89705883D01*
X134241015Y-89693597D01*
X134247616Y-89682048D01*
X134248419Y-89675723D01*
X134250859Y-89669835D01*
X134250859Y-89656535D01*
X134252536Y-89643342D01*
X134250859Y-89637192D01*
X134250859Y-89630817D01*
X134245769Y-89618530D01*
X134242270Y-89605698D01*
X134238365Y-89600656D01*
X134235927Y-89594769D01*
X134226523Y-89585365D01*
X134218379Y-89574849D01*
X134210203Y-89569045D01*
X134208337Y-89567179D01*
X134206504Y-89566420D01*
X134202394Y-89563502D01*
X133529336Y-89178898D01*
X134152780Y-89178898D01*
X134172289Y-89176977D01*
X134208337Y-89162045D01*
X134235927Y-89134455D01*
X134250859Y-89098407D01*
X134250859Y-89059389D01*
X134235927Y-89023341D01*
X134208337Y-88995751D01*
X134172289Y-88980819D01*
X134152780Y-88978898D01*
X133152780Y-88978898D01*
X133147762Y-88979392D01*
X133145795Y-88979142D01*
X133143248Y-88979836D01*
X133133271Y-88980819D01*
X133120980Y-88985910D01*
X133108152Y-88989409D01*
X133103113Y-88993311D01*
X133097223Y-88995751D01*
X133087817Y-89005156D01*
X133077303Y-89013299D01*
X133074140Y-89018833D01*
X133069633Y-89023341D01*
X133064544Y-89035626D01*
X133057944Y-89047176D01*
X133057140Y-89053500D01*
X133054701Y-89059389D01*
X133054701Y-89072689D01*
X133053024Y-89085883D01*
X132941669Y-89085883D01*
X132941669Y-88364612D01*
X133052780Y-88364612D01*
X133052780Y-88602707D01*
X133054701Y-88622216D01*
X133069633Y-88658264D01*
X133097223Y-88685854D01*
X133133271Y-88700786D01*
X133152780Y-88702707D01*
X134152780Y-88702707D01*
X134172289Y-88700786D01*
X134208337Y-88685854D01*
X134235927Y-88658264D01*
X134250859Y-88622216D01*
X134252780Y-88602707D01*
X134252780Y-88364612D01*
X134251807Y-88354738D01*
X134251995Y-88352104D01*
X134251207Y-88348640D01*
X134250859Y-88345103D01*
X134249847Y-88342661D01*
X134247648Y-88332989D01*
X134200029Y-88190132D01*
X134192038Y-88172232D01*
X134189682Y-88169516D01*
X134188308Y-88166198D01*
X134175872Y-88151044D01*
X134080634Y-88055806D01*
X134072963Y-88049511D01*
X134071234Y-88047517D01*
X134068226Y-88045623D01*
X134065480Y-88043370D01*
X134063040Y-88042359D01*
X134054644Y-88037074D01*
X133959406Y-87989455D01*
X133957979Y-87988909D01*
X133957399Y-87988479D01*
X133949222Y-87985557D01*
X133941098Y-87982449D01*
X133940375Y-87982397D01*
X133938938Y-87981884D01*
X133748463Y-87934265D01*
X133745081Y-87933764D01*
X133743718Y-87933200D01*
X133736367Y-87932476D01*
X133729070Y-87931397D01*
X133727611Y-87931614D01*
X133724209Y-87931279D01*
X133581352Y-87931279D01*
X133577949Y-87931614D01*
X133576491Y-87931397D01*
X133569193Y-87932476D01*
X133561843Y-87933200D01*
X133560479Y-87933764D01*
X133557098Y-87934265D01*
X133366622Y-87981884D01*
X133365183Y-87982397D01*
X133364463Y-87982449D01*
X133356338Y-87985557D01*
X133348162Y-87988479D01*
X133347582Y-87988908D01*
X133346154Y-87989455D01*
X133250917Y-88037074D01*
X133242518Y-88042360D01*
X133240081Y-88043370D01*
X133237337Y-88045621D01*
X133234326Y-88047517D01*
X133232593Y-88049514D01*
X133224927Y-88055806D01*
X133129689Y-88151044D01*
X133117253Y-88166198D01*
X133115878Y-88169516D01*
X133113524Y-88172231D01*
X133105532Y-88190131D01*
X133057912Y-88332989D01*
X133055712Y-88342661D01*
X133054701Y-88345103D01*
X133054352Y-88348640D01*
X133053565Y-88352104D01*
X133053752Y-88354738D01*
X133052780Y-88364612D01*
X132941669Y-88364612D01*
X132941669Y-87820168D01*
X134363891Y-87820168D01*
X134363891Y-90909056D01*
G37*
D11*
G36*
X132456019Y-139555488D02*
G01*
X131651790Y-139823564D01*
X131651790Y-139287411D01*
X132456019Y-139555488D01*
G37*
G36*
X133302583Y-142403901D02*
G01*
X130558139Y-142403901D01*
X130558139Y-141174536D01*
X130780361Y-141174536D01*
X130780361Y-141365012D01*
X130781819Y-141379823D01*
X130781539Y-141383773D01*
X130782720Y-141388967D01*
X130783243Y-141394276D01*
X130784760Y-141397938D01*
X130788059Y-141412446D01*
X130883298Y-141698161D01*
X130895286Y-141725012D01*
X130898816Y-141729082D01*
X130900879Y-141734062D01*
X130919534Y-141756793D01*
X131110010Y-141947269D01*
X131121511Y-141956708D01*
X131124108Y-141959702D01*
X131128621Y-141962542D01*
X131132741Y-141965924D01*
X131136400Y-141967439D01*
X131148994Y-141975367D01*
X131339470Y-142070605D01*
X131341608Y-142071423D01*
X131342480Y-142072069D01*
X131354753Y-142076453D01*
X131366934Y-142081115D01*
X131368016Y-142081191D01*
X131370172Y-142081962D01*
X131751123Y-142177200D01*
X131756195Y-142177950D01*
X131758240Y-142178797D01*
X131769261Y-142179882D01*
X131780213Y-142181502D01*
X131782400Y-142181176D01*
X131787504Y-142181679D01*
X132073219Y-142181679D01*
X132078322Y-142181176D01*
X132080510Y-142181502D01*
X132091460Y-142179882D01*
X132102483Y-142178797D01*
X132104527Y-142177949D01*
X132109599Y-142177200D01*
X132490551Y-142081962D01*
X132492706Y-142081191D01*
X132493790Y-142081115D01*
X132505986Y-142076447D01*
X132518242Y-142072069D01*
X132519112Y-142071424D01*
X132521253Y-142070605D01*
X132711729Y-141975367D01*
X132724322Y-141967439D01*
X132727982Y-141965924D01*
X132732101Y-141962542D01*
X132736615Y-141959702D01*
X132739211Y-141956707D01*
X132750713Y-141947269D01*
X132941189Y-141756793D01*
X132959844Y-141734062D01*
X132961906Y-141729082D01*
X132965437Y-141725012D01*
X132977426Y-141698161D01*
X133072664Y-141412446D01*
X133075963Y-141397933D01*
X133077479Y-141394276D01*
X133078001Y-141388973D01*
X133079184Y-141383772D01*
X133078902Y-141379817D01*
X133080361Y-141365012D01*
X133080361Y-141174536D01*
X133078902Y-141159724D01*
X133079183Y-141155775D01*
X133078001Y-141150580D01*
X133077479Y-141145272D01*
X133075961Y-141141609D01*
X133072663Y-141127102D01*
X132977425Y-140841388D01*
X132965437Y-140814537D01*
X132961906Y-140810466D01*
X132959844Y-140805487D01*
X132941189Y-140782756D01*
X132845951Y-140687518D01*
X132823220Y-140668863D01*
X132769148Y-140646466D01*
X132710622Y-140646466D01*
X132656550Y-140668863D01*
X132615164Y-140710249D01*
X132592767Y-140764321D01*
X132592767Y-140822847D01*
X132615164Y-140876919D01*
X132633819Y-140899650D01*
X132704019Y-140969850D01*
X132780361Y-141198876D01*
X132780361Y-141340669D01*
X132704017Y-141569700D01*
X132555793Y-141717925D01*
X132401815Y-141794913D01*
X132054755Y-141881679D01*
X131805968Y-141881679D01*
X131458908Y-141794914D01*
X131304930Y-141717925D01*
X131156704Y-141569699D01*
X131080361Y-141340671D01*
X131080361Y-141198877D01*
X131156704Y-140969849D01*
X131226904Y-140899650D01*
X131245559Y-140876919D01*
X131267956Y-140822847D01*
X131267956Y-140764321D01*
X131245559Y-140710249D01*
X131204173Y-140668863D01*
X131150101Y-140646466D01*
X131091575Y-140646466D01*
X131037503Y-140668863D01*
X131014772Y-140687518D01*
X130919534Y-140782756D01*
X130900879Y-140805487D01*
X130898816Y-140810466D01*
X130895286Y-140814537D01*
X130883298Y-140841388D01*
X130788059Y-141127101D01*
X130784759Y-141141610D01*
X130783243Y-141145272D01*
X130782720Y-141150580D01*
X130781539Y-141155775D01*
X130781819Y-141159724D01*
X130780361Y-141174536D01*
X130558139Y-141174536D01*
X130558139Y-138870061D01*
X130781539Y-138870061D01*
X130785688Y-138928442D01*
X130811862Y-138980789D01*
X130856076Y-139019136D01*
X130882927Y-139031124D01*
X131351790Y-139187411D01*
X131351790Y-139923564D01*
X130882927Y-140079852D01*
X130856076Y-140091841D01*
X130811862Y-140130188D01*
X130785688Y-140182535D01*
X130781539Y-140240915D01*
X130800047Y-140296440D01*
X130838394Y-140340654D01*
X130890741Y-140366828D01*
X130949121Y-140370977D01*
X130977795Y-140364458D01*
X132977795Y-139697791D01*
X133004646Y-139685803D01*
X133012743Y-139678779D01*
X133022327Y-139673988D01*
X133034648Y-139659781D01*
X133048860Y-139647456D01*
X133053653Y-139637870D01*
X133060675Y-139629774D01*
X133066622Y-139611932D01*
X133075034Y-139595109D01*
X133075794Y-139584415D01*
X133079183Y-139574249D01*
X133077850Y-139555493D01*
X133079184Y-139536728D01*
X133075793Y-139526557D01*
X133075034Y-139515869D01*
X133066623Y-139499047D01*
X133060675Y-139481204D01*
X133053652Y-139473107D01*
X133048860Y-139463522D01*
X133034651Y-139451198D01*
X133022328Y-139436990D01*
X133012742Y-139432197D01*
X133004646Y-139425175D01*
X132977795Y-139413186D01*
X130977795Y-138746520D01*
X130949122Y-138740000D01*
X130890741Y-138744149D01*
X130838394Y-138770323D01*
X130800047Y-138814537D01*
X130781539Y-138870061D01*
X130558139Y-138870061D01*
X130558139Y-137089775D01*
X130780727Y-137089775D01*
X130783243Y-137098999D01*
X130783243Y-137108562D01*
X130790878Y-137126994D01*
X130796127Y-137146239D01*
X130801981Y-137153798D01*
X130805641Y-137162634D01*
X130819748Y-137176741D01*
X130831962Y-137192513D01*
X130844225Y-137201218D01*
X130847025Y-137204018D01*
X130849772Y-137205156D01*
X130855940Y-137209534D01*
X132365527Y-138072155D01*
X130930361Y-138072155D01*
X130901097Y-138075037D01*
X130847025Y-138097435D01*
X130805641Y-138138819D01*
X130783243Y-138192891D01*
X130783243Y-138251419D01*
X130805641Y-138305491D01*
X130847025Y-138346875D01*
X130901097Y-138369273D01*
X130930361Y-138372155D01*
X132930361Y-138372155D01*
X132937891Y-138371413D01*
X132940838Y-138371788D01*
X132944653Y-138370747D01*
X132959625Y-138369273D01*
X132978060Y-138361636D01*
X132997302Y-138356389D01*
X133004861Y-138350534D01*
X133013697Y-138346875D01*
X133027804Y-138332767D01*
X133043576Y-138320554D01*
X133048320Y-138312251D01*
X133055081Y-138305491D01*
X133062715Y-138287060D01*
X133072614Y-138269738D01*
X133073819Y-138260253D01*
X133077479Y-138251419D01*
X133077479Y-138231463D01*
X133079994Y-138211677D01*
X133077479Y-138202455D01*
X133077479Y-138192891D01*
X133069842Y-138174456D01*
X133064595Y-138155214D01*
X133058740Y-138147654D01*
X133055081Y-138138819D01*
X133040973Y-138124711D01*
X133028760Y-138108940D01*
X133016495Y-138100233D01*
X133013697Y-138097435D01*
X133010951Y-138096297D01*
X133004782Y-138091918D01*
X131495195Y-137229298D01*
X132930361Y-137229298D01*
X132959625Y-137226416D01*
X133013697Y-137204018D01*
X133055081Y-137162634D01*
X133077479Y-137108562D01*
X133077479Y-137050034D01*
X133055081Y-136995962D01*
X133013697Y-136954578D01*
X132959625Y-136932180D01*
X132930361Y-136929298D01*
X130930361Y-136929298D01*
X130922835Y-136930039D01*
X130919884Y-136929664D01*
X130916063Y-136930706D01*
X130901097Y-136932180D01*
X130882664Y-136939815D01*
X130863420Y-136945064D01*
X130855860Y-136950918D01*
X130847025Y-136954578D01*
X130832917Y-136968685D01*
X130817146Y-136980899D01*
X130812401Y-136989201D01*
X130805641Y-136995962D01*
X130798006Y-137014392D01*
X130788108Y-137031715D01*
X130786902Y-137041200D01*
X130783243Y-137050034D01*
X130783243Y-137069983D01*
X130780727Y-137089775D01*
X130558139Y-137089775D01*
X130558139Y-134954796D01*
X130783243Y-134954796D01*
X130783243Y-135013324D01*
X130805641Y-135067396D01*
X130847025Y-135108780D01*
X130901097Y-135131178D01*
X130930361Y-135134060D01*
X131827980Y-135134060D01*
X131827980Y-135976917D01*
X130930361Y-135976917D01*
X130901097Y-135979799D01*
X130847025Y-136002197D01*
X130805641Y-136043581D01*
X130783243Y-136097653D01*
X130783243Y-136156181D01*
X130805641Y-136210253D01*
X130847025Y-136251637D01*
X130901097Y-136274035D01*
X130930361Y-136276917D01*
X132930361Y-136276917D01*
X132959625Y-136274035D01*
X133013697Y-136251637D01*
X133055081Y-136210253D01*
X133077479Y-136156181D01*
X133077479Y-136097653D01*
X133055081Y-136043581D01*
X133013697Y-136002197D01*
X132959625Y-135979799D01*
X132930361Y-135976917D01*
X132127980Y-135976917D01*
X132127980Y-135134060D01*
X132930361Y-135134060D01*
X132959625Y-135131178D01*
X133013697Y-135108780D01*
X133055081Y-135067396D01*
X133077479Y-135013324D01*
X133077479Y-134954796D01*
X133055081Y-134900724D01*
X133013697Y-134859340D01*
X132959625Y-134836942D01*
X132930361Y-134834060D01*
X130930361Y-134834060D01*
X130901097Y-134836942D01*
X130847025Y-134859340D01*
X130805641Y-134900724D01*
X130783243Y-134954796D01*
X130558139Y-134954796D01*
X130558139Y-134611838D01*
X133302583Y-134611838D01*
X133302583Y-142403901D01*
G37*
G36*
X122216019Y-139555488D02*
G01*
X121411790Y-139823564D01*
X121411790Y-139287411D01*
X122216019Y-139555488D01*
G37*
G36*
X123062583Y-142403901D02*
G01*
X120318139Y-142403901D01*
X120318139Y-141174536D01*
X120540361Y-141174536D01*
X120540361Y-141365012D01*
X120541819Y-141379823D01*
X120541539Y-141383773D01*
X120542720Y-141388967D01*
X120543243Y-141394276D01*
X120544760Y-141397938D01*
X120548059Y-141412446D01*
X120643298Y-141698161D01*
X120655286Y-141725012D01*
X120658816Y-141729082D01*
X120660879Y-141734062D01*
X120679534Y-141756793D01*
X120870010Y-141947269D01*
X120881511Y-141956708D01*
X120884108Y-141959702D01*
X120888621Y-141962542D01*
X120892741Y-141965924D01*
X120896400Y-141967439D01*
X120908994Y-141975367D01*
X121099470Y-142070605D01*
X121101608Y-142071423D01*
X121102480Y-142072069D01*
X121114753Y-142076453D01*
X121126934Y-142081115D01*
X121128016Y-142081191D01*
X121130172Y-142081962D01*
X121511123Y-142177200D01*
X121516195Y-142177950D01*
X121518240Y-142178797D01*
X121529261Y-142179882D01*
X121540213Y-142181502D01*
X121542400Y-142181176D01*
X121547504Y-142181679D01*
X121833219Y-142181679D01*
X121838322Y-142181176D01*
X121840510Y-142181502D01*
X121851460Y-142179882D01*
X121862483Y-142178797D01*
X121864527Y-142177949D01*
X121869599Y-142177200D01*
X122250551Y-142081962D01*
X122252706Y-142081191D01*
X122253790Y-142081115D01*
X122265986Y-142076447D01*
X122278242Y-142072069D01*
X122279112Y-142071424D01*
X122281253Y-142070605D01*
X122471729Y-141975367D01*
X122484322Y-141967439D01*
X122487982Y-141965924D01*
X122492101Y-141962542D01*
X122496615Y-141959702D01*
X122499211Y-141956707D01*
X122510713Y-141947269D01*
X122701189Y-141756793D01*
X122719844Y-141734062D01*
X122721906Y-141729082D01*
X122725437Y-141725012D01*
X122737426Y-141698161D01*
X122832664Y-141412446D01*
X122835963Y-141397933D01*
X122837479Y-141394276D01*
X122838001Y-141388973D01*
X122839184Y-141383772D01*
X122838902Y-141379817D01*
X122840361Y-141365012D01*
X122840361Y-141174536D01*
X122838902Y-141159724D01*
X122839183Y-141155775D01*
X122838001Y-141150580D01*
X122837479Y-141145272D01*
X122835961Y-141141609D01*
X122832663Y-141127102D01*
X122737425Y-140841388D01*
X122725437Y-140814537D01*
X122721906Y-140810466D01*
X122719844Y-140805487D01*
X122701189Y-140782756D01*
X122605951Y-140687518D01*
X122583220Y-140668863D01*
X122529148Y-140646466D01*
X122470622Y-140646466D01*
X122416550Y-140668863D01*
X122375164Y-140710249D01*
X122352767Y-140764321D01*
X122352767Y-140822847D01*
X122375164Y-140876919D01*
X122393819Y-140899650D01*
X122464019Y-140969850D01*
X122540361Y-141198876D01*
X122540361Y-141340669D01*
X122464017Y-141569700D01*
X122315793Y-141717925D01*
X122161815Y-141794913D01*
X121814755Y-141881679D01*
X121565968Y-141881679D01*
X121218908Y-141794914D01*
X121064930Y-141717925D01*
X120916704Y-141569699D01*
X120840361Y-141340671D01*
X120840361Y-141198877D01*
X120916704Y-140969849D01*
X120986904Y-140899650D01*
X121005559Y-140876919D01*
X121027956Y-140822847D01*
X121027956Y-140764321D01*
X121005559Y-140710249D01*
X120964173Y-140668863D01*
X120910101Y-140646466D01*
X120851575Y-140646466D01*
X120797503Y-140668863D01*
X120774772Y-140687518D01*
X120679534Y-140782756D01*
X120660879Y-140805487D01*
X120658816Y-140810466D01*
X120655286Y-140814537D01*
X120643298Y-140841388D01*
X120548059Y-141127101D01*
X120544759Y-141141610D01*
X120543243Y-141145272D01*
X120542720Y-141150580D01*
X120541539Y-141155775D01*
X120541819Y-141159724D01*
X120540361Y-141174536D01*
X120318139Y-141174536D01*
X120318139Y-138870061D01*
X120541539Y-138870061D01*
X120545688Y-138928442D01*
X120571862Y-138980789D01*
X120616076Y-139019136D01*
X120642927Y-139031124D01*
X121111790Y-139187411D01*
X121111790Y-139923564D01*
X120642927Y-140079852D01*
X120616076Y-140091841D01*
X120571862Y-140130188D01*
X120545688Y-140182535D01*
X120541539Y-140240915D01*
X120560047Y-140296440D01*
X120598394Y-140340654D01*
X120650741Y-140366828D01*
X120709121Y-140370977D01*
X120737795Y-140364458D01*
X122737795Y-139697791D01*
X122764646Y-139685803D01*
X122772743Y-139678779D01*
X122782327Y-139673988D01*
X122794648Y-139659781D01*
X122808860Y-139647456D01*
X122813653Y-139637870D01*
X122820675Y-139629774D01*
X122826622Y-139611932D01*
X122835034Y-139595109D01*
X122835794Y-139584415D01*
X122839183Y-139574249D01*
X122837850Y-139555493D01*
X122839184Y-139536728D01*
X122835793Y-139526557D01*
X122835034Y-139515869D01*
X122826623Y-139499047D01*
X122820675Y-139481204D01*
X122813652Y-139473107D01*
X122808860Y-139463522D01*
X122794651Y-139451198D01*
X122782328Y-139436990D01*
X122772742Y-139432197D01*
X122764646Y-139425175D01*
X122737795Y-139413186D01*
X120737795Y-138746520D01*
X120709122Y-138740000D01*
X120650741Y-138744149D01*
X120598394Y-138770323D01*
X120560047Y-138814537D01*
X120541539Y-138870061D01*
X120318139Y-138870061D01*
X120318139Y-137089775D01*
X120540727Y-137089775D01*
X120543243Y-137098999D01*
X120543243Y-137108562D01*
X120550878Y-137126994D01*
X120556127Y-137146239D01*
X120561981Y-137153798D01*
X120565641Y-137162634D01*
X120579748Y-137176741D01*
X120591962Y-137192513D01*
X120604225Y-137201218D01*
X120607025Y-137204018D01*
X120609772Y-137205156D01*
X120615940Y-137209534D01*
X122125527Y-138072155D01*
X120690361Y-138072155D01*
X120661097Y-138075037D01*
X120607025Y-138097435D01*
X120565641Y-138138819D01*
X120543243Y-138192891D01*
X120543243Y-138251419D01*
X120565641Y-138305491D01*
X120607025Y-138346875D01*
X120661097Y-138369273D01*
X120690361Y-138372155D01*
X122690361Y-138372155D01*
X122697891Y-138371413D01*
X122700838Y-138371788D01*
X122704653Y-138370747D01*
X122719625Y-138369273D01*
X122738060Y-138361636D01*
X122757302Y-138356389D01*
X122764861Y-138350534D01*
X122773697Y-138346875D01*
X122787804Y-138332767D01*
X122803576Y-138320554D01*
X122808320Y-138312251D01*
X122815081Y-138305491D01*
X122822715Y-138287060D01*
X122832614Y-138269738D01*
X122833819Y-138260253D01*
X122837479Y-138251419D01*
X122837479Y-138231463D01*
X122839994Y-138211677D01*
X122837479Y-138202455D01*
X122837479Y-138192891D01*
X122829842Y-138174456D01*
X122824595Y-138155214D01*
X122818740Y-138147654D01*
X122815081Y-138138819D01*
X122800973Y-138124711D01*
X122788760Y-138108940D01*
X122776495Y-138100233D01*
X122773697Y-138097435D01*
X122770951Y-138096297D01*
X122764782Y-138091918D01*
X121255195Y-137229298D01*
X122690361Y-137229298D01*
X122719625Y-137226416D01*
X122773697Y-137204018D01*
X122815081Y-137162634D01*
X122837479Y-137108562D01*
X122837479Y-137050034D01*
X122815081Y-136995962D01*
X122773697Y-136954578D01*
X122719625Y-136932180D01*
X122690361Y-136929298D01*
X120690361Y-136929298D01*
X120682835Y-136930039D01*
X120679884Y-136929664D01*
X120676063Y-136930706D01*
X120661097Y-136932180D01*
X120642664Y-136939815D01*
X120623420Y-136945064D01*
X120615860Y-136950918D01*
X120607025Y-136954578D01*
X120592917Y-136968685D01*
X120577146Y-136980899D01*
X120572401Y-136989201D01*
X120565641Y-136995962D01*
X120558006Y-137014392D01*
X120548108Y-137031715D01*
X120546902Y-137041200D01*
X120543243Y-137050034D01*
X120543243Y-137069983D01*
X120540727Y-137089775D01*
X120318139Y-137089775D01*
X120318139Y-135174536D01*
X120540361Y-135174536D01*
X120540361Y-136126917D01*
X120543243Y-136156181D01*
X120565641Y-136210253D01*
X120607025Y-136251637D01*
X120661097Y-136274035D01*
X120690361Y-136276917D01*
X122690361Y-136276917D01*
X122719625Y-136274035D01*
X122773697Y-136251637D01*
X122815081Y-136210253D01*
X122837479Y-136156181D01*
X122837479Y-136097653D01*
X122815081Y-136043581D01*
X122773697Y-136002197D01*
X122719625Y-135979799D01*
X122690361Y-135976917D01*
X120840361Y-135976917D01*
X120840361Y-135174536D01*
X120837479Y-135145272D01*
X120815081Y-135091200D01*
X120773697Y-135049816D01*
X120719625Y-135027418D01*
X120661097Y-135027418D01*
X120607025Y-135049816D01*
X120565641Y-135091200D01*
X120543243Y-135145272D01*
X120540361Y-135174536D01*
X120318139Y-135174536D01*
X120318139Y-134805196D01*
X123062583Y-134805196D01*
X123062583Y-142403901D01*
G37*
G36*
X127281815Y-136935111D02*
G01*
X127435793Y-137012100D01*
X127584017Y-137160324D01*
X127660361Y-137389355D01*
X127660361Y-137691203D01*
X125960361Y-137691203D01*
X125960361Y-137389353D01*
X126036704Y-137160325D01*
X126184930Y-137012100D01*
X126338908Y-136935111D01*
X126685968Y-136848346D01*
X126934755Y-136848346D01*
X127281815Y-136935111D01*
G37*
G36*
X128182583Y-142403901D02*
G01*
X125438139Y-142403901D01*
X125438139Y-141174536D01*
X125660361Y-141174536D01*
X125660361Y-141365012D01*
X125661819Y-141379823D01*
X125661539Y-141383773D01*
X125662720Y-141388967D01*
X125663243Y-141394276D01*
X125664760Y-141397938D01*
X125668059Y-141412446D01*
X125763298Y-141698161D01*
X125775286Y-141725012D01*
X125778816Y-141729082D01*
X125780879Y-141734062D01*
X125799534Y-141756793D01*
X125990010Y-141947269D01*
X126001511Y-141956708D01*
X126004108Y-141959702D01*
X126008621Y-141962542D01*
X126012741Y-141965924D01*
X126016400Y-141967439D01*
X126028994Y-141975367D01*
X126219470Y-142070605D01*
X126221608Y-142071423D01*
X126222480Y-142072069D01*
X126234753Y-142076453D01*
X126246934Y-142081115D01*
X126248016Y-142081191D01*
X126250172Y-142081962D01*
X126631123Y-142177200D01*
X126636195Y-142177950D01*
X126638240Y-142178797D01*
X126649261Y-142179882D01*
X126660213Y-142181502D01*
X126662400Y-142181176D01*
X126667504Y-142181679D01*
X126953219Y-142181679D01*
X126958322Y-142181176D01*
X126960510Y-142181502D01*
X126971460Y-142179882D01*
X126982483Y-142178797D01*
X126984527Y-142177949D01*
X126989599Y-142177200D01*
X127370551Y-142081962D01*
X127372706Y-142081191D01*
X127373790Y-142081115D01*
X127385986Y-142076447D01*
X127398242Y-142072069D01*
X127399112Y-142071424D01*
X127401253Y-142070605D01*
X127591729Y-141975367D01*
X127604322Y-141967439D01*
X127607982Y-141965924D01*
X127612101Y-141962542D01*
X127616615Y-141959702D01*
X127619211Y-141956707D01*
X127630713Y-141947269D01*
X127821189Y-141756793D01*
X127839844Y-141734062D01*
X127841906Y-141729082D01*
X127845437Y-141725012D01*
X127857426Y-141698161D01*
X127952664Y-141412446D01*
X127955963Y-141397933D01*
X127957479Y-141394276D01*
X127958001Y-141388973D01*
X127959184Y-141383772D01*
X127958902Y-141379817D01*
X127960361Y-141365012D01*
X127960361Y-141079298D01*
X127957479Y-141050034D01*
X127955416Y-141045055D01*
X127955035Y-141039680D01*
X127944525Y-141012216D01*
X127849287Y-140821740D01*
X127833622Y-140796854D01*
X127789407Y-140758508D01*
X127733885Y-140740000D01*
X127675504Y-140744148D01*
X127623155Y-140770323D01*
X127584809Y-140814538D01*
X127566301Y-140870060D01*
X127570449Y-140928441D01*
X127580959Y-140955904D01*
X127660361Y-141114708D01*
X127660361Y-141340669D01*
X127584017Y-141569700D01*
X127435793Y-141717925D01*
X127281815Y-141794913D01*
X126934755Y-141881679D01*
X126685968Y-141881679D01*
X126338908Y-141794914D01*
X126184930Y-141717925D01*
X126036704Y-141569699D01*
X125960361Y-141340671D01*
X125960361Y-141198877D01*
X126036704Y-140969849D01*
X126062970Y-140943584D01*
X126517504Y-140943584D01*
X126517504Y-141174536D01*
X126520386Y-141203800D01*
X126542784Y-141257872D01*
X126584168Y-141299256D01*
X126638240Y-141321654D01*
X126696768Y-141321654D01*
X126750840Y-141299256D01*
X126792224Y-141257872D01*
X126814622Y-141203800D01*
X126817504Y-141174536D01*
X126817504Y-140793584D01*
X126814622Y-140764320D01*
X126792224Y-140710248D01*
X126750840Y-140668864D01*
X126696768Y-140646466D01*
X126667504Y-140643584D01*
X126000838Y-140643584D01*
X125971574Y-140646466D01*
X125949177Y-140655743D01*
X125917503Y-140668863D01*
X125894772Y-140687518D01*
X125799534Y-140782756D01*
X125780879Y-140805487D01*
X125778816Y-140810466D01*
X125775286Y-140814537D01*
X125763298Y-140841388D01*
X125668059Y-141127101D01*
X125664759Y-141141610D01*
X125663243Y-141145272D01*
X125662720Y-141150580D01*
X125661539Y-141155775D01*
X125661819Y-141159724D01*
X125660361Y-141174536D01*
X125438139Y-141174536D01*
X125438139Y-138804061D01*
X125660727Y-138804061D01*
X125663243Y-138813285D01*
X125663243Y-138822848D01*
X125670878Y-138841280D01*
X125676127Y-138860525D01*
X125681981Y-138868084D01*
X125685641Y-138876920D01*
X125699748Y-138891027D01*
X125711962Y-138906799D01*
X125724225Y-138915504D01*
X125727025Y-138918304D01*
X125729772Y-138919442D01*
X125735940Y-138923820D01*
X127245527Y-139786441D01*
X125810361Y-139786441D01*
X125781097Y-139789323D01*
X125727025Y-139811721D01*
X125685641Y-139853105D01*
X125663243Y-139907177D01*
X125663243Y-139965705D01*
X125685641Y-140019777D01*
X125727025Y-140061161D01*
X125781097Y-140083559D01*
X125810361Y-140086441D01*
X127810361Y-140086441D01*
X127817891Y-140085699D01*
X127820838Y-140086074D01*
X127824653Y-140085033D01*
X127839625Y-140083559D01*
X127858060Y-140075922D01*
X127877302Y-140070675D01*
X127884861Y-140064820D01*
X127893697Y-140061161D01*
X127907804Y-140047053D01*
X127923576Y-140034840D01*
X127928320Y-140026537D01*
X127935081Y-140019777D01*
X127942715Y-140001346D01*
X127952614Y-139984024D01*
X127953819Y-139974539D01*
X127957479Y-139965705D01*
X127957479Y-139945749D01*
X127959994Y-139925963D01*
X127957479Y-139916741D01*
X127957479Y-139907177D01*
X127949842Y-139888742D01*
X127944595Y-139869500D01*
X127938740Y-139861940D01*
X127935081Y-139853105D01*
X127920973Y-139838997D01*
X127908760Y-139823226D01*
X127896495Y-139814519D01*
X127893697Y-139811721D01*
X127890951Y-139810583D01*
X127884782Y-139806204D01*
X126375195Y-138943584D01*
X127810361Y-138943584D01*
X127839625Y-138940702D01*
X127893697Y-138918304D01*
X127935081Y-138876920D01*
X127957479Y-138822848D01*
X127957479Y-138764320D01*
X127935081Y-138710248D01*
X127893697Y-138668864D01*
X127839625Y-138646466D01*
X127810361Y-138643584D01*
X125810361Y-138643584D01*
X125802835Y-138644325D01*
X125799884Y-138643950D01*
X125796063Y-138644992D01*
X125781097Y-138646466D01*
X125762664Y-138654101D01*
X125743420Y-138659350D01*
X125735860Y-138665204D01*
X125727025Y-138668864D01*
X125712917Y-138682971D01*
X125697146Y-138695185D01*
X125692401Y-138703487D01*
X125685641Y-138710248D01*
X125678006Y-138728678D01*
X125668108Y-138746001D01*
X125666902Y-138755486D01*
X125663243Y-138764320D01*
X125663243Y-138784269D01*
X125660727Y-138804061D01*
X125438139Y-138804061D01*
X125438139Y-137365013D01*
X125660361Y-137365013D01*
X125660361Y-137841203D01*
X125663243Y-137870467D01*
X125685641Y-137924539D01*
X125727025Y-137965923D01*
X125781097Y-137988321D01*
X125810361Y-137991203D01*
X127810361Y-137991203D01*
X127839625Y-137988321D01*
X127893697Y-137965923D01*
X127935081Y-137924539D01*
X127957479Y-137870467D01*
X127960361Y-137841203D01*
X127960361Y-137365013D01*
X127958902Y-137350207D01*
X127959184Y-137346253D01*
X127958001Y-137341051D01*
X127957479Y-137335749D01*
X127955963Y-137332091D01*
X127952664Y-137317579D01*
X127857426Y-137031864D01*
X127845437Y-137005013D01*
X127841906Y-137000942D01*
X127839844Y-136995963D01*
X127821189Y-136973232D01*
X127630713Y-136782756D01*
X127619211Y-136773317D01*
X127616615Y-136770323D01*
X127612101Y-136767482D01*
X127607982Y-136764101D01*
X127604322Y-136762585D01*
X127591729Y-136754658D01*
X127401253Y-136659420D01*
X127399112Y-136658600D01*
X127398242Y-136657956D01*
X127385986Y-136653577D01*
X127373790Y-136648910D01*
X127372706Y-136648833D01*
X127370551Y-136648063D01*
X126989599Y-136552825D01*
X126984527Y-136552075D01*
X126982483Y-136551228D01*
X126971460Y-136550142D01*
X126960510Y-136548523D01*
X126958322Y-136548848D01*
X126953219Y-136548346D01*
X126667504Y-136548346D01*
X126662400Y-136548848D01*
X126660213Y-136548523D01*
X126649261Y-136550142D01*
X126638240Y-136551228D01*
X126636195Y-136552074D01*
X126631123Y-136552825D01*
X126250172Y-136648063D01*
X126248016Y-136648833D01*
X126246934Y-136648910D01*
X126234753Y-136653571D01*
X126222480Y-136657956D01*
X126221608Y-136658601D01*
X126219470Y-136659420D01*
X126028994Y-136754658D01*
X126016400Y-136762585D01*
X126012741Y-136764101D01*
X126008621Y-136767482D01*
X126004108Y-136770323D01*
X126001511Y-136773316D01*
X125990010Y-136782756D01*
X125799534Y-136973232D01*
X125780879Y-136995963D01*
X125778816Y-137000942D01*
X125775286Y-137005013D01*
X125763298Y-137031864D01*
X125668059Y-137317579D01*
X125664760Y-137332086D01*
X125663243Y-137335749D01*
X125662720Y-137341057D01*
X125661539Y-137346252D01*
X125661819Y-137350201D01*
X125660361Y-137365013D01*
X125438139Y-137365013D01*
X125438139Y-136326124D01*
X128182583Y-136326124D01*
X128182583Y-142403901D01*
G37*
D12*
%TO.C,J4*%
X118730000Y-105610000D02*
X118730000Y-113290000D01*
X121390000Y-103010000D02*
X120060000Y-103010000D01*
X121390000Y-104340000D02*
X121390000Y-103010000D01*
X121390000Y-105610000D02*
X118730000Y-105610000D01*
X121390000Y-105610000D02*
X121390000Y-113290000D01*
X121390000Y-113290000D02*
X118730000Y-113290000D01*
%TO.C,C27*%
X130395000Y-115938747D02*
X130395000Y-116461253D01*
X131865000Y-115938747D02*
X131865000Y-116461253D01*
%TO.C,C30*%
X125085000Y-95548747D02*
X125085000Y-96071253D01*
X126555000Y-95548747D02*
X126555000Y-96071253D01*
%TO.C,D1*%
X125359999Y-127040000D02*
X125360000Y-126390000D01*
X125359999Y-127040000D02*
X125360000Y-127690000D01*
X128480001Y-127040000D02*
X128480000Y-126390000D01*
X128480001Y-127040000D02*
X128480000Y-127690000D01*
X125410000Y-125877500D02*
X125080001Y-126117500D01*
X125080000Y-125637500D01*
X125410000Y-125877500D01*
G36*
X125410000Y-125877500D02*
G01*
X125080001Y-126117500D01*
X125080000Y-125637500D01*
X125410000Y-125877500D01*
G37*
%TO.C,C1*%
X124585580Y-123877500D02*
X124304420Y-123877500D01*
X124585580Y-124897500D02*
X124304420Y-124897500D01*
%TO.C,C65*%
X127010000Y-102800581D02*
X127010000Y-102519419D01*
X128030000Y-102800581D02*
X128030000Y-102519419D01*
%TO.C,C14*%
X126410000Y-123456919D02*
X126410000Y-123738081D01*
X127430000Y-123456919D02*
X127430000Y-123738081D01*
D13*
%TO.C,D4*%
X124905000Y-97790000D02*
X124905000Y-97835000D01*
X124905000Y-97790000D02*
X127755000Y-97790000D01*
X124905000Y-99690000D02*
X124905000Y-99645000D01*
X127755000Y-97790000D02*
X127755000Y-97835000D01*
X127755000Y-99645000D02*
X127755000Y-99690000D01*
X127755000Y-99690000D02*
X124905000Y-99690000D01*
D10*
X123250000Y-98740000D02*
G75*
G02*
X123049998Y-98740000I-100001J0D01*
G01*
X123049998Y-98740000D02*
G75*
G02*
X123250000Y-98740000I100001J0D01*
G01*
D12*
%TO.C,C66*%
X122105000Y-98501253D02*
X122105000Y-97978747D01*
X123575000Y-98501253D02*
X123575000Y-97978747D01*
%TO.C,F1*%
X127100000Y-95531422D02*
X127100000Y-96048578D01*
X128520000Y-95531422D02*
X128520000Y-96048578D01*
%TO.C,R34*%
X122687500Y-118082742D02*
X122687500Y-118557258D01*
X123732500Y-118082742D02*
X123732500Y-118557258D01*
D14*
%TO.C,U7*%
X123430000Y-100830000D02*
G75*
G02*
X123290000Y-100830000I-70000J0D01*
G01*
X123290000Y-100830000D02*
G75*
G02*
X123430000Y-100830000I70000J0D01*
G01*
D12*
%TO.C,C2*%
X129254419Y-123857500D02*
X129535581Y-123857500D01*
X129254419Y-124877500D02*
X129535581Y-124877500D01*
%TO.C,R35*%
X127187500Y-120804758D02*
X127187500Y-120330242D01*
X128232500Y-120804758D02*
X128232500Y-120330242D01*
%TO.C,J7*%
X134830000Y-90560000D02*
X134830000Y-90620000D01*
X137490000Y-87960000D02*
X136160000Y-87960000D01*
X137490000Y-89290000D02*
X137490000Y-87960000D01*
X137490000Y-90560000D02*
X134830000Y-90560000D01*
X137490000Y-90560000D02*
X137490000Y-90620000D01*
X137490000Y-90620000D02*
X134830000Y-90620000D01*
%TO.C,C68*%
X124678747Y-104585000D02*
X125201253Y-104585000D01*
X124678747Y-106055000D02*
X125201253Y-106055000D01*
%TO.C,C20*%
X132340000Y-115919419D02*
X132340000Y-116200581D01*
X133360000Y-115919419D02*
X133360000Y-116200581D01*
%TO.C,C34*%
X128300000Y-106370581D02*
X128300000Y-106089419D01*
X129320000Y-106370581D02*
X129320000Y-106089419D01*
%TO.C,J6*%
X116200000Y-90550000D02*
X116200000Y-90610000D01*
X118860000Y-87950000D02*
X117530000Y-87950000D01*
X118860000Y-89280000D02*
X118860000Y-87950000D01*
X118860000Y-90550000D02*
X116200000Y-90550000D01*
X118860000Y-90550000D02*
X118860000Y-90610000D01*
X118860000Y-90610000D02*
X116200000Y-90610000D01*
%TO.C,U9*%
X124355001Y-115017500D02*
X124355000Y-113067500D01*
X124355001Y-115017500D02*
X124355000Y-116967500D01*
X129474999Y-115017500D02*
X129475000Y-113067500D01*
X129474999Y-115017500D02*
X129475000Y-116967500D01*
X124450000Y-112317500D02*
X124120000Y-112557500D01*
X124120000Y-112077501D01*
X124450000Y-112317500D01*
G36*
X124450000Y-112317500D02*
G01*
X124120000Y-112557500D01*
X124120000Y-112077501D01*
X124450000Y-112317500D01*
G37*
%TO.C,R33*%
X128287500Y-109857258D02*
X128287500Y-109382742D01*
X129332500Y-109857258D02*
X129332500Y-109382742D01*
%TO.C,J5*%
X132270000Y-105610000D02*
X132270000Y-113290000D01*
X134930000Y-103010000D02*
X133600000Y-103010000D01*
X134930000Y-104340000D02*
X134930000Y-103010000D01*
X134930000Y-105610000D02*
X132270000Y-105610000D01*
X134930000Y-105610000D02*
X134930000Y-113290000D01*
X134930000Y-113290000D02*
X132270000Y-113290000D01*
%TO.C,C67*%
X120105000Y-98501253D02*
X120105000Y-97978747D01*
X121575000Y-98501253D02*
X121575000Y-97978747D01*
%TO.C,R32*%
X124477500Y-109857258D02*
X124477500Y-109382742D01*
X125522500Y-109857258D02*
X125522500Y-109382742D01*
%TO.C,R3*%
X125597500Y-120330242D02*
X125597500Y-120804758D01*
X126642500Y-120330242D02*
X126642500Y-120804758D01*
%TD*%
M02*
