%TF.GenerationSoftware,KiCad,Pcbnew,9.0.0*%
%TF.CreationDate,2025-05-07T16:38:21+03:00*%
%TF.ProjectId,Testing_USB-CAN,54657374-696e-4675-9f55-53422d43414e,rev?*%
%TF.SameCoordinates,Original*%
%TF.FileFunction,Paste,Top*%
%TF.FilePolarity,Positive*%
%FSLAX46Y46*%
G04 Gerber Fmt 4.6, Leading zero omitted, Abs format (unit mm)*
G04 Created by KiCad (PCBNEW 9.0.0) date 2025-05-07 16:38:21*
%MOMM*%
%LPD*%
G01*
G04 APERTURE LIST*
G04 Aperture macros list*
%AMRoundRect*
0 Rectangle with rounded corners*
0 $1 Rounding radius*
0 $2 $3 $4 $5 $6 $7 $8 $9 X,Y pos of 4 corners*
0 Add a 4 corners polygon primitive as box body*
4,1,4,$2,$3,$4,$5,$6,$7,$8,$9,$2,$3,0*
0 Add four circle primitives for the rounded corners*
1,1,$1+$1,$2,$3*
1,1,$1+$1,$4,$5*
1,1,$1+$1,$6,$7*
1,1,$1+$1,$8,$9*
0 Add four rect primitives between the rounded corners*
20,1,$1+$1,$2,$3,$4,$5,0*
20,1,$1+$1,$4,$5,$6,$7,0*
20,1,$1+$1,$6,$7,$8,$9,0*
20,1,$1+$1,$8,$9,$2,$3,0*%
G04 Aperture macros list end*
%ADD10RoundRect,0.225000X0.225000X0.250000X-0.225000X0.250000X-0.225000X-0.250000X0.225000X-0.250000X0*%
%ADD11RoundRect,0.155000X0.212500X0.155000X-0.212500X0.155000X-0.212500X-0.155000X0.212500X-0.155000X0*%
%ADD12RoundRect,0.225000X-0.225000X-0.250000X0.225000X-0.250000X0.225000X0.250000X-0.225000X0.250000X0*%
%ADD13RoundRect,0.218750X-0.256250X0.218750X-0.256250X-0.218750X0.256250X-0.218750X0.256250X0.218750X0*%
%ADD14RoundRect,0.218750X0.218750X0.256250X-0.218750X0.256250X-0.218750X-0.256250X0.218750X-0.256250X0*%
%ADD15RoundRect,0.225000X0.250000X-0.225000X0.250000X0.225000X-0.250000X0.225000X-0.250000X-0.225000X0*%
%ADD16R,0.600000X1.160000*%
%ADD17R,0.300000X1.160000*%
%ADD18RoundRect,0.200000X0.275000X-0.200000X0.275000X0.200000X-0.275000X0.200000X-0.275000X-0.200000X0*%
%ADD19RoundRect,0.200000X-0.275000X0.200000X-0.275000X-0.200000X0.275000X-0.200000X0.275000X0.200000X0*%
%ADD20RoundRect,0.150000X-0.150000X0.512500X-0.150000X-0.512500X0.150000X-0.512500X0.150000X0.512500X0*%
%ADD21RoundRect,0.135000X0.185000X-0.135000X0.185000X0.135000X-0.185000X0.135000X-0.185000X-0.135000X0*%
%ADD22R,1.200000X1.400000*%
%ADD23RoundRect,0.140000X-0.170000X0.140000X-0.170000X-0.140000X0.170000X-0.140000X0.170000X0.140000X0*%
%ADD24RoundRect,0.237500X-0.237500X0.250000X-0.237500X-0.250000X0.237500X-0.250000X0.237500X0.250000X0*%
%ADD25RoundRect,0.075000X0.075000X-0.662500X0.075000X0.662500X-0.075000X0.662500X-0.075000X-0.662500X0*%
%ADD26RoundRect,0.075000X0.662500X-0.075000X0.662500X0.075000X-0.662500X0.075000X-0.662500X-0.075000X0*%
%ADD27RoundRect,0.200000X0.200000X0.800000X-0.200000X0.800000X-0.200000X-0.800000X0.200000X-0.800000X0*%
%ADD28RoundRect,0.155000X-0.155000X0.212500X-0.155000X-0.212500X0.155000X-0.212500X0.155000X0.212500X0*%
%ADD29RoundRect,0.237500X-0.250000X-0.237500X0.250000X-0.237500X0.250000X0.237500X-0.250000X0.237500X0*%
%ADD30RoundRect,0.200000X-0.200000X-0.275000X0.200000X-0.275000X0.200000X0.275000X-0.200000X0.275000X0*%
%ADD31RoundRect,0.218750X-0.218750X-0.256250X0.218750X-0.256250X0.218750X0.256250X-0.218750X0.256250X0*%
G04 APERTURE END LIST*
D10*
%TO.C,C42*%
X120595000Y-122170000D03*
X119045000Y-122170000D03*
%TD*%
D11*
%TO.C,C70*%
X132482499Y-124214999D03*
X131347499Y-124214999D03*
%TD*%
D12*
%TO.C,C41*%
X131555000Y-122740000D03*
X133105000Y-122740000D03*
%TD*%
D13*
%TO.C,D12*%
X120110000Y-92442499D03*
X120110000Y-94017501D03*
%TD*%
D14*
%TO.C,D18*%
X127617500Y-127440000D03*
X126042498Y-127440000D03*
%TD*%
D15*
%TO.C,C71*%
X135012499Y-119460000D03*
X135012499Y-117910000D03*
%TD*%
D16*
%TO.C,J1*%
X130030000Y-94085000D03*
X129230000Y-94085000D03*
D17*
X128079999Y-94085000D03*
X127080000Y-94085000D03*
X126580000Y-94085000D03*
X125580001Y-94085000D03*
D16*
X124430000Y-94085000D03*
X123630000Y-94085000D03*
X123630000Y-94085000D03*
X124430000Y-94085000D03*
D17*
X125080000Y-94085000D03*
X126080000Y-94085000D03*
X127580000Y-94085000D03*
X128580000Y-94085000D03*
D16*
X129230000Y-94085000D03*
X130030000Y-94085000D03*
%TD*%
D18*
%TO.C,R25*%
X120110000Y-97020001D03*
X120110000Y-95370001D03*
%TD*%
D19*
%TO.C,R31*%
X126570001Y-109335001D03*
X126570001Y-110985001D03*
%TD*%
D12*
%TO.C,C28*%
X132855000Y-115550000D03*
X134405000Y-115550000D03*
%TD*%
D19*
%TO.C,R38*%
X125110000Y-109335000D03*
X125110000Y-110985000D03*
%TD*%
D20*
%TO.C,U6*%
X127289999Y-96802500D03*
X126340000Y-96802500D03*
X125390001Y-96802500D03*
X125390001Y-99077500D03*
X126340000Y-99077500D03*
X127289999Y-99077500D03*
%TD*%
D21*
%TO.C,R41*%
X128560000Y-110139999D03*
X128560000Y-109120001D03*
%TD*%
D22*
%TO.C,Y2*%
X131114999Y-125734999D03*
X131114999Y-127934999D03*
X132814999Y-127934999D03*
X132814999Y-125734999D03*
%TD*%
D23*
%TO.C,J14*%
X120753750Y-123510000D03*
X120753751Y-124470000D03*
X120753750Y-125430000D03*
%TD*%
D24*
%TO.C,R7*%
X123180000Y-96630000D03*
X123180000Y-98455000D03*
%TD*%
D19*
%TO.C,R28*%
X133557500Y-117860000D03*
X133557500Y-119510000D03*
%TD*%
D10*
%TO.C,C45*%
X120595000Y-120710000D03*
X119045000Y-120710000D03*
%TD*%
D18*
%TO.C,R39*%
X124290000Y-107735000D03*
X124290000Y-106085000D03*
%TD*%
D13*
%TO.C,D22*%
X128290000Y-105532499D03*
X128290000Y-107107501D03*
%TD*%
%TO.C,D20*%
X133580000Y-92372499D03*
X133580000Y-93947501D03*
%TD*%
%TO.C,D21*%
X129750000Y-105532499D03*
X129750000Y-107107501D03*
%TD*%
D25*
%TO.C,U2*%
X124099999Y-122122500D03*
X124599999Y-122122500D03*
X125099999Y-122122500D03*
X125600000Y-122122500D03*
X126099999Y-122122500D03*
X126599999Y-122122500D03*
X127099999Y-122122500D03*
X127599999Y-122122500D03*
X128099998Y-122122500D03*
X128599999Y-122122500D03*
X129099999Y-122122500D03*
X129599999Y-122122500D03*
D26*
X131012499Y-120710000D03*
X131012499Y-120210000D03*
X131012499Y-119710000D03*
X131012499Y-119209999D03*
X131012499Y-118710000D03*
X131012499Y-118210000D03*
X131012499Y-117710000D03*
X131012499Y-117210000D03*
X131012499Y-116710001D03*
X131012499Y-116210000D03*
X131012499Y-115710000D03*
X131012499Y-115210000D03*
D25*
X129599999Y-113797500D03*
X129099999Y-113797500D03*
X128599999Y-113797500D03*
X128099998Y-113797500D03*
X127599999Y-113797500D03*
X127099999Y-113797500D03*
X126599999Y-113797500D03*
X126099999Y-113797500D03*
X125600000Y-113797500D03*
X125099999Y-113797500D03*
X124599999Y-113797500D03*
X124099999Y-113797500D03*
D26*
X122687499Y-115210000D03*
X122687499Y-115710000D03*
X122687499Y-116210000D03*
X122687499Y-116710001D03*
X122687499Y-117210000D03*
X122687499Y-117710000D03*
X122687499Y-118210000D03*
X122687499Y-118710000D03*
X122687499Y-119209999D03*
X122687499Y-119710000D03*
X122687499Y-120210000D03*
X122687499Y-120710000D03*
%TD*%
D21*
%TO.C,R40*%
X129500000Y-110139999D03*
X129500000Y-109120001D03*
%TD*%
D18*
%TO.C,R50*%
X133580000Y-96955000D03*
X133580000Y-95305000D03*
%TD*%
D27*
%TO.C,SW1*%
X133640000Y-99580000D03*
X129440000Y-99580000D03*
%TD*%
D19*
%TO.C,R49*%
X124120000Y-124405000D03*
X124120000Y-126055000D03*
%TD*%
D28*
%TO.C,C49*%
X134184999Y-126467499D03*
X134184999Y-127602499D03*
%TD*%
D29*
%TO.C,R4*%
X129697500Y-96870000D03*
X131522500Y-96870000D03*
%TD*%
D18*
%TO.C,R29*%
X122001250Y-125300001D03*
X122001250Y-123650001D03*
%TD*%
D15*
%TO.C,C21*%
X123460000Y-110915000D03*
X123460000Y-109365000D03*
%TD*%
D30*
%TO.C,R27*%
X133437500Y-121090000D03*
X135087500Y-121090000D03*
%TD*%
D19*
%TO.C,R48*%
X126039999Y-124395000D03*
X126039999Y-126045000D03*
%TD*%
D31*
%TO.C,D19*%
X122552500Y-127440000D03*
X124127500Y-127440000D03*
%TD*%
G36*
X113631168Y-87299665D02*
G01*
X113677858Y-87351645D01*
X113690000Y-87405160D01*
X113690000Y-87658308D01*
X113670315Y-87725347D01*
X113617511Y-87771102D01*
X113576240Y-87781884D01*
X113382688Y-87797922D01*
X113142115Y-87858843D01*
X112914853Y-87958529D01*
X112707104Y-88094259D01*
X112707100Y-88094262D01*
X112524520Y-88262339D01*
X112524517Y-88262343D01*
X112372100Y-88458168D01*
X112372094Y-88458177D01*
X112253989Y-88676417D01*
X112253984Y-88676427D01*
X112173408Y-88911137D01*
X112132562Y-89155920D01*
X112132562Y-89404079D01*
X112173408Y-89648862D01*
X112253984Y-89883572D01*
X112253989Y-89883582D01*
X112372094Y-90101822D01*
X112372100Y-90101831D01*
X112524517Y-90297656D01*
X112524520Y-90297660D01*
X112707100Y-90465737D01*
X112707104Y-90465740D01*
X112914853Y-90601470D01*
X113142115Y-90701156D01*
X113382688Y-90762077D01*
X113576240Y-90778116D01*
X113641425Y-90803269D01*
X113682663Y-90859671D01*
X113690000Y-90901692D01*
X113690000Y-91154839D01*
X113670315Y-91221878D01*
X113617511Y-91267633D01*
X113563788Y-91278819D01*
X113494898Y-91277590D01*
X113479463Y-91276348D01*
X113213102Y-91238051D01*
X113195814Y-91234290D01*
X112938688Y-91158791D01*
X112922112Y-91152608D01*
X112678345Y-91041284D01*
X112662816Y-91032805D01*
X112437375Y-90887922D01*
X112423212Y-90877320D01*
X112220682Y-90701827D01*
X112208172Y-90689317D01*
X112032679Y-90486787D01*
X112022077Y-90472624D01*
X111877194Y-90247183D01*
X111868715Y-90231654D01*
X111757391Y-89987887D01*
X111751208Y-89971311D01*
X111675709Y-89714185D01*
X111671948Y-89696897D01*
X111633810Y-89431638D01*
X111632548Y-89413991D01*
X111632548Y-89146008D01*
X111633810Y-89128361D01*
X111671948Y-88863102D01*
X111675709Y-88845814D01*
X111751208Y-88588688D01*
X111757391Y-88572112D01*
X111868715Y-88328345D01*
X111877194Y-88312816D01*
X112022077Y-88087375D01*
X112032679Y-88073212D01*
X112208172Y-87870682D01*
X112220682Y-87858172D01*
X112423212Y-87682679D01*
X112437375Y-87672077D01*
X112662816Y-87527194D01*
X112678345Y-87518715D01*
X112922112Y-87407391D01*
X112938688Y-87401208D01*
X113195814Y-87325709D01*
X113213102Y-87321948D01*
X113479463Y-87283651D01*
X113494898Y-87282409D01*
X113563788Y-87281180D01*
X113631168Y-87299665D01*
G37*
G36*
X113631168Y-138299640D02*
G01*
X113677858Y-138351620D01*
X113690000Y-138405135D01*
X113690000Y-138658308D01*
X113670315Y-138725347D01*
X113617511Y-138771102D01*
X113576240Y-138781884D01*
X113382688Y-138797922D01*
X113142115Y-138858843D01*
X112914853Y-138958529D01*
X112707104Y-139094259D01*
X112707100Y-139094262D01*
X112524520Y-139262339D01*
X112524517Y-139262343D01*
X112372100Y-139458168D01*
X112372094Y-139458177D01*
X112253989Y-139676417D01*
X112253984Y-139676427D01*
X112173408Y-139911137D01*
X112132562Y-140155920D01*
X112132562Y-140404079D01*
X112173408Y-140648862D01*
X112253984Y-140883572D01*
X112253989Y-140883582D01*
X112372094Y-141101822D01*
X112372100Y-141101831D01*
X112524517Y-141297656D01*
X112524520Y-141297660D01*
X112707100Y-141465737D01*
X112707104Y-141465740D01*
X112914853Y-141601470D01*
X113142115Y-141701156D01*
X113382688Y-141762077D01*
X113576240Y-141778116D01*
X113641425Y-141803269D01*
X113682663Y-141859671D01*
X113690000Y-141901692D01*
X113690000Y-142154864D01*
X113670315Y-142221903D01*
X113617511Y-142267658D01*
X113563788Y-142278844D01*
X113494897Y-142277615D01*
X113479462Y-142276373D01*
X113213097Y-142238075D01*
X113195809Y-142234314D01*
X112938676Y-142158813D01*
X112922100Y-142152630D01*
X112678336Y-142041307D01*
X112662807Y-142032828D01*
X112437356Y-141887939D01*
X112423194Y-141877337D01*
X112220664Y-141701846D01*
X112208153Y-141689335D01*
X112032662Y-141486805D01*
X112022060Y-141472643D01*
X111877171Y-141247192D01*
X111868692Y-141231663D01*
X111757369Y-140987899D01*
X111751186Y-140971323D01*
X111675685Y-140714190D01*
X111671924Y-140696902D01*
X111633785Y-140431639D01*
X111632523Y-140413992D01*
X111632523Y-140146007D01*
X111633785Y-140128360D01*
X111671924Y-139863097D01*
X111675685Y-139845809D01*
X111751186Y-139588676D01*
X111757369Y-139572100D01*
X111868692Y-139328336D01*
X111877171Y-139312807D01*
X112022060Y-139087356D01*
X112032662Y-139073194D01*
X112208153Y-138870664D01*
X112220664Y-138858153D01*
X112423194Y-138682662D01*
X112437356Y-138672060D01*
X112662807Y-138527171D01*
X112678336Y-138518692D01*
X112922100Y-138407369D01*
X112938676Y-138401186D01*
X113195809Y-138325685D01*
X113213097Y-138321924D01*
X113479462Y-138283626D01*
X113494897Y-138282384D01*
X113563788Y-138281155D01*
X113631168Y-138299640D01*
G37*
G36*
X113631168Y-87299665D02*
G01*
X113677858Y-87351645D01*
X113690000Y-87405160D01*
X113690000Y-87658308D01*
X113670315Y-87725347D01*
X113617511Y-87771102D01*
X113576240Y-87781884D01*
X113382688Y-87797922D01*
X113142115Y-87858843D01*
X112914853Y-87958529D01*
X112707104Y-88094259D01*
X112707100Y-88094262D01*
X112524520Y-88262339D01*
X112524517Y-88262343D01*
X112372100Y-88458168D01*
X112372094Y-88458177D01*
X112253989Y-88676417D01*
X112253984Y-88676427D01*
X112173408Y-88911137D01*
X112132562Y-89155920D01*
X112132562Y-89404079D01*
X112173408Y-89648862D01*
X112253984Y-89883572D01*
X112253989Y-89883582D01*
X112372094Y-90101822D01*
X112372100Y-90101831D01*
X112524517Y-90297656D01*
X112524520Y-90297660D01*
X112707100Y-90465737D01*
X112707104Y-90465740D01*
X112914853Y-90601470D01*
X113142115Y-90701156D01*
X113382688Y-90762077D01*
X113576240Y-90778116D01*
X113641425Y-90803269D01*
X113682663Y-90859671D01*
X113690000Y-90901692D01*
X113690000Y-91154839D01*
X113670315Y-91221878D01*
X113617511Y-91267633D01*
X113563788Y-91278819D01*
X113494898Y-91277590D01*
X113479463Y-91276348D01*
X113213102Y-91238051D01*
X113195814Y-91234290D01*
X112938688Y-91158791D01*
X112922112Y-91152608D01*
X112678345Y-91041284D01*
X112662816Y-91032805D01*
X112437375Y-90887922D01*
X112423212Y-90877320D01*
X112220682Y-90701827D01*
X112208172Y-90689317D01*
X112032679Y-90486787D01*
X112022077Y-90472624D01*
X111877194Y-90247183D01*
X111868715Y-90231654D01*
X111757391Y-89987887D01*
X111751208Y-89971311D01*
X111675709Y-89714185D01*
X111671948Y-89696897D01*
X111633810Y-89431638D01*
X111632548Y-89413991D01*
X111632548Y-89146008D01*
X111633810Y-89128361D01*
X111671948Y-88863102D01*
X111675709Y-88845814D01*
X111751208Y-88588688D01*
X111757391Y-88572112D01*
X111868715Y-88328345D01*
X111877194Y-88312816D01*
X112022077Y-88087375D01*
X112032679Y-88073212D01*
X112208172Y-87870682D01*
X112220682Y-87858172D01*
X112423212Y-87682679D01*
X112437375Y-87672077D01*
X112662816Y-87527194D01*
X112678345Y-87518715D01*
X112922112Y-87407391D01*
X112938688Y-87401208D01*
X113195814Y-87325709D01*
X113213102Y-87321948D01*
X113479463Y-87283651D01*
X113494898Y-87282409D01*
X113563788Y-87281180D01*
X113631168Y-87299665D01*
G37*
G36*
X140165100Y-87282409D02*
G01*
X140180536Y-87283651D01*
X140446897Y-87321948D01*
X140464185Y-87325709D01*
X140721311Y-87401208D01*
X140737887Y-87407391D01*
X140981654Y-87518715D01*
X140997183Y-87527194D01*
X141222624Y-87672077D01*
X141236787Y-87682679D01*
X141439317Y-87858172D01*
X141451827Y-87870682D01*
X141627320Y-88073212D01*
X141637922Y-88087375D01*
X141782805Y-88312816D01*
X141791284Y-88328345D01*
X141902608Y-88572112D01*
X141908791Y-88588688D01*
X141984290Y-88845814D01*
X141988051Y-88863102D01*
X142026190Y-89128361D01*
X142027452Y-89146008D01*
X142027452Y-89413991D01*
X142026190Y-89431638D01*
X141988051Y-89696897D01*
X141984290Y-89714185D01*
X141908791Y-89971311D01*
X141902608Y-89987887D01*
X141791284Y-90231654D01*
X141782805Y-90247183D01*
X141637922Y-90472624D01*
X141627320Y-90486787D01*
X141451827Y-90689317D01*
X141439317Y-90701827D01*
X141236787Y-90877320D01*
X141222624Y-90887922D01*
X140997183Y-91032805D01*
X140981654Y-91041284D01*
X140737887Y-91152608D01*
X140721311Y-91158791D01*
X140464185Y-91234290D01*
X140446897Y-91238051D01*
X140180536Y-91276348D01*
X140165100Y-91277590D01*
X140106211Y-91278640D01*
X140038831Y-91260154D01*
X139992142Y-91208174D01*
X139980000Y-91154660D01*
X139980000Y-90900863D01*
X139999685Y-90833824D01*
X140052489Y-90788069D01*
X140093760Y-90777287D01*
X140277311Y-90762077D01*
X140517884Y-90701156D01*
X140745146Y-90601470D01*
X140952895Y-90465740D01*
X140952899Y-90465737D01*
X141135479Y-90297660D01*
X141135482Y-90297656D01*
X141287899Y-90101831D01*
X141287905Y-90101822D01*
X141406010Y-89883582D01*
X141406015Y-89883572D01*
X141486591Y-89648861D01*
X141527437Y-89404079D01*
X141529999Y-89280000D01*
X141527437Y-89155920D01*
X141486591Y-88911138D01*
X141406015Y-88676427D01*
X141406010Y-88676417D01*
X141287905Y-88458177D01*
X141287899Y-88458168D01*
X141135482Y-88262343D01*
X141135479Y-88262339D01*
X140952899Y-88094262D01*
X140952895Y-88094259D01*
X140745146Y-87958529D01*
X140517884Y-87858843D01*
X140277311Y-87797922D01*
X140093760Y-87782712D01*
X140028575Y-87757559D01*
X139987337Y-87701157D01*
X139980000Y-87659136D01*
X139980000Y-87405339D01*
X139999685Y-87338300D01*
X140052489Y-87292545D01*
X140106211Y-87281359D01*
X140165100Y-87282409D01*
G37*
G36*
X140175100Y-138282409D02*
G01*
X140190536Y-138283651D01*
X140456897Y-138321948D01*
X140474185Y-138325709D01*
X140731311Y-138401208D01*
X140747887Y-138407391D01*
X140991654Y-138518715D01*
X141007183Y-138527194D01*
X141232624Y-138672077D01*
X141246787Y-138682679D01*
X141449317Y-138858172D01*
X141461827Y-138870682D01*
X141637320Y-139073212D01*
X141647922Y-139087375D01*
X141792805Y-139312816D01*
X141801284Y-139328345D01*
X141912608Y-139572112D01*
X141918791Y-139588688D01*
X141994290Y-139845814D01*
X141998051Y-139863102D01*
X142036190Y-140128361D01*
X142037452Y-140146008D01*
X142037452Y-140413991D01*
X142036190Y-140431638D01*
X141998051Y-140696897D01*
X141994290Y-140714185D01*
X141918791Y-140971311D01*
X141912608Y-140987887D01*
X141801284Y-141231654D01*
X141792805Y-141247183D01*
X141647922Y-141472624D01*
X141637320Y-141486787D01*
X141461827Y-141689317D01*
X141449317Y-141701827D01*
X141246787Y-141877320D01*
X141232624Y-141887922D01*
X141007183Y-142032805D01*
X140991654Y-142041284D01*
X140747887Y-142152608D01*
X140731311Y-142158791D01*
X140474185Y-142234290D01*
X140456897Y-142238051D01*
X140190536Y-142276348D01*
X140175100Y-142277590D01*
X140116211Y-142278640D01*
X140048831Y-142260154D01*
X140002142Y-142208174D01*
X139990000Y-142154660D01*
X139990000Y-141900863D01*
X140009685Y-141833824D01*
X140062489Y-141788069D01*
X140103760Y-141777287D01*
X140287311Y-141762077D01*
X140527884Y-141701156D01*
X140755146Y-141601470D01*
X140962895Y-141465740D01*
X140962899Y-141465737D01*
X141145479Y-141297660D01*
X141145482Y-141297656D01*
X141297899Y-141101831D01*
X141297905Y-141101822D01*
X141416010Y-140883582D01*
X141416015Y-140883572D01*
X141496591Y-140648861D01*
X141537437Y-140404079D01*
X141539999Y-140280000D01*
X141537437Y-140155920D01*
X141496591Y-139911138D01*
X141416015Y-139676427D01*
X141416010Y-139676417D01*
X141297905Y-139458177D01*
X141297899Y-139458168D01*
X141145482Y-139262343D01*
X141145479Y-139262339D01*
X140962899Y-139094262D01*
X140962895Y-139094259D01*
X140755146Y-138958529D01*
X140527884Y-138858843D01*
X140287311Y-138797922D01*
X140103760Y-138782712D01*
X140038575Y-138757559D01*
X139997337Y-138701157D01*
X139990000Y-138659136D01*
X139990000Y-138405339D01*
X140009685Y-138338300D01*
X140062489Y-138292545D01*
X140116211Y-138281359D01*
X140175100Y-138282409D01*
G37*
M02*
