%TF.GenerationSoftware,KiCad,Pcbnew,9.0.0*%
%TF.CreationDate,2025-05-07T16:38:21+03:00*%
%TF.ProjectId,Testing_USB-CAN,54657374-696e-4675-9f55-53422d43414e,rev?*%
%TF.SameCoordinates,Original*%
%TF.FileFunction,Legend,Top*%
%TF.FilePolarity,Positive*%
%FSLAX46Y46*%
G04 Gerber Fmt 4.6, Leading zero omitted, Abs format (unit mm)*
G04 Created by KiCad (PCBNEW 9.0.0) date 2025-05-07 16:38:21*
%MOMM*%
%LPD*%
G01*
G04 APERTURE LIST*
%ADD10C,0.150000*%
%ADD11C,0.120000*%
%ADD12C,0.125000*%
%ADD13C,0.127000*%
%ADD14C,0.200000*%
G04 APERTURE END LIST*
D10*
X118720000Y-103030000D02*
X121390000Y-103030000D01*
X121390000Y-113300000D01*
X118720000Y-113300000D01*
X118720000Y-103030000D01*
X116210000Y-90580000D02*
X116210000Y-88035000D01*
X118860000Y-90580000D02*
X116210000Y-90580000D01*
X134830000Y-90580000D02*
X137500000Y-90580000D01*
X132280000Y-103000000D02*
X134930000Y-103000000D01*
X134930000Y-113290000D01*
X132280000Y-113290000D01*
X132280000Y-103000000D01*
X137500000Y-90580000D02*
X137500000Y-88020000D01*
D11*
G36*
X131642436Y-109876610D02*
G01*
X131704028Y-109907406D01*
X131763318Y-109966695D01*
X131793855Y-110058306D01*
X131793855Y-110179046D01*
X131113855Y-110179046D01*
X131113855Y-110058306D01*
X131144392Y-109966693D01*
X131203678Y-109907407D01*
X131265276Y-109876608D01*
X131404096Y-109841903D01*
X131503614Y-109841903D01*
X131642436Y-109876610D01*
G37*
G36*
X131708895Y-108655129D02*
G01*
X131766447Y-108712682D01*
X131793855Y-108767497D01*
X131793855Y-108891548D01*
X131766447Y-108946362D01*
X131708894Y-109003915D01*
X131579804Y-109036190D01*
X131327905Y-109036190D01*
X131198814Y-109003916D01*
X131141262Y-108946364D01*
X131113855Y-108891548D01*
X131113855Y-108767497D01*
X131141262Y-108712682D01*
X131198814Y-108655129D01*
X131327905Y-108622856D01*
X131579800Y-108622856D01*
X131708895Y-108655129D01*
G37*
G36*
X132002744Y-110387935D02*
G01*
X130904966Y-110387935D01*
X130904966Y-110048570D01*
X130993855Y-110048570D01*
X130993855Y-110239046D01*
X130998422Y-110262007D01*
X131030894Y-110294479D01*
X131053855Y-110299046D01*
X131853855Y-110299046D01*
X131876816Y-110294479D01*
X131909288Y-110262007D01*
X131913855Y-110239046D01*
X131913855Y-110048570D01*
X131911978Y-110039135D01*
X131910776Y-110029597D01*
X131872681Y-109915310D01*
X131871193Y-109912699D01*
X131871193Y-109911323D01*
X131865854Y-109903333D01*
X131861088Y-109894972D01*
X131859854Y-109894355D01*
X131858186Y-109891858D01*
X131781995Y-109815667D01*
X131773998Y-109810323D01*
X131766402Y-109804428D01*
X131690212Y-109766333D01*
X131683870Y-109764596D01*
X131677931Y-109761791D01*
X131525550Y-109723695D01*
X131518209Y-109723337D01*
X131510998Y-109721903D01*
X131396712Y-109721903D01*
X131389504Y-109723336D01*
X131382160Y-109723694D01*
X131229779Y-109761791D01*
X131223838Y-109764596D01*
X131217499Y-109766333D01*
X131141307Y-109804428D01*
X131133701Y-109810330D01*
X131125714Y-109815668D01*
X131049524Y-109891858D01*
X131047855Y-109894355D01*
X131046622Y-109894972D01*
X131041855Y-109903333D01*
X131036517Y-109911323D01*
X131036517Y-109912699D01*
X131035029Y-109915310D01*
X130996934Y-110029596D01*
X130995731Y-110039136D01*
X130993855Y-110048570D01*
X130904966Y-110048570D01*
X130904966Y-109416085D01*
X130998422Y-109416085D01*
X130998422Y-109462007D01*
X131030894Y-109494479D01*
X131053855Y-109499046D01*
X131853855Y-109499046D01*
X131876816Y-109494479D01*
X131909288Y-109462007D01*
X131909288Y-109416085D01*
X131876816Y-109383613D01*
X131853855Y-109379046D01*
X131053855Y-109379046D01*
X131030894Y-109383613D01*
X130998422Y-109416085D01*
X130904966Y-109416085D01*
X130904966Y-108753332D01*
X130993855Y-108753332D01*
X130993855Y-108905713D01*
X130994441Y-108908660D01*
X130994006Y-108909966D01*
X130996545Y-108919241D01*
X130998422Y-108928674D01*
X130999395Y-108929647D01*
X131000189Y-108932546D01*
X131038284Y-109008737D01*
X131044186Y-109016342D01*
X131049524Y-109024330D01*
X131125714Y-109100520D01*
X131131116Y-109104129D01*
X131132420Y-109106303D01*
X131139066Y-109109442D01*
X131145179Y-109113527D01*
X131147713Y-109113527D01*
X131153588Y-109116302D01*
X131305969Y-109154399D01*
X131313313Y-109154756D01*
X131320521Y-109156190D01*
X131587188Y-109156190D01*
X131594399Y-109154755D01*
X131601740Y-109154398D01*
X131754121Y-109116302D01*
X131759996Y-109113527D01*
X131762530Y-109113527D01*
X131768643Y-109109442D01*
X131775289Y-109106303D01*
X131776592Y-109104131D01*
X131781995Y-109100521D01*
X131858186Y-109024330D01*
X131863523Y-109016342D01*
X131869426Y-109008737D01*
X131907521Y-108932545D01*
X131908314Y-108929647D01*
X131909288Y-108928674D01*
X131911164Y-108919239D01*
X131913704Y-108909966D01*
X131913268Y-108908660D01*
X131913855Y-108905713D01*
X131913855Y-108753332D01*
X131913268Y-108750384D01*
X131913704Y-108749079D01*
X131911164Y-108739803D01*
X131909288Y-108730371D01*
X131908314Y-108729397D01*
X131907521Y-108726499D01*
X131869426Y-108650309D01*
X131863528Y-108642710D01*
X131858186Y-108634715D01*
X131781995Y-108558525D01*
X131776592Y-108554915D01*
X131775289Y-108552742D01*
X131768642Y-108549602D01*
X131762530Y-108545518D01*
X131759996Y-108545518D01*
X131754121Y-108542743D01*
X131601740Y-108504647D01*
X131594395Y-108504289D01*
X131587188Y-108502856D01*
X131320521Y-108502856D01*
X131313313Y-108504289D01*
X131305969Y-108504647D01*
X131153588Y-108542742D01*
X131147712Y-108545518D01*
X131145179Y-108545518D01*
X131139068Y-108549601D01*
X131132420Y-108552742D01*
X131131116Y-108554915D01*
X131125714Y-108558525D01*
X131049523Y-108634716D01*
X131044179Y-108642712D01*
X131038284Y-108650309D01*
X131000189Y-108726499D01*
X130999395Y-108729397D01*
X130998422Y-108730371D01*
X130996545Y-108739803D01*
X130994006Y-108749079D01*
X130994441Y-108750384D01*
X130993855Y-108753332D01*
X130904966Y-108753332D01*
X130904966Y-108413967D01*
X132002744Y-108413967D01*
X132002744Y-110387935D01*
G37*
D12*
G36*
X119159924Y-95175042D02*
G01*
X118023257Y-95175042D01*
X118023257Y-94674177D01*
X118146092Y-94674177D01*
X118147130Y-94729437D01*
X118151892Y-94762898D01*
X118162761Y-94780667D01*
X118181568Y-94789582D01*
X118964794Y-95053303D01*
X119002957Y-95063867D01*
X119016203Y-95063931D01*
X119025122Y-95059775D01*
X119031162Y-95051419D01*
X119035013Y-95035840D01*
X119037090Y-94987052D01*
X119035685Y-94936494D01*
X119030251Y-94908101D01*
X119019016Y-94894118D01*
X119000270Y-94887279D01*
X118322801Y-94676192D01*
X118322801Y-94675520D01*
X119003689Y-94460342D01*
X119020725Y-94453137D01*
X119030922Y-94439826D01*
X119035685Y-94412532D01*
X119037090Y-94363317D01*
X119035380Y-94305920D01*
X119031940Y-94287274D01*
X119026526Y-94276916D01*
X119017961Y-94271057D01*
X119005033Y-94270077D01*
X118966137Y-94279969D01*
X118183644Y-94543019D01*
X118168928Y-94548819D01*
X118159036Y-94557673D01*
X118152198Y-94572022D01*
X118148168Y-94594249D01*
X118146458Y-94627343D01*
X118146092Y-94674177D01*
X118023257Y-94674177D01*
X118023257Y-93852178D01*
X118134368Y-93852178D01*
X118139064Y-93924812D01*
X118152564Y-93989442D01*
X118175410Y-94048744D01*
X118205748Y-94097337D01*
X118244824Y-94137485D01*
X118292149Y-94167740D01*
X118346301Y-94186462D01*
X118410179Y-94193019D01*
X118448997Y-94189543D01*
X118484612Y-94179341D01*
X118517450Y-94162735D01*
X118546711Y-94140079D01*
X118571600Y-94112016D01*
X118592323Y-94077614D01*
X118607154Y-94039001D01*
X118616015Y-93994266D01*
X118618091Y-93994266D01*
X118630212Y-94031452D01*
X118646606Y-94062898D01*
X118667766Y-94090297D01*
X118692707Y-94112419D01*
X118721412Y-94129690D01*
X118754378Y-94142460D01*
X118789883Y-94150088D01*
X118829056Y-94152719D01*
X118878796Y-94148194D01*
X118921624Y-94135255D01*
X118959489Y-94113707D01*
X118990806Y-94084025D01*
X119015204Y-94047163D01*
X119033853Y-94000738D01*
X119044862Y-93949121D01*
X119048813Y-93886982D01*
X119046631Y-93838763D01*
X119040387Y-93795758D01*
X119019931Y-93721630D01*
X118995141Y-93668385D01*
X118975846Y-93640358D01*
X118963756Y-93630466D01*
X118950689Y-93625337D01*
X118931760Y-93622589D01*
X118903183Y-93621918D01*
X118869417Y-93623261D01*
X118849450Y-93627352D01*
X118840169Y-93634191D01*
X118837787Y-93643778D01*
X118848412Y-93669362D01*
X118871310Y-93711738D01*
X118893902Y-93768097D01*
X118901598Y-93800269D01*
X118904221Y-93835020D01*
X118901997Y-93865257D01*
X118895856Y-93889669D01*
X118885727Y-93911225D01*
X118873142Y-93927588D01*
X118857504Y-93940466D01*
X118839070Y-93949814D01*
X118797365Y-93957324D01*
X118769550Y-93954528D01*
X118744853Y-93946394D01*
X118722960Y-93933037D01*
X118704431Y-93914643D01*
X118689968Y-93891930D01*
X118678724Y-93863047D01*
X118672118Y-93831072D01*
X118669748Y-93792705D01*
X118669748Y-93715524D01*
X118667001Y-93701541D01*
X118657353Y-93691954D01*
X118637691Y-93686520D01*
X118605024Y-93684810D01*
X118570280Y-93686520D01*
X118549275Y-93692321D01*
X118539262Y-93702579D01*
X118536880Y-93717600D01*
X118536880Y-93794109D01*
X118534312Y-93840909D01*
X118527294Y-93878434D01*
X118515324Y-93912141D01*
X118500244Y-93937846D01*
X118480853Y-93958660D01*
X118458173Y-93973383D01*
X118432425Y-93982272D01*
X118402791Y-93985351D01*
X118375672Y-93982808D01*
X118351805Y-93975459D01*
X118330683Y-93963065D01*
X118312787Y-93945417D01*
X118298754Y-93923598D01*
X118287814Y-93896569D01*
X118281302Y-93866609D01*
X118278960Y-93830318D01*
X118281407Y-93787194D01*
X118288241Y-93751000D01*
X118308269Y-93690245D01*
X118328236Y-93647563D01*
X118337578Y-93623994D01*
X118334624Y-93614696D01*
X118324938Y-93607569D01*
X118309821Y-93603816D01*
X118279692Y-93602134D01*
X118245926Y-93603172D01*
X118222784Y-93606592D01*
X118206786Y-93612026D01*
X118194513Y-93621246D01*
X118178393Y-93647197D01*
X118157815Y-93697389D01*
X118141146Y-93767425D01*
X118134368Y-93852178D01*
X118023257Y-93852178D01*
X118023257Y-93357342D01*
X118142184Y-93357342D01*
X118145209Y-93395173D01*
X118152937Y-93420524D01*
X118164043Y-93436904D01*
X118180395Y-93448005D01*
X118207322Y-93455950D01*
X118249406Y-93459130D01*
X118289599Y-93456030D01*
X118315611Y-93448240D01*
X118331655Y-93437270D01*
X118342604Y-93421115D01*
X118350225Y-93396098D01*
X118353210Y-93358746D01*
X118350174Y-93320444D01*
X118342437Y-93294880D01*
X118331350Y-93278451D01*
X118314985Y-93267371D01*
X118287873Y-93259416D01*
X118245315Y-93256225D01*
X118205595Y-93259313D01*
X118179745Y-93267091D01*
X118163677Y-93278085D01*
X118152786Y-93294248D01*
X118145174Y-93319470D01*
X118142184Y-93357342D01*
X118023257Y-93357342D01*
X118023257Y-92769693D01*
X118134368Y-92769693D01*
X118139064Y-92842328D01*
X118152564Y-92906958D01*
X118175410Y-92966260D01*
X118205748Y-93014852D01*
X118244824Y-93055000D01*
X118292149Y-93085255D01*
X118346301Y-93103978D01*
X118410179Y-93110534D01*
X118448997Y-93107059D01*
X118484612Y-93096857D01*
X118517450Y-93080251D01*
X118546711Y-93057595D01*
X118571600Y-93029531D01*
X118592323Y-92995130D01*
X118607154Y-92956517D01*
X118616015Y-92911782D01*
X118618091Y-92911782D01*
X118630212Y-92948968D01*
X118646606Y-92980414D01*
X118667766Y-93007812D01*
X118692707Y-93029934D01*
X118721412Y-93047206D01*
X118754378Y-93059976D01*
X118789883Y-93067604D01*
X118829056Y-93070234D01*
X118878796Y-93065710D01*
X118921624Y-93052771D01*
X118959489Y-93031222D01*
X118990806Y-93001541D01*
X119015204Y-92964678D01*
X119033853Y-92918254D01*
X119044862Y-92866637D01*
X119048813Y-92804498D01*
X119046631Y-92756279D01*
X119040387Y-92713273D01*
X119019931Y-92639146D01*
X118995141Y-92585901D01*
X118975846Y-92557874D01*
X118963756Y-92547982D01*
X118950689Y-92542853D01*
X118931760Y-92540105D01*
X118903183Y-92539434D01*
X118869417Y-92540777D01*
X118849450Y-92544868D01*
X118840169Y-92551707D01*
X118837787Y-92561293D01*
X118848412Y-92586878D01*
X118871310Y-92629254D01*
X118893902Y-92685613D01*
X118901598Y-92717785D01*
X118904221Y-92752535D01*
X118901997Y-92782773D01*
X118895856Y-92807185D01*
X118885727Y-92828740D01*
X118873142Y-92845103D01*
X118857504Y-92857982D01*
X118839070Y-92867330D01*
X118797365Y-92874840D01*
X118769550Y-92872043D01*
X118744853Y-92863910D01*
X118722960Y-92850553D01*
X118704431Y-92832159D01*
X118689968Y-92809445D01*
X118678724Y-92780562D01*
X118672118Y-92748587D01*
X118669748Y-92710220D01*
X118669748Y-92633040D01*
X118667001Y-92619057D01*
X118657353Y-92609470D01*
X118637691Y-92604036D01*
X118605024Y-92602326D01*
X118570280Y-92604036D01*
X118549275Y-92609837D01*
X118539262Y-92620095D01*
X118536880Y-92635116D01*
X118536880Y-92711625D01*
X118534312Y-92758425D01*
X118527294Y-92795950D01*
X118515324Y-92829657D01*
X118500244Y-92855362D01*
X118480853Y-92876175D01*
X118458173Y-92890899D01*
X118432425Y-92899787D01*
X118402791Y-92902867D01*
X118375672Y-92900324D01*
X118351805Y-92892975D01*
X118330683Y-92880581D01*
X118312787Y-92862933D01*
X118298754Y-92841113D01*
X118287814Y-92814085D01*
X118281302Y-92784124D01*
X118278960Y-92747834D01*
X118281407Y-92704710D01*
X118288241Y-92668516D01*
X118308269Y-92607760D01*
X118328236Y-92565079D01*
X118337578Y-92541510D01*
X118334624Y-92532212D01*
X118324938Y-92525084D01*
X118309821Y-92521332D01*
X118279692Y-92519650D01*
X118245926Y-92520688D01*
X118222784Y-92524107D01*
X118206786Y-92529542D01*
X118194513Y-92538762D01*
X118178393Y-92564713D01*
X118157815Y-92614905D01*
X118141146Y-92684941D01*
X118134368Y-92769693D01*
X118023257Y-92769693D01*
X118023257Y-92113413D01*
X118212526Y-92113413D01*
X118214602Y-92147546D01*
X118220403Y-92169406D01*
X118229317Y-92181007D01*
X118241407Y-92184427D01*
X118474354Y-92184427D01*
X118474354Y-92396918D01*
X118477773Y-92408519D01*
X118489192Y-92418106D01*
X118510258Y-92424212D01*
X118542742Y-92426288D01*
X118574860Y-92424212D01*
X118596292Y-92418411D01*
X118607650Y-92409557D01*
X118611130Y-92398933D01*
X118611130Y-92184427D01*
X118842794Y-92184427D01*
X118855434Y-92181007D01*
X118865081Y-92169406D01*
X118870882Y-92147546D01*
X118872958Y-92113413D01*
X118870882Y-92079219D01*
X118865081Y-92057359D01*
X118855434Y-92045391D01*
X118842794Y-92041667D01*
X118611130Y-92041667D01*
X118611130Y-91827832D01*
X118607650Y-91816902D01*
X118596292Y-91808354D01*
X118574860Y-91802553D01*
X118542742Y-91800538D01*
X118510258Y-91802919D01*
X118489192Y-91809392D01*
X118477773Y-91818612D01*
X118474354Y-91829908D01*
X118474354Y-92041667D01*
X118241407Y-92041667D01*
X118229317Y-92045391D01*
X118220403Y-92057359D01*
X118214602Y-92079219D01*
X118212526Y-92113413D01*
X118023257Y-92113413D01*
X118023257Y-91689427D01*
X119159924Y-91689427D01*
X119159924Y-95175042D01*
G37*
D11*
G36*
X122732744Y-108205274D02*
G01*
X121634966Y-108205274D01*
X121634966Y-107565714D01*
X121723855Y-107565714D01*
X121723855Y-108060952D01*
X121728422Y-108083913D01*
X121760894Y-108116385D01*
X121806816Y-108116385D01*
X121839288Y-108083913D01*
X121843855Y-108060952D01*
X121843855Y-107697940D01*
X122049107Y-107877535D01*
X122063893Y-107886050D01*
X122065656Y-107887813D01*
X122066954Y-107887813D01*
X122069394Y-107889218D01*
X122090467Y-107887813D01*
X122111578Y-107887813D01*
X122113086Y-107886304D01*
X122115215Y-107886163D01*
X122129124Y-107870267D01*
X122144050Y-107855341D01*
X122144598Y-107852581D01*
X122145455Y-107851603D01*
X122145288Y-107849112D01*
X122148617Y-107832380D01*
X122148617Y-107732259D01*
X122176024Y-107677444D01*
X122200347Y-107653121D01*
X122255163Y-107625714D01*
X122417309Y-107625714D01*
X122472123Y-107653121D01*
X122496448Y-107677445D01*
X122523855Y-107732259D01*
X122523855Y-107932501D01*
X122496448Y-107987315D01*
X122465238Y-108018525D01*
X122452231Y-108037990D01*
X122452231Y-108083912D01*
X122484702Y-108116385D01*
X122530624Y-108116385D01*
X122550090Y-108103379D01*
X122588186Y-108065284D01*
X122593528Y-108057289D01*
X122599426Y-108049690D01*
X122637521Y-107973498D01*
X122638314Y-107970600D01*
X122639288Y-107969627D01*
X122641164Y-107960192D01*
X122643704Y-107950919D01*
X122643268Y-107949613D01*
X122643855Y-107946666D01*
X122643855Y-107718095D01*
X122643268Y-107715147D01*
X122643704Y-107713842D01*
X122641164Y-107704568D01*
X122639288Y-107695134D01*
X122638314Y-107694160D01*
X122637521Y-107691263D01*
X122599426Y-107615071D01*
X122593528Y-107607471D01*
X122588186Y-107599477D01*
X122550090Y-107561382D01*
X122542095Y-107556040D01*
X122534497Y-107550143D01*
X122458307Y-107512048D01*
X122455408Y-107511254D01*
X122454435Y-107510281D01*
X122445002Y-107508404D01*
X122435727Y-107505865D01*
X122434421Y-107506300D01*
X122431474Y-107505714D01*
X122240998Y-107505714D01*
X122238050Y-107506300D01*
X122236745Y-107505865D01*
X122227471Y-107508404D01*
X122218037Y-107510281D01*
X122217063Y-107511254D01*
X122214166Y-107512048D01*
X122137974Y-107550143D01*
X122130374Y-107556040D01*
X122122380Y-107561383D01*
X122084286Y-107599478D01*
X122078948Y-107607465D01*
X122073046Y-107615071D01*
X122034951Y-107691262D01*
X122034157Y-107694160D01*
X122033184Y-107695134D01*
X122031656Y-107702813D01*
X121823365Y-107520559D01*
X121808578Y-107512043D01*
X121806816Y-107510281D01*
X121805518Y-107510281D01*
X121803078Y-107508876D01*
X121782005Y-107510281D01*
X121760894Y-107510281D01*
X121759385Y-107511789D01*
X121757257Y-107511931D01*
X121743348Y-107527827D01*
X121728422Y-107542753D01*
X121727873Y-107545512D01*
X121727017Y-107546491D01*
X121727183Y-107548981D01*
X121723855Y-107565714D01*
X121634966Y-107565714D01*
X121634966Y-107199894D01*
X122452231Y-107199894D01*
X122452231Y-107199895D01*
X122452231Y-107245817D01*
X122465238Y-107265282D01*
X122503334Y-107303378D01*
X122522799Y-107316385D01*
X122522800Y-107316385D01*
X122568722Y-107316385D01*
X122588187Y-107303378D01*
X122626282Y-107265282D01*
X122639288Y-107245817D01*
X122639288Y-107199894D01*
X122626281Y-107180429D01*
X122588186Y-107142335D01*
X122568724Y-107129330D01*
X122568722Y-107129328D01*
X122522799Y-107129328D01*
X122503334Y-107142334D01*
X122465238Y-107180429D01*
X122452231Y-107199894D01*
X121634966Y-107199894D01*
X121634966Y-106422857D01*
X121723855Y-106422857D01*
X121723855Y-106918095D01*
X121728422Y-106941056D01*
X121760894Y-106973528D01*
X121806816Y-106973528D01*
X121839288Y-106941056D01*
X121843855Y-106918095D01*
X121843855Y-106555083D01*
X122049107Y-106734678D01*
X122063893Y-106743193D01*
X122065656Y-106744956D01*
X122066954Y-106744956D01*
X122069394Y-106746361D01*
X122090467Y-106744956D01*
X122111578Y-106744956D01*
X122113086Y-106743447D01*
X122115215Y-106743306D01*
X122129124Y-106727410D01*
X122144050Y-106712484D01*
X122144598Y-106709724D01*
X122145455Y-106708746D01*
X122145288Y-106706255D01*
X122148617Y-106689523D01*
X122148617Y-106589402D01*
X122176024Y-106534587D01*
X122200347Y-106510264D01*
X122255163Y-106482857D01*
X122417309Y-106482857D01*
X122472123Y-106510264D01*
X122496448Y-106534588D01*
X122523855Y-106589402D01*
X122523855Y-106789644D01*
X122496448Y-106844458D01*
X122465238Y-106875668D01*
X122452231Y-106895133D01*
X122452231Y-106941055D01*
X122484702Y-106973528D01*
X122530624Y-106973528D01*
X122550090Y-106960522D01*
X122588186Y-106922427D01*
X122593528Y-106914432D01*
X122599426Y-106906833D01*
X122637521Y-106830641D01*
X122638314Y-106827743D01*
X122639288Y-106826770D01*
X122641164Y-106817335D01*
X122643704Y-106808062D01*
X122643268Y-106806756D01*
X122643855Y-106803809D01*
X122643855Y-106575238D01*
X122643268Y-106572290D01*
X122643704Y-106570985D01*
X122641164Y-106561711D01*
X122639288Y-106552277D01*
X122638314Y-106551303D01*
X122637521Y-106548406D01*
X122599426Y-106472214D01*
X122593528Y-106464614D01*
X122588186Y-106456620D01*
X122550090Y-106418525D01*
X122542095Y-106413183D01*
X122534497Y-106407286D01*
X122458307Y-106369191D01*
X122455408Y-106368397D01*
X122454435Y-106367424D01*
X122445002Y-106365547D01*
X122435727Y-106363008D01*
X122434421Y-106363443D01*
X122431474Y-106362857D01*
X122240998Y-106362857D01*
X122238050Y-106363443D01*
X122236745Y-106363008D01*
X122227471Y-106365547D01*
X122218037Y-106367424D01*
X122217063Y-106368397D01*
X122214166Y-106369191D01*
X122137974Y-106407286D01*
X122130374Y-106413183D01*
X122122380Y-106418526D01*
X122084286Y-106456621D01*
X122078948Y-106464608D01*
X122073046Y-106472214D01*
X122034951Y-106548405D01*
X122034157Y-106551303D01*
X122033184Y-106552277D01*
X122031656Y-106559956D01*
X121823365Y-106377702D01*
X121808578Y-106369186D01*
X121806816Y-106367424D01*
X121805518Y-106367424D01*
X121803078Y-106366019D01*
X121782005Y-106367424D01*
X121760894Y-106367424D01*
X121759385Y-106368932D01*
X121757257Y-106369074D01*
X121743348Y-106384970D01*
X121728422Y-106399896D01*
X121727873Y-106402655D01*
X121727017Y-106403634D01*
X121727183Y-106406124D01*
X121723855Y-106422857D01*
X121634966Y-106422857D01*
X121634966Y-105665205D01*
X121724006Y-105665205D01*
X121744543Y-105706279D01*
X121764881Y-105717873D01*
X122394118Y-105927617D01*
X121764881Y-106137364D01*
X121744543Y-106148958D01*
X121724006Y-106190032D01*
X121738528Y-106233597D01*
X121779602Y-106254134D01*
X121802829Y-106251206D01*
X122602829Y-105984539D01*
X122623167Y-105972945D01*
X122625171Y-105968935D01*
X122629183Y-105966930D01*
X122635199Y-105948880D01*
X122643704Y-105931871D01*
X122642286Y-105927618D01*
X122643704Y-105923365D01*
X122635197Y-105906351D01*
X122629182Y-105888306D01*
X122625172Y-105886301D01*
X122623167Y-105882291D01*
X122602829Y-105870697D01*
X121802829Y-105604031D01*
X121779602Y-105601103D01*
X121738528Y-105621640D01*
X121724006Y-105665205D01*
X121634966Y-105665205D01*
X121634966Y-105512214D01*
X122732744Y-105512214D01*
X122732744Y-108205274D01*
G37*
G36*
X122101170Y-112200738D02*
G01*
X122125494Y-112225063D01*
X122152902Y-112279878D01*
X122152902Y-112510475D01*
X121853855Y-112510475D01*
X121853855Y-112279878D01*
X121881262Y-112225062D01*
X121905587Y-112200738D01*
X121960401Y-112173332D01*
X122046358Y-112173332D01*
X122101170Y-112200738D01*
G37*
G36*
X122741604Y-112719364D02*
G01*
X121644966Y-112719364D01*
X121644966Y-112265713D01*
X121733855Y-112265713D01*
X121733855Y-112570475D01*
X121738422Y-112593436D01*
X121770894Y-112625908D01*
X121793855Y-112630475D01*
X122593855Y-112630475D01*
X122616816Y-112625908D01*
X122649288Y-112593436D01*
X122649288Y-112547514D01*
X122616816Y-112515042D01*
X122593855Y-112510475D01*
X122272902Y-112510475D01*
X122272902Y-112411238D01*
X122628262Y-112162486D01*
X122644454Y-112145577D01*
X122652434Y-112100354D01*
X122626100Y-112062733D01*
X122580876Y-112054752D01*
X122559447Y-112064178D01*
X122272735Y-112264875D01*
X122272315Y-112262765D01*
X122272751Y-112261460D01*
X122270211Y-112252184D01*
X122268335Y-112242752D01*
X122267361Y-112241778D01*
X122266568Y-112238880D01*
X122228473Y-112162690D01*
X122222577Y-112155094D01*
X122217233Y-112147096D01*
X122179138Y-112109002D01*
X122171146Y-112103662D01*
X122163545Y-112097762D01*
X122087354Y-112059667D01*
X122084456Y-112058873D01*
X122083482Y-112057899D01*
X122074045Y-112056022D01*
X122064775Y-112053483D01*
X122063468Y-112053918D01*
X122060521Y-112053332D01*
X121946236Y-112053332D01*
X121943288Y-112053918D01*
X121941982Y-112053483D01*
X121932711Y-112056022D01*
X121923275Y-112057899D01*
X121922300Y-112058873D01*
X121919403Y-112059667D01*
X121843212Y-112097763D01*
X121835618Y-112103655D01*
X121827618Y-112109002D01*
X121789524Y-112147097D01*
X121784184Y-112155088D01*
X121778284Y-112162690D01*
X121740189Y-112238880D01*
X121739395Y-112241778D01*
X121738422Y-112242752D01*
X121736545Y-112252184D01*
X121734006Y-112261460D01*
X121734441Y-112262765D01*
X121733855Y-112265713D01*
X121644966Y-112265713D01*
X121644966Y-111301688D01*
X121734995Y-111301688D01*
X121744002Y-111346719D01*
X121760573Y-111363255D01*
X122085688Y-111579999D01*
X121760573Y-111796743D01*
X121744002Y-111813279D01*
X121734995Y-111858310D01*
X121760468Y-111896519D01*
X121805499Y-111905526D01*
X121827137Y-111896589D01*
X122193855Y-111652110D01*
X122560573Y-111896589D01*
X122582211Y-111905526D01*
X122627242Y-111896520D01*
X122652715Y-111858310D01*
X122643709Y-111813280D01*
X122627137Y-111796743D01*
X122302021Y-111579999D01*
X122627137Y-111363255D01*
X122643709Y-111346718D01*
X122652715Y-111301688D01*
X122627242Y-111263478D01*
X122582211Y-111254472D01*
X122560573Y-111263409D01*
X122193855Y-111507887D01*
X121827137Y-111263409D01*
X121805499Y-111254472D01*
X121760468Y-111263479D01*
X121734995Y-111301688D01*
X121644966Y-111301688D01*
X121644966Y-111165583D01*
X122741604Y-111165583D01*
X122741604Y-112719364D01*
G37*
G36*
X122732744Y-105120019D02*
G01*
X121634966Y-105120019D01*
X121634966Y-104552380D01*
X121723855Y-104552380D01*
X121723855Y-104933332D01*
X121726709Y-104947684D01*
X121726412Y-104950663D01*
X121727588Y-104952100D01*
X121728422Y-104956293D01*
X121742702Y-104970573D01*
X121755492Y-104986205D01*
X121759580Y-104987451D01*
X121760894Y-104988765D01*
X121763887Y-104988765D01*
X121777885Y-104993034D01*
X122158837Y-105031130D01*
X122182138Y-105028871D01*
X122184595Y-105026861D01*
X122187767Y-105026861D01*
X122202047Y-105012580D01*
X122217680Y-104999791D01*
X122217995Y-104996634D01*
X122220240Y-104994390D01*
X122220240Y-104974194D01*
X122222250Y-104954097D01*
X122220240Y-104951640D01*
X122220240Y-104948467D01*
X122207234Y-104929002D01*
X122176024Y-104897791D01*
X122148617Y-104842977D01*
X122148617Y-104680830D01*
X122176024Y-104626015D01*
X122200347Y-104601692D01*
X122255163Y-104574285D01*
X122417309Y-104574285D01*
X122472123Y-104601692D01*
X122496448Y-104626016D01*
X122523855Y-104680830D01*
X122523855Y-104842977D01*
X122496447Y-104897793D01*
X122465238Y-104929002D01*
X122452231Y-104948467D01*
X122452231Y-104994389D01*
X122484703Y-105026861D01*
X122530625Y-105026861D01*
X122550090Y-105013854D01*
X122588186Y-104975758D01*
X122593525Y-104967766D01*
X122599426Y-104960165D01*
X122637521Y-104883975D01*
X122638314Y-104881076D01*
X122639288Y-104880103D01*
X122641164Y-104870670D01*
X122643704Y-104861395D01*
X122643268Y-104860089D01*
X122643855Y-104857142D01*
X122643855Y-104666666D01*
X122643268Y-104663718D01*
X122643704Y-104662413D01*
X122641164Y-104653139D01*
X122639288Y-104643705D01*
X122638314Y-104642731D01*
X122637521Y-104639834D01*
X122599426Y-104563642D01*
X122593528Y-104556042D01*
X122588186Y-104548048D01*
X122550090Y-104509953D01*
X122542095Y-104504611D01*
X122534497Y-104498714D01*
X122458307Y-104460619D01*
X122455408Y-104459825D01*
X122454435Y-104458852D01*
X122445002Y-104456975D01*
X122435727Y-104454436D01*
X122434421Y-104454871D01*
X122431474Y-104454285D01*
X122240998Y-104454285D01*
X122238050Y-104454871D01*
X122236745Y-104454436D01*
X122227471Y-104456975D01*
X122218037Y-104458852D01*
X122217063Y-104459825D01*
X122214166Y-104460619D01*
X122137974Y-104498714D01*
X122130374Y-104504611D01*
X122122380Y-104509954D01*
X122084286Y-104548049D01*
X122078948Y-104556036D01*
X122073046Y-104563642D01*
X122034951Y-104639833D01*
X122034157Y-104642731D01*
X122033184Y-104643705D01*
X122031307Y-104653137D01*
X122028768Y-104662413D01*
X122029203Y-104663718D01*
X122028617Y-104666666D01*
X122028617Y-104857142D01*
X122029203Y-104860089D01*
X122028768Y-104861395D01*
X122031307Y-104870670D01*
X122033184Y-104880103D01*
X122034157Y-104881076D01*
X122034951Y-104883975D01*
X122042407Y-104898888D01*
X121843855Y-104879033D01*
X121843855Y-104552380D01*
X121839288Y-104529419D01*
X121806816Y-104496947D01*
X121760894Y-104496947D01*
X121728422Y-104529419D01*
X121723855Y-104552380D01*
X121634966Y-104552380D01*
X121634966Y-103756633D01*
X121724006Y-103756633D01*
X121744543Y-103797707D01*
X121764881Y-103809301D01*
X122394118Y-104019045D01*
X121764881Y-104228792D01*
X121744543Y-104240386D01*
X121724006Y-104281460D01*
X121738528Y-104325025D01*
X121779602Y-104345562D01*
X121802829Y-104342634D01*
X122602829Y-104075967D01*
X122623167Y-104064373D01*
X122625171Y-104060363D01*
X122629183Y-104058358D01*
X122635199Y-104040308D01*
X122643704Y-104023299D01*
X122642286Y-104019046D01*
X122643704Y-104014793D01*
X122635197Y-103997779D01*
X122629182Y-103979734D01*
X122625172Y-103977729D01*
X122623167Y-103973719D01*
X122602829Y-103962125D01*
X121802829Y-103695459D01*
X121779602Y-103692531D01*
X121738528Y-103713068D01*
X121724006Y-103756633D01*
X121634966Y-103756633D01*
X121634966Y-103603642D01*
X122732744Y-103603642D01*
X122732744Y-105120019D01*
G37*
G36*
X132002744Y-113080317D02*
G01*
X130904966Y-113080317D01*
X130904966Y-112588570D01*
X130993855Y-112588570D01*
X130993855Y-112664761D01*
X130995731Y-112674194D01*
X130996934Y-112683735D01*
X131035029Y-112798021D01*
X131036517Y-112800631D01*
X131036517Y-112802008D01*
X131041855Y-112809997D01*
X131046622Y-112818359D01*
X131047855Y-112818975D01*
X131049524Y-112821473D01*
X131125714Y-112897663D01*
X131133701Y-112903000D01*
X131141307Y-112908903D01*
X131217499Y-112946998D01*
X131223838Y-112948734D01*
X131229779Y-112951540D01*
X131382160Y-112989637D01*
X131389504Y-112989994D01*
X131396712Y-112991428D01*
X131510998Y-112991428D01*
X131518209Y-112989993D01*
X131525550Y-112989636D01*
X131677931Y-112951540D01*
X131683870Y-112948734D01*
X131690212Y-112946998D01*
X131766402Y-112908903D01*
X131773998Y-112903007D01*
X131781995Y-112897664D01*
X131858186Y-112821473D01*
X131859854Y-112818975D01*
X131861088Y-112818359D01*
X131865854Y-112809997D01*
X131871193Y-112802008D01*
X131871193Y-112800631D01*
X131872681Y-112798021D01*
X131910776Y-112683734D01*
X131911978Y-112674195D01*
X131913855Y-112664761D01*
X131913855Y-112588570D01*
X131911978Y-112579136D01*
X131910776Y-112569596D01*
X131872681Y-112455311D01*
X131871193Y-112452700D01*
X131871193Y-112451324D01*
X131865850Y-112443328D01*
X131861087Y-112434973D01*
X131859855Y-112434357D01*
X131858186Y-112431859D01*
X131820090Y-112393763D01*
X131800625Y-112380756D01*
X131754703Y-112380756D01*
X131722231Y-112413228D01*
X131722231Y-112459150D01*
X131735238Y-112478615D01*
X131763317Y-112506694D01*
X131793855Y-112598307D01*
X131793855Y-112655024D01*
X131763318Y-112746635D01*
X131704028Y-112805924D01*
X131642436Y-112836720D01*
X131503614Y-112871428D01*
X131404096Y-112871428D01*
X131265276Y-112836722D01*
X131203678Y-112805923D01*
X131144392Y-112746637D01*
X131113855Y-112655024D01*
X131113855Y-112598307D01*
X131144392Y-112506695D01*
X131172472Y-112478615D01*
X131185478Y-112459150D01*
X131185478Y-112413227D01*
X131153005Y-112380756D01*
X131107083Y-112380756D01*
X131087618Y-112393763D01*
X131049523Y-112431859D01*
X131047853Y-112434357D01*
X131046623Y-112434973D01*
X131041860Y-112443328D01*
X131036517Y-112451325D01*
X131036517Y-112452700D01*
X131035029Y-112455311D01*
X130996934Y-112569596D01*
X130995731Y-112579136D01*
X130993855Y-112588570D01*
X130904966Y-112588570D01*
X130904966Y-112070371D01*
X130998422Y-112070371D01*
X130998422Y-112116293D01*
X131030894Y-112148765D01*
X131053855Y-112153332D01*
X131853855Y-112153332D01*
X131876816Y-112148765D01*
X131909288Y-112116293D01*
X131913855Y-112093332D01*
X131913855Y-111712380D01*
X131909288Y-111689419D01*
X131876816Y-111656947D01*
X131830894Y-111656947D01*
X131798422Y-111689419D01*
X131793855Y-111712380D01*
X131793855Y-112033332D01*
X131053855Y-112033332D01*
X131030894Y-112037899D01*
X130998422Y-112070371D01*
X130904966Y-112070371D01*
X130904966Y-110965609D01*
X130998422Y-110965609D01*
X130998422Y-111011531D01*
X131011429Y-111030996D01*
X131366145Y-111385713D01*
X131053855Y-111385713D01*
X131030894Y-111390280D01*
X130998422Y-111422752D01*
X130998422Y-111468674D01*
X131030894Y-111501146D01*
X131053855Y-111505713D01*
X131853855Y-111505713D01*
X131876816Y-111501146D01*
X131909288Y-111468674D01*
X131909288Y-111422752D01*
X131876816Y-111390280D01*
X131853855Y-111385713D01*
X131535851Y-111385713D01*
X131488057Y-111337919D01*
X131889855Y-111036570D01*
X131905483Y-111019140D01*
X131911978Y-110973679D01*
X131884425Y-110936941D01*
X131838964Y-110930447D01*
X131817855Y-110940570D01*
X131402342Y-111252204D01*
X131096281Y-110946144D01*
X131076816Y-110933137D01*
X131030894Y-110933137D01*
X130998422Y-110965609D01*
X130904966Y-110965609D01*
X130904966Y-110841558D01*
X132002744Y-110841558D01*
X132002744Y-113080317D01*
G37*
G36*
X129651170Y-104051691D02*
G01*
X129675494Y-104076016D01*
X129702902Y-104130831D01*
X129702902Y-104361428D01*
X129403855Y-104361428D01*
X129403855Y-104130831D01*
X129431262Y-104076015D01*
X129455587Y-104051691D01*
X129510401Y-104024285D01*
X129596358Y-104024285D01*
X129651170Y-104051691D01*
G37*
G36*
X129613076Y-103289788D02*
G01*
X129637399Y-103314111D01*
X129664807Y-103368926D01*
X129664807Y-103561428D01*
X129403855Y-103561428D01*
X129403855Y-103368926D01*
X129431262Y-103314111D01*
X129455585Y-103289788D01*
X129510401Y-103262381D01*
X129558261Y-103262381D01*
X129613076Y-103289788D01*
G37*
G36*
X130032122Y-103251691D02*
G01*
X130056448Y-103276017D01*
X130083855Y-103330831D01*
X130083855Y-103561428D01*
X129784807Y-103561428D01*
X129784807Y-103364498D01*
X129815343Y-103272887D01*
X129836540Y-103251691D01*
X129891353Y-103224285D01*
X129977311Y-103224285D01*
X130032122Y-103251691D01*
G37*
G36*
X130292744Y-104570317D02*
G01*
X129194966Y-104570317D01*
X129194966Y-104116666D01*
X129283855Y-104116666D01*
X129283855Y-104421428D01*
X129288422Y-104444389D01*
X129320894Y-104476861D01*
X129343855Y-104481428D01*
X130143855Y-104481428D01*
X130166816Y-104476861D01*
X130199288Y-104444389D01*
X130199288Y-104398467D01*
X130166816Y-104365995D01*
X130143855Y-104361428D01*
X129822902Y-104361428D01*
X129822902Y-104116666D01*
X129822315Y-104113718D01*
X129822751Y-104112413D01*
X129820211Y-104103137D01*
X129818335Y-104093705D01*
X129817361Y-104092731D01*
X129816568Y-104089833D01*
X129778473Y-104013643D01*
X129772577Y-104006047D01*
X129767233Y-103998049D01*
X129729138Y-103959955D01*
X129721146Y-103954615D01*
X129713545Y-103948715D01*
X129637354Y-103910620D01*
X129634456Y-103909826D01*
X129633482Y-103908852D01*
X129624045Y-103906975D01*
X129614775Y-103904436D01*
X129613468Y-103904871D01*
X129610521Y-103904285D01*
X129496236Y-103904285D01*
X129493288Y-103904871D01*
X129491982Y-103904436D01*
X129482711Y-103906975D01*
X129473275Y-103908852D01*
X129472300Y-103909826D01*
X129469403Y-103910620D01*
X129393212Y-103948716D01*
X129385618Y-103954608D01*
X129377618Y-103959955D01*
X129339524Y-103998050D01*
X129334184Y-104006041D01*
X129328284Y-104013643D01*
X129290189Y-104089833D01*
X129289395Y-104092731D01*
X129288422Y-104093705D01*
X129286545Y-104103137D01*
X129284006Y-104112413D01*
X129284441Y-104113718D01*
X129283855Y-104116666D01*
X129194966Y-104116666D01*
X129194966Y-103354762D01*
X129283855Y-103354762D01*
X129283855Y-103621428D01*
X129288422Y-103644389D01*
X129320894Y-103676861D01*
X129343855Y-103681428D01*
X130143855Y-103681428D01*
X130166816Y-103676861D01*
X130199288Y-103644389D01*
X130203855Y-103621428D01*
X130203855Y-103316666D01*
X130203268Y-103313718D01*
X130203704Y-103312413D01*
X130201164Y-103303137D01*
X130199288Y-103293705D01*
X130198314Y-103292731D01*
X130197521Y-103289833D01*
X130159426Y-103213643D01*
X130153530Y-103206047D01*
X130148186Y-103198049D01*
X130110090Y-103159954D01*
X130102095Y-103154612D01*
X130094497Y-103148715D01*
X130018307Y-103110620D01*
X130015409Y-103109826D01*
X130014435Y-103108852D01*
X130004998Y-103106975D01*
X129995728Y-103104436D01*
X129994421Y-103104871D01*
X129991474Y-103104285D01*
X129877188Y-103104285D01*
X129874240Y-103104871D01*
X129872934Y-103104436D01*
X129863661Y-103106975D01*
X129854227Y-103108852D01*
X129853252Y-103109826D01*
X129850354Y-103110620D01*
X129774165Y-103148716D01*
X129766571Y-103154609D01*
X129758572Y-103159954D01*
X129720476Y-103198049D01*
X129718806Y-103200547D01*
X129717574Y-103201164D01*
X129712811Y-103209518D01*
X129708686Y-103215692D01*
X129691043Y-103198050D01*
X129683055Y-103192712D01*
X129675450Y-103186810D01*
X129599259Y-103148715D01*
X129596360Y-103147921D01*
X129595387Y-103146948D01*
X129585954Y-103145071D01*
X129576679Y-103142532D01*
X129575373Y-103142967D01*
X129572426Y-103142381D01*
X129496236Y-103142381D01*
X129493288Y-103142967D01*
X129491983Y-103142532D01*
X129482709Y-103145071D01*
X129473275Y-103146948D01*
X129472301Y-103147921D01*
X129469404Y-103148715D01*
X129393212Y-103186810D01*
X129385612Y-103192707D01*
X129377618Y-103198050D01*
X129339524Y-103236145D01*
X129334186Y-103244132D01*
X129328284Y-103251738D01*
X129290189Y-103327929D01*
X129289395Y-103330827D01*
X129288422Y-103331801D01*
X129286545Y-103341233D01*
X129284006Y-103350509D01*
X129284441Y-103351814D01*
X129283855Y-103354762D01*
X129194966Y-103354762D01*
X129194966Y-102619308D01*
X129284996Y-102619308D01*
X129288422Y-102636439D01*
X129288422Y-102653913D01*
X129292789Y-102658280D01*
X129294001Y-102664338D01*
X129310573Y-102680875D01*
X129419914Y-102753769D01*
X129485018Y-102818874D01*
X129518760Y-102886357D01*
X129533113Y-102904851D01*
X129576679Y-102919373D01*
X129617753Y-102898837D01*
X129632275Y-102855271D01*
X129626092Y-102832692D01*
X129587997Y-102756500D01*
X129582094Y-102748894D01*
X129576757Y-102740907D01*
X129526802Y-102690952D01*
X130083855Y-102690952D01*
X130083855Y-102859524D01*
X130088422Y-102882485D01*
X130120894Y-102914957D01*
X130166816Y-102914957D01*
X130199288Y-102882485D01*
X130203855Y-102859524D01*
X130203855Y-102402381D01*
X130199288Y-102379420D01*
X130166816Y-102346948D01*
X130120894Y-102346948D01*
X130088422Y-102379420D01*
X130083855Y-102402381D01*
X130083855Y-102570952D01*
X129343855Y-102570952D01*
X129320894Y-102575519D01*
X129316526Y-102579886D01*
X129310469Y-102581098D01*
X129300777Y-102595635D01*
X129288422Y-102607991D01*
X129288422Y-102614168D01*
X129284996Y-102619308D01*
X129194966Y-102619308D01*
X129194966Y-101678571D01*
X129283855Y-101678571D01*
X129283855Y-102059523D01*
X129286709Y-102073875D01*
X129286412Y-102076854D01*
X129287588Y-102078291D01*
X129288422Y-102082484D01*
X129302702Y-102096764D01*
X129315492Y-102112396D01*
X129319580Y-102113642D01*
X129320894Y-102114956D01*
X129323887Y-102114956D01*
X129337885Y-102119225D01*
X129718837Y-102157321D01*
X129742138Y-102155062D01*
X129744595Y-102153052D01*
X129747767Y-102153052D01*
X129762047Y-102138771D01*
X129777680Y-102125982D01*
X129777995Y-102122825D01*
X129780240Y-102120581D01*
X129780240Y-102100385D01*
X129782250Y-102080288D01*
X129780240Y-102077831D01*
X129780240Y-102074658D01*
X129767234Y-102055193D01*
X129736024Y-102023982D01*
X129708617Y-101969168D01*
X129708617Y-101807021D01*
X129736024Y-101752206D01*
X129760347Y-101727883D01*
X129815163Y-101700476D01*
X129977309Y-101700476D01*
X130032123Y-101727883D01*
X130056448Y-101752207D01*
X130083855Y-101807021D01*
X130083855Y-101969168D01*
X130056447Y-102023984D01*
X130025238Y-102055193D01*
X130012231Y-102074658D01*
X130012231Y-102120580D01*
X130044703Y-102153052D01*
X130090625Y-102153052D01*
X130110090Y-102140045D01*
X130148186Y-102101949D01*
X130153525Y-102093957D01*
X130159426Y-102086356D01*
X130197521Y-102010166D01*
X130198314Y-102007267D01*
X130199288Y-102006294D01*
X130201164Y-101996861D01*
X130203704Y-101987586D01*
X130203268Y-101986280D01*
X130203855Y-101983333D01*
X130203855Y-101792857D01*
X130203268Y-101789909D01*
X130203704Y-101788604D01*
X130201164Y-101779330D01*
X130199288Y-101769896D01*
X130198314Y-101768922D01*
X130197521Y-101766025D01*
X130159426Y-101689833D01*
X130153528Y-101682233D01*
X130148186Y-101674239D01*
X130110090Y-101636144D01*
X130102095Y-101630802D01*
X130094497Y-101624905D01*
X130018307Y-101586810D01*
X130015408Y-101586016D01*
X130014435Y-101585043D01*
X130005002Y-101583166D01*
X129995727Y-101580627D01*
X129994421Y-101581062D01*
X129991474Y-101580476D01*
X129800998Y-101580476D01*
X129798050Y-101581062D01*
X129796745Y-101580627D01*
X129787471Y-101583166D01*
X129778037Y-101585043D01*
X129777063Y-101586016D01*
X129774166Y-101586810D01*
X129697974Y-101624905D01*
X129690374Y-101630802D01*
X129682380Y-101636145D01*
X129644286Y-101674240D01*
X129638948Y-101682227D01*
X129633046Y-101689833D01*
X129594951Y-101766024D01*
X129594157Y-101768922D01*
X129593184Y-101769896D01*
X129591307Y-101779328D01*
X129588768Y-101788604D01*
X129589203Y-101789909D01*
X129588617Y-101792857D01*
X129588617Y-101983333D01*
X129589203Y-101986280D01*
X129588768Y-101987586D01*
X129591307Y-101996861D01*
X129593184Y-102006294D01*
X129594157Y-102007267D01*
X129594951Y-102010166D01*
X129602407Y-102025079D01*
X129403855Y-102005224D01*
X129403855Y-101678571D01*
X129399288Y-101655610D01*
X129366816Y-101623138D01*
X129320894Y-101623138D01*
X129288422Y-101655610D01*
X129283855Y-101678571D01*
X129194966Y-101678571D01*
X129194966Y-101491587D01*
X130292744Y-101491587D01*
X130292744Y-104570317D01*
G37*
D12*
G36*
X122224771Y-128565669D02*
G01*
X122255851Y-128571104D01*
X122295693Y-128588530D01*
X122320697Y-128613358D01*
X122335336Y-128645847D01*
X122340542Y-128686936D01*
X122338067Y-128714637D01*
X122330956Y-128738777D01*
X122319047Y-128760275D01*
X122302257Y-128778649D01*
X122281264Y-128793176D01*
X122254446Y-128804539D01*
X122224441Y-128811263D01*
X122187524Y-128813698D01*
X122095994Y-128813698D01*
X122095994Y-128563593D01*
X122176594Y-128563593D01*
X122224771Y-128565669D01*
G37*
G36*
X124137906Y-129436742D02*
G01*
X121805181Y-129436742D01*
X121805181Y-128483482D01*
X121916292Y-128483482D01*
X121916292Y-128563593D01*
X121916292Y-128813698D01*
X121916292Y-129285270D01*
X121920383Y-129297543D01*
X121934733Y-129306397D01*
X121962393Y-129311831D01*
X122005807Y-129313907D01*
X122049527Y-129311831D01*
X122076882Y-129306397D01*
X122091536Y-129297421D01*
X122095994Y-129285087D01*
X122095994Y-128946566D01*
X122151987Y-128946566D01*
X122179597Y-128948906D01*
X122202545Y-128955481D01*
X122223061Y-128966507D01*
X122241135Y-128981920D01*
X122256710Y-129001042D01*
X122271482Y-129025518D01*
X122299509Y-129085235D01*
X122378766Y-129283682D01*
X122385605Y-129297787D01*
X122399588Y-129307374D01*
X122426577Y-129312503D01*
X122472372Y-129313907D01*
X122526289Y-129312503D01*
X122556392Y-129307740D01*
X122569337Y-129299192D01*
X122572084Y-129286491D01*
X122568665Y-129267684D01*
X122554987Y-129229644D01*
X122480554Y-129054949D01*
X122453932Y-128998407D01*
X122424867Y-128953893D01*
X122392077Y-128920676D01*
X122354891Y-128897351D01*
X122394155Y-128882140D01*
X122427981Y-128863340D01*
X122457753Y-128840211D01*
X122481959Y-128813759D01*
X122501048Y-128783453D01*
X122515054Y-128748790D01*
X122523420Y-128711193D01*
X122525755Y-128676922D01*
X122690115Y-128676922D01*
X122690115Y-129050125D01*
X122693205Y-129116972D01*
X122701350Y-129166690D01*
X122716599Y-129211131D01*
X122738963Y-129249061D01*
X122769081Y-129280607D01*
X122807962Y-129305115D01*
X122853766Y-129320122D01*
X122913475Y-129325631D01*
X122968233Y-129318876D01*
X123021735Y-129298276D01*
X123072039Y-129265257D01*
X123124562Y-129216149D01*
X123124562Y-129286552D01*
X123127981Y-129298520D01*
X123139583Y-129307069D01*
X123161748Y-129312198D01*
X123198323Y-129313907D01*
X123233494Y-129312198D01*
X123256025Y-129307069D01*
X123267993Y-129298520D01*
X123271413Y-129286552D01*
X123271413Y-128676922D01*
X123444825Y-128676922D01*
X123444825Y-129286552D01*
X123448916Y-129298520D01*
X123462899Y-129307069D01*
X123489216Y-129312198D01*
X123530921Y-129313907D01*
X123572503Y-129312198D01*
X123598820Y-129307069D01*
X123612864Y-129298520D01*
X123616955Y-129286491D01*
X123616955Y-128880193D01*
X123654098Y-128838156D01*
X123686625Y-128810340D01*
X123720883Y-128791998D01*
X123752876Y-128786343D01*
X123777694Y-128788939D01*
X123798306Y-128796296D01*
X123815973Y-128808256D01*
X123830057Y-128824384D01*
X123840670Y-128843835D01*
X123848803Y-128867859D01*
X123853468Y-128895605D01*
X123855336Y-128937773D01*
X123855336Y-129286491D01*
X123859427Y-129298520D01*
X123873044Y-129307069D01*
X123899361Y-129312198D01*
X123941432Y-129313907D01*
X123982709Y-129312198D01*
X124009026Y-129307069D01*
X124022704Y-129298520D01*
X124026795Y-129286552D01*
X124026795Y-128909930D01*
X124023650Y-128846077D01*
X124015193Y-128796479D01*
X123999677Y-128751775D01*
X123977274Y-128714108D01*
X123947180Y-128682809D01*
X123908276Y-128658360D01*
X123862550Y-128643337D01*
X123803435Y-128637843D01*
X123748085Y-128644616D01*
X123694441Y-128665198D01*
X123644196Y-128698176D01*
X123591676Y-128747325D01*
X123591676Y-128676922D01*
X123588257Y-128664954D01*
X123576960Y-128656406D01*
X123554795Y-128651277D01*
X123518586Y-128649567D01*
X123483415Y-128651277D01*
X123460518Y-128656406D01*
X123448244Y-128664954D01*
X123444825Y-128676922D01*
X123271413Y-128676922D01*
X123267322Y-128664954D01*
X123253644Y-128656406D01*
X123227632Y-128651277D01*
X123186050Y-128649567D01*
X123144345Y-128651277D01*
X123118028Y-128656406D01*
X123104351Y-128664954D01*
X123100626Y-128676922D01*
X123100626Y-129082182D01*
X123062428Y-129124796D01*
X123029918Y-129152890D01*
X122995955Y-129171413D01*
X122964033Y-129177131D01*
X122939211Y-129174551D01*
X122918604Y-129167240D01*
X122900856Y-129155259D01*
X122886486Y-129139152D01*
X122875657Y-129119613D01*
X122867679Y-129095615D01*
X122863348Y-129067448D01*
X122861573Y-129022281D01*
X122861573Y-128676983D01*
X122857482Y-128665015D01*
X122843438Y-128656406D01*
X122817121Y-128651277D01*
X122775478Y-128649567D01*
X122734139Y-128651277D01*
X122707517Y-128656406D01*
X122693839Y-128664954D01*
X122690115Y-128676922D01*
X122525755Y-128676922D01*
X122526350Y-128668190D01*
X122522223Y-128617744D01*
X122510596Y-128575439D01*
X122491296Y-128537539D01*
X122465167Y-128505403D01*
X122432687Y-128478904D01*
X122392749Y-128457409D01*
X122348304Y-128441999D01*
X122296823Y-128431580D01*
X122255790Y-128428222D01*
X122198454Y-128426817D01*
X121969598Y-128426817D01*
X121948554Y-128430235D01*
X121931618Y-128440129D01*
X121920538Y-128456492D01*
X121916292Y-128483482D01*
X121805181Y-128483482D01*
X121805181Y-128315706D01*
X124137906Y-128315706D01*
X124137906Y-129436742D01*
G37*
D11*
G36*
X131642436Y-104148991D02*
G01*
X131704028Y-104179787D01*
X131763318Y-104239076D01*
X131793855Y-104330687D01*
X131793855Y-104451427D01*
X131113855Y-104451427D01*
X131113855Y-104330687D01*
X131144392Y-104239074D01*
X131203678Y-104179788D01*
X131265276Y-104148989D01*
X131404096Y-104114284D01*
X131503614Y-104114284D01*
X131642436Y-104148991D01*
G37*
G36*
X131565283Y-103666276D02*
G01*
X131243592Y-103559046D01*
X131565283Y-103451816D01*
X131565283Y-103666276D01*
G37*
G36*
X132002744Y-105460317D02*
G01*
X130904966Y-105460317D01*
X130904966Y-104968570D01*
X130993855Y-104968570D01*
X130993855Y-105159047D01*
X130994441Y-105161994D01*
X130994006Y-105163300D01*
X130996545Y-105172575D01*
X130998422Y-105182008D01*
X130999395Y-105182981D01*
X131000189Y-105185880D01*
X131038284Y-105262070D01*
X131044184Y-105269671D01*
X131049524Y-105277663D01*
X131087618Y-105315758D01*
X131095618Y-105321104D01*
X131103212Y-105326997D01*
X131179403Y-105365093D01*
X131182300Y-105365886D01*
X131183275Y-105366861D01*
X131192711Y-105368737D01*
X131201982Y-105371277D01*
X131203288Y-105370841D01*
X131206236Y-105371428D01*
X131282426Y-105371428D01*
X131285373Y-105370841D01*
X131286680Y-105371277D01*
X131295950Y-105368737D01*
X131305387Y-105366861D01*
X131306361Y-105365886D01*
X131309259Y-105365093D01*
X131385450Y-105326998D01*
X131393051Y-105321097D01*
X131401043Y-105315758D01*
X131439138Y-105277664D01*
X131444482Y-105269665D01*
X131450378Y-105262070D01*
X131488473Y-105185880D01*
X131490208Y-105179541D01*
X131493016Y-105173599D01*
X131529514Y-105027604D01*
X131560308Y-104966016D01*
X131584633Y-104941692D01*
X131639448Y-104914285D01*
X131687309Y-104914285D01*
X131742123Y-104941692D01*
X131766448Y-104966016D01*
X131793855Y-105020830D01*
X131793855Y-105187405D01*
X131758839Y-105292454D01*
X131755911Y-105315681D01*
X131776448Y-105356756D01*
X131820013Y-105371277D01*
X131861088Y-105350740D01*
X131872681Y-105330402D01*
X131910776Y-105216115D01*
X131911978Y-105206576D01*
X131913855Y-105197142D01*
X131913855Y-105006666D01*
X131913268Y-105003718D01*
X131913704Y-105002413D01*
X131911164Y-104993139D01*
X131909288Y-104983705D01*
X131908314Y-104982731D01*
X131907521Y-104979834D01*
X131869426Y-104903642D01*
X131863528Y-104896042D01*
X131858186Y-104888048D01*
X131820090Y-104849953D01*
X131812095Y-104844611D01*
X131804497Y-104838714D01*
X131728307Y-104800619D01*
X131725408Y-104799825D01*
X131724435Y-104798852D01*
X131715002Y-104796975D01*
X131705727Y-104794436D01*
X131704421Y-104794871D01*
X131701474Y-104794285D01*
X131625283Y-104794285D01*
X131622335Y-104794871D01*
X131621030Y-104794436D01*
X131611754Y-104796975D01*
X131602322Y-104798852D01*
X131601348Y-104799825D01*
X131598450Y-104800619D01*
X131522260Y-104838714D01*
X131514664Y-104844609D01*
X131506666Y-104849954D01*
X131468572Y-104888049D01*
X131463232Y-104896040D01*
X131457332Y-104903642D01*
X131419237Y-104979833D01*
X131417500Y-104986171D01*
X131414694Y-104992114D01*
X131378195Y-105138104D01*
X131347399Y-105199696D01*
X131323075Y-105224021D01*
X131268263Y-105251428D01*
X131220401Y-105251428D01*
X131165587Y-105224021D01*
X131141262Y-105199697D01*
X131113855Y-105144882D01*
X131113855Y-104978307D01*
X131148871Y-104873259D01*
X131151799Y-104850032D01*
X131131262Y-104808958D01*
X131087697Y-104794436D01*
X131046623Y-104814973D01*
X131035029Y-104835311D01*
X130996934Y-104949596D01*
X130995731Y-104959136D01*
X130993855Y-104968570D01*
X130904966Y-104968570D01*
X130904966Y-104320951D01*
X130993855Y-104320951D01*
X130993855Y-104511427D01*
X130998422Y-104534388D01*
X131030894Y-104566860D01*
X131053855Y-104571427D01*
X131853855Y-104571427D01*
X131876816Y-104566860D01*
X131909288Y-104534388D01*
X131913855Y-104511427D01*
X131913855Y-104320951D01*
X131911978Y-104311516D01*
X131910776Y-104301978D01*
X131872681Y-104187691D01*
X131871193Y-104185080D01*
X131871193Y-104183704D01*
X131865854Y-104175714D01*
X131861088Y-104167353D01*
X131859854Y-104166736D01*
X131858186Y-104164239D01*
X131781995Y-104088048D01*
X131773998Y-104082704D01*
X131766402Y-104076809D01*
X131690212Y-104038714D01*
X131683870Y-104036977D01*
X131677931Y-104034172D01*
X131525550Y-103996076D01*
X131518209Y-103995718D01*
X131510998Y-103994284D01*
X131396712Y-103994284D01*
X131389504Y-103995717D01*
X131382160Y-103996075D01*
X131229779Y-104034172D01*
X131223838Y-104036977D01*
X131217499Y-104038714D01*
X131141307Y-104076809D01*
X131133701Y-104082711D01*
X131125714Y-104088049D01*
X131049524Y-104164239D01*
X131047855Y-104166736D01*
X131046622Y-104167353D01*
X131041855Y-104175714D01*
X131036517Y-104183704D01*
X131036517Y-104185080D01*
X131035029Y-104187691D01*
X130996934Y-104301977D01*
X130995731Y-104311517D01*
X130993855Y-104320951D01*
X130904966Y-104320951D01*
X130904966Y-103554793D01*
X130994006Y-103554793D01*
X130995423Y-103559046D01*
X130994006Y-103563299D01*
X131002512Y-103580312D01*
X131008528Y-103598358D01*
X131012538Y-103600363D01*
X131014543Y-103604373D01*
X131034881Y-103615967D01*
X131834881Y-103882634D01*
X131858108Y-103885562D01*
X131899182Y-103865025D01*
X131913704Y-103821460D01*
X131893167Y-103780386D01*
X131872829Y-103768792D01*
X131685283Y-103706276D01*
X131685283Y-103411816D01*
X131872829Y-103349301D01*
X131893167Y-103337707D01*
X131913704Y-103296633D01*
X131899183Y-103253068D01*
X131858108Y-103232531D01*
X131834882Y-103235459D01*
X131034881Y-103502125D01*
X131014543Y-103513719D01*
X131012538Y-103517729D01*
X131008528Y-103519734D01*
X131002512Y-103537779D01*
X130994006Y-103554793D01*
X130904966Y-103554793D01*
X130904966Y-103143642D01*
X132002744Y-103143642D01*
X132002744Y-105460317D01*
G37*
G36*
X122731604Y-110183845D02*
G01*
X121634966Y-110183845D01*
X121634966Y-109582380D01*
X121723855Y-109582380D01*
X121723855Y-110039523D01*
X121728422Y-110062484D01*
X121760894Y-110094956D01*
X121806816Y-110094956D01*
X121839288Y-110062484D01*
X121843855Y-110039523D01*
X121843855Y-109870952D01*
X122583855Y-109870952D01*
X122606816Y-109866385D01*
X122639288Y-109833913D01*
X122639288Y-109787991D01*
X122606816Y-109755519D01*
X122583855Y-109750952D01*
X121843855Y-109750952D01*
X121843855Y-109582380D01*
X121839288Y-109559419D01*
X121806816Y-109526947D01*
X121760894Y-109526947D01*
X121728422Y-109559419D01*
X121723855Y-109582380D01*
X121634966Y-109582380D01*
X121634966Y-108846926D01*
X121724995Y-108846926D01*
X121734002Y-108891957D01*
X121750573Y-108908493D01*
X122075688Y-109125237D01*
X121750573Y-109341981D01*
X121734002Y-109358517D01*
X121724995Y-109403548D01*
X121750468Y-109441757D01*
X121795499Y-109450764D01*
X121817137Y-109441827D01*
X122183855Y-109197348D01*
X122550573Y-109441827D01*
X122572211Y-109450764D01*
X122617242Y-109441758D01*
X122642715Y-109403548D01*
X122633709Y-109358518D01*
X122617137Y-109341981D01*
X122292021Y-109125237D01*
X122617137Y-108908493D01*
X122633709Y-108891956D01*
X122642715Y-108846926D01*
X122617242Y-108808716D01*
X122572211Y-108799710D01*
X122550573Y-108808647D01*
X122183855Y-109053125D01*
X121817137Y-108808647D01*
X121795499Y-108799710D01*
X121750468Y-108808717D01*
X121724995Y-108846926D01*
X121634966Y-108846926D01*
X121634966Y-108710821D01*
X122731604Y-108710821D01*
X122731604Y-110183845D01*
G37*
G36*
X128161170Y-104053595D02*
G01*
X128185494Y-104077920D01*
X128212902Y-104132735D01*
X128212902Y-104363332D01*
X127913855Y-104363332D01*
X127913855Y-104132735D01*
X127941262Y-104077919D01*
X127965587Y-104053595D01*
X128020401Y-104026189D01*
X128106358Y-104026189D01*
X128161170Y-104053595D01*
G37*
G36*
X128365283Y-103578181D02*
G01*
X128043592Y-103470951D01*
X128365283Y-103363721D01*
X128365283Y-103578181D01*
G37*
G36*
X128084980Y-102605978D02*
G01*
X128109305Y-102630302D01*
X128136712Y-102685116D01*
X128136712Y-102809168D01*
X128109305Y-102863981D01*
X128084979Y-102888307D01*
X128030168Y-102915714D01*
X128020401Y-102915714D01*
X127965587Y-102888307D01*
X127941262Y-102863983D01*
X127913855Y-102809168D01*
X127913855Y-102685116D01*
X127941262Y-102630301D01*
X127965585Y-102605978D01*
X128020401Y-102578571D01*
X128030166Y-102578571D01*
X128084980Y-102605978D01*
G37*
G36*
X128542123Y-102605978D02*
G01*
X128566448Y-102630302D01*
X128593855Y-102685116D01*
X128593855Y-102809168D01*
X128566448Y-102863981D01*
X128542122Y-102888307D01*
X128487311Y-102915714D01*
X128363258Y-102915714D01*
X128308444Y-102888307D01*
X128284119Y-102863983D01*
X128256712Y-102809168D01*
X128256712Y-102685116D01*
X128284119Y-102630301D01*
X128308442Y-102605978D01*
X128363258Y-102578571D01*
X128487309Y-102578571D01*
X128542123Y-102605978D01*
G37*
G36*
X128802744Y-104572221D02*
G01*
X127704966Y-104572221D01*
X127704966Y-104118570D01*
X127793855Y-104118570D01*
X127793855Y-104423332D01*
X127798422Y-104446293D01*
X127830894Y-104478765D01*
X127853855Y-104483332D01*
X128653855Y-104483332D01*
X128676816Y-104478765D01*
X128709288Y-104446293D01*
X128709288Y-104400371D01*
X128676816Y-104367899D01*
X128653855Y-104363332D01*
X128332902Y-104363332D01*
X128332902Y-104118570D01*
X128332315Y-104115622D01*
X128332751Y-104114317D01*
X128330211Y-104105041D01*
X128328335Y-104095609D01*
X128327361Y-104094635D01*
X128326568Y-104091737D01*
X128288473Y-104015547D01*
X128282577Y-104007951D01*
X128277233Y-103999953D01*
X128239138Y-103961859D01*
X128231146Y-103956519D01*
X128223545Y-103950619D01*
X128147354Y-103912524D01*
X128144456Y-103911730D01*
X128143482Y-103910756D01*
X128134045Y-103908879D01*
X128124775Y-103906340D01*
X128123468Y-103906775D01*
X128120521Y-103906189D01*
X128006236Y-103906189D01*
X128003288Y-103906775D01*
X128001982Y-103906340D01*
X127992711Y-103908879D01*
X127983275Y-103910756D01*
X127982300Y-103911730D01*
X127979403Y-103912524D01*
X127903212Y-103950620D01*
X127895618Y-103956512D01*
X127887618Y-103961859D01*
X127849524Y-103999954D01*
X127844184Y-104007945D01*
X127838284Y-104015547D01*
X127800189Y-104091737D01*
X127799395Y-104094635D01*
X127798422Y-104095609D01*
X127796545Y-104105041D01*
X127794006Y-104114317D01*
X127794441Y-104115622D01*
X127793855Y-104118570D01*
X127704966Y-104118570D01*
X127704966Y-103466698D01*
X127794006Y-103466698D01*
X127795423Y-103470951D01*
X127794006Y-103475204D01*
X127802512Y-103492217D01*
X127808528Y-103510263D01*
X127812538Y-103512268D01*
X127814543Y-103516278D01*
X127834881Y-103527872D01*
X128634881Y-103794539D01*
X128658108Y-103797467D01*
X128699182Y-103776930D01*
X128713704Y-103733365D01*
X128693167Y-103692291D01*
X128672829Y-103680697D01*
X128485283Y-103618181D01*
X128485283Y-103323721D01*
X128672829Y-103261206D01*
X128693167Y-103249612D01*
X128713704Y-103208538D01*
X128699183Y-103164973D01*
X128658108Y-103144436D01*
X128634882Y-103147364D01*
X127834881Y-103414030D01*
X127814543Y-103425624D01*
X127812538Y-103429634D01*
X127808528Y-103431639D01*
X127802512Y-103449684D01*
X127794006Y-103466698D01*
X127704966Y-103466698D01*
X127704966Y-102670952D01*
X127793855Y-102670952D01*
X127793855Y-102823333D01*
X127794441Y-102826280D01*
X127794006Y-102827586D01*
X127796545Y-102836861D01*
X127798422Y-102846294D01*
X127799395Y-102847267D01*
X127800189Y-102850166D01*
X127838284Y-102926356D01*
X127844184Y-102933957D01*
X127849524Y-102941949D01*
X127887618Y-102980044D01*
X127895618Y-102985390D01*
X127903212Y-102991283D01*
X127979403Y-103029379D01*
X127982300Y-103030172D01*
X127983275Y-103031147D01*
X127992711Y-103033023D01*
X128001982Y-103035563D01*
X128003288Y-103035127D01*
X128006236Y-103035714D01*
X128044331Y-103035714D01*
X128047278Y-103035127D01*
X128048585Y-103035563D01*
X128057855Y-103033023D01*
X128067292Y-103031147D01*
X128068266Y-103030172D01*
X128071164Y-103029379D01*
X128147354Y-102991284D01*
X128154952Y-102985386D01*
X128162947Y-102980045D01*
X128196712Y-102946280D01*
X128230475Y-102980044D01*
X128238475Y-102985390D01*
X128246069Y-102991283D01*
X128322260Y-103029379D01*
X128325157Y-103030172D01*
X128326132Y-103031147D01*
X128335568Y-103033023D01*
X128344839Y-103035563D01*
X128346145Y-103035127D01*
X128349093Y-103035714D01*
X128501474Y-103035714D01*
X128504421Y-103035127D01*
X128505728Y-103035563D01*
X128514998Y-103033023D01*
X128524435Y-103031147D01*
X128525409Y-103030172D01*
X128528307Y-103029379D01*
X128604497Y-102991284D01*
X128612095Y-102985386D01*
X128620090Y-102980045D01*
X128658186Y-102941950D01*
X128663530Y-102933951D01*
X128669426Y-102926356D01*
X128707521Y-102850166D01*
X128708314Y-102847267D01*
X128709288Y-102846294D01*
X128711164Y-102836861D01*
X128713704Y-102827586D01*
X128713268Y-102826280D01*
X128713855Y-102823333D01*
X128713855Y-102670952D01*
X128713268Y-102668004D01*
X128713704Y-102666699D01*
X128711164Y-102657425D01*
X128709288Y-102647991D01*
X128708314Y-102647017D01*
X128707521Y-102644120D01*
X128669426Y-102567928D01*
X128663528Y-102560328D01*
X128658186Y-102552334D01*
X128620090Y-102514239D01*
X128612095Y-102508897D01*
X128604497Y-102503000D01*
X128528307Y-102464905D01*
X128525408Y-102464111D01*
X128524435Y-102463138D01*
X128515002Y-102461261D01*
X128505727Y-102458722D01*
X128504421Y-102459157D01*
X128501474Y-102458571D01*
X128349093Y-102458571D01*
X128346145Y-102459157D01*
X128344840Y-102458722D01*
X128335566Y-102461261D01*
X128326132Y-102463138D01*
X128325158Y-102464111D01*
X128322261Y-102464905D01*
X128246069Y-102503000D01*
X128238469Y-102508897D01*
X128230475Y-102514240D01*
X128196712Y-102548003D01*
X128162947Y-102514239D01*
X128154952Y-102508897D01*
X128147354Y-102503000D01*
X128071164Y-102464905D01*
X128068265Y-102464111D01*
X128067292Y-102463138D01*
X128057859Y-102461261D01*
X128048584Y-102458722D01*
X128047278Y-102459157D01*
X128044331Y-102458571D01*
X128006236Y-102458571D01*
X128003288Y-102459157D01*
X128001983Y-102458722D01*
X127992709Y-102461261D01*
X127983275Y-102463138D01*
X127982301Y-102464111D01*
X127979404Y-102464905D01*
X127903212Y-102503000D01*
X127895612Y-102508897D01*
X127887618Y-102514240D01*
X127849524Y-102552335D01*
X127844186Y-102560322D01*
X127838284Y-102567928D01*
X127800189Y-102644119D01*
X127799395Y-102647017D01*
X127798422Y-102647991D01*
X127796545Y-102657423D01*
X127794006Y-102666699D01*
X127794441Y-102668004D01*
X127793855Y-102670952D01*
X127704966Y-102670952D01*
X127704966Y-102369682D01*
X128802744Y-102369682D01*
X128802744Y-104572221D01*
G37*
D12*
G36*
X135658201Y-94027556D02*
G01*
X134533257Y-94027556D01*
X134533257Y-93526692D01*
X134656092Y-93526692D01*
X134657130Y-93581952D01*
X134661892Y-93615413D01*
X134672761Y-93633182D01*
X134691568Y-93642096D01*
X135474794Y-93905818D01*
X135512957Y-93916381D01*
X135526203Y-93916445D01*
X135535122Y-93912290D01*
X135541162Y-93903934D01*
X135545013Y-93888354D01*
X135547090Y-93839567D01*
X135545685Y-93789009D01*
X135540251Y-93760615D01*
X135529016Y-93746632D01*
X135510270Y-93739794D01*
X134832801Y-93528707D01*
X134832801Y-93528035D01*
X135513689Y-93312857D01*
X135530725Y-93305652D01*
X135540922Y-93292341D01*
X135545685Y-93265047D01*
X135547090Y-93215832D01*
X135545380Y-93158435D01*
X135541940Y-93139789D01*
X135536526Y-93129431D01*
X135527961Y-93123572D01*
X135515033Y-93122592D01*
X135476137Y-93132484D01*
X134693644Y-93395533D01*
X134678928Y-93401334D01*
X134669036Y-93410188D01*
X134662198Y-93424537D01*
X134658168Y-93446763D01*
X134656458Y-93479858D01*
X134656092Y-93526692D01*
X134533257Y-93526692D01*
X134533257Y-92695106D01*
X134644368Y-92695106D01*
X134649659Y-92770785D01*
X134664762Y-92836828D01*
X134690142Y-92896894D01*
X134723625Y-92946127D01*
X134766336Y-92986290D01*
X134818269Y-93016468D01*
X134877070Y-93034963D01*
X134945886Y-93041442D01*
X135006764Y-93036230D01*
X135057199Y-93021598D01*
X135101473Y-92997134D01*
X135137494Y-92963895D01*
X135165463Y-92922428D01*
X135186526Y-92870289D01*
X135198799Y-92812361D01*
X135203196Y-92742916D01*
X135202463Y-92693396D01*
X135199105Y-92645891D01*
X135390774Y-92645891D01*
X135390774Y-92960109D01*
X135394875Y-92971607D01*
X135409031Y-92980931D01*
X135430188Y-92985977D01*
X135468016Y-92988136D01*
X135502821Y-92986427D01*
X135526207Y-92980931D01*
X135539091Y-92971711D01*
X135543182Y-92960109D01*
X135543182Y-92541416D01*
X135539885Y-92520524D01*
X135531214Y-92507588D01*
X135516859Y-92500062D01*
X135492013Y-92497025D01*
X135108551Y-92497025D01*
X135084386Y-92499590D01*
X135071976Y-92505573D01*
X135064841Y-92516149D01*
X135062084Y-92533906D01*
X135066175Y-92595027D01*
X135070327Y-92667140D01*
X135067918Y-92715039D01*
X135061474Y-92751770D01*
X135050035Y-92784270D01*
X135034973Y-92808496D01*
X135015302Y-92827497D01*
X134991803Y-92840614D01*
X134965180Y-92848195D01*
X134933735Y-92850872D01*
X134897349Y-92847593D01*
X134868461Y-92838538D01*
X134843487Y-92823629D01*
X134823276Y-92803733D01*
X134807965Y-92779224D01*
X134797081Y-92748717D01*
X134791079Y-92715275D01*
X134788960Y-92676666D01*
X134791092Y-92632535D01*
X134796837Y-92598080D01*
X134814361Y-92542393D01*
X134831824Y-92505512D01*
X134839762Y-92484691D01*
X134836343Y-92475104D01*
X134824680Y-92467960D01*
X134803187Y-92463503D01*
X134770764Y-92462159D01*
X134739989Y-92462831D01*
X134718435Y-92465212D01*
X134703719Y-92469670D01*
X134692484Y-92478218D01*
X134679234Y-92502765D01*
X134663053Y-92550942D01*
X134649680Y-92617192D01*
X134644368Y-92695106D01*
X134533257Y-92695106D01*
X134533257Y-92048412D01*
X134722526Y-92048412D01*
X134724602Y-92082545D01*
X134730403Y-92104405D01*
X134739317Y-92116006D01*
X134751407Y-92119426D01*
X134984354Y-92119426D01*
X134984354Y-92331917D01*
X134987773Y-92343518D01*
X134999192Y-92353105D01*
X135020258Y-92359211D01*
X135052742Y-92361287D01*
X135084860Y-92359211D01*
X135106292Y-92353410D01*
X135117650Y-92344556D01*
X135121130Y-92333932D01*
X135121130Y-92119426D01*
X135352794Y-92119426D01*
X135365434Y-92116006D01*
X135375081Y-92104405D01*
X135380882Y-92082545D01*
X135382958Y-92048412D01*
X135380882Y-92014218D01*
X135375081Y-91992358D01*
X135365434Y-91980390D01*
X135352794Y-91976666D01*
X135121130Y-91976666D01*
X135121130Y-91762831D01*
X135117650Y-91751901D01*
X135106292Y-91743353D01*
X135084860Y-91737552D01*
X135052742Y-91735537D01*
X135020258Y-91737918D01*
X134999192Y-91744391D01*
X134987773Y-91753611D01*
X134984354Y-91764907D01*
X134984354Y-91976666D01*
X134751407Y-91976666D01*
X134739317Y-91980390D01*
X134730403Y-91992358D01*
X134724602Y-92014218D01*
X134722526Y-92048412D01*
X134533257Y-92048412D01*
X134533257Y-91624426D01*
X135658201Y-91624426D01*
X135658201Y-94027556D01*
G37*
G36*
X127447588Y-128768850D02*
G01*
X127478303Y-128780373D01*
X127503826Y-128799120D01*
X127523732Y-128824092D01*
X127538092Y-128853935D01*
X127547973Y-128890099D01*
X127553304Y-128928974D01*
X127555178Y-128973080D01*
X127552820Y-129020216D01*
X127546263Y-129059603D01*
X127534698Y-129095454D01*
X127518969Y-129124206D01*
X127497925Y-129147717D01*
X127471830Y-129164872D01*
X127441422Y-129175183D01*
X127404236Y-129178855D01*
X127364085Y-129174744D01*
X127333161Y-129163468D01*
X127307462Y-129144927D01*
X127287732Y-129120054D01*
X127273565Y-129090253D01*
X127263491Y-129054108D01*
X127257934Y-129015215D01*
X127255981Y-128971065D01*
X127258419Y-128923950D01*
X127265201Y-128884603D01*
X127277038Y-128848643D01*
X127292861Y-128819635D01*
X127313935Y-128795838D01*
X127340000Y-128778663D01*
X127370329Y-128768290D01*
X127406923Y-128764619D01*
X127447588Y-128768850D01*
G37*
G36*
X128370747Y-129426742D02*
G01*
X125355180Y-129426742D01*
X125355180Y-128473482D01*
X125466291Y-128473482D01*
X125466291Y-129243335D01*
X125470537Y-129270325D01*
X125481617Y-129286688D01*
X125498553Y-129296582D01*
X125519597Y-129300000D01*
X125963631Y-129300000D01*
X125974866Y-129296275D01*
X125983414Y-129284307D01*
X125988544Y-129262814D01*
X125990253Y-129229658D01*
X125988544Y-129196563D01*
X125983414Y-129175008D01*
X125974866Y-129163101D01*
X125963631Y-129159316D01*
X125645321Y-129159316D01*
X125645321Y-128909211D01*
X125912401Y-128909211D01*
X125923636Y-128905853D01*
X125932184Y-128894617D01*
X125937314Y-128873857D01*
X125939023Y-128841189D01*
X125937314Y-128808888D01*
X125932184Y-128787761D01*
X125923636Y-128776221D01*
X125912401Y-128772435D01*
X125645321Y-128772435D01*
X125645321Y-128666922D01*
X126138997Y-128666922D01*
X126138997Y-129276552D01*
X126143088Y-129288520D01*
X126157071Y-129297069D01*
X126183388Y-129302198D01*
X126225093Y-129303907D01*
X126266675Y-129302198D01*
X126292992Y-129297069D01*
X126307036Y-129288520D01*
X126311127Y-129276552D01*
X126311127Y-128896571D01*
X126346970Y-128845464D01*
X126379088Y-128812247D01*
X126408824Y-128793928D01*
X126437523Y-128788066D01*
X126460054Y-128790448D01*
X126478800Y-128795577D01*
X126494187Y-128800706D01*
X126506460Y-128803087D01*
X126517757Y-128799668D01*
X126524901Y-128787395D01*
X126528992Y-128762971D01*
X126530396Y-128722915D01*
X126529725Y-128684202D01*
X126528046Y-128666922D01*
X126636276Y-128666922D01*
X126636276Y-129276552D01*
X126640367Y-129288520D01*
X126654350Y-129297069D01*
X126680667Y-129302198D01*
X126722371Y-129303907D01*
X126763953Y-129302198D01*
X126790271Y-129297069D01*
X126804315Y-129288520D01*
X126808406Y-129276552D01*
X126808406Y-128977904D01*
X127079088Y-128977904D01*
X127084120Y-129056002D01*
X127098200Y-129121458D01*
X127122861Y-129180160D01*
X127156940Y-129227459D01*
X127201114Y-129265018D01*
X127256652Y-129293100D01*
X127319951Y-129309653D01*
X127398069Y-129315631D01*
X127478798Y-129308960D01*
X127544920Y-129290352D01*
X127603033Y-129259363D01*
X127649456Y-129218545D01*
X127685556Y-129168154D01*
X127711616Y-129107841D01*
X127726817Y-129041405D01*
X127732132Y-128965570D01*
X127727089Y-128886877D01*
X127713020Y-128821345D01*
X127688421Y-128762629D01*
X127654585Y-128715404D01*
X127610684Y-128677900D01*
X127588790Y-128666922D01*
X127868236Y-128666922D01*
X127868236Y-129276552D01*
X127872328Y-129288520D01*
X127886310Y-129297069D01*
X127912628Y-129302198D01*
X127954332Y-129303907D01*
X127995914Y-129302198D01*
X128022232Y-129297069D01*
X128036276Y-129288520D01*
X128040367Y-129276552D01*
X128040367Y-128896571D01*
X128076209Y-128845464D01*
X128108327Y-128812247D01*
X128138064Y-128793928D01*
X128166762Y-128788066D01*
X128189294Y-128790448D01*
X128208039Y-128795577D01*
X128223427Y-128800706D01*
X128235700Y-128803087D01*
X128246996Y-128799668D01*
X128254140Y-128787395D01*
X128258231Y-128762971D01*
X128259636Y-128722915D01*
X128258964Y-128684202D01*
X128256888Y-128662831D01*
X128253835Y-128651596D01*
X128248339Y-128644146D01*
X128236371Y-128637674D01*
X128217259Y-128632240D01*
X128196071Y-128628881D01*
X128176959Y-128627843D01*
X128138735Y-128632972D01*
X128100450Y-128651107D01*
X128060150Y-128686339D01*
X128015087Y-128742759D01*
X128015087Y-128666922D01*
X128011668Y-128654954D01*
X128000372Y-128646406D01*
X127978207Y-128641277D01*
X127941998Y-128639567D01*
X127906827Y-128641277D01*
X127883929Y-128646406D01*
X127871656Y-128654954D01*
X127868236Y-128666922D01*
X127588790Y-128666922D01*
X127555178Y-128650069D01*
X127491873Y-128633757D01*
X127413151Y-128627843D01*
X127332465Y-128634537D01*
X127266605Y-128653183D01*
X127208769Y-128684038D01*
X127162375Y-128724624D01*
X127126276Y-128774750D01*
X127099910Y-128835327D01*
X127084475Y-128902043D01*
X127079574Y-128971065D01*
X127079088Y-128977904D01*
X126808406Y-128977904D01*
X126808406Y-128896571D01*
X126844248Y-128845464D01*
X126876366Y-128812247D01*
X126906103Y-128793928D01*
X126934801Y-128788066D01*
X126957333Y-128790448D01*
X126976078Y-128795577D01*
X126991466Y-128800706D01*
X127003739Y-128803087D01*
X127015035Y-128799668D01*
X127022179Y-128787395D01*
X127026270Y-128762971D01*
X127027675Y-128722915D01*
X127027003Y-128684202D01*
X127024927Y-128662831D01*
X127021874Y-128651596D01*
X127016378Y-128644146D01*
X127004411Y-128637674D01*
X126985299Y-128632240D01*
X126964111Y-128628881D01*
X126944999Y-128627843D01*
X126906774Y-128632972D01*
X126868489Y-128651107D01*
X126828189Y-128686339D01*
X126783127Y-128742759D01*
X126783127Y-128666922D01*
X126779707Y-128654954D01*
X126768411Y-128646406D01*
X126746246Y-128641277D01*
X126710037Y-128639567D01*
X126674866Y-128641277D01*
X126651968Y-128646406D01*
X126639695Y-128654954D01*
X126636276Y-128666922D01*
X126528046Y-128666922D01*
X126527649Y-128662831D01*
X126524595Y-128651596D01*
X126519100Y-128644146D01*
X126507132Y-128637674D01*
X126488020Y-128632240D01*
X126466832Y-128628881D01*
X126447720Y-128627843D01*
X126409496Y-128632972D01*
X126371211Y-128651107D01*
X126330911Y-128686339D01*
X126285848Y-128742759D01*
X126285848Y-128666922D01*
X126282429Y-128654954D01*
X126271132Y-128646406D01*
X126248967Y-128641277D01*
X126212758Y-128639567D01*
X126177587Y-128641277D01*
X126154690Y-128646406D01*
X126142417Y-128654954D01*
X126138997Y-128666922D01*
X125645321Y-128666922D01*
X125645321Y-128557501D01*
X125960883Y-128557501D01*
X125971813Y-128553777D01*
X125979995Y-128541809D01*
X125985124Y-128520315D01*
X125986834Y-128487831D01*
X125985124Y-128454064D01*
X125979995Y-128432205D01*
X125971813Y-128420237D01*
X125960883Y-128416817D01*
X125519597Y-128416817D01*
X125498553Y-128420235D01*
X125481617Y-128430129D01*
X125470537Y-128446492D01*
X125466291Y-128473482D01*
X125355180Y-128473482D01*
X125355180Y-128305706D01*
X128370747Y-128305706D01*
X128370747Y-129426742D01*
G37*
D11*
G36*
X132002744Y-107991270D02*
G01*
X130904966Y-107991270D01*
X130904966Y-107499523D01*
X130993855Y-107499523D01*
X130993855Y-107690000D01*
X130994441Y-107692947D01*
X130994006Y-107694253D01*
X130996545Y-107703528D01*
X130998422Y-107712961D01*
X130999395Y-107713934D01*
X131000189Y-107716833D01*
X131038284Y-107793023D01*
X131044184Y-107800624D01*
X131049524Y-107808616D01*
X131087618Y-107846711D01*
X131095618Y-107852057D01*
X131103212Y-107857950D01*
X131179403Y-107896046D01*
X131182300Y-107896839D01*
X131183275Y-107897814D01*
X131192711Y-107899690D01*
X131201982Y-107902230D01*
X131203288Y-107901794D01*
X131206236Y-107902381D01*
X131282426Y-107902381D01*
X131285373Y-107901794D01*
X131286680Y-107902230D01*
X131295950Y-107899690D01*
X131305387Y-107897814D01*
X131306361Y-107896839D01*
X131309259Y-107896046D01*
X131385450Y-107857951D01*
X131393051Y-107852050D01*
X131401043Y-107846711D01*
X131439138Y-107808617D01*
X131444482Y-107800618D01*
X131450378Y-107793023D01*
X131488473Y-107716833D01*
X131490208Y-107710494D01*
X131493016Y-107704552D01*
X131529514Y-107558557D01*
X131560308Y-107496969D01*
X131584633Y-107472645D01*
X131639448Y-107445238D01*
X131687309Y-107445238D01*
X131742123Y-107472645D01*
X131766448Y-107496969D01*
X131793855Y-107551783D01*
X131793855Y-107718358D01*
X131758839Y-107823407D01*
X131755911Y-107846634D01*
X131776448Y-107887709D01*
X131820013Y-107902230D01*
X131861088Y-107881693D01*
X131872681Y-107861355D01*
X131910776Y-107747068D01*
X131911978Y-107737529D01*
X131913855Y-107728095D01*
X131913855Y-107537619D01*
X131913268Y-107534671D01*
X131913704Y-107533366D01*
X131911164Y-107524092D01*
X131909288Y-107514658D01*
X131908314Y-107513684D01*
X131907521Y-107510787D01*
X131869426Y-107434595D01*
X131863528Y-107426995D01*
X131858186Y-107419001D01*
X131820090Y-107380906D01*
X131812095Y-107375564D01*
X131804497Y-107369667D01*
X131728307Y-107331572D01*
X131725408Y-107330778D01*
X131724435Y-107329805D01*
X131715002Y-107327928D01*
X131705727Y-107325389D01*
X131704421Y-107325824D01*
X131701474Y-107325238D01*
X131625283Y-107325238D01*
X131622335Y-107325824D01*
X131621030Y-107325389D01*
X131611754Y-107327928D01*
X131602322Y-107329805D01*
X131601348Y-107330778D01*
X131598450Y-107331572D01*
X131522260Y-107369667D01*
X131514664Y-107375562D01*
X131506666Y-107380907D01*
X131468572Y-107419002D01*
X131463232Y-107426993D01*
X131457332Y-107434595D01*
X131419237Y-107510786D01*
X131417500Y-107517124D01*
X131414694Y-107523067D01*
X131378195Y-107669057D01*
X131347399Y-107730649D01*
X131323075Y-107754974D01*
X131268263Y-107782381D01*
X131220401Y-107782381D01*
X131165587Y-107754974D01*
X131141262Y-107730650D01*
X131113855Y-107675835D01*
X131113855Y-107509260D01*
X131148871Y-107404212D01*
X131151799Y-107380985D01*
X131131262Y-107339911D01*
X131087697Y-107325389D01*
X131046623Y-107345926D01*
X131035029Y-107366264D01*
X130996934Y-107480549D01*
X130995731Y-107490089D01*
X130993855Y-107499523D01*
X130904966Y-107499523D01*
X130904966Y-106737618D01*
X130993855Y-106737618D01*
X130993855Y-106813809D01*
X130995731Y-106823242D01*
X130996934Y-106832783D01*
X131035029Y-106947069D01*
X131036517Y-106949679D01*
X131036517Y-106951056D01*
X131041855Y-106959045D01*
X131046622Y-106967407D01*
X131047855Y-106968023D01*
X131049524Y-106970521D01*
X131125714Y-107046711D01*
X131133701Y-107052048D01*
X131141307Y-107057951D01*
X131217499Y-107096046D01*
X131223838Y-107097782D01*
X131229779Y-107100588D01*
X131382160Y-107138685D01*
X131389504Y-107139042D01*
X131396712Y-107140476D01*
X131510998Y-107140476D01*
X131518209Y-107139041D01*
X131525550Y-107138684D01*
X131677931Y-107100588D01*
X131683870Y-107097782D01*
X131690212Y-107096046D01*
X131766402Y-107057951D01*
X131773998Y-107052055D01*
X131781995Y-107046712D01*
X131858186Y-106970521D01*
X131859854Y-106968023D01*
X131861088Y-106967407D01*
X131865854Y-106959045D01*
X131871193Y-106951056D01*
X131871193Y-106949679D01*
X131872681Y-106947069D01*
X131910776Y-106832782D01*
X131911978Y-106823243D01*
X131913855Y-106813809D01*
X131913855Y-106737618D01*
X131911978Y-106728184D01*
X131910776Y-106718644D01*
X131872681Y-106604359D01*
X131871193Y-106601748D01*
X131871193Y-106600372D01*
X131865850Y-106592376D01*
X131861087Y-106584021D01*
X131859855Y-106583405D01*
X131858186Y-106580907D01*
X131820090Y-106542811D01*
X131800625Y-106529804D01*
X131754703Y-106529804D01*
X131722231Y-106562276D01*
X131722231Y-106608198D01*
X131735238Y-106627663D01*
X131763317Y-106655742D01*
X131793855Y-106747355D01*
X131793855Y-106804072D01*
X131763318Y-106895683D01*
X131704028Y-106954972D01*
X131642436Y-106985768D01*
X131503614Y-107020476D01*
X131404096Y-107020476D01*
X131265276Y-106985770D01*
X131203678Y-106954971D01*
X131144392Y-106895685D01*
X131113855Y-106804072D01*
X131113855Y-106747355D01*
X131144392Y-106655743D01*
X131172472Y-106627663D01*
X131185478Y-106608198D01*
X131185478Y-106562275D01*
X131153005Y-106529804D01*
X131107083Y-106529804D01*
X131087618Y-106542811D01*
X131049523Y-106580907D01*
X131047853Y-106583405D01*
X131046623Y-106584021D01*
X131041860Y-106592376D01*
X131036517Y-106600373D01*
X131036517Y-106601748D01*
X131035029Y-106604359D01*
X130996934Y-106718644D01*
X130995731Y-106728184D01*
X130993855Y-106737618D01*
X130904966Y-106737618D01*
X130904966Y-106219419D01*
X130998422Y-106219419D01*
X130998422Y-106265341D01*
X131030894Y-106297813D01*
X131053855Y-106302380D01*
X131853855Y-106302380D01*
X131876816Y-106297813D01*
X131909288Y-106265341D01*
X131913855Y-106242380D01*
X131913855Y-105861428D01*
X131909288Y-105838467D01*
X131876816Y-105805995D01*
X131830894Y-105805995D01*
X131798422Y-105838467D01*
X131793855Y-105861428D01*
X131793855Y-106182380D01*
X131053855Y-106182380D01*
X131030894Y-106186947D01*
X130998422Y-106219419D01*
X130904966Y-106219419D01*
X130904966Y-105717106D01*
X132002744Y-105717106D01*
X132002744Y-107991270D01*
G37*
%TO.C,C42*%
X119960581Y-121660000D02*
X119679419Y-121660000D01*
X119960581Y-122680000D02*
X119679419Y-122680000D01*
%TO.C,C70*%
X132030834Y-123854999D02*
X131799164Y-123854999D01*
X132030834Y-124574999D02*
X131799164Y-124574999D01*
%TO.C,C41*%
X132189420Y-122230000D02*
X132470580Y-122230000D01*
X132189420Y-123250000D02*
X132470580Y-123250000D01*
%TO.C,D12*%
X119375000Y-91745000D02*
X119375000Y-94030000D01*
X120845000Y-91745000D02*
X119375000Y-91745000D01*
X120845000Y-94030000D02*
X120845000Y-91745000D01*
%TO.C,D18*%
X126029999Y-128175000D02*
X128314999Y-128175000D01*
X128314999Y-126705000D02*
X126029999Y-126705000D01*
X128314999Y-128175000D02*
X128314999Y-126705000D01*
%TO.C,C71*%
X134502499Y-118825581D02*
X134502499Y-118544419D01*
X135522499Y-118825581D02*
X135522499Y-118544419D01*
D13*
%TO.C,J3*%
X118490000Y-130732500D02*
X135330000Y-130732500D01*
X118490000Y-142732500D02*
X118490000Y-130732500D01*
X135330000Y-130732500D02*
X135330000Y-142732500D01*
X135330000Y-142732500D02*
X118490000Y-142732500D01*
D14*
X132090000Y-129732500D02*
G75*
G02*
X131890000Y-129732500I-100000J0D01*
G01*
X131890000Y-129732500D02*
G75*
G02*
X132090000Y-129732500I100000J0D01*
G01*
D11*
%TO.C,J1*%
X122360000Y-86735000D02*
X122360000Y-88195000D01*
X122360000Y-86735000D02*
X131300000Y-86735000D01*
X122360000Y-92245000D02*
X122360000Y-90445000D01*
X131300000Y-86735000D02*
X131300000Y-88195000D01*
X131300000Y-92245000D02*
X131300000Y-90445000D01*
%TO.C,R25*%
X119587500Y-96432259D02*
X119587500Y-95957743D01*
X120632500Y-96432259D02*
X120632500Y-95957743D01*
%TO.C,R31*%
X126047501Y-109922743D02*
X126047501Y-110397259D01*
X127092501Y-109922743D02*
X127092501Y-110397259D01*
%TO.C,C28*%
X133489419Y-115040000D02*
X133770581Y-115040000D01*
X133489419Y-116060000D02*
X133770581Y-116060000D01*
%TO.C,R38*%
X124587500Y-109922742D02*
X124587500Y-110397258D01*
X125632500Y-109922742D02*
X125632500Y-110397258D01*
%TO.C,U6*%
X124779999Y-97940000D02*
X124780000Y-97140000D01*
X124779999Y-97940000D02*
X124780000Y-98740000D01*
X127900001Y-97940000D02*
X127900000Y-97140000D01*
X127900001Y-97940000D02*
X127900000Y-98740000D01*
X128180000Y-96880000D02*
X127850000Y-96640000D01*
X128180000Y-96400000D01*
X128180000Y-96880000D01*
G36*
X128180000Y-96880000D02*
G01*
X127850000Y-96640000D01*
X128180000Y-96400000D01*
X128180000Y-96880000D01*
G37*
%TO.C,R41*%
X128180000Y-109783641D02*
X128180000Y-109476359D01*
X128940000Y-109783641D02*
X128940000Y-109476359D01*
%TO.C,Y2*%
X130314999Y-124834999D02*
X130314999Y-128834999D01*
X133614999Y-124834999D02*
X130314999Y-124834999D01*
%TO.C,J14*%
X120393750Y-123882164D02*
X120393750Y-124097836D01*
X120393750Y-124842164D02*
X120393750Y-125057836D01*
X121113750Y-123882164D02*
X121113750Y-124097836D01*
X121113750Y-124842164D02*
X121113750Y-125057836D01*
%TO.C,R7*%
X122657500Y-97287776D02*
X122657500Y-97797224D01*
X123702500Y-97287776D02*
X123702500Y-97797224D01*
%TO.C,R28*%
X133035000Y-118447742D02*
X133035000Y-118922258D01*
X134080000Y-118447742D02*
X134080000Y-118922258D01*
%TO.C,C45*%
X119960581Y-120200000D02*
X119679419Y-120200000D01*
X119960581Y-121220000D02*
X119679419Y-121220000D01*
%TO.C,R39*%
X123767500Y-107147258D02*
X123767500Y-106672742D01*
X124812500Y-107147258D02*
X124812500Y-106672742D01*
%TO.C,D22*%
X127555000Y-104835000D02*
X127555000Y-107120000D01*
X129025000Y-104835000D02*
X127555000Y-104835000D01*
X129025000Y-107120000D02*
X129025000Y-104835000D01*
%TO.C,D20*%
X132845000Y-91675000D02*
X132845000Y-93960000D01*
X134315000Y-91675000D02*
X132845000Y-91675000D01*
X134315000Y-93960000D02*
X134315000Y-91675000D01*
%TO.C,D21*%
X129015000Y-104835000D02*
X129015000Y-107120000D01*
X130485000Y-104835000D02*
X129015000Y-104835000D01*
X130485000Y-107120000D02*
X130485000Y-104835000D01*
%TO.C,U2*%
X123239999Y-114350000D02*
X123689999Y-114350000D01*
X123239999Y-114800000D02*
X123239999Y-114350000D01*
X123239999Y-121120000D02*
X123239999Y-121570000D01*
X123239999Y-121570000D02*
X123689999Y-121570000D01*
X130459999Y-114350000D02*
X130009999Y-114350000D01*
X130459999Y-114800000D02*
X130459999Y-114350000D01*
X130459999Y-121120000D02*
X130459999Y-121570000D01*
X130459999Y-121570000D02*
X130009999Y-121570000D01*
X123689999Y-122160000D02*
X123219999Y-122500000D01*
X123219999Y-121820000D01*
X123689999Y-122160000D01*
G36*
X123689999Y-122160000D02*
G01*
X123219999Y-122500000D01*
X123219999Y-121820000D01*
X123689999Y-122160000D01*
G37*
%TO.C,R40*%
X129120000Y-109783641D02*
X129120000Y-109476359D01*
X129880000Y-109783641D02*
X129880000Y-109476359D01*
%TO.C,R50*%
X133057500Y-96367258D02*
X133057500Y-95892742D01*
X134102500Y-96367258D02*
X134102500Y-95892742D01*
%TO.C,SW1*%
X129470000Y-98010000D02*
X133610000Y-98010000D01*
X129470000Y-98309999D02*
X129470000Y-98010000D01*
X129470000Y-101150000D02*
X129470000Y-100850001D01*
X133610000Y-98010000D02*
X133610000Y-98309999D01*
X133610000Y-100850001D02*
X133610000Y-101150000D01*
X133610000Y-101150000D02*
X129470000Y-101150000D01*
%TO.C,R49*%
X123597500Y-124992742D02*
X123597500Y-125467258D01*
X124642500Y-124992742D02*
X124642500Y-125467258D01*
%TO.C,C49*%
X133824999Y-126919164D02*
X133824999Y-127150834D01*
X134544999Y-126919164D02*
X134544999Y-127150834D01*
%TO.C,R4*%
X130355276Y-96347500D02*
X130864724Y-96347500D01*
X130355276Y-97392500D02*
X130864724Y-97392500D01*
%TO.C,R29*%
X121478750Y-124712259D02*
X121478750Y-124237743D01*
X122523750Y-124712259D02*
X122523750Y-124237743D01*
%TO.C,C21*%
X122950000Y-110280581D02*
X122950000Y-109999419D01*
X123970000Y-110280581D02*
X123970000Y-109999419D01*
%TO.C,R27*%
X134025242Y-120567500D02*
X134499758Y-120567500D01*
X134025242Y-121612500D02*
X134499758Y-121612500D01*
%TO.C,R48*%
X125517499Y-124982742D02*
X125517499Y-125457258D01*
X126562499Y-124982742D02*
X126562499Y-125457258D01*
%TO.C,D19*%
X121855000Y-126705000D02*
X121855000Y-128175000D01*
X121855000Y-128175000D02*
X124140000Y-128175000D01*
X124140000Y-126705000D02*
X121855000Y-126705000D01*
%TD*%
M02*
