%TF.GenerationSoftware,KiCad,Pcbnew,9.0.0*%
%TF.CreationDate,2025-05-07T16:38:21+03:00*%
%TF.ProjectId,Testing_USB-CAN,54657374-696e-4675-9f55-53422d43414e,rev?*%
%TF.SameCoordinates,Original*%
%TF.FileFunction,Copper,L1,Top*%
%TF.FilePolarity,Positive*%
%FSLAX46Y46*%
G04 Gerber Fmt 4.6, Leading zero omitted, Abs format (unit mm)*
G04 Created by KiCad (PCBNEW 9.0.0) date 2025-05-07 16:38:21*
%MOMM*%
%LPD*%
G01*
G04 APERTURE LIST*
G04 Aperture macros list*
%AMRoundRect*
0 Rectangle with rounded corners*
0 $1 Rounding radius*
0 $2 $3 $4 $5 $6 $7 $8 $9 X,Y pos of 4 corners*
0 Add a 4 corners polygon primitive as box body*
4,1,4,$2,$3,$4,$5,$6,$7,$8,$9,$2,$3,0*
0 Add four circle primitives for the rounded corners*
1,1,$1+$1,$2,$3*
1,1,$1+$1,$4,$5*
1,1,$1+$1,$6,$7*
1,1,$1+$1,$8,$9*
0 Add four rect primitives between the rounded corners*
20,1,$1+$1,$2,$3,$4,$5,0*
20,1,$1+$1,$4,$5,$6,$7,0*
20,1,$1+$1,$6,$7,$8,$9,0*
20,1,$1+$1,$8,$9,$2,$3,0*%
G04 Aperture macros list end*
%TA.AperFunction,SMDPad,CuDef*%
%ADD10RoundRect,0.225000X0.225000X0.250000X-0.225000X0.250000X-0.225000X-0.250000X0.225000X-0.250000X0*%
%TD*%
%TA.AperFunction,SMDPad,CuDef*%
%ADD11RoundRect,0.155000X0.212500X0.155000X-0.212500X0.155000X-0.212500X-0.155000X0.212500X-0.155000X0*%
%TD*%
%TA.AperFunction,SMDPad,CuDef*%
%ADD12RoundRect,0.225000X-0.225000X-0.250000X0.225000X-0.250000X0.225000X0.250000X-0.225000X0.250000X0*%
%TD*%
%TA.AperFunction,SMDPad,CuDef*%
%ADD13RoundRect,0.218750X-0.256250X0.218750X-0.256250X-0.218750X0.256250X-0.218750X0.256250X0.218750X0*%
%TD*%
%TA.AperFunction,SMDPad,CuDef*%
%ADD14RoundRect,0.218750X0.218750X0.256250X-0.218750X0.256250X-0.218750X-0.256250X0.218750X-0.256250X0*%
%TD*%
%TA.AperFunction,SMDPad,CuDef*%
%ADD15RoundRect,0.225000X0.250000X-0.225000X0.250000X0.225000X-0.250000X0.225000X-0.250000X-0.225000X0*%
%TD*%
%TA.AperFunction,ComponentPad*%
%ADD16R,2.550000X2.550000*%
%TD*%
%TA.AperFunction,ComponentPad*%
%ADD17C,2.550000*%
%TD*%
%TA.AperFunction,SMDPad,CuDef*%
%ADD18R,0.600000X1.160000*%
%TD*%
%TA.AperFunction,SMDPad,CuDef*%
%ADD19R,0.300000X1.160000*%
%TD*%
%TA.AperFunction,HeatsinkPad*%
%ADD20O,0.900000X2.000000*%
%TD*%
%TA.AperFunction,HeatsinkPad*%
%ADD21O,0.900000X1.700000*%
%TD*%
%TA.AperFunction,SMDPad,CuDef*%
%ADD22RoundRect,0.200000X0.275000X-0.200000X0.275000X0.200000X-0.275000X0.200000X-0.275000X-0.200000X0*%
%TD*%
%TA.AperFunction,SMDPad,CuDef*%
%ADD23RoundRect,0.200000X-0.275000X0.200000X-0.275000X-0.200000X0.275000X-0.200000X0.275000X0.200000X0*%
%TD*%
%TA.AperFunction,SMDPad,CuDef*%
%ADD24RoundRect,0.150000X-0.150000X0.512500X-0.150000X-0.512500X0.150000X-0.512500X0.150000X0.512500X0*%
%TD*%
%TA.AperFunction,SMDPad,CuDef*%
%ADD25RoundRect,0.135000X0.185000X-0.135000X0.185000X0.135000X-0.185000X0.135000X-0.185000X-0.135000X0*%
%TD*%
%TA.AperFunction,SMDPad,CuDef*%
%ADD26R,1.200000X1.400000*%
%TD*%
%TA.AperFunction,SMDPad,CuDef*%
%ADD27RoundRect,0.140000X-0.170000X0.140000X-0.170000X-0.140000X0.170000X-0.140000X0.170000X0.140000X0*%
%TD*%
%TA.AperFunction,SMDPad,CuDef*%
%ADD28RoundRect,0.237500X-0.237500X0.250000X-0.237500X-0.250000X0.237500X-0.250000X0.237500X0.250000X0*%
%TD*%
%TA.AperFunction,SMDPad,CuDef*%
%ADD29RoundRect,0.075000X0.075000X-0.662500X0.075000X0.662500X-0.075000X0.662500X-0.075000X-0.662500X0*%
%TD*%
%TA.AperFunction,SMDPad,CuDef*%
%ADD30RoundRect,0.075000X0.662500X-0.075000X0.662500X0.075000X-0.662500X0.075000X-0.662500X-0.075000X0*%
%TD*%
%TA.AperFunction,SMDPad,CuDef*%
%ADD31RoundRect,0.200000X0.200000X0.800000X-0.200000X0.800000X-0.200000X-0.800000X0.200000X-0.800000X0*%
%TD*%
%TA.AperFunction,SMDPad,CuDef*%
%ADD32RoundRect,0.155000X-0.155000X0.212500X-0.155000X-0.212500X0.155000X-0.212500X0.155000X0.212500X0*%
%TD*%
%TA.AperFunction,SMDPad,CuDef*%
%ADD33RoundRect,0.237500X-0.250000X-0.237500X0.250000X-0.237500X0.250000X0.237500X-0.250000X0.237500X0*%
%TD*%
%TA.AperFunction,SMDPad,CuDef*%
%ADD34RoundRect,0.200000X-0.200000X-0.275000X0.200000X-0.275000X0.200000X0.275000X-0.200000X0.275000X0*%
%TD*%
%TA.AperFunction,SMDPad,CuDef*%
%ADD35RoundRect,0.218750X-0.218750X-0.256250X0.218750X-0.256250X0.218750X0.256250X-0.218750X0.256250X0*%
%TD*%
%TA.AperFunction,ComponentPad*%
%ADD36R,1.700000X1.700000*%
%TD*%
%TA.AperFunction,ComponentPad*%
%ADD37O,1.700000X1.700000*%
%TD*%
%TA.AperFunction,ViaPad*%
%ADD38C,0.500000*%
%TD*%
%TA.AperFunction,Conductor*%
%ADD39C,0.200000*%
%TD*%
%TA.AperFunction,Conductor*%
%ADD40C,0.150000*%
%TD*%
%TA.AperFunction,Conductor*%
%ADD41C,0.250000*%
%TD*%
%TA.AperFunction,Conductor*%
%ADD42C,0.100000*%
%TD*%
G04 APERTURE END LIST*
D10*
%TO.P,C42,1*%
%TO.N,+3.3V*%
X120595000Y-122170000D03*
%TO.P,C42,2*%
%TO.N,GND*%
X119045000Y-122170000D03*
%TD*%
D11*
%TO.P,C70,1*%
%TO.N,GND*%
X132482499Y-124214999D03*
%TO.P,C70,2*%
%TO.N,/OSC_P*%
X131347499Y-124214999D03*
%TD*%
D12*
%TO.P,C41,1*%
%TO.N,+3.3V*%
X131555000Y-122740000D03*
%TO.P,C41,2*%
%TO.N,GND*%
X133105000Y-122740000D03*
%TD*%
D13*
%TO.P,D12,1,K*%
%TO.N,GND*%
X120110000Y-92442499D03*
%TO.P,D12,2,A*%
%TO.N,Net-(D12-A)*%
X120110000Y-94017501D03*
%TD*%
D14*
%TO.P,D18,1,K*%
%TO.N,GND*%
X127617500Y-127440000D03*
%TO.P,D18,2,A*%
%TO.N,Net-(D18-A)*%
X126042498Y-127440000D03*
%TD*%
D15*
%TO.P,C71,1*%
%TO.N,Net-(C71-Pad1)*%
X135012499Y-119460000D03*
%TO.P,C71,2*%
%TO.N,GND*%
X135012499Y-117910000D03*
%TD*%
D16*
%TO.P,J3,1,Pin_1*%
%TO.N,/CAN_N*%
X131990000Y-132732500D03*
D17*
%TO.P,J3,2,Pin_2*%
%TO.N,GND*%
X126910001Y-132732500D03*
%TO.P,J3,3,Pin_3*%
%TO.N,/CAN_P*%
X121830000Y-132732500D03*
%TD*%
D18*
%TO.P,J1,A1,GND*%
%TO.N,GND*%
X130030000Y-94085000D03*
%TO.P,J1,A4,VBUS*%
%TO.N,VDD*%
X129230000Y-94085000D03*
D19*
%TO.P,J1,A5,CC1*%
%TO.N,Net-(J1-CC1)*%
X128079999Y-94085000D03*
%TO.P,J1,A6,D+*%
%TO.N,/D_P*%
X127080000Y-94085000D03*
%TO.P,J1,A7,D-*%
%TO.N,/D_N*%
X126580000Y-94085000D03*
%TO.P,J1,A8,SBU1*%
%TO.N,unconnected-(J1-SBU1-PadA8)*%
X125580001Y-94085000D03*
D18*
%TO.P,J1,A9,VBUS*%
%TO.N,VDD*%
X124430000Y-94085000D03*
%TO.P,J1,A12,GND*%
%TO.N,GND*%
X123630000Y-94085000D03*
%TO.P,J1,B1,GND*%
X123630000Y-94085000D03*
%TO.P,J1,B4,VBUS*%
%TO.N,VDD*%
X124430000Y-94085000D03*
D19*
%TO.P,J1,B5,CC2*%
%TO.N,Net-(J1-CC2)*%
X125080000Y-94085000D03*
%TO.P,J1,B6,D+*%
%TO.N,/D_P*%
X126080000Y-94085000D03*
%TO.P,J1,B7,D-*%
%TO.N,/D_N*%
X127580000Y-94085000D03*
%TO.P,J1,B8,SBU2*%
%TO.N,unconnected-(J1-SBU2-PadB8)*%
X128580000Y-94085000D03*
D18*
%TO.P,J1,B9,VBUS*%
%TO.N,VDD*%
X129230000Y-94085000D03*
%TO.P,J1,B12,GND*%
%TO.N,GND*%
X130030000Y-94085000D03*
D20*
%TO.P,J1,S1,SHIELD*%
X131150000Y-93505000D03*
D21*
X131150000Y-89335000D03*
D20*
X122510000Y-93505000D03*
D21*
X122510000Y-89335000D03*
%TD*%
D22*
%TO.P,R25,1*%
%TO.N,+3.3V*%
X120110000Y-97020001D03*
%TO.P,R25,2*%
%TO.N,Net-(D12-A)*%
X120110000Y-95370001D03*
%TD*%
D23*
%TO.P,R31,1*%
%TO.N,/D0_N*%
X126570001Y-109335001D03*
%TO.P,R31,2*%
%TO.N,Net-(U2-PA11)*%
X126570001Y-110985001D03*
%TD*%
D12*
%TO.P,C28,1*%
%TO.N,+3.3V*%
X132855000Y-115550000D03*
%TO.P,C28,2*%
%TO.N,GND*%
X134405000Y-115550000D03*
%TD*%
D23*
%TO.P,R38,1*%
%TO.N,/D0_P*%
X125110000Y-109335000D03*
%TO.P,R38,2*%
%TO.N,Net-(U2-PA12)*%
X125110000Y-110985000D03*
%TD*%
D24*
%TO.P,U6,1,I/O1*%
%TO.N,/D_N*%
X127289999Y-96802500D03*
%TO.P,U6,2,GND*%
%TO.N,GND*%
X126340000Y-96802500D03*
%TO.P,U6,3,I/O2*%
%TO.N,/D_P*%
X125390001Y-96802500D03*
%TO.P,U6,4,I/O2*%
%TO.N,/D0_P*%
X125390001Y-99077500D03*
%TO.P,U6,5,VBUS*%
%TO.N,VDD*%
X126340000Y-99077500D03*
%TO.P,U6,6,I/O1*%
%TO.N,/D0_N*%
X127289999Y-99077500D03*
%TD*%
D25*
%TO.P,R41,1*%
%TO.N,/B*%
X128560000Y-110139999D03*
%TO.P,R41,2*%
%TO.N,Net-(D22-A)*%
X128560000Y-109120001D03*
%TD*%
D26*
%TO.P,Y2,1,1*%
%TO.N,/OSC_P*%
X131114999Y-125734999D03*
%TO.P,Y2,2,2*%
%TO.N,GND*%
X131114999Y-127934999D03*
%TO.P,Y2,3,3*%
%TO.N,/OSC_N*%
X132814999Y-127934999D03*
%TO.P,Y2,4,4*%
%TO.N,GND*%
X132814999Y-125734999D03*
%TD*%
D27*
%TO.P,J14,1,Pin_1*%
%TO.N,+3.3V*%
X120753750Y-123510000D03*
%TO.P,J14,2,Pin_2*%
%TO.N,Net-(J14-Pin_2)*%
X120753751Y-124470000D03*
%TO.P,J14,3,Pin_3*%
%TO.N,GND*%
X120753750Y-125430000D03*
%TD*%
D28*
%TO.P,R7,1*%
%TO.N,Net-(J1-CC2)*%
X123180000Y-96630000D03*
%TO.P,R7,2*%
%TO.N,GND*%
X123180000Y-98455000D03*
%TD*%
D23*
%TO.P,R28,1*%
%TO.N,/NRST*%
X133557500Y-117860000D03*
%TO.P,R28,2*%
%TO.N,Net-(C71-Pad1)*%
X133557500Y-119510000D03*
%TD*%
D10*
%TO.P,C45,1*%
%TO.N,+3.3V*%
X120595000Y-120710000D03*
%TO.P,C45,2*%
%TO.N,GND*%
X119045000Y-120710000D03*
%TD*%
D22*
%TO.P,R39,1*%
%TO.N,+3.3V*%
X124290000Y-107735000D03*
%TO.P,R39,2*%
%TO.N,/D0_P*%
X124290000Y-106085000D03*
%TD*%
D13*
%TO.P,D22,1,K*%
%TO.N,GND*%
X128290000Y-105532499D03*
%TO.P,D22,2,A*%
%TO.N,Net-(D22-A)*%
X128290000Y-107107501D03*
%TD*%
%TO.P,D20,1,K*%
%TO.N,GND*%
X133580000Y-92372499D03*
%TO.P,D20,2,A*%
%TO.N,Net-(D20-A)*%
X133580000Y-93947501D03*
%TD*%
%TO.P,D21,1,K*%
%TO.N,GND*%
X129750000Y-105532499D03*
%TO.P,D21,2,A*%
%TO.N,Net-(D21-A)*%
X129750000Y-107107501D03*
%TD*%
D29*
%TO.P,U2,1,VBAT*%
%TO.N,unconnected-(U2-VBAT-Pad1)*%
X124099999Y-122122500D03*
%TO.P,U2,2,PC13*%
%TO.N,/Run*%
X124599999Y-122122500D03*
%TO.P,U2,3,PC14*%
%TO.N,/Error*%
X125099999Y-122122500D03*
%TO.P,U2,4,PC15*%
%TO.N,unconnected-(U2-PC15-Pad4)*%
X125600000Y-122122500D03*
%TO.P,U2,5,PF0*%
%TO.N,/OSC_N*%
X126099999Y-122122500D03*
%TO.P,U2,6,PF1*%
%TO.N,/OSC_P*%
X126599999Y-122122500D03*
%TO.P,U2,7,NRST*%
%TO.N,/NRST*%
X127099999Y-122122500D03*
%TO.P,U2,8,VSSA*%
%TO.N,GND*%
X127599999Y-122122500D03*
%TO.P,U2,9,VDDA*%
%TO.N,+3.3V*%
X128099998Y-122122500D03*
%TO.P,U2,10,PA0*%
%TO.N,unconnected-(U2-PA0-Pad10)*%
X128599999Y-122122500D03*
%TO.P,U2,11,PA1*%
%TO.N,unconnected-(U2-PA1-Pad11)*%
X129099999Y-122122500D03*
%TO.P,U2,12,PA2*%
%TO.N,unconnected-(U2-PA2-Pad12)*%
X129599999Y-122122500D03*
D30*
%TO.P,U2,13,PA3*%
%TO.N,unconnected-(U2-PA3-Pad13)*%
X131012499Y-120710000D03*
%TO.P,U2,14,PA4*%
%TO.N,unconnected-(U2-PA4-Pad14)*%
X131012499Y-120210000D03*
%TO.P,U2,15,PA5*%
%TO.N,unconnected-(U2-PA5-Pad15)*%
X131012499Y-119710000D03*
%TO.P,U2,16,PA6*%
%TO.N,unconnected-(U2-PA6-Pad16)*%
X131012499Y-119209999D03*
%TO.P,U2,17,PA7*%
%TO.N,unconnected-(U2-PA7-Pad17)*%
X131012499Y-118710000D03*
%TO.P,U2,18,PB0*%
%TO.N,unconnected-(U2-PB0-Pad18)*%
X131012499Y-118210000D03*
%TO.P,U2,19,PB1*%
%TO.N,unconnected-(U2-PB1-Pad19)*%
X131012499Y-117710000D03*
%TO.P,U2,20,PB2*%
%TO.N,unconnected-(U2-PB2-Pad20)*%
X131012499Y-117210000D03*
%TO.P,U2,21,PB10*%
%TO.N,unconnected-(U2-PB10-Pad21)*%
X131012499Y-116710001D03*
%TO.P,U2,22,PB11*%
%TO.N,unconnected-(U2-PB11-Pad22)*%
X131012499Y-116210000D03*
%TO.P,U2,23,VSS*%
%TO.N,GND*%
X131012499Y-115710000D03*
%TO.P,U2,24,VDD*%
%TO.N,+3.3V*%
X131012499Y-115210000D03*
D29*
%TO.P,U2,25,PB12*%
%TO.N,unconnected-(U2-PB12-Pad25)*%
X129599999Y-113797500D03*
%TO.P,U2,26,PB13*%
%TO.N,/SCL*%
X129099999Y-113797500D03*
%TO.P,U2,27,PB14*%
%TO.N,/SDA*%
X128599999Y-113797500D03*
%TO.P,U2,28,PB15*%
%TO.N,/G*%
X128099998Y-113797500D03*
%TO.P,U2,29,PA8*%
%TO.N,/B*%
X127599999Y-113797500D03*
%TO.P,U2,30,PA9*%
%TO.N,unconnected-(U2-PA9-Pad30)*%
X127099999Y-113797500D03*
%TO.P,U2,31,PA10*%
%TO.N,unconnected-(U2-PA10-Pad31)*%
X126599999Y-113797500D03*
%TO.P,U2,32,PA11*%
%TO.N,Net-(U2-PA11)*%
X126099999Y-113797500D03*
%TO.P,U2,33,PA12*%
%TO.N,Net-(U2-PA12)*%
X125600000Y-113797500D03*
%TO.P,U2,34,PA13*%
%TO.N,/SWDIO*%
X125099999Y-113797500D03*
%TO.P,U2,35,VSS*%
%TO.N,GND*%
X124599999Y-113797500D03*
%TO.P,U2,36,VDDIO2*%
%TO.N,+3.3V*%
X124099999Y-113797500D03*
D30*
%TO.P,U2,37,PA14*%
%TO.N,/SWCLK*%
X122687499Y-115210000D03*
%TO.P,U2,38,PA15*%
%TO.N,unconnected-(U2-PA15-Pad38)*%
X122687499Y-115710000D03*
%TO.P,U2,39,PB3*%
%TO.N,unconnected-(U2-PB3-Pad39)*%
X122687499Y-116210000D03*
%TO.P,U2,40,PB4*%
%TO.N,unconnected-(U2-PB4-Pad40)*%
X122687499Y-116710001D03*
%TO.P,U2,41,PB5*%
%TO.N,unconnected-(U2-PB5-Pad41)*%
X122687499Y-117210000D03*
%TO.P,U2,42,PB6*%
%TO.N,/UART_TX*%
X122687499Y-117710000D03*
%TO.P,U2,43,PB7*%
%TO.N,/UART_RX*%
X122687499Y-118210000D03*
%TO.P,U2,44,BOOT0*%
%TO.N,/BOOT0*%
X122687499Y-118710000D03*
%TO.P,U2,45,PB8*%
%TO.N,/Rx*%
X122687499Y-119209999D03*
%TO.P,U2,46,PB9*%
%TO.N,/Tx*%
X122687499Y-119710000D03*
%TO.P,U2,47,VSS*%
%TO.N,GND*%
X122687499Y-120210000D03*
%TO.P,U2,48,VDD*%
%TO.N,+3.3V*%
X122687499Y-120710000D03*
%TD*%
D25*
%TO.P,R40,1*%
%TO.N,/G*%
X129500000Y-110139999D03*
%TO.P,R40,2*%
%TO.N,Net-(D21-A)*%
X129500000Y-109120001D03*
%TD*%
D22*
%TO.P,R50,1*%
%TO.N,+5V*%
X133580000Y-96955000D03*
%TO.P,R50,2*%
%TO.N,Net-(D20-A)*%
X133580000Y-95305000D03*
%TD*%
D31*
%TO.P,SW1,1,1*%
%TO.N,/NRST*%
X133640000Y-99580000D03*
%TO.P,SW1,2,2*%
%TO.N,GND*%
X129440000Y-99580000D03*
%TD*%
D23*
%TO.P,R49,1*%
%TO.N,/Run*%
X124120000Y-124405000D03*
%TO.P,R49,2*%
%TO.N,Net-(D19-A)*%
X124120000Y-126055000D03*
%TD*%
D32*
%TO.P,C49,1*%
%TO.N,GND*%
X134184999Y-126467499D03*
%TO.P,C49,2*%
%TO.N,/OSC_N*%
X134184999Y-127602499D03*
%TD*%
D33*
%TO.P,R4,1*%
%TO.N,Net-(J1-CC1)*%
X129697500Y-96870000D03*
%TO.P,R4,2*%
%TO.N,GND*%
X131522500Y-96870000D03*
%TD*%
D22*
%TO.P,R29,1*%
%TO.N,Net-(J14-Pin_2)*%
X122001250Y-125300001D03*
%TO.P,R29,2*%
%TO.N,/BOOT0*%
X122001250Y-123650001D03*
%TD*%
D15*
%TO.P,C21,1*%
%TO.N,+3.3V*%
X123460000Y-110915000D03*
%TO.P,C21,2*%
%TO.N,GND*%
X123460000Y-109365000D03*
%TD*%
D34*
%TO.P,R27,1*%
%TO.N,+3.3V*%
X133437500Y-121090000D03*
%TO.P,R27,2*%
%TO.N,Net-(C71-Pad1)*%
X135087500Y-121090000D03*
%TD*%
D23*
%TO.P,R48,1*%
%TO.N,/Error*%
X126039999Y-124395000D03*
%TO.P,R48,2*%
%TO.N,Net-(D18-A)*%
X126039999Y-126045000D03*
%TD*%
D35*
%TO.P,D19,1,K*%
%TO.N,GND*%
X122552500Y-127440000D03*
%TO.P,D19,2,A*%
%TO.N,Net-(D19-A)*%
X124127500Y-127440000D03*
%TD*%
D36*
%TO.P,J4,1,Pin_1*%
%TO.N,+5V*%
X120060000Y-104340000D03*
D37*
%TO.P,J4,2,Pin_2*%
%TO.N,+3.3V*%
X120060000Y-106880000D03*
%TO.P,J4,3,Pin_3*%
%TO.N,/UART_TX*%
X120060000Y-109420000D03*
%TO.P,J4,4,Pin_4*%
%TO.N,/UART_RX*%
X120060000Y-111960000D03*
%TD*%
D36*
%TO.P,J7,1,Pin_1*%
%TO.N,GND*%
X136160000Y-89290000D03*
%TD*%
%TO.P,J6,1,Pin_1*%
%TO.N,GND*%
X117530000Y-89280000D03*
%TD*%
%TO.P,J5,1,Pin_1*%
%TO.N,/SDA*%
X133600000Y-104340000D03*
D37*
%TO.P,J5,2,Pin_2*%
%TO.N,/SCL*%
X133600000Y-106880000D03*
%TO.P,J5,3,Pin_3*%
%TO.N,/SWDIO*%
X133600000Y-109420000D03*
%TO.P,J5,4,Pin_4*%
%TO.N,/SWCLK*%
X133600000Y-111960000D03*
%TD*%
D38*
%TO.N,GND*%
X135380000Y-99560000D03*
X118470000Y-125523611D03*
X135270000Y-132928333D03*
X129540000Y-128490000D03*
X128840000Y-102090000D03*
X118470000Y-124043333D03*
X121230000Y-90740000D03*
X127880000Y-123570000D03*
X118470000Y-129964444D03*
X130350000Y-98520000D03*
X130550000Y-123600000D03*
X121290000Y-94680000D03*
X135270000Y-141810000D03*
X129450000Y-137369167D03*
X118470000Y-134405278D03*
X118470000Y-135885556D03*
X125670000Y-115970000D03*
X118470000Y-95119167D03*
X124270000Y-140330555D03*
X118470000Y-99560000D03*
X127852500Y-89480000D03*
X127030000Y-108050000D03*
X135270000Y-131448055D03*
X121230000Y-89713335D03*
X124270000Y-141810833D03*
X118470000Y-140326389D03*
X129460000Y-132900000D03*
X124270000Y-132900000D03*
X135260000Y-117060000D03*
X124270000Y-138850277D03*
X135270000Y-128487500D03*
X135380000Y-96599445D03*
X118470000Y-118800000D03*
X132430000Y-89713335D03*
X121220000Y-87860000D03*
X125157500Y-87740000D03*
X121230000Y-88686667D03*
X124270000Y-135889722D03*
X129440000Y-131460278D03*
X123810000Y-89480000D03*
X130350000Y-100390000D03*
X129450000Y-138849444D03*
X118470000Y-131444722D03*
X129480000Y-119130000D03*
X135270000Y-134408611D03*
X122410000Y-101810000D03*
X124270000Y-137370000D03*
X124380000Y-115950000D03*
X132420000Y-87860000D03*
X129440000Y-134450000D03*
X123860000Y-120200000D03*
X127000000Y-104970000D03*
X135270000Y-138849444D03*
X135270000Y-135888889D03*
X120670000Y-127009722D03*
X124250000Y-134450000D03*
X118470000Y-96599445D03*
X129450000Y-140329722D03*
X118470000Y-132925000D03*
X124250000Y-131460278D03*
X125980000Y-134450000D03*
X129200000Y-89480000D03*
X129450000Y-135888889D03*
X135270000Y-129967777D03*
X118470000Y-141806667D03*
X120670000Y-128490000D03*
X126505000Y-89480000D03*
X129450000Y-141810000D03*
X118470000Y-138846111D03*
X129540000Y-127009722D03*
X135380000Y-95119167D03*
X132430000Y-88686667D03*
X127710000Y-134450000D03*
X131150000Y-103320000D03*
X126505000Y-87740000D03*
X122390000Y-100710000D03*
X132110000Y-93440000D03*
X135270000Y-140329722D03*
X135270000Y-127007222D03*
X128850000Y-103330000D03*
X125157500Y-89480000D03*
X128860000Y-119570000D03*
X135270000Y-137369167D03*
X134570000Y-114100000D03*
X129480000Y-120090000D03*
X132430000Y-90740000D03*
X118470000Y-128484167D03*
X118470000Y-98079722D03*
X127000000Y-106240000D03*
X131150000Y-102090000D03*
X123810000Y-87740000D03*
X135270000Y-125526944D03*
X121290000Y-96200000D03*
X135270000Y-124046666D03*
X132110000Y-95100000D03*
X127852500Y-87740000D03*
X118470000Y-127003889D03*
X135380000Y-98079722D03*
X129200000Y-87740000D03*
X121270000Y-93290000D03*
X118470000Y-137365834D03*
%TO.N,+3.3V*%
X132370000Y-121953000D03*
X132850000Y-114060000D03*
%TO.N,VDD*%
X126510000Y-91610000D03*
X124713333Y-91610000D03*
X129205000Y-91610000D03*
X125611667Y-91610000D03*
X127408333Y-91610000D03*
X128306667Y-91610000D03*
X123815000Y-91610000D03*
%TO.N,+5V*%
X128590000Y-101020000D03*
%TO.N,/Tx*%
X119860000Y-116110000D03*
%TO.N,/Rx*%
X120460000Y-116600000D03*
%TD*%
D39*
%TO.N,GND*%
X123470000Y-109335000D02*
X123460000Y-109345000D01*
D40*
%TO.N,+3.3V*%
X118300000Y-101010000D02*
X120100000Y-99210000D01*
D41*
X120760000Y-120875000D02*
X120595000Y-120710000D01*
D39*
X120800000Y-120710000D02*
X120432500Y-121077500D01*
X130540000Y-122740000D02*
X131395000Y-122740000D01*
D41*
X121530000Y-106880000D02*
X122140000Y-107490000D01*
D39*
X131395000Y-122740000D02*
X131545000Y-122890000D01*
D41*
X122140000Y-107490000D02*
X122140000Y-110510000D01*
D39*
X123460000Y-112110000D02*
X123460000Y-110915000D01*
X128640000Y-123550000D02*
X129730000Y-123550000D01*
D40*
X133437500Y-121090000D02*
X133437500Y-121742500D01*
X133227000Y-121953000D02*
X132370000Y-121953000D01*
D39*
X131032499Y-115190000D02*
X132150000Y-115190000D01*
D41*
X120760000Y-121513750D02*
X120760000Y-120875000D01*
D39*
X120753750Y-121036250D02*
X121080000Y-120710000D01*
D41*
X120060000Y-106880000D02*
X121530000Y-106880000D01*
X120753750Y-121853750D02*
X120760000Y-121847500D01*
D40*
X118300000Y-105120000D02*
X118300000Y-101010000D01*
D39*
X120753750Y-123510000D02*
X120753750Y-122960000D01*
D40*
X122155000Y-107735000D02*
X122140000Y-107750000D01*
D39*
X128099998Y-123009998D02*
X128640000Y-123550000D01*
X129730000Y-123550000D02*
X130540000Y-122740000D01*
X128099998Y-122122500D02*
X128099998Y-123009998D01*
D41*
X120760000Y-119870000D02*
X118884000Y-117994000D01*
D40*
X120100000Y-99210000D02*
X120100000Y-96650001D01*
D39*
X132475000Y-115190000D02*
X132855000Y-115570000D01*
X132150000Y-115190000D02*
X132475000Y-115190000D01*
X132150000Y-115190000D02*
X133050000Y-115190000D01*
D40*
X120060000Y-106880000D02*
X118300000Y-105120000D01*
D41*
X118884000Y-117994000D02*
X118884000Y-108056000D01*
D39*
X131555000Y-122768000D02*
X131555000Y-122810000D01*
D41*
X118884000Y-108056000D02*
X120060000Y-106880000D01*
D39*
X120753750Y-122328750D02*
X120595000Y-122170000D01*
D40*
X124290000Y-107735000D02*
X122155000Y-107735000D01*
X124320000Y-107745000D02*
X124290000Y-107775000D01*
D39*
X120753750Y-122960000D02*
X120753750Y-122328750D01*
D40*
X133437500Y-121742500D02*
X133227000Y-121953000D01*
D39*
X124099999Y-113797500D02*
X124099999Y-112749999D01*
D41*
X121710000Y-120710000D02*
X120595000Y-120710000D01*
D40*
X133437500Y-121090000D02*
X133370000Y-121090000D01*
D39*
X124099999Y-112749999D02*
X123460000Y-112110000D01*
D41*
X120760000Y-121847500D02*
X120760000Y-119870000D01*
D39*
X122687499Y-120710000D02*
X121710000Y-120710000D01*
D41*
X122545000Y-110915000D02*
X123460000Y-110915000D01*
D39*
X131012499Y-115210000D02*
X131032499Y-115190000D01*
X121080000Y-120710000D02*
X120800000Y-120710000D01*
X132370000Y-121953000D02*
X131555000Y-122768000D01*
X121710000Y-120710000D02*
X121080000Y-120710000D01*
X132850000Y-114060000D02*
X132850000Y-115215000D01*
D41*
X122140000Y-110510000D02*
X122545000Y-110915000D01*
D40*
X131620000Y-122840000D02*
X131620000Y-122890000D01*
%TO.N,VDD*%
X123660000Y-95630000D02*
X124430000Y-94860000D01*
D42*
X124545000Y-93970000D02*
X124430000Y-94085000D01*
D40*
X126010000Y-97940000D02*
X124610000Y-97940000D01*
X124200000Y-97530000D02*
X122580000Y-97530000D01*
D42*
X129230000Y-94085000D02*
X129115000Y-93970000D01*
D40*
X126340000Y-99077500D02*
X126340000Y-98270000D01*
X126340000Y-98270000D02*
X126010000Y-97940000D01*
X122580000Y-97530000D02*
X122250000Y-97200000D01*
X124610000Y-97940000D02*
X124200000Y-97530000D01*
X124430000Y-94860000D02*
X124430000Y-94085000D01*
X122250000Y-95930000D02*
X122550000Y-95630000D01*
X122250000Y-97200000D02*
X122250000Y-95930000D01*
X122550000Y-95630000D02*
X123660000Y-95630000D01*
%TO.N,+5V*%
X131540000Y-99710000D02*
X133570000Y-97680000D01*
X133570000Y-97680000D02*
X133570000Y-96560000D01*
X128590000Y-101020000D02*
X131100000Y-101020000D01*
X131100000Y-101020000D02*
X131540000Y-100580000D01*
X131540000Y-100580000D02*
X131540000Y-99710000D01*
D39*
%TO.N,/OSC_N*%
X129850000Y-126210000D02*
X130444999Y-126804999D01*
X126099999Y-123229999D02*
X128225001Y-125355001D01*
X128135000Y-125265000D02*
X129080000Y-126210000D01*
X126099999Y-122122500D02*
X126099999Y-123229999D01*
X131795999Y-126804999D02*
X132814999Y-127823999D01*
D41*
X133147499Y-127602499D02*
X132814999Y-127934999D01*
D39*
X132814999Y-127823999D02*
X132814999Y-127934999D01*
D41*
X134184999Y-127602499D02*
X133147499Y-127602499D01*
D39*
X129080000Y-126210000D02*
X129850000Y-126210000D01*
X130444999Y-126804999D02*
X131795999Y-126804999D01*
%TO.N,/OSC_P*%
X128276544Y-124723456D02*
X129313086Y-125759998D01*
D41*
X131347499Y-124214999D02*
X131347499Y-125502499D01*
D39*
X126599999Y-122122500D02*
X126599999Y-123046911D01*
X131090000Y-125759998D02*
X131114999Y-125734999D01*
X126599999Y-123046911D02*
X128458087Y-124904999D01*
X129313086Y-125759998D02*
X131090000Y-125759998D01*
D41*
X131347499Y-125502499D02*
X131114999Y-125734999D01*
D40*
%TO.N,Net-(C71-Pad1)*%
X135087500Y-121090000D02*
X135087500Y-119535000D01*
D39*
X133607500Y-119460000D02*
X133557500Y-119510000D01*
D40*
X135012500Y-119460000D02*
X133607500Y-119460000D01*
D39*
X135087500Y-119535000D02*
X135012500Y-119460000D01*
D40*
%TO.N,Net-(D12-A)*%
X120110000Y-95370001D02*
X120110000Y-94017501D01*
%TO.N,Net-(D18-A)*%
X126042498Y-127440000D02*
X126042498Y-126047499D01*
X126042498Y-126047499D02*
X126039999Y-126045000D01*
%TO.N,Net-(D19-A)*%
X124127500Y-126062500D02*
X124120000Y-126055000D01*
X124127500Y-127440000D02*
X124127500Y-126062500D01*
D39*
%TO.N,/D_N*%
X126580000Y-94094999D02*
X126580000Y-95498198D01*
X126580000Y-94094999D02*
X126580000Y-94926999D01*
X126580000Y-94926999D02*
X126793000Y-95139999D01*
X126793000Y-95139999D02*
X127367000Y-95139999D01*
X127367000Y-95139999D02*
X127580000Y-94926999D01*
X127580000Y-94926999D02*
X127580000Y-94090000D01*
X127289999Y-96440000D02*
X126580000Y-95730001D01*
X126580000Y-95730001D02*
X126580000Y-95498198D01*
%TO.N,Net-(J1-CC1)*%
X129457500Y-96630000D02*
X129525000Y-96630000D01*
X128079999Y-94085000D02*
X128079999Y-95252499D01*
X128079999Y-95252499D02*
X129457500Y-96630000D01*
%TO.N,Net-(J1-CC2)*%
X125080000Y-94085000D02*
X125080000Y-94792500D01*
X125080000Y-94792500D02*
X123252500Y-96620000D01*
%TO.N,/D_P*%
X126293000Y-93045000D02*
X126080000Y-93258000D01*
X127080000Y-94090000D02*
X127080000Y-93258000D01*
X126080000Y-93258000D02*
X126080000Y-95361802D01*
X127080000Y-93258000D02*
X126867000Y-93045000D01*
X126080000Y-95361802D02*
X126076802Y-95365000D01*
X126867000Y-93045000D02*
X126293000Y-93045000D01*
X125390001Y-96440000D02*
X126076802Y-95753199D01*
X126076802Y-95753199D02*
X126076802Y-95365000D01*
D40*
%TO.N,/SWDIO*%
X125099999Y-114796847D02*
X125415152Y-115112000D01*
X129498000Y-115112000D02*
X132130000Y-112480000D01*
X132130000Y-110890000D02*
X133600000Y-109420000D01*
X125415152Y-115112000D02*
X129498000Y-115112000D01*
X125099999Y-113797500D02*
X125099999Y-114796847D01*
X132130000Y-112480000D02*
X132130000Y-110890000D01*
%TO.N,/SWCLK*%
X125120000Y-115210000D02*
X125300000Y-115390000D01*
D42*
X132962440Y-111960000D02*
X133600000Y-111960000D01*
D40*
X131350000Y-114210000D02*
X133600000Y-111960000D01*
X122687499Y-115210000D02*
X125120000Y-115210000D01*
X125300000Y-115390000D02*
X129610000Y-115390000D01*
X129610000Y-115390000D02*
X130790000Y-114210000D01*
X130790000Y-114210000D02*
X131350000Y-114210000D01*
D39*
%TO.N,Net-(J14-Pin_2)*%
X122001250Y-125300001D02*
X122001250Y-124805001D01*
X122001250Y-124805001D02*
X121666249Y-124470000D01*
X121666249Y-124470000D02*
X120753751Y-124470000D01*
D40*
%TO.N,/NRST*%
X127430000Y-120780000D02*
X127099999Y-121110001D01*
X135420000Y-101960000D02*
X133640000Y-100180000D01*
X132400000Y-120980000D02*
X131960000Y-121420000D01*
X130290000Y-121420000D02*
X129650000Y-120780000D01*
X133557500Y-117860000D02*
X133557500Y-116932500D01*
X129650000Y-120780000D02*
X127430000Y-120780000D01*
X135420000Y-116110000D02*
X135420000Y-101960000D01*
X131960000Y-121420000D02*
X130290000Y-121420000D01*
X133640000Y-100180000D02*
X133640000Y-99580000D01*
X133850000Y-116640000D02*
X134890000Y-116640000D01*
X133557500Y-116932500D02*
X133850000Y-116640000D01*
X127099999Y-121110001D02*
X127099999Y-122122500D01*
X134890000Y-116640000D02*
X135420000Y-116110000D01*
X133557500Y-117860000D02*
X132400000Y-119017500D01*
X132400000Y-119017500D02*
X132400000Y-120980000D01*
D39*
%TO.N,/BOOT0*%
X124710000Y-120241175D02*
X124710000Y-119360000D01*
X122001250Y-122949925D02*
X124710000Y-120241175D01*
X124710000Y-119360000D02*
X124060000Y-118710000D01*
X124060000Y-118710000D02*
X122687499Y-118710000D01*
X122001250Y-123650001D02*
X122001250Y-122949925D01*
D40*
%TO.N,/Tx*%
X122687499Y-119710000D02*
X121490000Y-119710000D01*
X121490000Y-119710000D02*
X119860000Y-118080000D01*
X119860000Y-118080000D02*
X119860000Y-116110000D01*
%TO.N,/Rx*%
X122687499Y-119209999D02*
X121469999Y-119209999D01*
X121469999Y-119209999D02*
X120460000Y-118200000D01*
X120460000Y-118200000D02*
X120460000Y-116600000D01*
D41*
%TO.N,/Error*%
X125099999Y-123469999D02*
X126025000Y-124395000D01*
X125099999Y-122122500D02*
X125099999Y-123469999D01*
X126025000Y-124395000D02*
X126039999Y-124395000D01*
%TO.N,/Run*%
X124599999Y-123420001D02*
X124599999Y-122122500D01*
X124120000Y-124405000D02*
X124120000Y-123900000D01*
X124120000Y-123900000D02*
X124599999Y-123420001D01*
D39*
%TO.N,/D0_P*%
X125614999Y-106110000D02*
X125614999Y-103926803D01*
D40*
X124330000Y-106085000D02*
X125589999Y-106085000D01*
D39*
X126115000Y-100164999D02*
X126115000Y-101450000D01*
X126115000Y-101300000D02*
X126115000Y-103426802D01*
X126115000Y-103426802D02*
X125614999Y-103926803D01*
X125110000Y-109335000D02*
X125614999Y-108830001D01*
X126115000Y-101300000D02*
X126115000Y-101450000D01*
X126115000Y-100663658D02*
X126115000Y-101300000D01*
D40*
X124320000Y-106095000D02*
X124330000Y-106085000D01*
D39*
X125614999Y-108830001D02*
X125614999Y-106110000D01*
D40*
X125589999Y-106085000D02*
X125614999Y-106110000D01*
D39*
X125390001Y-99440000D02*
X126115000Y-100164999D01*
X125390001Y-99077500D02*
X125390001Y-99440000D01*
%TO.N,/D0_N*%
X126565000Y-100164999D02*
X126565000Y-101450000D01*
X126565000Y-101450000D02*
X126565000Y-103613198D01*
X127289999Y-99077500D02*
X127289999Y-99440000D01*
X126565000Y-103613198D02*
X126065001Y-104113197D01*
X127289999Y-99440000D02*
X126565000Y-100164999D01*
X126065001Y-108830001D02*
X126570001Y-109335001D01*
X126565000Y-100663658D02*
X126565000Y-101450000D01*
X126065001Y-104113197D02*
X126065001Y-108830001D01*
%TO.N,Net-(D20-A)*%
X133580000Y-93947501D02*
X133580000Y-95425000D01*
%TO.N,/UART_RX*%
X121060000Y-117550000D02*
X121060000Y-112960000D01*
X121060000Y-112960000D02*
X120060000Y-111960000D01*
X122687499Y-118210000D02*
X121720000Y-118210000D01*
X121720000Y-118210000D02*
X121060000Y-117550000D01*
%TO.N,/UART_TX*%
X122687499Y-117710000D02*
X121740000Y-117710000D01*
X121740000Y-117710000D02*
X121420000Y-117390000D01*
X121420000Y-117390000D02*
X121420000Y-110780000D01*
X121420000Y-110780000D02*
X120060000Y-109420000D01*
D40*
%TO.N,/G*%
X128099998Y-113797500D02*
X128099998Y-112590002D01*
X129500000Y-110760000D02*
X129500000Y-110139999D01*
X129500000Y-111190000D02*
X129500000Y-110760000D01*
X128099998Y-112590002D02*
X129500000Y-111190000D01*
%TO.N,/B*%
X128560000Y-111590000D02*
X128560000Y-111160000D01*
X127599999Y-113797500D02*
X127599999Y-112550001D01*
X127599999Y-112550001D02*
X128560000Y-111590000D01*
X128560000Y-111160000D02*
X128560000Y-110139999D01*
%TO.N,Net-(D21-A)*%
X129750000Y-107107501D02*
X129750000Y-107820000D01*
X129500000Y-108070000D02*
X129500000Y-109120001D01*
X129750000Y-107820000D02*
X129500000Y-108070000D01*
%TO.N,Net-(D22-A)*%
X128560000Y-108120000D02*
X128560000Y-109120001D01*
X128290000Y-107107501D02*
X128290000Y-107850000D01*
X128290000Y-107850000D02*
X128560000Y-108120000D01*
%TO.N,/SDA*%
X131070000Y-106870000D02*
X133600000Y-104340000D01*
X131070000Y-110250000D02*
X131070000Y-106870000D01*
X128599999Y-113797500D02*
X128599999Y-112720001D01*
X128599999Y-112720001D02*
X131070000Y-110250000D01*
%TO.N,/SCL*%
X129099999Y-112720001D02*
X132040000Y-109780000D01*
X132040000Y-108440000D02*
X133600000Y-106880000D01*
X129099999Y-113797500D02*
X129099999Y-112720001D01*
X132040000Y-109780000D02*
X132040000Y-108440000D01*
D39*
%TO.N,Net-(U2-PA11)*%
X126090000Y-113787501D02*
X126090000Y-112740026D01*
X126099999Y-113797500D02*
X126090000Y-113787501D01*
X126090000Y-111490000D02*
X126090000Y-112734051D01*
X126570001Y-111009999D02*
X126090000Y-111490000D01*
%TO.N,Net-(U2-PA12)*%
X125615000Y-113782500D02*
X125615000Y-111490000D01*
X125600000Y-113797500D02*
X125615000Y-113782500D01*
X125615000Y-111490000D02*
X125110000Y-110985000D01*
%TD*%
%TA.AperFunction,Conductor*%
%TO.N,GND*%
G36*
X131352539Y-86649685D02*
G01*
X131398294Y-86702489D01*
X131409500Y-86754000D01*
X131409500Y-87280207D01*
X131409793Y-87280500D01*
X131420000Y-87280500D01*
X131420000Y-87440000D01*
X122240000Y-87440000D01*
X122240000Y-87291859D01*
X122249694Y-87282149D01*
X122250500Y-87280206D01*
X122250500Y-86754000D01*
X122270185Y-86686961D01*
X122322989Y-86641206D01*
X122374500Y-86630000D01*
X131285500Y-86630000D01*
X131352539Y-86649685D01*
G37*
%TD.AperFunction*%
%TD*%
%TA.AperFunction,Conductor*%
%TO.N,GND*%
G36*
X123951206Y-119030185D02*
G01*
X123971848Y-119046819D01*
X124373181Y-119448152D01*
X124406666Y-119509475D01*
X124409500Y-119535833D01*
X124409500Y-120065341D01*
X124389815Y-120132380D01*
X124373181Y-120153022D01*
X123837140Y-120689063D01*
X123775817Y-120722548D01*
X123706125Y-120717564D01*
X123650192Y-120675692D01*
X123626056Y-120613534D01*
X123625498Y-120607872D01*
X123625498Y-120607868D01*
X123609514Y-120527505D01*
X123589308Y-120497266D01*
X123548623Y-120436375D01*
X123486743Y-120395029D01*
X123457494Y-120375485D01*
X123457492Y-120375484D01*
X123457489Y-120375483D01*
X123377135Y-120359500D01*
X121997869Y-120359500D01*
X121917502Y-120375485D01*
X121917501Y-120375486D01*
X121907458Y-120382197D01*
X121880355Y-120390682D01*
X121854343Y-120402086D01*
X121845772Y-120401509D01*
X121840780Y-120403073D01*
X121831612Y-120400557D01*
X121806477Y-120398868D01*
X121752854Y-120384500D01*
X121752853Y-120384500D01*
X121335068Y-120384500D01*
X121332382Y-120383711D01*
X121329665Y-120384382D01*
X121299059Y-120373926D01*
X121268029Y-120364815D01*
X121266196Y-120362700D01*
X121263547Y-120361795D01*
X121224583Y-120316795D01*
X121222208Y-120312133D01*
X121168528Y-120206780D01*
X121168524Y-120206776D01*
X121168523Y-120206774D01*
X121121819Y-120160070D01*
X121107115Y-120133142D01*
X121090523Y-120107324D01*
X121089631Y-120101123D01*
X121088334Y-120098747D01*
X121085500Y-120072389D01*
X121085500Y-119994478D01*
X121105185Y-119927439D01*
X121157989Y-119881684D01*
X121227147Y-119871740D01*
X121290703Y-119900765D01*
X121297182Y-119906798D01*
X121333941Y-119943557D01*
X121363595Y-119955839D01*
X121363597Y-119955841D01*
X121363598Y-119955841D01*
X121368299Y-119957788D01*
X121435200Y-119985500D01*
X121791568Y-119985500D01*
X121817794Y-119993200D01*
X121844793Y-119997504D01*
X121850834Y-120002902D01*
X121858607Y-120005185D01*
X121860460Y-120006399D01*
X121917503Y-120044515D01*
X121917505Y-120044516D01*
X121981529Y-120057250D01*
X121997866Y-120060500D01*
X123377131Y-120060499D01*
X123457494Y-120044515D01*
X123548623Y-119983624D01*
X123609514Y-119892495D01*
X123625499Y-119812133D01*
X123625498Y-119607868D01*
X123609514Y-119527505D01*
X123609512Y-119527502D01*
X123604840Y-119516222D01*
X123606284Y-119515623D01*
X123589561Y-119462213D01*
X123605515Y-119404055D01*
X123604841Y-119403776D01*
X123607063Y-119398410D01*
X123608045Y-119394833D01*
X123609453Y-119392642D01*
X123609515Y-119392492D01*
X123619087Y-119344364D01*
X123625499Y-119312132D01*
X123625498Y-119134500D01*
X123628048Y-119125814D01*
X123626760Y-119116853D01*
X123637737Y-119092815D01*
X123645182Y-119067461D01*
X123652024Y-119061532D01*
X123655785Y-119053297D01*
X123678016Y-119039010D01*
X123697986Y-119021706D01*
X123708501Y-119019418D01*
X123714563Y-119015523D01*
X123749498Y-119010500D01*
X123884167Y-119010500D01*
X123951206Y-119030185D01*
G37*
%TD.AperFunction*%
%TA.AperFunction,Conductor*%
G36*
X136500000Y-91200000D02*
G01*
X136500707Y-91200000D01*
X136489679Y-91211029D01*
X136481028Y-91240510D01*
X136459417Y-91259242D01*
X136462234Y-91262059D01*
X136444500Y-91279792D01*
X136444500Y-138280207D01*
X136462234Y-138297941D01*
X136461475Y-138298699D01*
X136487051Y-138319309D01*
X136509116Y-138385604D01*
X136509195Y-138390008D01*
X136509874Y-142155478D01*
X136490202Y-142222521D01*
X136437406Y-142268285D01*
X136385874Y-142279500D01*
X135499792Y-142279500D01*
X135499500Y-142279792D01*
X135499500Y-142734239D01*
X135479815Y-142801278D01*
X135427011Y-142847033D01*
X135375308Y-142858239D01*
X118464308Y-142832006D01*
X118397299Y-142812217D01*
X118351626Y-142759342D01*
X118340500Y-142708006D01*
X118340500Y-142279793D01*
X118340207Y-142279500D01*
X118339793Y-142279500D01*
X118315193Y-142279500D01*
X118315068Y-142279525D01*
X117294121Y-142279525D01*
X117227082Y-142259840D01*
X117181327Y-142207036D01*
X117170121Y-142155503D01*
X117170800Y-138385842D01*
X117190497Y-138318806D01*
X117210944Y-138301094D01*
X117207766Y-138297916D01*
X117225206Y-138280475D01*
X117225207Y-138280475D01*
X117225500Y-138280182D01*
X117225500Y-132616370D01*
X120354500Y-132616370D01*
X120354500Y-132848629D01*
X120390831Y-133078014D01*
X120462601Y-133298900D01*
X120568039Y-133505831D01*
X120704551Y-133693724D01*
X120868776Y-133857949D01*
X121056669Y-133994461D01*
X121121017Y-134027248D01*
X121263599Y-134099898D01*
X121263601Y-134099898D01*
X121263604Y-134099900D01*
X121484486Y-134171669D01*
X121602668Y-134190386D01*
X121713871Y-134208000D01*
X121713876Y-134208000D01*
X121946129Y-134208000D01*
X122047502Y-134191943D01*
X122175514Y-134171669D01*
X122396396Y-134099900D01*
X122603331Y-133994461D01*
X122791224Y-133857949D01*
X122955449Y-133693724D01*
X123091961Y-133505831D01*
X123197400Y-133298896D01*
X123269169Y-133078014D01*
X123289443Y-132950002D01*
X123305500Y-132848629D01*
X123305500Y-132616370D01*
X123286232Y-132494722D01*
X123269169Y-132386986D01*
X123197400Y-132166104D01*
X123197398Y-132166101D01*
X123197398Y-132166099D01*
X123091960Y-131959168D01*
X122955449Y-131771276D01*
X122791224Y-131607051D01*
X122603331Y-131470539D01*
X122538974Y-131437747D01*
X130514500Y-131437747D01*
X130514500Y-134027252D01*
X130526131Y-134085729D01*
X130526132Y-134085730D01*
X130570447Y-134152052D01*
X130636769Y-134196367D01*
X130636770Y-134196368D01*
X130695247Y-134207999D01*
X130695250Y-134208000D01*
X130695252Y-134208000D01*
X133284750Y-134208000D01*
X133284751Y-134207999D01*
X133299568Y-134205052D01*
X133343229Y-134196368D01*
X133343229Y-134196367D01*
X133343231Y-134196367D01*
X133409552Y-134152052D01*
X133453867Y-134085731D01*
X133453867Y-134085729D01*
X133453868Y-134085729D01*
X133465499Y-134027252D01*
X133465500Y-134027250D01*
X133465500Y-131437749D01*
X133465499Y-131437747D01*
X133453868Y-131379270D01*
X133453867Y-131379269D01*
X133409552Y-131312947D01*
X133343230Y-131268632D01*
X133343229Y-131268631D01*
X133284752Y-131257000D01*
X133284748Y-131257000D01*
X130695252Y-131257000D01*
X130695247Y-131257000D01*
X130636770Y-131268631D01*
X130636769Y-131268632D01*
X130570447Y-131312947D01*
X130526132Y-131379269D01*
X130526131Y-131379270D01*
X130514500Y-131437747D01*
X122538974Y-131437747D01*
X122396400Y-131365101D01*
X122175514Y-131293331D01*
X121946129Y-131257000D01*
X121946124Y-131257000D01*
X121713876Y-131257000D01*
X121713871Y-131257000D01*
X121484485Y-131293331D01*
X121263599Y-131365101D01*
X121056668Y-131470539D01*
X120868773Y-131607053D01*
X120704553Y-131771273D01*
X120568039Y-131959168D01*
X120462601Y-132166099D01*
X120390831Y-132386985D01*
X120354500Y-132616370D01*
X117225500Y-132616370D01*
X117225500Y-100955200D01*
X118024500Y-100955200D01*
X118024500Y-105174800D01*
X118063200Y-105268229D01*
X118063201Y-105268230D01*
X118063202Y-105268234D01*
X118066442Y-105276056D01*
X118066442Y-105276057D01*
X119083279Y-106292894D01*
X119116764Y-106354217D01*
X119111780Y-106423909D01*
X119110159Y-106428027D01*
X119049872Y-106573574D01*
X119049868Y-106573587D01*
X119009500Y-106776530D01*
X119009500Y-106983469D01*
X119042497Y-107149354D01*
X119049870Y-107186420D01*
X119083032Y-107266481D01*
X119089448Y-107281969D01*
X119096917Y-107351438D01*
X119065642Y-107413918D01*
X119062568Y-107417103D01*
X118623537Y-107856135D01*
X118623535Y-107856138D01*
X118580682Y-107930359D01*
X118578573Y-107938231D01*
X118560399Y-108006058D01*
X118558500Y-108013147D01*
X118558500Y-117951147D01*
X118558500Y-118036853D01*
X118564299Y-118058495D01*
X118580682Y-118119640D01*
X118602108Y-118156750D01*
X118623535Y-118193862D01*
X119522488Y-119092815D01*
X120277260Y-119847586D01*
X120310745Y-119908909D01*
X120305761Y-119978601D01*
X120263889Y-120034534D01*
X120244840Y-120044419D01*
X120245570Y-120045851D01*
X120236876Y-120050280D01*
X120236874Y-120050281D01*
X120141754Y-120098747D01*
X120116778Y-120111473D01*
X120116774Y-120111476D01*
X120021476Y-120206774D01*
X120021473Y-120206778D01*
X119960279Y-120326878D01*
X119944500Y-120426506D01*
X119944500Y-120993493D01*
X119960279Y-121093121D01*
X119960280Y-121093124D01*
X119960281Y-121093126D01*
X120021472Y-121213220D01*
X120021473Y-121213221D01*
X120021476Y-121213225D01*
X120116774Y-121308523D01*
X120116776Y-121308524D01*
X120116780Y-121308528D01*
X120157970Y-121329515D01*
X120208766Y-121377490D01*
X120225561Y-121445311D01*
X120203023Y-121511446D01*
X120157971Y-121550484D01*
X120116780Y-121571472D01*
X120116779Y-121571473D01*
X120116774Y-121571476D01*
X120021476Y-121666774D01*
X120021473Y-121666778D01*
X119960279Y-121786878D01*
X119944500Y-121886506D01*
X119944500Y-122453493D01*
X119960279Y-122553121D01*
X119960280Y-122553124D01*
X119960281Y-122553126D01*
X120021472Y-122673220D01*
X120021473Y-122673221D01*
X120021476Y-122673225D01*
X120116774Y-122768523D01*
X120116778Y-122768526D01*
X120116780Y-122768528D01*
X120236874Y-122829719D01*
X120236876Y-122829719D01*
X120236878Y-122829720D01*
X120336508Y-122845500D01*
X120338972Y-122845694D01*
X120339854Y-122846030D01*
X120341324Y-122846263D01*
X120341275Y-122846571D01*
X120342819Y-122847160D01*
X120346897Y-122846574D01*
X120375197Y-122859498D01*
X120404262Y-122870574D01*
X120406706Y-122873887D01*
X120410453Y-122875599D01*
X120427272Y-122901770D01*
X120445736Y-122926803D01*
X120446637Y-122931903D01*
X120448227Y-122934377D01*
X120453250Y-122969312D01*
X120453250Y-122976155D01*
X120433565Y-123043194D01*
X120392987Y-123078643D01*
X120394323Y-123080551D01*
X120385435Y-123086774D01*
X120300526Y-123171683D01*
X120249777Y-123280514D01*
X120243250Y-123330097D01*
X120243250Y-123689894D01*
X120243251Y-123689900D01*
X120249778Y-123739487D01*
X120249779Y-123739489D01*
X120249779Y-123739490D01*
X120300526Y-123848316D01*
X120354529Y-123902319D01*
X120388014Y-123963642D01*
X120383030Y-124033334D01*
X120354530Y-124077681D01*
X120300526Y-124131685D01*
X120249778Y-124240514D01*
X120243251Y-124290097D01*
X120243251Y-124649894D01*
X120243252Y-124649900D01*
X120249779Y-124699487D01*
X120249780Y-124699489D01*
X120249780Y-124699490D01*
X120293714Y-124793705D01*
X120300527Y-124808316D01*
X120385435Y-124893224D01*
X120494264Y-124943972D01*
X120543850Y-124950500D01*
X120963651Y-124950499D01*
X121013238Y-124943972D01*
X121122067Y-124893224D01*
X121127207Y-124888083D01*
X121188525Y-124854599D01*
X121258217Y-124859581D01*
X121314152Y-124901450D01*
X121338572Y-124966913D01*
X121337362Y-124995161D01*
X121325750Y-125068481D01*
X121325750Y-125531518D01*
X121336542Y-125599658D01*
X121340604Y-125625305D01*
X121398200Y-125738343D01*
X121398202Y-125738345D01*
X121398204Y-125738348D01*
X121487902Y-125828046D01*
X121487904Y-125828047D01*
X121487908Y-125828051D01*
X121600944Y-125885646D01*
X121600948Y-125885648D01*
X121694725Y-125900500D01*
X121694731Y-125900501D01*
X122307768Y-125900500D01*
X122401554Y-125885647D01*
X122514592Y-125828051D01*
X122519168Y-125823475D01*
X123444500Y-125823475D01*
X123444500Y-126286517D01*
X123455292Y-126354657D01*
X123459354Y-126380304D01*
X123516950Y-126493342D01*
X123516952Y-126493344D01*
X123516954Y-126493347D01*
X123606652Y-126583045D01*
X123606654Y-126583046D01*
X123606658Y-126583050D01*
X123668598Y-126614610D01*
X123719393Y-126662584D01*
X123736188Y-126730405D01*
X123713651Y-126796540D01*
X123668600Y-126835577D01*
X123659251Y-126840340D01*
X123659243Y-126840346D01*
X123565346Y-126934243D01*
X123565343Y-126934248D01*
X123505047Y-127052582D01*
X123489500Y-127150748D01*
X123489500Y-127729251D01*
X123505047Y-127827417D01*
X123524364Y-127865329D01*
X123565342Y-127945751D01*
X123565344Y-127945753D01*
X123565346Y-127945756D01*
X123659243Y-128039653D01*
X123659245Y-128039654D01*
X123659249Y-128039658D01*
X123777580Y-128099951D01*
X123777581Y-128099951D01*
X123777583Y-128099952D01*
X123777582Y-128099952D01*
X123875749Y-128115500D01*
X123875754Y-128115500D01*
X124379251Y-128115500D01*
X124477417Y-128099952D01*
X124477418Y-128099951D01*
X124477420Y-128099951D01*
X124595751Y-128039658D01*
X124689658Y-127945751D01*
X124749951Y-127827420D01*
X124749951Y-127827418D01*
X124749952Y-127827417D01*
X124765500Y-127729251D01*
X124765500Y-127150748D01*
X124749952Y-127052582D01*
X124749951Y-127052580D01*
X124689658Y-126934249D01*
X124689654Y-126934245D01*
X124689653Y-126934243D01*
X124595756Y-126840346D01*
X124595751Y-126840342D01*
X124578900Y-126831756D01*
X124528105Y-126783780D01*
X124511311Y-126715959D01*
X124533850Y-126649824D01*
X124578899Y-126610789D01*
X124633342Y-126583050D01*
X124723050Y-126493342D01*
X124780646Y-126380304D01*
X124780646Y-126380302D01*
X124780647Y-126380301D01*
X124795499Y-126286524D01*
X124795500Y-126286519D01*
X124795499Y-125823482D01*
X124793914Y-125813475D01*
X125364499Y-125813475D01*
X125364499Y-126276517D01*
X125375291Y-126344657D01*
X125379353Y-126370304D01*
X125436949Y-126483342D01*
X125436951Y-126483344D01*
X125436953Y-126483347D01*
X125526651Y-126573045D01*
X125526655Y-126573048D01*
X125526657Y-126573050D01*
X125595908Y-126608335D01*
X125646704Y-126656310D01*
X125663499Y-126724131D01*
X125640961Y-126790266D01*
X125595910Y-126829304D01*
X125574247Y-126840342D01*
X125574241Y-126840346D01*
X125480344Y-126934243D01*
X125480341Y-126934248D01*
X125420045Y-127052582D01*
X125404498Y-127150748D01*
X125404498Y-127729251D01*
X125420045Y-127827417D01*
X125439362Y-127865329D01*
X125480340Y-127945751D01*
X125480342Y-127945753D01*
X125480344Y-127945756D01*
X125574241Y-128039653D01*
X125574243Y-128039654D01*
X125574247Y-128039658D01*
X125692578Y-128099951D01*
X125692579Y-128099951D01*
X125692581Y-128099952D01*
X125692580Y-128099952D01*
X125790747Y-128115500D01*
X125790752Y-128115500D01*
X126294249Y-128115500D01*
X126392415Y-128099952D01*
X126392416Y-128099951D01*
X126392418Y-128099951D01*
X126510749Y-128039658D01*
X126604656Y-127945751D01*
X126664949Y-127827420D01*
X126664949Y-127827418D01*
X126664950Y-127827417D01*
X126680498Y-127729251D01*
X126680498Y-127150748D01*
X126664950Y-127052582D01*
X126664949Y-127052580D01*
X126604656Y-126934249D01*
X126604652Y-126934245D01*
X126604651Y-126934243D01*
X126510754Y-126840346D01*
X126510750Y-126840343D01*
X126510749Y-126840342D01*
X126489086Y-126829304D01*
X126486586Y-126828030D01*
X126435790Y-126780055D01*
X126418996Y-126712234D01*
X126441534Y-126646099D01*
X126486583Y-126607064D01*
X126553341Y-126573050D01*
X126643049Y-126483342D01*
X126700645Y-126370304D01*
X126700645Y-126370302D01*
X126700646Y-126370301D01*
X126715498Y-126276524D01*
X126715499Y-126276519D01*
X126715498Y-125813482D01*
X126700645Y-125719696D01*
X126643049Y-125606658D01*
X126643045Y-125606654D01*
X126643044Y-125606652D01*
X126553346Y-125516954D01*
X126553343Y-125516952D01*
X126553341Y-125516950D01*
X126459929Y-125469354D01*
X126440300Y-125459352D01*
X126346523Y-125444500D01*
X125733481Y-125444500D01*
X125652518Y-125457323D01*
X125639695Y-125459354D01*
X125526657Y-125516950D01*
X125526656Y-125516951D01*
X125526651Y-125516954D01*
X125436953Y-125606652D01*
X125436950Y-125606657D01*
X125436949Y-125606658D01*
X125427449Y-125625303D01*
X125379351Y-125719698D01*
X125364499Y-125813475D01*
X124793914Y-125813475D01*
X124780646Y-125729696D01*
X124723050Y-125616658D01*
X124723046Y-125616654D01*
X124723045Y-125616652D01*
X124633347Y-125526954D01*
X124633344Y-125526952D01*
X124633342Y-125526950D01*
X124556517Y-125487805D01*
X124520301Y-125469352D01*
X124426524Y-125454500D01*
X123813482Y-125454500D01*
X123732519Y-125467323D01*
X123719696Y-125469354D01*
X123606658Y-125526950D01*
X123606657Y-125526951D01*
X123606652Y-125526954D01*
X123516954Y-125616652D01*
X123516951Y-125616657D01*
X123516950Y-125616658D01*
X123512544Y-125625305D01*
X123459352Y-125729698D01*
X123444500Y-125823475D01*
X122519168Y-125823475D01*
X122604300Y-125738343D01*
X122661896Y-125625305D01*
X122661896Y-125625303D01*
X122661897Y-125625302D01*
X122676749Y-125531525D01*
X122676750Y-125531520D01*
X122676749Y-125068483D01*
X122661896Y-124974697D01*
X122604300Y-124861659D01*
X122604296Y-124861655D01*
X122604295Y-124861653D01*
X122514597Y-124771955D01*
X122514594Y-124771953D01*
X122514592Y-124771951D01*
X122401554Y-124714355D01*
X122401552Y-124714354D01*
X122401551Y-124714354D01*
X122343684Y-124705188D01*
X122280550Y-124675258D01*
X122255697Y-124644716D01*
X122241710Y-124620490D01*
X122083401Y-124462181D01*
X122049916Y-124400858D01*
X122054900Y-124331166D01*
X122096772Y-124275233D01*
X122162236Y-124250816D01*
X122171082Y-124250500D01*
X122307767Y-124250500D01*
X122307768Y-124250500D01*
X122401554Y-124235647D01*
X122514592Y-124178051D01*
X122604300Y-124088343D01*
X122661896Y-123975305D01*
X122661896Y-123975303D01*
X122661897Y-123975302D01*
X122676749Y-123881525D01*
X122676750Y-123881520D01*
X122676749Y-123418483D01*
X122661896Y-123324697D01*
X122604300Y-123211659D01*
X122604296Y-123211655D01*
X122604295Y-123211653D01*
X122514597Y-123121955D01*
X122514593Y-123121952D01*
X122514592Y-123121951D01*
X122505778Y-123117460D01*
X122494156Y-123111538D01*
X122443360Y-123063563D01*
X122426566Y-122995742D01*
X122449104Y-122929607D01*
X122462765Y-122913379D01*
X123537820Y-121838324D01*
X123599141Y-121804841D01*
X123668833Y-121809825D01*
X123724766Y-121851697D01*
X123749183Y-121917161D01*
X123749499Y-121926007D01*
X123749499Y-122812129D01*
X123765484Y-122892495D01*
X123826374Y-122983624D01*
X123854313Y-123002292D01*
X123917504Y-123044515D01*
X123917507Y-123044515D01*
X123917508Y-123044516D01*
X123925497Y-123046105D01*
X123997866Y-123060500D01*
X124150498Y-123060499D01*
X124159184Y-123063049D01*
X124168146Y-123061761D01*
X124192183Y-123072738D01*
X124217538Y-123080183D01*
X124223466Y-123087025D01*
X124231702Y-123090786D01*
X124245988Y-123113017D01*
X124263293Y-123132987D01*
X124265580Y-123143502D01*
X124269476Y-123149564D01*
X124274499Y-123184499D01*
X124274499Y-123233812D01*
X124254814Y-123300851D01*
X124238180Y-123321493D01*
X123859537Y-123700135D01*
X123859530Y-123700144D01*
X123827423Y-123755755D01*
X123776856Y-123803970D01*
X123739435Y-123816227D01*
X123719700Y-123819352D01*
X123719699Y-123819352D01*
X123669381Y-123844991D01*
X123606658Y-123876950D01*
X123606657Y-123876951D01*
X123606652Y-123876954D01*
X123516954Y-123966652D01*
X123516951Y-123966657D01*
X123459352Y-124079698D01*
X123444500Y-124173475D01*
X123444500Y-124636517D01*
X123454473Y-124699487D01*
X123459354Y-124730304D01*
X123516950Y-124843342D01*
X123516952Y-124843344D01*
X123516954Y-124843347D01*
X123606652Y-124933045D01*
X123606654Y-124933046D01*
X123606658Y-124933050D01*
X123700072Y-124980647D01*
X123719698Y-124990647D01*
X123813475Y-125005499D01*
X123813481Y-125005500D01*
X124426518Y-125005499D01*
X124520304Y-124990646D01*
X124633342Y-124933050D01*
X124723050Y-124843342D01*
X124780646Y-124730304D01*
X124780646Y-124730302D01*
X124780647Y-124730301D01*
X124795499Y-124636524D01*
X124795500Y-124636519D01*
X124795499Y-124173482D01*
X124780646Y-124079696D01*
X124723050Y-123966658D01*
X124723046Y-123966654D01*
X124723045Y-123966652D01*
X124706040Y-123949647D01*
X124701701Y-123941701D01*
X124694454Y-123936276D01*
X124685219Y-123911516D01*
X124672555Y-123888324D01*
X124673200Y-123879294D01*
X124670037Y-123870812D01*
X124675653Y-123844991D01*
X124677539Y-123818632D01*
X124683357Y-123809578D01*
X124684889Y-123802539D01*
X124706037Y-123774288D01*
X124737320Y-123743005D01*
X124798641Y-123709522D01*
X124868333Y-123714506D01*
X124912680Y-123743007D01*
X125328180Y-124158507D01*
X125361665Y-124219830D01*
X125364499Y-124246188D01*
X125364499Y-124626517D01*
X125372219Y-124675258D01*
X125379353Y-124720304D01*
X125436949Y-124833342D01*
X125436951Y-124833344D01*
X125436953Y-124833347D01*
X125526651Y-124923045D01*
X125526653Y-124923046D01*
X125526657Y-124923050D01*
X125639693Y-124980645D01*
X125639697Y-124980647D01*
X125733474Y-124995499D01*
X125733480Y-124995500D01*
X126346517Y-124995499D01*
X126440303Y-124980646D01*
X126553341Y-124923050D01*
X126643049Y-124833342D01*
X126700645Y-124720304D01*
X126700645Y-124720302D01*
X126700646Y-124720301D01*
X126715498Y-124626524D01*
X126715499Y-124626519D01*
X126715498Y-124569830D01*
X126735181Y-124502793D01*
X126787985Y-124457037D01*
X126857143Y-124447093D01*
X126920699Y-124476117D01*
X126927179Y-124482150D01*
X127894540Y-125449511D01*
X128839540Y-126394511D01*
X128895489Y-126450460D01*
X128895491Y-126450461D01*
X128895495Y-126450464D01*
X128952451Y-126483347D01*
X128964011Y-126490021D01*
X129040438Y-126510500D01*
X129674167Y-126510500D01*
X129741206Y-126530185D01*
X129761848Y-126546819D01*
X130260488Y-127045459D01*
X130329011Y-127085021D01*
X130405437Y-127105499D01*
X131620166Y-127105499D01*
X131687205Y-127125184D01*
X131707847Y-127141818D01*
X131978180Y-127412151D01*
X132011665Y-127473474D01*
X132014499Y-127499832D01*
X132014499Y-128654751D01*
X132026130Y-128713228D01*
X132026131Y-128713229D01*
X132070446Y-128779551D01*
X132136768Y-128823866D01*
X132136769Y-128823867D01*
X132195246Y-128835498D01*
X132195249Y-128835499D01*
X132195251Y-128835499D01*
X133434749Y-128835499D01*
X133434750Y-128835498D01*
X133449567Y-128832551D01*
X133493228Y-128823867D01*
X133493228Y-128823866D01*
X133493230Y-128823866D01*
X133559551Y-128779551D01*
X133603866Y-128713230D01*
X133603866Y-128713228D01*
X133603867Y-128713228D01*
X133615498Y-128654751D01*
X133615499Y-128654749D01*
X133615499Y-128202615D01*
X133635184Y-128135576D01*
X133687988Y-128089821D01*
X133757146Y-128079877D01*
X133810767Y-128104364D01*
X133812205Y-128102351D01*
X133820568Y-128108322D01*
X133927156Y-128160431D01*
X133927157Y-128160431D01*
X133927159Y-128160432D01*
X133996257Y-128170499D01*
X133996263Y-128170499D01*
X134373735Y-128170499D01*
X134373741Y-128170499D01*
X134442839Y-128160432D01*
X134549428Y-128108323D01*
X134549429Y-128108322D01*
X134549431Y-128108321D01*
X134633321Y-128024431D01*
X134633322Y-128024429D01*
X134633323Y-128024428D01*
X134685432Y-127917839D01*
X134695499Y-127848741D01*
X134695499Y-127356257D01*
X134685432Y-127287159D01*
X134633323Y-127180570D01*
X134633322Y-127180569D01*
X134633322Y-127180568D01*
X134549429Y-127096675D01*
X134442841Y-127044566D01*
X134425564Y-127042049D01*
X134373741Y-127034499D01*
X133996257Y-127034499D01*
X133950191Y-127041210D01*
X133927156Y-127044566D01*
X133820568Y-127096675D01*
X133773433Y-127143810D01*
X133712110Y-127177294D01*
X133642418Y-127172309D01*
X133586485Y-127130438D01*
X133582667Y-127125042D01*
X133559551Y-127090447D01*
X133551430Y-127085020D01*
X133493229Y-127046131D01*
X133493228Y-127046130D01*
X133434751Y-127034499D01*
X133434747Y-127034499D01*
X132501832Y-127034499D01*
X132434793Y-127014814D01*
X132414151Y-126998180D01*
X131980511Y-126564540D01*
X131980506Y-126564536D01*
X131977497Y-126562799D01*
X131975465Y-126560668D01*
X131974059Y-126559589D01*
X131974227Y-126559369D01*
X131929283Y-126512231D01*
X131915499Y-126455413D01*
X131915499Y-125015248D01*
X131915498Y-125015246D01*
X131903867Y-124956769D01*
X131903866Y-124956768D01*
X131859551Y-124890447D01*
X131795005Y-124847318D01*
X131750201Y-124793705D01*
X131741494Y-124724380D01*
X131771649Y-124661353D01*
X131776197Y-124656553D01*
X131853323Y-124579428D01*
X131905432Y-124472839D01*
X131915499Y-124403741D01*
X131915499Y-124026257D01*
X131905432Y-123957159D01*
X131853323Y-123850570D01*
X131853322Y-123850569D01*
X131853322Y-123850568D01*
X131769429Y-123766675D01*
X131662841Y-123714566D01*
X131645564Y-123712049D01*
X131593741Y-123704499D01*
X131101257Y-123704499D01*
X131055191Y-123711210D01*
X131032156Y-123714566D01*
X130925568Y-123766675D01*
X130925567Y-123766677D01*
X130841677Y-123850567D01*
X130841675Y-123850568D01*
X130789566Y-123957156D01*
X130789566Y-123957159D01*
X130779499Y-124026257D01*
X130779499Y-124403741D01*
X130785815Y-124447093D01*
X130789566Y-124472841D01*
X130841675Y-124579429D01*
X130885064Y-124622818D01*
X130918549Y-124684141D01*
X130913565Y-124753833D01*
X130871693Y-124809766D01*
X130806229Y-124834183D01*
X130797383Y-124834499D01*
X130495246Y-124834499D01*
X130436769Y-124846130D01*
X130436768Y-124846131D01*
X130370446Y-124890446D01*
X130326131Y-124956768D01*
X130326130Y-124956769D01*
X130314499Y-125015246D01*
X130314499Y-125335498D01*
X130294814Y-125402537D01*
X130242010Y-125448292D01*
X130190499Y-125459498D01*
X129488919Y-125459498D01*
X129421880Y-125439813D01*
X129401238Y-125423179D01*
X127229737Y-123251678D01*
X127196252Y-123190355D01*
X127201236Y-123120663D01*
X127243108Y-123064730D01*
X127272263Y-123051734D01*
X127271209Y-123049189D01*
X127282489Y-123044515D01*
X127282494Y-123044515D01*
X127373623Y-122983624D01*
X127434514Y-122892495D01*
X127450499Y-122812133D01*
X127450498Y-121432868D01*
X127434514Y-121352505D01*
X127415987Y-121324778D01*
X127406500Y-121294481D01*
X127395405Y-121264732D01*
X127396134Y-121261378D01*
X127395109Y-121258103D01*
X127403507Y-121227485D01*
X127410257Y-121196459D01*
X127413036Y-121192745D01*
X127413592Y-121190722D01*
X127431400Y-121168214D01*
X127507798Y-121091816D01*
X127569120Y-121058334D01*
X127595477Y-121055500D01*
X127732887Y-121055500D01*
X127799926Y-121075185D01*
X127845681Y-121127989D01*
X127855625Y-121197147D01*
X127831451Y-121250079D01*
X127833159Y-121251221D01*
X127765483Y-121352505D01*
X127765481Y-121352509D01*
X127749498Y-121432862D01*
X127749498Y-122812129D01*
X127756349Y-122846571D01*
X127765483Y-122892495D01*
X127777422Y-122910363D01*
X127778600Y-122912125D01*
X127799478Y-122978802D01*
X127799498Y-122981016D01*
X127799498Y-123049560D01*
X127803563Y-123064730D01*
X127819977Y-123125988D01*
X127819978Y-123125989D01*
X127841288Y-123162899D01*
X127859538Y-123194509D01*
X128399540Y-123734511D01*
X128455489Y-123790460D01*
X128455491Y-123790461D01*
X128455495Y-123790464D01*
X128505535Y-123819354D01*
X128524011Y-123830021D01*
X128600438Y-123850500D01*
X128600440Y-123850500D01*
X129769560Y-123850500D01*
X129769562Y-123850500D01*
X129845989Y-123830021D01*
X129914511Y-123790460D01*
X129970460Y-123734511D01*
X130628152Y-123076819D01*
X130655079Y-123062115D01*
X130680898Y-123045523D01*
X130687098Y-123044631D01*
X130689475Y-123043334D01*
X130715833Y-123040500D01*
X130803343Y-123040500D01*
X130870382Y-123060185D01*
X130916137Y-123112989D01*
X130919445Y-123121486D01*
X130925305Y-123132987D01*
X130981472Y-123243220D01*
X130981474Y-123243222D01*
X130981476Y-123243225D01*
X131076774Y-123338523D01*
X131076778Y-123338526D01*
X131076780Y-123338528D01*
X131196874Y-123399719D01*
X131196876Y-123399719D01*
X131196878Y-123399720D01*
X131296507Y-123415500D01*
X131296512Y-123415500D01*
X131813493Y-123415500D01*
X131913121Y-123399720D01*
X131913121Y-123399719D01*
X131913126Y-123399719D01*
X132033220Y-123338528D01*
X132128528Y-123243220D01*
X132189719Y-123123126D01*
X132189720Y-123123121D01*
X132205500Y-123023493D01*
X132205500Y-122593833D01*
X132214144Y-122564392D01*
X132220668Y-122534406D01*
X132224422Y-122529390D01*
X132225185Y-122526794D01*
X132241819Y-122506152D01*
X132308152Y-122439819D01*
X132369475Y-122406334D01*
X132395833Y-122403500D01*
X132429306Y-122403500D01*
X132429309Y-122403500D01*
X132543886Y-122372799D01*
X132646613Y-122313489D01*
X132695283Y-122264819D01*
X132756606Y-122231334D01*
X132782964Y-122228500D01*
X133281799Y-122228500D01*
X133281800Y-122228500D01*
X133383058Y-122186557D01*
X133460557Y-122109058D01*
X133671057Y-121898558D01*
X133683093Y-121869500D01*
X133706666Y-121812590D01*
X133734867Y-121777598D01*
X133750507Y-121758190D01*
X133764931Y-121749562D01*
X133875842Y-121693050D01*
X133965550Y-121603342D01*
X134023146Y-121490304D01*
X134023146Y-121490302D01*
X134023147Y-121490301D01*
X134037999Y-121396524D01*
X134038000Y-121396519D01*
X134037999Y-120783482D01*
X134023146Y-120689696D01*
X133965550Y-120576658D01*
X133965546Y-120576654D01*
X133965545Y-120576652D01*
X133875847Y-120486954D01*
X133875844Y-120486952D01*
X133875842Y-120486950D01*
X133780703Y-120438474D01*
X133762801Y-120429352D01*
X133669024Y-120414500D01*
X133205982Y-120414500D01*
X133130179Y-120426506D01*
X133112196Y-120429354D01*
X132999158Y-120486950D01*
X132999157Y-120486951D01*
X132999152Y-120486954D01*
X132909454Y-120576652D01*
X132903717Y-120584550D01*
X132902426Y-120583612D01*
X132862009Y-120626406D01*
X132794187Y-120643200D01*
X132728053Y-120620661D01*
X132684602Y-120565946D01*
X132675500Y-120519314D01*
X132675500Y-119917368D01*
X132695185Y-119850329D01*
X132747989Y-119804574D01*
X132817147Y-119794630D01*
X132880703Y-119823655D01*
X132909982Y-119861069D01*
X132952011Y-119943555D01*
X132954451Y-119948343D01*
X132954454Y-119948347D01*
X133044152Y-120038045D01*
X133044154Y-120038046D01*
X133044158Y-120038050D01*
X133155377Y-120094719D01*
X133157198Y-120095647D01*
X133250975Y-120110499D01*
X133250981Y-120110500D01*
X133864018Y-120110499D01*
X133957804Y-120095646D01*
X134070842Y-120038050D01*
X134160550Y-119948342D01*
X134179355Y-119911434D01*
X134227328Y-119860640D01*
X134295149Y-119843844D01*
X134361284Y-119866381D01*
X134400322Y-119911433D01*
X134413971Y-119938220D01*
X134413973Y-119938222D01*
X134413975Y-119938225D01*
X134509273Y-120033523D01*
X134509277Y-120033526D01*
X134509279Y-120033528D01*
X134629373Y-120094719D01*
X134629375Y-120094719D01*
X134629377Y-120094720D01*
X134707397Y-120107077D01*
X134738161Y-120121661D01*
X134769203Y-120135837D01*
X134769701Y-120136612D01*
X134770532Y-120137006D01*
X134788544Y-120165933D01*
X134806977Y-120194615D01*
X134807148Y-120195811D01*
X134807464Y-120196317D01*
X134812000Y-120229550D01*
X134812000Y-120327990D01*
X134792315Y-120395029D01*
X134744296Y-120438474D01*
X134649159Y-120486949D01*
X134649152Y-120486954D01*
X134559454Y-120576652D01*
X134559451Y-120576657D01*
X134559450Y-120576658D01*
X134543548Y-120607867D01*
X134501852Y-120689698D01*
X134487000Y-120783475D01*
X134487000Y-121396517D01*
X134492758Y-121432870D01*
X134501854Y-121490304D01*
X134559450Y-121603342D01*
X134559452Y-121603344D01*
X134559454Y-121603347D01*
X134649152Y-121693045D01*
X134649154Y-121693046D01*
X134649158Y-121693050D01*
X134760069Y-121749562D01*
X134762198Y-121750647D01*
X134855975Y-121765499D01*
X134855981Y-121765500D01*
X135319018Y-121765499D01*
X135412804Y-121750646D01*
X135525842Y-121693050D01*
X135615550Y-121603342D01*
X135673146Y-121490304D01*
X135673146Y-121490302D01*
X135673147Y-121490301D01*
X135687999Y-121396524D01*
X135688000Y-121396519D01*
X135687999Y-120783482D01*
X135673146Y-120689696D01*
X135615550Y-120576658D01*
X135615546Y-120576654D01*
X135615545Y-120576652D01*
X135525847Y-120486954D01*
X135525843Y-120486951D01*
X135525842Y-120486950D01*
X135468609Y-120457788D01*
X135430704Y-120438474D01*
X135419640Y-120428025D01*
X135405797Y-120421703D01*
X135394755Y-120404522D01*
X135379909Y-120390500D01*
X135375667Y-120374820D01*
X135368023Y-120362925D01*
X135363000Y-120327990D01*
X135363000Y-120187329D01*
X135382685Y-120120290D01*
X135430702Y-120076845D01*
X135515719Y-120033528D01*
X135611027Y-119938220D01*
X135672218Y-119818126D01*
X135673167Y-119812133D01*
X135687999Y-119718493D01*
X135687999Y-119201506D01*
X135672219Y-119101878D01*
X135672218Y-119101876D01*
X135672218Y-119101874D01*
X135611027Y-118981780D01*
X135611025Y-118981778D01*
X135611022Y-118981774D01*
X135515724Y-118886476D01*
X135515720Y-118886473D01*
X135515719Y-118886472D01*
X135395625Y-118825281D01*
X135395623Y-118825280D01*
X135395620Y-118825279D01*
X135295992Y-118809500D01*
X135295987Y-118809500D01*
X134729011Y-118809500D01*
X134729006Y-118809500D01*
X134629377Y-118825279D01*
X134509277Y-118886473D01*
X134509273Y-118886476D01*
X134413975Y-118981774D01*
X134413970Y-118981781D01*
X134374453Y-119059337D01*
X134326479Y-119110132D01*
X134258657Y-119126927D01*
X134192523Y-119104389D01*
X134163648Y-119075923D01*
X134160551Y-119071660D01*
X134160550Y-119071658D01*
X134160547Y-119071655D01*
X134160545Y-119071652D01*
X134070847Y-118981954D01*
X134070844Y-118981952D01*
X134070842Y-118981950D01*
X133977715Y-118934499D01*
X133957801Y-118924352D01*
X133864024Y-118909500D01*
X133250982Y-118909500D01*
X133214433Y-118915289D01*
X133208045Y-118916300D01*
X133138752Y-118907345D01*
X133085301Y-118862348D01*
X133064662Y-118795596D01*
X133083388Y-118728283D01*
X133100968Y-118706146D01*
X133310296Y-118496818D01*
X133371619Y-118463333D01*
X133397977Y-118460499D01*
X133864017Y-118460499D01*
X133864018Y-118460499D01*
X133957804Y-118445646D01*
X134070842Y-118388050D01*
X134160550Y-118298342D01*
X134218146Y-118185304D01*
X134218146Y-118185302D01*
X134218147Y-118185301D01*
X134232999Y-118091524D01*
X134233000Y-118091519D01*
X134232999Y-117628482D01*
X134218146Y-117534696D01*
X134160550Y-117421658D01*
X134160546Y-117421654D01*
X134160545Y-117421652D01*
X134070847Y-117331954D01*
X134070844Y-117331952D01*
X134070842Y-117331950D01*
X133957804Y-117274354D01*
X133957802Y-117274353D01*
X133957801Y-117274353D01*
X133937600Y-117271153D01*
X133906812Y-117256557D01*
X133875797Y-117242393D01*
X133875298Y-117241617D01*
X133874465Y-117241222D01*
X133856439Y-117212272D01*
X133838023Y-117183615D01*
X133837850Y-117182417D01*
X133837535Y-117181910D01*
X133833000Y-117148680D01*
X133833000Y-117097978D01*
X133852685Y-117030939D01*
X133869320Y-117010296D01*
X133927799Y-116951818D01*
X133989122Y-116918334D01*
X134015479Y-116915500D01*
X134944799Y-116915500D01*
X134944800Y-116915500D01*
X135046058Y-116873557D01*
X135123557Y-116796058D01*
X135123556Y-116796058D01*
X135182116Y-116737498D01*
X135653557Y-116266059D01*
X135664553Y-116239511D01*
X135671829Y-116221947D01*
X135695395Y-116165053D01*
X135695500Y-116164800D01*
X135695500Y-101905200D01*
X135653557Y-101803942D01*
X135653557Y-101803941D01*
X134958054Y-101108438D01*
X134276818Y-100427202D01*
X134243333Y-100365879D01*
X134240499Y-100339521D01*
X134240499Y-98748482D01*
X134240499Y-98748481D01*
X134225646Y-98654696D01*
X134168050Y-98541658D01*
X134168046Y-98541654D01*
X134168045Y-98541652D01*
X134078347Y-98451954D01*
X134078344Y-98451952D01*
X134078342Y-98451950D01*
X134001517Y-98412805D01*
X133965301Y-98394352D01*
X133871524Y-98379500D01*
X133559477Y-98379500D01*
X133492438Y-98359815D01*
X133446683Y-98307011D01*
X133436739Y-98237853D01*
X133465764Y-98174297D01*
X133471784Y-98167831D01*
X133803558Y-97836058D01*
X133803558Y-97836056D01*
X133803560Y-97836055D01*
X133828501Y-97775839D01*
X133845500Y-97734800D01*
X133845500Y-97667902D01*
X133865185Y-97600863D01*
X133917989Y-97555108D01*
X133950100Y-97545429D01*
X133980304Y-97540646D01*
X134093342Y-97483050D01*
X134183050Y-97393342D01*
X134240646Y-97280304D01*
X134240646Y-97280302D01*
X134240647Y-97280301D01*
X134254440Y-97193211D01*
X134255500Y-97186519D01*
X134255499Y-96723482D01*
X134240646Y-96629696D01*
X134183050Y-96516658D01*
X134183046Y-96516654D01*
X134183045Y-96516652D01*
X134093347Y-96426954D01*
X134093344Y-96426952D01*
X134093342Y-96426950D01*
X133990406Y-96374501D01*
X133980301Y-96369352D01*
X133886524Y-96354500D01*
X133886519Y-96354500D01*
X133805477Y-96354500D01*
X133738438Y-96334815D01*
X133736301Y-96333093D01*
X133736212Y-96333228D01*
X133726059Y-96326444D01*
X133726058Y-96326443D01*
X133624800Y-96284500D01*
X133515200Y-96284500D01*
X133515199Y-96284500D01*
X133459815Y-96307441D01*
X133413942Y-96326443D01*
X133413941Y-96326443D01*
X133413938Y-96326445D01*
X133403787Y-96333228D01*
X133401352Y-96329583D01*
X133360719Y-96351701D01*
X133334524Y-96354500D01*
X133273483Y-96354500D01*
X133194550Y-96367001D01*
X133179696Y-96369354D01*
X133066658Y-96426950D01*
X133066657Y-96426951D01*
X133066652Y-96426954D01*
X132976954Y-96516652D01*
X132976951Y-96516657D01*
X132919352Y-96629698D01*
X132904500Y-96723475D01*
X132904500Y-97186517D01*
X132907139Y-97203177D01*
X132919354Y-97280304D01*
X132976950Y-97393342D01*
X132976952Y-97393344D01*
X132976954Y-97393347D01*
X133066652Y-97483045D01*
X133066654Y-97483046D01*
X133066658Y-97483050D01*
X133120400Y-97510433D01*
X133171195Y-97558407D01*
X133187990Y-97626228D01*
X133165452Y-97692363D01*
X133151785Y-97708598D01*
X131383942Y-99476443D01*
X131306444Y-99553940D01*
X131264500Y-99655199D01*
X131264500Y-100414523D01*
X131244815Y-100481562D01*
X131228181Y-100502204D01*
X131022204Y-100708181D01*
X130960881Y-100741666D01*
X130934523Y-100744500D01*
X129002964Y-100744500D01*
X128935925Y-100724815D01*
X128915283Y-100708181D01*
X128866615Y-100659513D01*
X128866613Y-100659511D01*
X128763886Y-100600201D01*
X128649309Y-100569500D01*
X128530691Y-100569500D01*
X128416114Y-100600201D01*
X128416112Y-100600201D01*
X128416112Y-100600202D01*
X128313387Y-100659511D01*
X128313384Y-100659513D01*
X128229513Y-100743384D01*
X128229511Y-100743387D01*
X128196720Y-100800183D01*
X128170201Y-100846114D01*
X128139500Y-100960691D01*
X128139500Y-101079309D01*
X128170201Y-101193886D01*
X128229511Y-101296613D01*
X128313387Y-101380489D01*
X128416114Y-101439799D01*
X128530691Y-101470500D01*
X128530694Y-101470500D01*
X128649306Y-101470500D01*
X128649309Y-101470500D01*
X128763886Y-101439799D01*
X128866613Y-101380489D01*
X128915283Y-101331819D01*
X128976606Y-101298334D01*
X129002964Y-101295500D01*
X131154799Y-101295500D01*
X131154800Y-101295500D01*
X131256058Y-101253557D01*
X131333557Y-101176058D01*
X131773557Y-100736058D01*
X131774192Y-100734524D01*
X131774209Y-100734502D01*
X131774202Y-100734500D01*
X131805263Y-100659513D01*
X131815500Y-100634800D01*
X131815500Y-99875477D01*
X131835185Y-99808438D01*
X131851819Y-99787796D01*
X132748984Y-98890631D01*
X132827820Y-98811795D01*
X132889142Y-98778311D01*
X132958834Y-98783295D01*
X133014767Y-98825167D01*
X133039184Y-98890631D01*
X133039500Y-98899477D01*
X133039500Y-100411517D01*
X133048111Y-100465885D01*
X133054354Y-100505304D01*
X133111950Y-100618342D01*
X133111952Y-100618344D01*
X133111954Y-100618347D01*
X133201652Y-100708045D01*
X133201654Y-100708046D01*
X133201658Y-100708050D01*
X133314696Y-100765646D01*
X133314698Y-100765647D01*
X133408475Y-100780499D01*
X133408481Y-100780500D01*
X133799521Y-100780499D01*
X133866560Y-100800183D01*
X133887202Y-100816818D01*
X135108181Y-102037796D01*
X135141666Y-102099119D01*
X135144500Y-102125477D01*
X135144500Y-115944522D01*
X135124815Y-116011561D01*
X135108181Y-116032203D01*
X134812204Y-116328181D01*
X134750881Y-116361666D01*
X134724523Y-116364500D01*
X133795199Y-116364500D01*
X133764394Y-116377260D01*
X133733588Y-116390021D01*
X133733586Y-116390022D01*
X133693941Y-116406442D01*
X133401442Y-116698943D01*
X133323944Y-116776440D01*
X133282000Y-116877699D01*
X133282000Y-117148681D01*
X133262315Y-117215720D01*
X133209511Y-117261475D01*
X133177397Y-117271154D01*
X133157200Y-117274352D01*
X133157199Y-117274352D01*
X133117602Y-117294528D01*
X133044158Y-117331950D01*
X133044157Y-117331951D01*
X133044152Y-117331954D01*
X132954454Y-117421652D01*
X132954451Y-117421657D01*
X132896852Y-117534698D01*
X132882000Y-117628475D01*
X132882000Y-118094520D01*
X132862315Y-118161559D01*
X132845681Y-118182201D01*
X132243944Y-118783940D01*
X132243943Y-118783941D01*
X132243942Y-118783943D01*
X132202606Y-118825279D01*
X132162179Y-118865706D01*
X132100855Y-118899190D01*
X132031164Y-118894206D01*
X131975230Y-118852334D01*
X131950814Y-118786869D01*
X131950498Y-118778047D01*
X131950498Y-118607868D01*
X131934514Y-118527505D01*
X131934512Y-118527502D01*
X131929840Y-118516222D01*
X131931284Y-118515623D01*
X131914562Y-118462211D01*
X131930516Y-118404056D01*
X131929841Y-118403777D01*
X131932069Y-118398396D01*
X131933048Y-118394831D01*
X131934451Y-118392647D01*
X131934515Y-118392493D01*
X131950498Y-118312136D01*
X131950499Y-118312133D01*
X131950498Y-118107868D01*
X131934514Y-118027505D01*
X131934512Y-118027502D01*
X131929840Y-118016222D01*
X131931284Y-118015623D01*
X131914562Y-117962211D01*
X131930516Y-117904056D01*
X131929841Y-117903777D01*
X131932069Y-117898396D01*
X131933048Y-117894831D01*
X131934451Y-117892647D01*
X131934515Y-117892493D01*
X131950498Y-117812136D01*
X131950499Y-117812133D01*
X131950498Y-117607868D01*
X131934514Y-117527505D01*
X131934512Y-117527502D01*
X131929840Y-117516222D01*
X131931284Y-117515623D01*
X131914562Y-117462211D01*
X131930516Y-117404056D01*
X131929841Y-117403777D01*
X131932069Y-117398396D01*
X131933048Y-117394831D01*
X131934451Y-117392647D01*
X131934515Y-117392493D01*
X131950498Y-117312136D01*
X131950499Y-117312133D01*
X131950498Y-117107868D01*
X131934514Y-117027505D01*
X131934512Y-117027502D01*
X131929840Y-117016222D01*
X131931284Y-117015623D01*
X131914562Y-116962211D01*
X131930516Y-116904057D01*
X131929841Y-116903778D01*
X131932068Y-116898399D01*
X131933048Y-116894831D01*
X131934451Y-116892648D01*
X131934515Y-116892494D01*
X131950498Y-116812137D01*
X131950499Y-116812134D01*
X131950498Y-116607869D01*
X131934514Y-116527506D01*
X131934512Y-116527503D01*
X131929840Y-116516223D01*
X131931284Y-116515624D01*
X131914561Y-116462214D01*
X131930515Y-116404056D01*
X131929841Y-116403777D01*
X131932063Y-116398411D01*
X131933045Y-116394834D01*
X131934453Y-116392643D01*
X131934515Y-116392493D01*
X131950498Y-116312136D01*
X131950499Y-116312133D01*
X131950498Y-116107868D01*
X131934514Y-116027505D01*
X131904870Y-115983140D01*
X131873623Y-115936375D01*
X131811447Y-115894831D01*
X131782494Y-115875485D01*
X131782492Y-115875484D01*
X131782489Y-115875483D01*
X131702135Y-115859500D01*
X130322869Y-115859500D01*
X130242503Y-115875485D01*
X130151374Y-115936375D01*
X130090484Y-116027505D01*
X130090482Y-116027509D01*
X130074499Y-116107863D01*
X130074499Y-116312129D01*
X130090484Y-116392495D01*
X130095158Y-116403778D01*
X130093713Y-116404376D01*
X130110436Y-116457789D01*
X130094480Y-116515944D01*
X130095157Y-116516225D01*
X130092926Y-116521609D01*
X130091950Y-116525169D01*
X130090549Y-116527348D01*
X130090482Y-116527508D01*
X130074499Y-116607864D01*
X130074499Y-116812130D01*
X130090484Y-116892497D01*
X130095159Y-116903783D01*
X130093712Y-116904381D01*
X130110434Y-116957792D01*
X130094479Y-117015938D01*
X130095158Y-117016219D01*
X130092919Y-117021622D01*
X130091946Y-117025172D01*
X130090550Y-117027343D01*
X130090483Y-117027505D01*
X130074499Y-117107863D01*
X130074499Y-117312129D01*
X130090485Y-117392498D01*
X130095158Y-117403780D01*
X130093713Y-117404378D01*
X130110435Y-117457788D01*
X130094481Y-117515938D01*
X130095158Y-117516219D01*
X130092925Y-117521609D01*
X130091949Y-117525168D01*
X130090549Y-117527345D01*
X130090483Y-117527505D01*
X130074499Y-117607863D01*
X130074499Y-117812129D01*
X130077476Y-117827095D01*
X130088554Y-117882794D01*
X130090485Y-117892498D01*
X130095158Y-117903780D01*
X130093713Y-117904378D01*
X130110435Y-117957788D01*
X130094481Y-118015938D01*
X130095158Y-118016219D01*
X130092925Y-118021609D01*
X130091949Y-118025168D01*
X130090549Y-118027345D01*
X130090483Y-118027505D01*
X130074499Y-118107863D01*
X130074499Y-118312129D01*
X130090485Y-118392498D01*
X130095158Y-118403780D01*
X130093713Y-118404378D01*
X130110435Y-118457788D01*
X130094481Y-118515938D01*
X130095158Y-118516219D01*
X130092925Y-118521609D01*
X130091949Y-118525168D01*
X130090549Y-118527345D01*
X130090483Y-118527505D01*
X130074499Y-118607863D01*
X130074499Y-118812129D01*
X130090484Y-118892496D01*
X130095159Y-118903782D01*
X130093712Y-118904380D01*
X130110434Y-118957791D01*
X130094479Y-119015937D01*
X130095158Y-119016218D01*
X130092919Y-119021621D01*
X130091946Y-119025171D01*
X130090550Y-119027342D01*
X130090483Y-119027504D01*
X130074499Y-119107862D01*
X130074499Y-119312128D01*
X130090484Y-119392494D01*
X130095158Y-119403777D01*
X130093713Y-119404375D01*
X130110436Y-119457788D01*
X130094480Y-119515943D01*
X130095157Y-119516224D01*
X130092926Y-119521608D01*
X130091950Y-119525168D01*
X130090549Y-119527347D01*
X130090482Y-119527507D01*
X130074499Y-119607863D01*
X130074499Y-119812129D01*
X130090485Y-119892498D01*
X130095158Y-119903780D01*
X130093713Y-119904378D01*
X130110435Y-119957788D01*
X130094481Y-120015938D01*
X130095158Y-120016219D01*
X130092925Y-120021609D01*
X130091949Y-120025168D01*
X130090549Y-120027345D01*
X130090483Y-120027505D01*
X130074499Y-120107863D01*
X130074499Y-120312129D01*
X130074500Y-120312132D01*
X130090123Y-120390682D01*
X130090485Y-120392498D01*
X130095158Y-120403780D01*
X130093713Y-120404378D01*
X130110435Y-120457788D01*
X130104233Y-120498784D01*
X130098944Y-120514842D01*
X130090484Y-120527505D01*
X130083938Y-120560412D01*
X130081571Y-120567601D01*
X130065858Y-120590386D01*
X130053024Y-120614920D01*
X130046297Y-120618749D01*
X130041905Y-120625120D01*
X130016364Y-120635794D01*
X129992307Y-120649493D01*
X129984579Y-120649078D01*
X129977439Y-120652063D01*
X129950178Y-120647234D01*
X129922538Y-120645752D01*
X129915001Y-120641002D01*
X129908641Y-120639876D01*
X129898874Y-120630840D01*
X129876112Y-120616497D01*
X129806059Y-120546444D01*
X129806058Y-120546443D01*
X129806056Y-120546442D01*
X129794546Y-120541674D01*
X129704800Y-120504500D01*
X127375200Y-120504500D01*
X127375199Y-120504500D01*
X127339436Y-120519314D01*
X127285453Y-120541674D01*
X127273943Y-120546442D01*
X127273940Y-120546444D01*
X126866443Y-120953941D01*
X126824499Y-121055200D01*
X126824499Y-121060500D01*
X126804814Y-121127539D01*
X126752010Y-121173294D01*
X126700500Y-121184500D01*
X126497869Y-121184500D01*
X126437866Y-121196434D01*
X126417504Y-121200485D01*
X126417503Y-121200485D01*
X126417500Y-121200486D01*
X126406219Y-121205159D01*
X126405620Y-121203714D01*
X126352203Y-121220436D01*
X126294060Y-121204481D01*
X126293780Y-121205159D01*
X126288382Y-121202923D01*
X126284824Y-121201947D01*
X126282647Y-121200547D01*
X126282493Y-121200484D01*
X126202134Y-121184500D01*
X125997869Y-121184500D01*
X125937866Y-121196434D01*
X125917504Y-121200485D01*
X125917503Y-121200485D01*
X125917500Y-121200486D01*
X125906219Y-121205159D01*
X125905620Y-121203714D01*
X125852203Y-121220436D01*
X125794055Y-121204480D01*
X125793775Y-121205158D01*
X125788377Y-121202922D01*
X125784824Y-121201947D01*
X125782651Y-121200549D01*
X125782490Y-121200483D01*
X125702135Y-121184500D01*
X125497870Y-121184500D01*
X125417503Y-121200485D01*
X125406218Y-121205160D01*
X125405619Y-121203714D01*
X125352203Y-121220436D01*
X125294056Y-121204480D01*
X125293776Y-121205158D01*
X125288379Y-121202922D01*
X125284824Y-121201947D01*
X125282650Y-121200549D01*
X125282492Y-121200483D01*
X125202134Y-121184500D01*
X124997869Y-121184500D01*
X124937866Y-121196434D01*
X124917504Y-121200485D01*
X124917503Y-121200485D01*
X124917500Y-121200486D01*
X124906219Y-121205159D01*
X124905620Y-121203714D01*
X124852203Y-121220436D01*
X124794060Y-121204481D01*
X124793780Y-121205159D01*
X124788382Y-121202923D01*
X124784824Y-121201947D01*
X124782647Y-121200547D01*
X124782493Y-121200484D01*
X124702134Y-121184500D01*
X124702132Y-121184500D01*
X124702064Y-121184500D01*
X124491776Y-121184501D01*
X124491775Y-121181871D01*
X124434300Y-121170902D01*
X124383647Y-121122777D01*
X124367052Y-121054907D01*
X124389785Y-120988839D01*
X124403234Y-120972911D01*
X124950460Y-120425686D01*
X124961432Y-120406682D01*
X124990021Y-120357164D01*
X125010500Y-120280737D01*
X125010500Y-119320438D01*
X124990021Y-119244011D01*
X124990017Y-119244004D01*
X124950464Y-119175495D01*
X124950458Y-119175487D01*
X124244510Y-118469539D01*
X124211463Y-118450460D01*
X124203125Y-118445646D01*
X124203124Y-118445645D01*
X124175994Y-118429981D01*
X124175991Y-118429979D01*
X124137775Y-118419739D01*
X124099562Y-118409500D01*
X124099560Y-118409500D01*
X123749499Y-118409500D01*
X123682460Y-118389815D01*
X123636705Y-118337011D01*
X123625499Y-118285501D01*
X123625498Y-118107870D01*
X123625498Y-118107868D01*
X123609514Y-118027505D01*
X123609512Y-118027502D01*
X123604840Y-118016222D01*
X123606284Y-118015623D01*
X123589562Y-117962211D01*
X123605516Y-117904056D01*
X123604841Y-117903777D01*
X123607069Y-117898396D01*
X123608048Y-117894831D01*
X123609451Y-117892647D01*
X123609515Y-117892493D01*
X123625498Y-117812136D01*
X123625499Y-117812133D01*
X123625498Y-117607868D01*
X123609514Y-117527505D01*
X123609512Y-117527502D01*
X123604840Y-117516222D01*
X123606284Y-117515623D01*
X123589562Y-117462211D01*
X123605516Y-117404056D01*
X123604841Y-117403777D01*
X123607069Y-117398396D01*
X123608048Y-117394831D01*
X123609451Y-117392647D01*
X123609515Y-117392493D01*
X123625498Y-117312136D01*
X123625499Y-117312133D01*
X123625498Y-117107868D01*
X123609514Y-117027505D01*
X123609512Y-117027502D01*
X123604840Y-117016222D01*
X123606284Y-117015623D01*
X123589562Y-116962211D01*
X123605516Y-116904057D01*
X123604841Y-116903778D01*
X123607068Y-116898399D01*
X123608048Y-116894831D01*
X123609451Y-116892648D01*
X123609515Y-116892494D01*
X123625498Y-116812137D01*
X123625499Y-116812134D01*
X123625498Y-116607869D01*
X123609514Y-116527506D01*
X123609512Y-116527503D01*
X123604840Y-116516223D01*
X123606284Y-116515624D01*
X123589561Y-116462214D01*
X123605515Y-116404056D01*
X123604841Y-116403777D01*
X123607063Y-116398411D01*
X123608045Y-116394834D01*
X123609453Y-116392643D01*
X123609515Y-116392493D01*
X123625498Y-116312136D01*
X123625499Y-116312133D01*
X123625498Y-116107868D01*
X123609514Y-116027505D01*
X123609512Y-116027502D01*
X123604840Y-116016222D01*
X123606284Y-116015623D01*
X123589562Y-115962211D01*
X123605516Y-115904056D01*
X123604841Y-115903777D01*
X123607069Y-115898396D01*
X123608048Y-115894831D01*
X123609451Y-115892647D01*
X123609515Y-115892493D01*
X123625498Y-115812136D01*
X123625499Y-115812133D01*
X123625498Y-115609500D01*
X123645182Y-115542461D01*
X123697986Y-115496706D01*
X123749498Y-115485500D01*
X124954522Y-115485500D01*
X124978349Y-115492496D01*
X125003017Y-115495376D01*
X125014465Y-115503101D01*
X125021561Y-115505185D01*
X125033205Y-115513661D01*
X125037901Y-115517516D01*
X125143941Y-115623557D01*
X125173599Y-115635841D01*
X125245200Y-115665500D01*
X125245203Y-115665500D01*
X129664799Y-115665500D01*
X129664800Y-115665500D01*
X129766058Y-115623557D01*
X129843557Y-115546058D01*
X129946249Y-115443365D01*
X130007569Y-115409881D01*
X130077260Y-115414865D01*
X130133194Y-115456736D01*
X130137030Y-115462156D01*
X130151374Y-115483624D01*
X130170953Y-115496706D01*
X130242504Y-115544515D01*
X130242507Y-115544515D01*
X130242508Y-115544516D01*
X130282685Y-115552507D01*
X130322866Y-115560500D01*
X131702131Y-115560499D01*
X131782494Y-115544515D01*
X131832056Y-115511397D01*
X131850102Y-115505747D01*
X131866012Y-115495523D01*
X131896971Y-115491071D01*
X131898733Y-115490520D01*
X131900947Y-115490500D01*
X132080500Y-115490500D01*
X132147539Y-115510185D01*
X132193294Y-115562989D01*
X132204500Y-115614500D01*
X132204500Y-115833493D01*
X132220279Y-115933121D01*
X132220280Y-115933124D01*
X132220281Y-115933126D01*
X132281472Y-116053220D01*
X132281473Y-116053221D01*
X132281476Y-116053225D01*
X132376774Y-116148523D01*
X132376778Y-116148526D01*
X132376780Y-116148528D01*
X132496874Y-116209719D01*
X132496876Y-116209719D01*
X132496878Y-116209720D01*
X132596507Y-116225500D01*
X132596512Y-116225500D01*
X133113493Y-116225500D01*
X133213121Y-116209720D01*
X133213121Y-116209719D01*
X133213126Y-116209719D01*
X133333220Y-116148528D01*
X133428528Y-116053220D01*
X133489719Y-115933126D01*
X133492831Y-115913479D01*
X133505500Y-115833493D01*
X133505500Y-115266506D01*
X133489720Y-115166878D01*
X133489719Y-115166876D01*
X133489719Y-115166874D01*
X133428528Y-115046780D01*
X133428526Y-115046778D01*
X133428523Y-115046774D01*
X133333225Y-114951476D01*
X133333222Y-114951474D01*
X133333220Y-114951472D01*
X133218204Y-114892868D01*
X133167409Y-114844894D01*
X133150500Y-114782384D01*
X133150500Y-114447964D01*
X133170185Y-114380925D01*
X133186819Y-114360283D01*
X133210489Y-114336613D01*
X133269799Y-114233886D01*
X133300500Y-114119309D01*
X133300500Y-114000691D01*
X133269799Y-113886114D01*
X133210489Y-113783387D01*
X133126613Y-113699511D01*
X133023886Y-113640201D01*
X132909309Y-113609500D01*
X132790691Y-113609500D01*
X132685505Y-113637684D01*
X132676110Y-113640202D01*
X132624176Y-113670187D01*
X132556276Y-113686660D01*
X132490249Y-113663808D01*
X132447058Y-113608886D01*
X132440417Y-113539333D01*
X132472433Y-113477230D01*
X132474469Y-113475144D01*
X133012896Y-112936718D01*
X133074217Y-112903235D01*
X133143909Y-112908219D01*
X133148026Y-112909839D01*
X133293580Y-112970130D01*
X133483328Y-113007873D01*
X133496530Y-113010499D01*
X133496534Y-113010500D01*
X133496535Y-113010500D01*
X133703466Y-113010500D01*
X133703467Y-113010499D01*
X133906420Y-112970130D01*
X134097598Y-112890941D01*
X134269655Y-112775977D01*
X134415977Y-112629655D01*
X134530941Y-112457598D01*
X134610130Y-112266420D01*
X134650500Y-112063465D01*
X134650500Y-111856535D01*
X134610130Y-111653580D01*
X134530941Y-111462402D01*
X134415977Y-111290345D01*
X134415975Y-111290342D01*
X134269657Y-111144024D01*
X134103303Y-111032871D01*
X134097598Y-111029059D01*
X134037378Y-111004115D01*
X133906420Y-110949870D01*
X133906412Y-110949868D01*
X133703469Y-110909500D01*
X133703465Y-110909500D01*
X133496535Y-110909500D01*
X133496530Y-110909500D01*
X133293587Y-110949868D01*
X133293579Y-110949870D01*
X133102403Y-111029058D01*
X132930342Y-111144024D01*
X132784024Y-111290342D01*
X132669057Y-111462404D01*
X132644061Y-111522751D01*
X132600219Y-111577155D01*
X132533925Y-111599219D01*
X132466226Y-111581939D01*
X132418616Y-111530802D01*
X132405500Y-111475298D01*
X132405500Y-111055476D01*
X132425185Y-110988437D01*
X132441815Y-110967799D01*
X133012896Y-110396717D01*
X133074217Y-110363234D01*
X133143908Y-110368218D01*
X133147960Y-110369811D01*
X133293580Y-110430130D01*
X133479678Y-110467147D01*
X133496530Y-110470499D01*
X133496534Y-110470500D01*
X133496535Y-110470500D01*
X133703466Y-110470500D01*
X133703467Y-110470499D01*
X133906420Y-110430130D01*
X134097598Y-110350941D01*
X134269655Y-110235977D01*
X134415977Y-110089655D01*
X134530941Y-109917598D01*
X134610130Y-109726420D01*
X134650500Y-109523465D01*
X134650500Y-109316535D01*
X134610130Y-109113580D01*
X134530941Y-108922402D01*
X134415977Y-108750345D01*
X134415975Y-108750342D01*
X134269657Y-108604024D01*
X134103303Y-108492871D01*
X134097598Y-108489059D01*
X133906420Y-108409870D01*
X133906412Y-108409868D01*
X133703469Y-108369500D01*
X133703465Y-108369500D01*
X133496535Y-108369500D01*
X133496530Y-108369500D01*
X133293587Y-108409868D01*
X133293579Y-108409870D01*
X133102403Y-108489058D01*
X132930342Y-108604024D01*
X132784024Y-108750342D01*
X132669058Y-108922403D01*
X132589870Y-109113579D01*
X132589868Y-109113587D01*
X132561117Y-109258129D01*
X132528732Y-109320040D01*
X132468017Y-109354614D01*
X132398247Y-109350875D01*
X132341575Y-109310008D01*
X132315994Y-109244990D01*
X132315500Y-109233938D01*
X132315500Y-108605477D01*
X132335185Y-108538438D01*
X132351819Y-108517796D01*
X132678788Y-108190827D01*
X133012896Y-107856718D01*
X133074217Y-107823235D01*
X133143908Y-107828219D01*
X133148026Y-107829839D01*
X133293580Y-107890130D01*
X133495826Y-107930359D01*
X133496530Y-107930499D01*
X133496534Y-107930500D01*
X133496535Y-107930500D01*
X133703466Y-107930500D01*
X133703467Y-107930499D01*
X133906420Y-107890130D01*
X134097598Y-107810941D01*
X134269655Y-107695977D01*
X134415977Y-107549655D01*
X134530941Y-107377598D01*
X134610130Y-107186420D01*
X134650500Y-106983465D01*
X134650500Y-106776535D01*
X134610130Y-106573580D01*
X134530941Y-106382402D01*
X134415977Y-106210345D01*
X134415975Y-106210342D01*
X134269657Y-106064024D01*
X134183626Y-106006541D01*
X134097598Y-105949059D01*
X134070001Y-105937628D01*
X133906420Y-105869870D01*
X133906412Y-105869868D01*
X133703469Y-105829500D01*
X133703465Y-105829500D01*
X133496535Y-105829500D01*
X133496530Y-105829500D01*
X133293587Y-105869868D01*
X133293579Y-105869870D01*
X133102403Y-105949058D01*
X132930342Y-106064024D01*
X132784024Y-106210342D01*
X132669058Y-106382403D01*
X132589870Y-106573579D01*
X132589868Y-106573587D01*
X132549500Y-106776530D01*
X132549500Y-106983469D01*
X132589868Y-107186412D01*
X132589870Y-107186420D01*
X132650159Y-107331970D01*
X132657628Y-107401440D01*
X132626353Y-107463919D01*
X132623279Y-107467104D01*
X131883942Y-108206443D01*
X131806444Y-108283940D01*
X131764500Y-108385199D01*
X131764500Y-109614522D01*
X131755855Y-109643962D01*
X131749332Y-109673949D01*
X131745577Y-109678964D01*
X131744815Y-109681561D01*
X131728181Y-109702203D01*
X131557181Y-109873203D01*
X131495858Y-109906688D01*
X131426166Y-109901704D01*
X131370233Y-109859832D01*
X131345816Y-109794368D01*
X131345500Y-109785522D01*
X131345500Y-107035477D01*
X131365185Y-106968438D01*
X131381819Y-106947796D01*
X132902797Y-105426819D01*
X132964120Y-105393334D01*
X132990478Y-105390500D01*
X134469750Y-105390500D01*
X134469751Y-105390499D01*
X134484568Y-105387552D01*
X134528229Y-105378868D01*
X134528229Y-105378867D01*
X134528231Y-105378867D01*
X134594552Y-105334552D01*
X134638867Y-105268231D01*
X134638867Y-105268229D01*
X134638868Y-105268229D01*
X134650499Y-105209752D01*
X134650500Y-105209750D01*
X134650500Y-103470249D01*
X134650499Y-103470247D01*
X134638868Y-103411770D01*
X134638867Y-103411769D01*
X134594552Y-103345447D01*
X134528230Y-103301132D01*
X134528229Y-103301131D01*
X134469752Y-103289500D01*
X134469748Y-103289500D01*
X132730252Y-103289500D01*
X132730247Y-103289500D01*
X132671770Y-103301131D01*
X132671769Y-103301132D01*
X132605447Y-103345447D01*
X132561132Y-103411769D01*
X132561131Y-103411770D01*
X132549500Y-103470247D01*
X132549500Y-104949522D01*
X132529815Y-105016561D01*
X132513181Y-105037203D01*
X130913942Y-106636443D01*
X130836444Y-106713940D01*
X130794500Y-106815199D01*
X130794500Y-110084523D01*
X130774815Y-110151562D01*
X130758181Y-110172204D01*
X129987181Y-110943204D01*
X129925858Y-110976689D01*
X129856166Y-110971705D01*
X129800233Y-110929833D01*
X129775816Y-110864369D01*
X129775500Y-110855523D01*
X129775500Y-110681978D01*
X129795185Y-110614939D01*
X129847094Y-110569596D01*
X129880404Y-110554064D01*
X129964065Y-110470403D01*
X130014068Y-110363172D01*
X130020500Y-110314315D01*
X130020500Y-109965683D01*
X130014068Y-109916826D01*
X129964065Y-109809595D01*
X129880404Y-109725934D01*
X129872733Y-109718263D01*
X129875563Y-109715432D01*
X129844855Y-109677051D01*
X129837630Y-109607556D01*
X129869124Y-109545187D01*
X129872905Y-109541909D01*
X129872733Y-109541737D01*
X129916163Y-109498307D01*
X129964065Y-109450405D01*
X130014068Y-109343174D01*
X130020500Y-109294317D01*
X130020500Y-108945685D01*
X130014068Y-108896828D01*
X129964065Y-108789597D01*
X129880404Y-108705936D01*
X129880403Y-108705935D01*
X129847093Y-108690402D01*
X129794655Y-108644229D01*
X129775500Y-108578021D01*
X129775500Y-108235477D01*
X129795185Y-108168438D01*
X129811819Y-108147796D01*
X129825115Y-108134500D01*
X129983557Y-107976059D01*
X130002485Y-107930362D01*
X130025500Y-107874800D01*
X130025500Y-107837655D01*
X130029527Y-107822241D01*
X130039649Y-107805397D01*
X130045185Y-107786545D01*
X130057274Y-107776069D01*
X130065517Y-107762354D01*
X130083140Y-107753656D01*
X130097989Y-107740790D01*
X130126812Y-107732102D01*
X130128172Y-107731432D01*
X130128801Y-107731503D01*
X130130105Y-107731110D01*
X130137420Y-107729952D01*
X130255751Y-107669659D01*
X130349658Y-107575752D01*
X130409951Y-107457421D01*
X130409951Y-107457419D01*
X130409952Y-107457418D01*
X130425500Y-107359252D01*
X130425500Y-106855749D01*
X130409952Y-106757583D01*
X130392471Y-106723275D01*
X130349658Y-106639250D01*
X130349654Y-106639246D01*
X130349653Y-106639244D01*
X130255756Y-106545347D01*
X130255753Y-106545345D01*
X130255751Y-106545343D01*
X130137420Y-106485050D01*
X130137419Y-106485049D01*
X130137416Y-106485048D01*
X130137417Y-106485048D01*
X130039251Y-106469501D01*
X130039246Y-106469501D01*
X129460754Y-106469501D01*
X129460749Y-106469501D01*
X129362582Y-106485048D01*
X129287432Y-106523340D01*
X129244249Y-106545343D01*
X129244248Y-106545344D01*
X129244243Y-106545347D01*
X129150346Y-106639244D01*
X129150341Y-106639251D01*
X129130484Y-106678223D01*
X129082510Y-106729018D01*
X129014689Y-106745813D01*
X128948554Y-106723275D01*
X128909516Y-106678223D01*
X128904968Y-106669298D01*
X128889658Y-106639250D01*
X128889655Y-106639247D01*
X128889653Y-106639244D01*
X128795756Y-106545347D01*
X128795753Y-106545345D01*
X128795751Y-106545343D01*
X128677420Y-106485050D01*
X128677419Y-106485049D01*
X128677416Y-106485048D01*
X128677417Y-106485048D01*
X128579251Y-106469501D01*
X128579246Y-106469501D01*
X128000754Y-106469501D01*
X128000749Y-106469501D01*
X127902582Y-106485048D01*
X127827432Y-106523340D01*
X127784249Y-106545343D01*
X127784248Y-106545344D01*
X127784243Y-106545347D01*
X127690346Y-106639244D01*
X127690343Y-106639249D01*
X127690342Y-106639250D01*
X127674345Y-106670645D01*
X127630047Y-106757583D01*
X127614500Y-106855749D01*
X127614500Y-107359252D01*
X127630047Y-107457418D01*
X127644602Y-107485983D01*
X127690342Y-107575752D01*
X127690344Y-107575754D01*
X127690346Y-107575757D01*
X127784243Y-107669654D01*
X127784245Y-107669655D01*
X127784249Y-107669659D01*
X127902580Y-107729952D01*
X127909893Y-107731110D01*
X127973029Y-107761037D01*
X128009962Y-107820347D01*
X128014500Y-107853584D01*
X128014500Y-107904802D01*
X128044016Y-107976058D01*
X128056442Y-108006056D01*
X128056444Y-108006059D01*
X128248181Y-108197796D01*
X128281666Y-108259119D01*
X128284500Y-108285477D01*
X128284500Y-108578021D01*
X128264815Y-108645060D01*
X128212907Y-108690402D01*
X128179596Y-108705935D01*
X128095935Y-108789596D01*
X128045931Y-108896829D01*
X128039500Y-108945684D01*
X128039500Y-109294317D01*
X128045931Y-109343172D01*
X128095935Y-109450405D01*
X128187267Y-109541737D01*
X128184441Y-109544562D01*
X128215170Y-109583014D01*
X128222356Y-109652513D01*
X128190827Y-109714864D01*
X128187098Y-109718094D01*
X128187267Y-109718263D01*
X128095935Y-109809594D01*
X128045931Y-109916827D01*
X128039500Y-109965682D01*
X128039500Y-110314315D01*
X128045931Y-110363170D01*
X128064971Y-110404000D01*
X128095935Y-110470403D01*
X128179596Y-110554064D01*
X128212905Y-110569596D01*
X128265343Y-110615767D01*
X128284500Y-110681978D01*
X128284500Y-111424522D01*
X128264815Y-111491561D01*
X128248181Y-111512203D01*
X127443941Y-112316444D01*
X127366443Y-112393941D01*
X127324499Y-112495200D01*
X127324499Y-112735500D01*
X127304814Y-112802539D01*
X127252010Y-112848294D01*
X127200500Y-112859500D01*
X126997869Y-112859500D01*
X126937866Y-112871434D01*
X126917504Y-112875485D01*
X126917503Y-112875485D01*
X126917500Y-112875486D01*
X126906219Y-112880159D01*
X126905620Y-112878714D01*
X126852203Y-112895436D01*
X126794060Y-112879481D01*
X126793780Y-112880159D01*
X126788382Y-112877923D01*
X126784824Y-112876947D01*
X126782647Y-112875547D01*
X126782493Y-112875484D01*
X126702135Y-112859500D01*
X126514500Y-112859500D01*
X126447461Y-112839815D01*
X126401706Y-112787011D01*
X126390500Y-112735500D01*
X126390500Y-111709500D01*
X126410185Y-111642461D01*
X126462989Y-111596706D01*
X126514500Y-111585500D01*
X126876518Y-111585500D01*
X126876519Y-111585500D01*
X126970305Y-111570647D01*
X127083343Y-111513051D01*
X127173051Y-111423343D01*
X127230647Y-111310305D01*
X127230647Y-111310303D01*
X127230648Y-111310302D01*
X127245500Y-111216525D01*
X127245501Y-111216520D01*
X127245500Y-110753483D01*
X127230647Y-110659697D01*
X127173051Y-110546659D01*
X127173047Y-110546655D01*
X127173046Y-110546653D01*
X127083348Y-110456955D01*
X127083345Y-110456953D01*
X127083343Y-110456951D01*
X126994125Y-110411492D01*
X126970302Y-110399353D01*
X126876525Y-110384501D01*
X126263483Y-110384501D01*
X126186341Y-110396719D01*
X126169697Y-110399355D01*
X126056659Y-110456951D01*
X126056658Y-110456952D01*
X126056653Y-110456955D01*
X125966955Y-110546653D01*
X125966949Y-110546661D01*
X125950483Y-110578977D01*
X125902508Y-110629771D01*
X125834686Y-110646565D01*
X125768552Y-110624026D01*
X125729517Y-110578976D01*
X125713050Y-110546658D01*
X125713048Y-110546656D01*
X125713045Y-110546652D01*
X125623347Y-110456954D01*
X125623344Y-110456952D01*
X125623342Y-110456950D01*
X125534126Y-110411492D01*
X125510301Y-110399352D01*
X125416524Y-110384500D01*
X124803482Y-110384500D01*
X124726334Y-110396719D01*
X124709696Y-110399354D01*
X124596658Y-110456950D01*
X124596657Y-110456951D01*
X124596652Y-110456954D01*
X124506954Y-110546652D01*
X124506952Y-110546656D01*
X124506950Y-110546658D01*
X124493221Y-110573603D01*
X124449352Y-110659698D01*
X124434500Y-110753475D01*
X124434500Y-111216517D01*
X124443465Y-111273121D01*
X124449354Y-111310304D01*
X124506950Y-111423342D01*
X124506952Y-111423344D01*
X124506954Y-111423347D01*
X124596652Y-111513045D01*
X124596654Y-111513046D01*
X124596658Y-111513050D01*
X124709696Y-111570646D01*
X124709698Y-111570647D01*
X124803475Y-111585499D01*
X124803481Y-111585500D01*
X125190500Y-111585499D01*
X125257539Y-111605183D01*
X125303294Y-111657987D01*
X125314500Y-111709499D01*
X125314500Y-112735500D01*
X125294815Y-112802539D01*
X125242011Y-112848294D01*
X125190501Y-112859500D01*
X124997869Y-112859500D01*
X124917503Y-112875485D01*
X124826374Y-112936375D01*
X124765484Y-113027505D01*
X124765482Y-113027509D01*
X124749499Y-113107862D01*
X124749499Y-114487129D01*
X124765484Y-114567495D01*
X124803601Y-114624540D01*
X124809251Y-114642586D01*
X124819476Y-114658496D01*
X124823927Y-114689455D01*
X124824479Y-114691217D01*
X124824499Y-114693431D01*
X124824499Y-114810500D01*
X124804814Y-114877539D01*
X124752010Y-114923294D01*
X124700499Y-114934500D01*
X124369519Y-114934500D01*
X124302480Y-114914815D01*
X124256725Y-114862011D01*
X124246781Y-114792853D01*
X124275806Y-114729297D01*
X124300628Y-114707398D01*
X124324845Y-114691217D01*
X124373623Y-114658624D01*
X124434514Y-114567495D01*
X124450499Y-114487133D01*
X124450498Y-113107868D01*
X124434514Y-113027505D01*
X124434513Y-113027503D01*
X124434512Y-113027501D01*
X124421397Y-113007873D01*
X124400519Y-112941195D01*
X124400499Y-112938982D01*
X124400499Y-112710438D01*
X124400499Y-112710437D01*
X124380020Y-112634010D01*
X124357226Y-112594529D01*
X124340463Y-112565494D01*
X124340457Y-112565486D01*
X123796819Y-112021848D01*
X123763334Y-111960525D01*
X123760500Y-111934167D01*
X123760500Y-111666656D01*
X123780185Y-111599617D01*
X123832989Y-111553862D01*
X123841481Y-111550556D01*
X123843122Y-111549719D01*
X123843126Y-111549719D01*
X123963220Y-111488528D01*
X124058528Y-111393220D01*
X124119719Y-111273126D01*
X124121769Y-111260185D01*
X124135500Y-111173493D01*
X124135500Y-110656506D01*
X124119720Y-110556878D01*
X124119719Y-110556876D01*
X124119719Y-110556874D01*
X124058528Y-110436780D01*
X124058526Y-110436778D01*
X124058523Y-110436774D01*
X123963225Y-110341476D01*
X123963221Y-110341473D01*
X123963220Y-110341472D01*
X123843126Y-110280281D01*
X123843124Y-110280280D01*
X123843121Y-110280279D01*
X123743493Y-110264500D01*
X123743488Y-110264500D01*
X123176512Y-110264500D01*
X123176507Y-110264500D01*
X123076878Y-110280279D01*
X122956778Y-110341473D01*
X122956774Y-110341476D01*
X122861476Y-110436774D01*
X122861471Y-110436781D01*
X122826092Y-110506215D01*
X122806776Y-110526666D01*
X122789918Y-110549186D01*
X122783108Y-110551725D01*
X122778117Y-110557011D01*
X122750808Y-110563773D01*
X122724454Y-110573603D01*
X122717351Y-110572057D01*
X122710296Y-110573805D01*
X122683667Y-110564730D01*
X122656181Y-110558751D01*
X122647873Y-110552532D01*
X122644161Y-110551267D01*
X122627927Y-110537600D01*
X122501819Y-110411492D01*
X122468334Y-110350169D01*
X122465500Y-110323811D01*
X122465500Y-108134500D01*
X122485185Y-108067461D01*
X122537989Y-108021706D01*
X122589500Y-108010500D01*
X123527990Y-108010500D01*
X123595029Y-108030185D01*
X123638474Y-108078204D01*
X123686949Y-108173340D01*
X123686954Y-108173347D01*
X123776652Y-108263045D01*
X123776654Y-108263046D01*
X123776658Y-108263050D01*
X123889694Y-108320645D01*
X123889698Y-108320647D01*
X123983475Y-108335499D01*
X123983481Y-108335500D01*
X124596518Y-108335499D01*
X124690304Y-108320646D01*
X124803342Y-108263050D01*
X124893050Y-108173342D01*
X124950646Y-108060304D01*
X124950646Y-108060302D01*
X124950647Y-108060301D01*
X124965499Y-107966524D01*
X124965500Y-107966519D01*
X124965499Y-107503482D01*
X124950646Y-107409696D01*
X124893050Y-107296658D01*
X124893046Y-107296654D01*
X124893045Y-107296652D01*
X124803347Y-107206954D01*
X124803344Y-107206952D01*
X124803342Y-107206950D01*
X124726517Y-107167805D01*
X124690301Y-107149352D01*
X124596524Y-107134500D01*
X123983482Y-107134500D01*
X123902519Y-107147323D01*
X123889696Y-107149354D01*
X123776658Y-107206950D01*
X123776657Y-107206951D01*
X123776652Y-107206954D01*
X123686954Y-107296652D01*
X123686949Y-107296659D01*
X123638474Y-107391796D01*
X123590500Y-107442591D01*
X123527990Y-107459500D01*
X122563959Y-107459500D01*
X122537248Y-107451656D01*
X122509786Y-107447041D01*
X122504181Y-107441947D01*
X122496920Y-107439815D01*
X122478692Y-107418779D01*
X122458082Y-107400046D01*
X122453803Y-107390056D01*
X122451165Y-107387011D01*
X122444187Y-107367602D01*
X122443321Y-107364371D01*
X122443319Y-107364364D01*
X122443318Y-107364361D01*
X122424617Y-107331970D01*
X122400465Y-107290138D01*
X121729862Y-106619535D01*
X121692750Y-106598108D01*
X121655640Y-106576682D01*
X121614246Y-106565591D01*
X121572853Y-106554500D01*
X121572852Y-106554500D01*
X121145081Y-106554500D01*
X121078042Y-106534815D01*
X121032287Y-106482011D01*
X121030520Y-106477953D01*
X120990942Y-106382403D01*
X120875975Y-106210342D01*
X120729657Y-106064024D01*
X120643626Y-106006541D01*
X120557598Y-105949059D01*
X120530001Y-105937628D01*
X120366420Y-105869870D01*
X120366412Y-105869868D01*
X120163469Y-105829500D01*
X120163465Y-105829500D01*
X119956535Y-105829500D01*
X119956530Y-105829500D01*
X119753587Y-105869868D01*
X119753575Y-105869871D01*
X119608027Y-105930159D01*
X119538558Y-105937628D01*
X119476079Y-105906353D01*
X119472894Y-105903279D01*
X119171796Y-105602181D01*
X119138311Y-105540858D01*
X119143295Y-105471166D01*
X119185167Y-105415233D01*
X119250631Y-105390816D01*
X119259477Y-105390500D01*
X120929750Y-105390500D01*
X120929751Y-105390499D01*
X120944568Y-105387552D01*
X120988229Y-105378868D01*
X120988229Y-105378867D01*
X120988231Y-105378867D01*
X121054552Y-105334552D01*
X121098867Y-105268231D01*
X121098867Y-105268229D01*
X121098868Y-105268229D01*
X121110499Y-105209752D01*
X121110500Y-105209750D01*
X121110500Y-103470249D01*
X121110499Y-103470247D01*
X121098868Y-103411770D01*
X121098867Y-103411769D01*
X121054552Y-103345447D01*
X120988230Y-103301132D01*
X120988229Y-103301131D01*
X120929752Y-103289500D01*
X120929748Y-103289500D01*
X119190252Y-103289500D01*
X119190247Y-103289500D01*
X119131770Y-103301131D01*
X119131769Y-103301132D01*
X119065447Y-103345447D01*
X119021132Y-103411769D01*
X119021131Y-103411770D01*
X119009500Y-103470247D01*
X119009500Y-105140523D01*
X118989815Y-105207562D01*
X118937011Y-105253317D01*
X118867853Y-105263261D01*
X118804297Y-105234236D01*
X118797819Y-105228204D01*
X118611819Y-105042204D01*
X118578334Y-104980881D01*
X118575500Y-104954523D01*
X118575500Y-101175477D01*
X118595185Y-101108438D01*
X118611819Y-101087796D01*
X119446464Y-100253151D01*
X120333557Y-99366059D01*
X120356339Y-99311057D01*
X120375500Y-99264800D01*
X120375500Y-97732903D01*
X120395185Y-97665864D01*
X120447989Y-97620109D01*
X120480100Y-97610430D01*
X120510304Y-97605647D01*
X120623342Y-97548051D01*
X120713050Y-97458343D01*
X120770646Y-97345305D01*
X120770646Y-97345303D01*
X120770647Y-97345302D01*
X120781282Y-97278148D01*
X120785500Y-97251520D01*
X120785499Y-96788483D01*
X120770646Y-96694697D01*
X120713050Y-96581659D01*
X120713046Y-96581655D01*
X120713045Y-96581653D01*
X120623347Y-96491955D01*
X120623344Y-96491953D01*
X120623342Y-96491951D01*
X120546517Y-96452806D01*
X120510301Y-96434353D01*
X120416524Y-96419501D01*
X120416519Y-96419501D01*
X120288103Y-96419501D01*
X120240652Y-96410062D01*
X120154800Y-96374501D01*
X120045200Y-96374501D01*
X120045197Y-96374501D01*
X119959348Y-96410062D01*
X119911896Y-96419501D01*
X119803482Y-96419501D01*
X119722519Y-96432324D01*
X119709696Y-96434355D01*
X119596658Y-96491951D01*
X119596657Y-96491952D01*
X119596652Y-96491955D01*
X119506954Y-96581653D01*
X119506951Y-96581658D01*
X119449352Y-96694699D01*
X119434500Y-96788476D01*
X119434500Y-97251518D01*
X119441616Y-97296444D01*
X119449354Y-97345305D01*
X119506950Y-97458343D01*
X119506952Y-97458345D01*
X119506954Y-97458348D01*
X119596652Y-97548046D01*
X119596654Y-97548047D01*
X119596658Y-97548051D01*
X119709696Y-97605647D01*
X119719896Y-97607262D01*
X119783030Y-97637190D01*
X119819963Y-97696501D01*
X119824500Y-97729736D01*
X119824500Y-99044522D01*
X119804815Y-99111561D01*
X119788181Y-99132203D01*
X118143942Y-100776443D01*
X118066444Y-100853940D01*
X118066443Y-100853941D01*
X118066443Y-100853942D01*
X118024500Y-100955200D01*
X117225500Y-100955200D01*
X117225500Y-93765749D01*
X119434500Y-93765749D01*
X119434500Y-94269252D01*
X119450047Y-94367418D01*
X119450049Y-94367421D01*
X119510342Y-94485752D01*
X119510344Y-94485754D01*
X119510346Y-94485757D01*
X119604243Y-94579654D01*
X119604245Y-94579655D01*
X119604249Y-94579659D01*
X119641005Y-94598387D01*
X119691800Y-94646361D01*
X119708595Y-94714182D01*
X119686058Y-94780317D01*
X119641005Y-94819354D01*
X119596658Y-94841951D01*
X119596657Y-94841952D01*
X119596652Y-94841955D01*
X119506954Y-94931653D01*
X119506951Y-94931658D01*
X119506950Y-94931659D01*
X119494805Y-94955495D01*
X119449352Y-95044699D01*
X119434500Y-95138476D01*
X119434500Y-95601518D01*
X119441293Y-95644405D01*
X119449354Y-95695305D01*
X119506950Y-95808343D01*
X119506952Y-95808345D01*
X119506954Y-95808348D01*
X119596652Y-95898046D01*
X119596654Y-95898047D01*
X119596658Y-95898051D01*
X119697487Y-95949426D01*
X119709698Y-95955648D01*
X119803475Y-95970500D01*
X119803481Y-95970501D01*
X120416518Y-95970500D01*
X120510304Y-95955647D01*
X120623342Y-95898051D01*
X120646194Y-95875199D01*
X121974500Y-95875199D01*
X121974500Y-97254800D01*
X122000679Y-97318000D01*
X122000680Y-97318002D01*
X122016442Y-97356057D01*
X122016443Y-97356058D01*
X122423941Y-97763557D01*
X122453595Y-97775839D01*
X122453597Y-97775841D01*
X122453598Y-97775841D01*
X122474570Y-97784527D01*
X122525200Y-97805500D01*
X124034523Y-97805500D01*
X124101562Y-97825185D01*
X124122204Y-97841819D01*
X124453942Y-98173558D01*
X124453944Y-98173560D01*
X124513443Y-98198204D01*
X124555200Y-98215500D01*
X124664800Y-98215500D01*
X124822075Y-98215500D01*
X124889114Y-98235185D01*
X124934869Y-98287989D01*
X124944813Y-98357147D01*
X124933476Y-98393960D01*
X124899427Y-98463608D01*
X124889501Y-98531739D01*
X124889501Y-99623260D01*
X124899427Y-99691391D01*
X124950804Y-99796485D01*
X125033515Y-99879196D01*
X125033516Y-99879196D01*
X125033518Y-99879198D01*
X125138608Y-99930573D01*
X125172674Y-99935536D01*
X125206740Y-99940500D01*
X125206741Y-99940500D01*
X125414168Y-99940500D01*
X125481207Y-99960185D01*
X125501849Y-99976819D01*
X125778181Y-100253151D01*
X125811666Y-100314474D01*
X125814500Y-100340832D01*
X125814500Y-103250969D01*
X125794815Y-103318008D01*
X125778181Y-103338650D01*
X125374540Y-103742290D01*
X125374534Y-103742298D01*
X125334981Y-103810807D01*
X125334978Y-103810812D01*
X125314499Y-103887242D01*
X125314499Y-105685500D01*
X125311948Y-105694185D01*
X125313237Y-105703147D01*
X125302258Y-105727187D01*
X125294814Y-105752539D01*
X125287973Y-105758466D01*
X125284212Y-105766703D01*
X125261977Y-105780992D01*
X125242010Y-105798294D01*
X125231495Y-105800581D01*
X125225434Y-105804477D01*
X125190499Y-105809500D01*
X125052010Y-105809500D01*
X124984971Y-105789815D01*
X124941526Y-105741796D01*
X124912841Y-105685500D01*
X124893050Y-105646658D01*
X124893047Y-105646655D01*
X124893045Y-105646652D01*
X124803347Y-105556954D01*
X124803344Y-105556952D01*
X124803342Y-105556950D01*
X124726517Y-105517805D01*
X124690301Y-105499352D01*
X124596524Y-105484500D01*
X123983482Y-105484500D01*
X123902519Y-105497323D01*
X123889696Y-105499354D01*
X123776658Y-105556950D01*
X123776657Y-105556951D01*
X123776652Y-105556954D01*
X123686954Y-105646652D01*
X123686951Y-105646657D01*
X123686950Y-105646658D01*
X123667751Y-105684337D01*
X123629352Y-105759698D01*
X123614500Y-105853475D01*
X123614500Y-106316517D01*
X123624144Y-106377409D01*
X123629354Y-106410304D01*
X123686950Y-106523342D01*
X123686952Y-106523344D01*
X123686954Y-106523347D01*
X123776652Y-106613045D01*
X123776654Y-106613046D01*
X123776658Y-106613050D01*
X123889694Y-106670645D01*
X123889698Y-106670647D01*
X123983475Y-106685499D01*
X123983481Y-106685500D01*
X124596518Y-106685499D01*
X124690304Y-106670646D01*
X124803342Y-106613050D01*
X124893050Y-106523342D01*
X124924592Y-106461436D01*
X124941526Y-106428204D01*
X124951974Y-106417140D01*
X124958297Y-106403297D01*
X124975477Y-106392255D01*
X124989500Y-106377409D01*
X125005179Y-106373167D01*
X125017075Y-106365523D01*
X125052010Y-106360500D01*
X125190499Y-106360500D01*
X125257538Y-106380185D01*
X125303293Y-106432989D01*
X125314499Y-106484500D01*
X125314499Y-108610500D01*
X125294814Y-108677539D01*
X125242010Y-108723294D01*
X125190499Y-108734500D01*
X124803482Y-108734500D01*
X124722519Y-108747323D01*
X124709696Y-108749354D01*
X124596658Y-108806950D01*
X124596657Y-108806951D01*
X124596652Y-108806954D01*
X124506954Y-108896652D01*
X124506951Y-108896657D01*
X124506950Y-108896658D01*
X124506863Y-108896829D01*
X124449352Y-109009698D01*
X124434500Y-109103475D01*
X124434500Y-109566517D01*
X124438299Y-109590501D01*
X124449354Y-109660304D01*
X124506950Y-109773342D01*
X124506952Y-109773344D01*
X124506954Y-109773347D01*
X124596652Y-109863045D01*
X124596654Y-109863046D01*
X124596658Y-109863050D01*
X124702199Y-109916826D01*
X124709698Y-109920647D01*
X124803475Y-109935499D01*
X124803481Y-109935500D01*
X125416518Y-109935499D01*
X125510304Y-109920646D01*
X125623342Y-109863050D01*
X125713050Y-109773342D01*
X125729516Y-109741023D01*
X125777489Y-109690230D01*
X125845310Y-109673435D01*
X125911445Y-109695972D01*
X125950484Y-109741025D01*
X125966950Y-109773342D01*
X125966955Y-109773348D01*
X126056653Y-109863046D01*
X126056655Y-109863047D01*
X126056659Y-109863051D01*
X126162198Y-109916826D01*
X126169699Y-109920648D01*
X126257117Y-109934492D01*
X126263469Y-109935499D01*
X126263476Y-109935500D01*
X126263482Y-109935501D01*
X126876519Y-109935500D01*
X126970305Y-109920647D01*
X127083343Y-109863051D01*
X127173051Y-109773343D01*
X127230647Y-109660305D01*
X127230647Y-109660303D01*
X127230648Y-109660302D01*
X127241703Y-109590501D01*
X127245501Y-109566520D01*
X127245500Y-109103483D01*
X127230647Y-109009697D01*
X127173051Y-108896659D01*
X127173047Y-108896655D01*
X127173046Y-108896653D01*
X127083348Y-108806955D01*
X127083345Y-108806953D01*
X127083343Y-108806951D01*
X127006518Y-108767806D01*
X126970302Y-108749353D01*
X126876525Y-108734501D01*
X126876520Y-108734501D01*
X126489501Y-108734501D01*
X126422462Y-108714816D01*
X126376707Y-108662012D01*
X126365501Y-108610501D01*
X126365501Y-104289030D01*
X126385186Y-104221991D01*
X126401820Y-104201349D01*
X126805460Y-103797709D01*
X126845021Y-103729187D01*
X126865500Y-103652760D01*
X126865500Y-101410438D01*
X126865500Y-100624096D01*
X126865500Y-100340832D01*
X126885185Y-100273793D01*
X126901819Y-100253151D01*
X127178151Y-99976819D01*
X127239474Y-99943334D01*
X127265832Y-99940500D01*
X127473260Y-99940500D01*
X127495970Y-99937191D01*
X127541392Y-99930573D01*
X127646482Y-99879198D01*
X127729197Y-99796483D01*
X127780572Y-99691393D01*
X127790499Y-99623260D01*
X127790499Y-98531740D01*
X127780572Y-98463607D01*
X127729197Y-98358517D01*
X127729195Y-98358515D01*
X127729195Y-98358514D01*
X127646484Y-98275803D01*
X127541390Y-98224426D01*
X127473260Y-98214500D01*
X127473259Y-98214500D01*
X127106739Y-98214500D01*
X127106738Y-98214500D01*
X127038607Y-98224426D01*
X126933513Y-98275803D01*
X126902679Y-98306637D01*
X126841356Y-98340122D01*
X126771664Y-98335136D01*
X126741140Y-98318559D01*
X126733789Y-98313108D01*
X126696483Y-98275802D01*
X126658317Y-98257144D01*
X126649162Y-98250355D01*
X126634693Y-98231209D01*
X126616978Y-98215024D01*
X126608460Y-98198204D01*
X126573557Y-98113942D01*
X126573557Y-98113941D01*
X126166059Y-97706444D01*
X126166058Y-97706443D01*
X126064800Y-97664500D01*
X125957927Y-97664500D01*
X125890888Y-97644815D01*
X125845133Y-97592011D01*
X125835189Y-97522853D01*
X125846526Y-97486040D01*
X125849629Y-97479691D01*
X125880574Y-97416393D01*
X125890501Y-97348260D01*
X125890501Y-96415833D01*
X125910186Y-96348794D01*
X125926820Y-96328152D01*
X126252319Y-96002653D01*
X126313642Y-95969168D01*
X126383334Y-95974152D01*
X126427681Y-96002653D01*
X126753180Y-96328152D01*
X126786665Y-96389475D01*
X126789499Y-96415833D01*
X126789499Y-97348260D01*
X126799425Y-97416391D01*
X126850802Y-97521485D01*
X126933513Y-97604196D01*
X126933514Y-97604196D01*
X126933516Y-97604198D01*
X127038606Y-97655573D01*
X127058812Y-97658517D01*
X127106738Y-97665500D01*
X127106739Y-97665500D01*
X127473260Y-97665500D01*
X127495970Y-97662191D01*
X127541392Y-97655573D01*
X127646482Y-97604198D01*
X127729197Y-97521483D01*
X127780572Y-97416393D01*
X127790499Y-97348260D01*
X127790499Y-96256740D01*
X127780572Y-96188607D01*
X127729197Y-96083517D01*
X127729195Y-96083515D01*
X127729195Y-96083514D01*
X127646484Y-96000803D01*
X127541390Y-95949426D01*
X127473260Y-95939500D01*
X127473259Y-95939500D01*
X127265832Y-95939500D01*
X127198793Y-95919815D01*
X127178151Y-95903181D01*
X126927150Y-95652180D01*
X126893665Y-95590857D01*
X126898649Y-95521165D01*
X126940521Y-95465232D01*
X127005985Y-95440815D01*
X127014831Y-95440499D01*
X127406560Y-95440499D01*
X127406562Y-95440499D01*
X127482989Y-95420020D01*
X127551511Y-95380459D01*
X127599486Y-95332483D01*
X127621768Y-95320316D01*
X127641830Y-95304750D01*
X127651918Y-95303852D01*
X127660807Y-95298999D01*
X127686132Y-95300810D01*
X127711425Y-95298561D01*
X127720397Y-95303260D01*
X127730498Y-95303983D01*
X127750823Y-95319198D01*
X127773318Y-95330981D01*
X127780338Y-95341292D01*
X127786432Y-95345854D01*
X127794954Y-95358865D01*
X127799578Y-95366996D01*
X127799978Y-95368488D01*
X127829730Y-95420020D01*
X127829920Y-95420349D01*
X127829999Y-95420488D01*
X127839534Y-95437003D01*
X127839540Y-95437011D01*
X128973181Y-96570652D01*
X129006666Y-96631975D01*
X129009500Y-96658333D01*
X129009500Y-97160260D01*
X129012274Y-97189849D01*
X129055884Y-97314476D01*
X129134288Y-97420710D01*
X129134289Y-97420711D01*
X129240523Y-97499115D01*
X129240524Y-97499115D01*
X129240525Y-97499116D01*
X129365151Y-97542725D01*
X129365150Y-97542725D01*
X129394740Y-97545500D01*
X129394744Y-97545500D01*
X130000260Y-97545500D01*
X130029849Y-97542725D01*
X130035793Y-97540645D01*
X130154475Y-97499116D01*
X130260711Y-97420711D01*
X130339116Y-97314475D01*
X130382725Y-97189849D01*
X130385500Y-97160256D01*
X130385500Y-96579744D01*
X130384647Y-96570652D01*
X130382725Y-96550150D01*
X130339615Y-96426951D01*
X130339116Y-96425525D01*
X130334670Y-96419501D01*
X130260711Y-96319289D01*
X130260710Y-96319288D01*
X130154476Y-96240884D01*
X130029848Y-96197274D01*
X130029849Y-96197274D01*
X130000260Y-96194500D01*
X130000256Y-96194500D01*
X129498333Y-96194500D01*
X129431294Y-96174815D01*
X129410652Y-96158181D01*
X128416818Y-95164347D01*
X128402114Y-95137419D01*
X128385522Y-95111601D01*
X128384630Y-95105400D01*
X128383333Y-95103024D01*
X128380499Y-95076666D01*
X128380499Y-94989500D01*
X128400184Y-94922461D01*
X128452988Y-94876706D01*
X128504499Y-94865500D01*
X128749750Y-94865500D01*
X128805808Y-94854349D01*
X128854192Y-94854349D01*
X128910249Y-94865500D01*
X128910252Y-94865500D01*
X129549750Y-94865500D01*
X129549751Y-94865499D01*
X129564568Y-94862552D01*
X129608229Y-94853868D01*
X129608229Y-94853867D01*
X129608231Y-94853867D01*
X129674552Y-94809552D01*
X129718867Y-94743231D01*
X129718867Y-94743229D01*
X129718868Y-94743229D01*
X129730499Y-94684752D01*
X129730500Y-94684750D01*
X129730500Y-94576166D01*
X129731762Y-94558519D01*
X129735000Y-94536000D01*
X129735000Y-93695749D01*
X132904500Y-93695749D01*
X132904500Y-94199252D01*
X132920047Y-94297418D01*
X132920049Y-94297421D01*
X132980342Y-94415752D01*
X132980344Y-94415754D01*
X132980346Y-94415757D01*
X133074243Y-94509654D01*
X133074247Y-94509657D01*
X133074249Y-94509659D01*
X133115911Y-94530887D01*
X133166705Y-94578859D01*
X133183500Y-94646680D01*
X133160963Y-94712815D01*
X133115910Y-94751854D01*
X133066659Y-94776949D01*
X133066652Y-94776954D01*
X132976954Y-94866652D01*
X132976951Y-94866657D01*
X132976950Y-94866658D01*
X132970518Y-94879282D01*
X132919352Y-94979698D01*
X132904500Y-95073475D01*
X132904500Y-95536517D01*
X132910970Y-95577366D01*
X132919354Y-95630304D01*
X132976950Y-95743342D01*
X132976952Y-95743344D01*
X132976954Y-95743347D01*
X133066652Y-95833045D01*
X133066654Y-95833046D01*
X133066658Y-95833050D01*
X133149382Y-95875200D01*
X133179698Y-95890647D01*
X133273475Y-95905499D01*
X133273481Y-95905500D01*
X133886518Y-95905499D01*
X133980304Y-95890646D01*
X134093342Y-95833050D01*
X134183050Y-95743342D01*
X134240646Y-95630304D01*
X134240646Y-95630302D01*
X134240647Y-95630301D01*
X134255499Y-95536524D01*
X134255500Y-95536519D01*
X134255499Y-95073482D01*
X134240646Y-94979696D01*
X134183050Y-94866658D01*
X134183046Y-94866654D01*
X134183045Y-94866652D01*
X134093347Y-94776954D01*
X134093343Y-94776951D01*
X134093342Y-94776950D01*
X134044089Y-94751854D01*
X133993294Y-94703880D01*
X133976499Y-94636059D01*
X133999037Y-94569924D01*
X134044088Y-94530887D01*
X134085751Y-94509659D01*
X134179658Y-94415752D01*
X134239951Y-94297421D01*
X134239951Y-94297419D01*
X134239952Y-94297418D01*
X134255500Y-94199252D01*
X134255500Y-93695749D01*
X134239952Y-93597583D01*
X134239951Y-93597581D01*
X134179658Y-93479250D01*
X134179654Y-93479246D01*
X134179653Y-93479244D01*
X134085756Y-93385347D01*
X134085753Y-93385345D01*
X134085751Y-93385343D01*
X133967420Y-93325050D01*
X133967419Y-93325049D01*
X133967416Y-93325048D01*
X133967417Y-93325048D01*
X133869251Y-93309501D01*
X133869246Y-93309501D01*
X133290754Y-93309501D01*
X133290749Y-93309501D01*
X133192582Y-93325048D01*
X133123877Y-93360056D01*
X133074249Y-93385343D01*
X133074248Y-93385344D01*
X133074243Y-93385347D01*
X132980346Y-93479244D01*
X132980343Y-93479249D01*
X132980342Y-93479250D01*
X132966440Y-93506535D01*
X132920047Y-93597583D01*
X132904500Y-93695749D01*
X129735000Y-93695749D01*
X129735000Y-93492343D01*
X129735149Y-93486267D01*
X129735170Y-93485832D01*
X129735252Y-93484167D01*
X129735500Y-93474084D01*
X129735500Y-93427095D01*
X129755185Y-93360056D01*
X129807989Y-93314301D01*
X129827404Y-93307321D01*
X129835989Y-93305021D01*
X129904511Y-93265460D01*
X129960460Y-93209511D01*
X130000021Y-93140989D01*
X130020500Y-93064562D01*
X130020500Y-92985438D01*
X130000021Y-92909011D01*
X129969511Y-92856166D01*
X129960464Y-92840495D01*
X129960458Y-92840487D01*
X129904512Y-92784541D01*
X129904504Y-92784535D01*
X129835995Y-92744982D01*
X129835992Y-92744980D01*
X129835989Y-92744979D01*
X129835985Y-92744978D01*
X129835983Y-92744977D01*
X129827401Y-92742677D01*
X129767742Y-92706310D01*
X129737216Y-92643461D01*
X129735500Y-92622904D01*
X129735500Y-90926361D01*
X129734321Y-90904381D01*
X129731488Y-90878034D01*
X129731487Y-90878032D01*
X129729399Y-90871365D01*
X129707529Y-90801518D01*
X129674044Y-90740195D01*
X129638991Y-90693371D01*
X129536629Y-90591009D01*
X129536628Y-90591008D01*
X129536624Y-90591004D01*
X129520283Y-90576325D01*
X129520269Y-90576313D01*
X129499620Y-90559672D01*
X129428575Y-90522509D01*
X129361543Y-90502826D01*
X129360894Y-90502732D01*
X129303638Y-90494500D01*
X123636362Y-90494500D01*
X123636361Y-90494500D01*
X123614381Y-90495678D01*
X123588034Y-90498511D01*
X123588032Y-90498512D01*
X123511521Y-90522470D01*
X123511516Y-90522471D01*
X123450188Y-90555960D01*
X123403384Y-90590998D01*
X123403362Y-90591017D01*
X123356013Y-90638365D01*
X123356012Y-90638366D01*
X123341325Y-90654716D01*
X123341313Y-90654730D01*
X123324672Y-90675379D01*
X123287509Y-90746424D01*
X123267826Y-90813456D01*
X123259500Y-90871365D01*
X123259500Y-92238638D01*
X123260678Y-92260618D01*
X123263511Y-92286965D01*
X123263512Y-92286967D01*
X123287470Y-92363478D01*
X123287471Y-92363483D01*
X123301872Y-92389855D01*
X123320956Y-92424805D01*
X123320958Y-92424808D01*
X123320960Y-92424811D01*
X123355998Y-92471615D01*
X123356001Y-92471619D01*
X123356009Y-92471629D01*
X123356017Y-92471637D01*
X123403365Y-92518986D01*
X123403374Y-92518995D01*
X123414669Y-92529141D01*
X123414695Y-92529163D01*
X123419738Y-92533693D01*
X123440380Y-92550327D01*
X123440387Y-92550330D01*
X123445477Y-92553667D01*
X123445320Y-92553905D01*
X123452884Y-92558670D01*
X123453782Y-92559342D01*
X123484013Y-92573148D01*
X123511445Y-92587496D01*
X123514041Y-92588258D01*
X123514402Y-92587026D01*
X123533253Y-92595636D01*
X123551762Y-92599662D01*
X123560310Y-92601844D01*
X123578464Y-92607175D01*
X123636362Y-92615500D01*
X123636366Y-92615500D01*
X123640747Y-92616130D01*
X123640531Y-92617629D01*
X123699919Y-92639774D01*
X123741796Y-92695704D01*
X123746787Y-92765395D01*
X123713307Y-92826721D01*
X123699542Y-92840486D01*
X123699535Y-92840495D01*
X123659982Y-92909004D01*
X123659979Y-92909009D01*
X123646326Y-92959962D01*
X123639500Y-92985438D01*
X123639500Y-93064562D01*
X123641892Y-93073489D01*
X123659979Y-93140990D01*
X123659982Y-93140995D01*
X123699535Y-93209504D01*
X123699539Y-93209509D01*
X123699540Y-93209511D01*
X123755489Y-93265460D01*
X123755491Y-93265461D01*
X123755495Y-93265464D01*
X123803699Y-93293294D01*
X123824011Y-93305021D01*
X123827591Y-93305980D01*
X123830270Y-93307613D01*
X123831518Y-93308130D01*
X123831437Y-93308324D01*
X123848163Y-93318518D01*
X123870661Y-93327131D01*
X123877455Y-93336371D01*
X123887251Y-93342342D01*
X123897778Y-93364012D01*
X123912050Y-93383422D01*
X123914800Y-93399049D01*
X123917782Y-93405187D01*
X123919256Y-93417973D01*
X123919500Y-93421853D01*
X123919500Y-93445394D01*
X123920489Y-93465536D01*
X123922871Y-93489722D01*
X123924427Y-93500208D01*
X123924756Y-93505436D01*
X123924506Y-93506535D01*
X123925000Y-93513218D01*
X123925000Y-94396007D01*
X123928789Y-94431239D01*
X123929500Y-94444495D01*
X123929500Y-94684752D01*
X123941131Y-94743229D01*
X123941132Y-94743230D01*
X123971121Y-94788111D01*
X123991999Y-94854788D01*
X123973515Y-94922168D01*
X123955700Y-94944683D01*
X123582204Y-95318181D01*
X123520881Y-95351666D01*
X123494523Y-95354500D01*
X122495198Y-95354500D01*
X122423599Y-95384158D01*
X122393941Y-95396442D01*
X122331748Y-95458636D01*
X122093942Y-95696443D01*
X122016444Y-95773940D01*
X121974500Y-95875199D01*
X120646194Y-95875199D01*
X120713050Y-95808343D01*
X120770646Y-95695305D01*
X120770646Y-95695303D01*
X120770647Y-95695302D01*
X120785499Y-95601525D01*
X120785500Y-95601520D01*
X120785499Y-95138483D01*
X120770646Y-95044697D01*
X120713050Y-94931659D01*
X120713046Y-94931655D01*
X120713045Y-94931653D01*
X120623347Y-94841955D01*
X120623344Y-94841953D01*
X120623342Y-94841951D01*
X120578994Y-94819354D01*
X120528200Y-94771381D01*
X120511405Y-94703560D01*
X120533943Y-94637425D01*
X120578993Y-94598387D01*
X120615751Y-94579659D01*
X120709658Y-94485752D01*
X120769951Y-94367421D01*
X120769951Y-94367419D01*
X120769952Y-94367418D01*
X120785500Y-94269252D01*
X120785500Y-93765749D01*
X120769952Y-93667583D01*
X120769951Y-93667581D01*
X120709658Y-93549250D01*
X120709654Y-93549246D01*
X120709653Y-93549244D01*
X120615756Y-93455347D01*
X120615753Y-93455345D01*
X120615751Y-93455343D01*
X120497420Y-93395050D01*
X120497419Y-93395049D01*
X120497416Y-93395048D01*
X120497417Y-93395048D01*
X120399251Y-93379501D01*
X120399246Y-93379501D01*
X119820754Y-93379501D01*
X119820749Y-93379501D01*
X119722582Y-93395048D01*
X119643692Y-93435245D01*
X119604249Y-93455343D01*
X119604248Y-93455344D01*
X119604243Y-93455347D01*
X119510346Y-93549244D01*
X119510343Y-93549249D01*
X119450047Y-93667583D01*
X119434500Y-93765749D01*
X117225500Y-93765749D01*
X117225500Y-91279793D01*
X117225207Y-91279500D01*
X117215619Y-91269912D01*
X117211313Y-91262026D01*
X117179292Y-91230000D01*
X117180000Y-91230000D01*
X117180000Y-87300000D01*
X122240000Y-87291859D01*
X122240000Y-87440000D01*
X131420000Y-87440000D01*
X131420000Y-87280500D01*
X136500000Y-87280500D01*
X136500000Y-91200000D01*
G37*
%TD.AperFunction*%
%TD*%
%TA.AperFunction,Conductor*%
%TO.N,GND*%
G36*
X137413039Y-87300185D02*
G01*
X137458794Y-87352989D01*
X137470000Y-87404500D01*
X137470000Y-91076000D01*
X137450315Y-91143039D01*
X137397511Y-91188794D01*
X137346000Y-91200000D01*
X136500000Y-91200000D01*
X136500000Y-87280500D01*
X137346000Y-87280500D01*
X137413039Y-87300185D01*
G37*
%TD.AperFunction*%
%TD*%
%TA.AperFunction,Conductor*%
%TO.N,GND*%
G36*
X117180000Y-91230000D02*
G01*
X116334000Y-91230000D01*
X116266961Y-91210315D01*
X116221206Y-91157511D01*
X116210000Y-91106000D01*
X116210000Y-87424000D01*
X116229685Y-87356961D01*
X116282489Y-87311206D01*
X116334000Y-87300000D01*
X117179900Y-87300000D01*
X117180000Y-87300000D01*
X117180000Y-91230000D01*
G37*
%TD.AperFunction*%
%TD*%
%TA.AperFunction,Conductor*%
%TO.N,VDD*%
G36*
X129370677Y-90719685D02*
G01*
X129391319Y-90736319D01*
X129493681Y-90838681D01*
X129527166Y-90900004D01*
X129530000Y-90926362D01*
X129530000Y-92738667D01*
X129510315Y-92805706D01*
X129493681Y-92826348D01*
X129479541Y-92840487D01*
X129479535Y-92840495D01*
X129439982Y-92909004D01*
X129439979Y-92909009D01*
X129426326Y-92959962D01*
X129419500Y-92985438D01*
X129419500Y-93064562D01*
X129421892Y-93073489D01*
X129439979Y-93140990D01*
X129439982Y-93140995D01*
X129479535Y-93209504D01*
X129479541Y-93209512D01*
X129493681Y-93223652D01*
X129508384Y-93250579D01*
X129524977Y-93276398D01*
X129525868Y-93282598D01*
X129527166Y-93284975D01*
X129530000Y-93311333D01*
X129530000Y-93474084D01*
X129529500Y-93484262D01*
X129529500Y-94536000D01*
X129509815Y-94603039D01*
X129457011Y-94648794D01*
X129405500Y-94660000D01*
X129054500Y-94660000D01*
X128987461Y-94640315D01*
X128941706Y-94587511D01*
X128930500Y-94536000D01*
X128930500Y-93485251D01*
X128930499Y-93485250D01*
X128927383Y-93469581D01*
X128925000Y-93445389D01*
X128925000Y-92710000D01*
X128785000Y-92570000D01*
X124845000Y-92570000D01*
X124844999Y-92570000D01*
X124725000Y-92689999D01*
X124725000Y-94396000D01*
X124705315Y-94463039D01*
X124652511Y-94508794D01*
X124601000Y-94520000D01*
X124254500Y-94520000D01*
X124187461Y-94500315D01*
X124141706Y-94447511D01*
X124130500Y-94396000D01*
X124130500Y-93485251D01*
X124129087Y-93478149D01*
X124127382Y-93469580D01*
X124125000Y-93445394D01*
X124125000Y-93316330D01*
X124144685Y-93249294D01*
X124161321Y-93228650D01*
X124166319Y-93223652D01*
X124180460Y-93209511D01*
X124220021Y-93140989D01*
X124240500Y-93064562D01*
X124240500Y-92985438D01*
X124220021Y-92909011D01*
X124220017Y-92909004D01*
X124180464Y-92840495D01*
X124180458Y-92840487D01*
X124161319Y-92821348D01*
X124127834Y-92760025D01*
X124125000Y-92733674D01*
X124125001Y-92530000D01*
X124005001Y-92410000D01*
X123636362Y-92410000D01*
X123606921Y-92401355D01*
X123576935Y-92394832D01*
X123571919Y-92391077D01*
X123569323Y-92390315D01*
X123548681Y-92373681D01*
X123501319Y-92326319D01*
X123467834Y-92264996D01*
X123465000Y-92238638D01*
X123465000Y-90871362D01*
X123484685Y-90804323D01*
X123501319Y-90783681D01*
X123548681Y-90736319D01*
X123610004Y-90702834D01*
X123636362Y-90700000D01*
X129303638Y-90700000D01*
X129370677Y-90719685D01*
G37*
%TD.AperFunction*%
%TD*%
%TA.AperFunction,NonConductor*%
G36*
X113625765Y-138300495D02*
G01*
X113675016Y-138350054D01*
X113690000Y-138409142D01*
X113690000Y-138655500D01*
X113670315Y-138722539D01*
X113617511Y-138768294D01*
X113566000Y-138779500D01*
X113511907Y-138779500D01*
X113414293Y-138794959D01*
X113414292Y-138794958D01*
X113409712Y-138795683D01*
X113382685Y-138797923D01*
X113361147Y-138803376D01*
X113355561Y-138804262D01*
X113355560Y-138804261D01*
X113355560Y-138804262D01*
X113278629Y-138816447D01*
X113278627Y-138816447D01*
X113173365Y-138850650D01*
X113173364Y-138850650D01*
X113172336Y-138850984D01*
X113169471Y-138851915D01*
X113142116Y-138858843D01*
X113124877Y-138866404D01*
X113119022Y-138868307D01*
X113119019Y-138868307D01*
X113054003Y-138889433D01*
X112943514Y-138945728D01*
X112943515Y-138945729D01*
X112940291Y-138947371D01*
X112914855Y-138958529D01*
X112902312Y-138966723D01*
X112896361Y-138969756D01*
X112843573Y-138996653D01*
X112843560Y-138996661D01*
X112730669Y-139078678D01*
X112730670Y-139078679D01*
X112728155Y-139080506D01*
X112707102Y-139094261D01*
X112699150Y-139101580D01*
X112693334Y-139105807D01*
X112693332Y-139105807D01*
X112693332Y-139105808D01*
X112652493Y-139135480D01*
X112652489Y-139135483D01*
X112540338Y-139247632D01*
X112538496Y-139249473D01*
X112524523Y-139262337D01*
X112520625Y-139267344D01*
X112515186Y-139272784D01*
X112515179Y-139272793D01*
X112485482Y-139302491D01*
X112377422Y-139451219D01*
X112376193Y-139452909D01*
X112372098Y-139458172D01*
X112371300Y-139459645D01*
X112367849Y-139464397D01*
X112367847Y-139464397D01*
X112367845Y-139464402D01*
X112346659Y-139493562D01*
X112239433Y-139704003D01*
X112166446Y-139928631D01*
X112129500Y-140161902D01*
X112129500Y-140398097D01*
X112166446Y-140631368D01*
X112239433Y-140855996D01*
X112346656Y-141066432D01*
X112367835Y-141095582D01*
X112367834Y-141095582D01*
X112371298Y-141100350D01*
X112372098Y-141101828D01*
X112376212Y-141107114D01*
X112377406Y-141108757D01*
X112377428Y-141108786D01*
X112438221Y-141192460D01*
X112443635Y-141199912D01*
X112485484Y-141257511D01*
X112520614Y-141292641D01*
X112524523Y-141297663D01*
X112538534Y-141310561D01*
X112652491Y-141424518D01*
X112652498Y-141424524D01*
X112693327Y-141454187D01*
X112699146Y-141458415D01*
X112707102Y-141465739D01*
X112728185Y-141479512D01*
X112843567Y-141563343D01*
X112902304Y-141593271D01*
X112914855Y-141601471D01*
X112940323Y-141612643D01*
X113054008Y-141670568D01*
X113124874Y-141693593D01*
X113142116Y-141701157D01*
X113169459Y-141708080D01*
X113278632Y-141743553D01*
X113361146Y-141756621D01*
X113382685Y-141762077D01*
X113409749Y-141764319D01*
X113511908Y-141780500D01*
X113511910Y-141780500D01*
X113566000Y-141780500D01*
X113633039Y-141800185D01*
X113678794Y-141852989D01*
X113690000Y-141904500D01*
X113690000Y-142150857D01*
X113686258Y-142163597D01*
X113687247Y-142176839D01*
X113676605Y-142196471D01*
X113670315Y-142217896D01*
X113660281Y-142226590D01*
X113653953Y-142238266D01*
X113634384Y-142249030D01*
X113617511Y-142263651D01*
X113603003Y-142266291D01*
X113592734Y-142271941D01*
X113557538Y-142274568D01*
X113389275Y-142263058D01*
X113380089Y-142262085D01*
X113329826Y-142254858D01*
X113322246Y-142253526D01*
X113118431Y-142211173D01*
X113108724Y-142208744D01*
X113061909Y-142194998D01*
X113055319Y-142192861D01*
X112856935Y-142122355D01*
X112846950Y-142118310D01*
X112805769Y-142099504D01*
X112800231Y-142096807D01*
X112609873Y-141998171D01*
X112599882Y-141992389D01*
X112566409Y-141970877D01*
X112561952Y-141967873D01*
X112491564Y-141918188D01*
X112382097Y-141840917D01*
X112372404Y-141833327D01*
X112348584Y-141812687D01*
X112345181Y-141809626D01*
X112178034Y-141653522D01*
X112168966Y-141644109D01*
X112156507Y-141629730D01*
X112154033Y-141626784D01*
X112001797Y-141439661D01*
X111992043Y-141425844D01*
X111859047Y-141207142D01*
X111851275Y-141192139D01*
X111749306Y-140957383D01*
X111743639Y-140941438D01*
X111719698Y-140855992D01*
X111674581Y-140694969D01*
X111671143Y-140678420D01*
X111636291Y-140424855D01*
X111635136Y-140407970D01*
X111635136Y-140152029D01*
X111636291Y-140135144D01*
X111671143Y-139881576D01*
X111674581Y-139865032D01*
X111743640Y-139618555D01*
X111749302Y-139602625D01*
X111851275Y-139367859D01*
X111859057Y-139352842D01*
X111992048Y-139134147D01*
X112001790Y-139120346D01*
X112154069Y-138933170D01*
X112156476Y-138930304D01*
X112168979Y-138915875D01*
X112178014Y-138906495D01*
X112345239Y-138750318D01*
X112348544Y-138747346D01*
X112372419Y-138726658D01*
X112382071Y-138719100D01*
X112562018Y-138592080D01*
X112566345Y-138589163D01*
X112599916Y-138567589D01*
X112609844Y-138561843D01*
X112800297Y-138463158D01*
X112805704Y-138460525D01*
X112846974Y-138441678D01*
X112856913Y-138437651D01*
X113055374Y-138367119D01*
X113061845Y-138365020D01*
X113108765Y-138351243D01*
X113118404Y-138348831D01*
X113322273Y-138306467D01*
X113329792Y-138305145D01*
X113380124Y-138297909D01*
X113389240Y-138296943D01*
X113557540Y-138285431D01*
X113625765Y-138300495D01*
G37*
%TD.AperFunction*%
%TA.AperFunction,NonConductor*%
G36*
X113625765Y-87300520D02*
G01*
X113675017Y-87350079D01*
X113690000Y-87409167D01*
X113690000Y-87655500D01*
X113670315Y-87722539D01*
X113617511Y-87768294D01*
X113566000Y-87779500D01*
X113511907Y-87779500D01*
X113414293Y-87794959D01*
X113414292Y-87794958D01*
X113409712Y-87795683D01*
X113382685Y-87797923D01*
X113361147Y-87803376D01*
X113355561Y-87804262D01*
X113355560Y-87804261D01*
X113355560Y-87804262D01*
X113278629Y-87816447D01*
X113278627Y-87816447D01*
X113173365Y-87850650D01*
X113173364Y-87850650D01*
X113172336Y-87850984D01*
X113169471Y-87851915D01*
X113142116Y-87858843D01*
X113124877Y-87866404D01*
X113119022Y-87868307D01*
X113119019Y-87868307D01*
X113054003Y-87889433D01*
X112943514Y-87945728D01*
X112943515Y-87945729D01*
X112940291Y-87947371D01*
X112914855Y-87958529D01*
X112902312Y-87966723D01*
X112896361Y-87969756D01*
X112843573Y-87996653D01*
X112843560Y-87996661D01*
X112730669Y-88078678D01*
X112730670Y-88078679D01*
X112728155Y-88080506D01*
X112707102Y-88094261D01*
X112699150Y-88101580D01*
X112693334Y-88105807D01*
X112693332Y-88105807D01*
X112693332Y-88105808D01*
X112652493Y-88135480D01*
X112652489Y-88135483D01*
X112540338Y-88247632D01*
X112538496Y-88249473D01*
X112524523Y-88262337D01*
X112520625Y-88267344D01*
X112515186Y-88272784D01*
X112515179Y-88272793D01*
X112485482Y-88302491D01*
X112377422Y-88451219D01*
X112376193Y-88452909D01*
X112372098Y-88458172D01*
X112371300Y-88459645D01*
X112367849Y-88464397D01*
X112367847Y-88464397D01*
X112367845Y-88464402D01*
X112346659Y-88493562D01*
X112239433Y-88704003D01*
X112166446Y-88928631D01*
X112129500Y-89161902D01*
X112129500Y-89398097D01*
X112166446Y-89631368D01*
X112239433Y-89855996D01*
X112346656Y-90066432D01*
X112367835Y-90095582D01*
X112367834Y-90095582D01*
X112371298Y-90100350D01*
X112372098Y-90101828D01*
X112376212Y-90107114D01*
X112377406Y-90108757D01*
X112377428Y-90108786D01*
X112485484Y-90257511D01*
X112520614Y-90292641D01*
X112524523Y-90297663D01*
X112538534Y-90310561D01*
X112652491Y-90424518D01*
X112652498Y-90424524D01*
X112693327Y-90454187D01*
X112699146Y-90458415D01*
X112707102Y-90465739D01*
X112728185Y-90479512D01*
X112843567Y-90563343D01*
X112902304Y-90593271D01*
X112914855Y-90601471D01*
X112940323Y-90612643D01*
X113054008Y-90670568D01*
X113124874Y-90693593D01*
X113142116Y-90701157D01*
X113169459Y-90708080D01*
X113278632Y-90743553D01*
X113361146Y-90756621D01*
X113382685Y-90762077D01*
X113409749Y-90764319D01*
X113511908Y-90780500D01*
X113511910Y-90780500D01*
X113566000Y-90780500D01*
X113633039Y-90800185D01*
X113678794Y-90852989D01*
X113690000Y-90904500D01*
X113690000Y-91150832D01*
X113686258Y-91163572D01*
X113687247Y-91176814D01*
X113676605Y-91196446D01*
X113670315Y-91217871D01*
X113660281Y-91226565D01*
X113653953Y-91238241D01*
X113634384Y-91249005D01*
X113617511Y-91263626D01*
X113603003Y-91266266D01*
X113592734Y-91271916D01*
X113557538Y-91274543D01*
X113389281Y-91263034D01*
X113380095Y-91262061D01*
X113329827Y-91254833D01*
X113322247Y-91253502D01*
X113248805Y-91238241D01*
X113118422Y-91211146D01*
X113108735Y-91208722D01*
X113061909Y-91194972D01*
X113055320Y-91192835D01*
X112856947Y-91122333D01*
X112846961Y-91118287D01*
X112805777Y-91099479D01*
X112800240Y-91096783D01*
X112609885Y-90998149D01*
X112599896Y-90992368D01*
X112596546Y-90990215D01*
X112566415Y-90970851D01*
X112561997Y-90967875D01*
X112472216Y-90904500D01*
X112382111Y-90840896D01*
X112372419Y-90833306D01*
X112348595Y-90812663D01*
X112345160Y-90809573D01*
X112178065Y-90653518D01*
X112168988Y-90644096D01*
X112156513Y-90629699D01*
X112154038Y-90626752D01*
X112142560Y-90612644D01*
X112001818Y-90439647D01*
X111992061Y-90425824D01*
X111991270Y-90424524D01*
X111859081Y-90207147D01*
X111851295Y-90192121D01*
X111802100Y-90078864D01*
X111749327Y-89957371D01*
X111743661Y-89941427D01*
X111674605Y-89694965D01*
X111671166Y-89678412D01*
X111636316Y-89424853D01*
X111635161Y-89407969D01*
X111635161Y-89152030D01*
X111636316Y-89135146D01*
X111653934Y-89006962D01*
X111671167Y-88881584D01*
X111674605Y-88865037D01*
X111743663Y-88618564D01*
X111749326Y-88602633D01*
X111851298Y-88367871D01*
X111859077Y-88352858D01*
X111992072Y-88134157D01*
X112001807Y-88120365D01*
X112154104Y-87933166D01*
X112156464Y-87930356D01*
X112169003Y-87915886D01*
X112178043Y-87906501D01*
X112345211Y-87750378D01*
X112348565Y-87747361D01*
X112372424Y-87726687D01*
X112382095Y-87719113D01*
X112562060Y-87592080D01*
X112566350Y-87589190D01*
X112599925Y-87567612D01*
X112609863Y-87561861D01*
X112800289Y-87463191D01*
X112805757Y-87460528D01*
X112846969Y-87441707D01*
X112856920Y-87437675D01*
X113055369Y-87367146D01*
X113061860Y-87365041D01*
X113108783Y-87351263D01*
X113118375Y-87348862D01*
X113322295Y-87306487D01*
X113329800Y-87305169D01*
X113380133Y-87297932D01*
X113389250Y-87296967D01*
X113557540Y-87285456D01*
X113625765Y-87300520D01*
G37*
%TD.AperFunction*%
%TA.AperFunction,NonConductor*%
G36*
X140270743Y-87296966D02*
G01*
X140279871Y-87297933D01*
X140330188Y-87305168D01*
X140337715Y-87306489D01*
X140541612Y-87348860D01*
X140551227Y-87351267D01*
X140598118Y-87365035D01*
X140604651Y-87367154D01*
X140803063Y-87437670D01*
X140813037Y-87441711D01*
X140854221Y-87460519D01*
X140859742Y-87463207D01*
X140930045Y-87499635D01*
X141050113Y-87561849D01*
X141060092Y-87567624D01*
X141093605Y-87589162D01*
X141097981Y-87592110D01*
X141250942Y-87700082D01*
X141277887Y-87719102D01*
X141287579Y-87726692D01*
X141311403Y-87747335D01*
X141314838Y-87750425D01*
X141469258Y-87894643D01*
X141481933Y-87906480D01*
X141491010Y-87915902D01*
X141503485Y-87930299D01*
X141505953Y-87933237D01*
X141535664Y-87969757D01*
X141658175Y-88120345D01*
X141667934Y-88134170D01*
X141800920Y-88352855D01*
X141808706Y-88367882D01*
X141910670Y-88602625D01*
X141916338Y-88618572D01*
X141985391Y-88865024D01*
X141988834Y-88881594D01*
X142023684Y-89135145D01*
X142024839Y-89152030D01*
X142024839Y-89407969D01*
X142023684Y-89424854D01*
X141988834Y-89678405D01*
X141985391Y-89694975D01*
X141916338Y-89941427D01*
X141910670Y-89957374D01*
X141808706Y-90192117D01*
X141800920Y-90207144D01*
X141667934Y-90425828D01*
X141658175Y-90439653D01*
X141505961Y-90626751D01*
X141503485Y-90629699D01*
X141491010Y-90644096D01*
X141481933Y-90653518D01*
X141314838Y-90809573D01*
X141311403Y-90812663D01*
X141287579Y-90833306D01*
X141277887Y-90840896D01*
X141098024Y-90967859D01*
X141093552Y-90970872D01*
X141060102Y-90992368D01*
X141050113Y-90998149D01*
X140859758Y-91096783D01*
X140854221Y-91099479D01*
X140813037Y-91118287D01*
X140803051Y-91122333D01*
X140604678Y-91192835D01*
X140598089Y-91194972D01*
X140551263Y-91208722D01*
X140541565Y-91211149D01*
X140473320Y-91225331D01*
X140337751Y-91253502D01*
X140330171Y-91254833D01*
X140279903Y-91262061D01*
X140270717Y-91263034D01*
X140112462Y-91273859D01*
X140044236Y-91258795D01*
X139994984Y-91209237D01*
X139980000Y-91150148D01*
X139980000Y-90904500D01*
X139980683Y-90902173D01*
X139980088Y-90899821D01*
X139990476Y-90868819D01*
X139999685Y-90837461D01*
X140001518Y-90835872D01*
X140002289Y-90833572D01*
X140027791Y-90813106D01*
X140052489Y-90791706D01*
X140055476Y-90790889D01*
X140056782Y-90789842D01*
X140065946Y-90788028D01*
X140090997Y-90781184D01*
X140097484Y-90780500D01*
X140148092Y-90780500D01*
X140248888Y-90764535D01*
X140252080Y-90764199D01*
X140252318Y-90764242D01*
X140254818Y-90763941D01*
X140277315Y-90762077D01*
X140293413Y-90758000D01*
X140304398Y-90755743D01*
X140381368Y-90743553D01*
X140490544Y-90708079D01*
X140517884Y-90701157D01*
X140535118Y-90693596D01*
X140605992Y-90670568D01*
X140719688Y-90612636D01*
X140745145Y-90601471D01*
X140757688Y-90593275D01*
X140816433Y-90563343D01*
X140931831Y-90479500D01*
X140952898Y-90465739D01*
X140960851Y-90458416D01*
X141007510Y-90424517D01*
X141121476Y-90310550D01*
X141135477Y-90297663D01*
X141139379Y-90292647D01*
X141174517Y-90257510D01*
X141283777Y-90107125D01*
X141287902Y-90101828D01*
X141288702Y-90100346D01*
X141313343Y-90066433D01*
X141420568Y-89855992D01*
X141493553Y-89631368D01*
X141505959Y-89553038D01*
X141530500Y-89398097D01*
X141530500Y-89161902D01*
X141493553Y-88928631D01*
X141420566Y-88704003D01*
X141313342Y-88493565D01*
X141304311Y-88481136D01*
X141288706Y-88459657D01*
X141287902Y-88458172D01*
X141283765Y-88452857D01*
X141282560Y-88451198D01*
X141174517Y-88302490D01*
X141139385Y-88267358D01*
X141135477Y-88262337D01*
X141121465Y-88249438D01*
X141007512Y-88135485D01*
X141007506Y-88135480D01*
X140966665Y-88105806D01*
X140960849Y-88101581D01*
X140952898Y-88094261D01*
X140931816Y-88080487D01*
X140929320Y-88078674D01*
X140929308Y-88078666D01*
X140841071Y-88014558D01*
X140816433Y-87996657D01*
X140763639Y-87969757D01*
X140757695Y-87966728D01*
X140745145Y-87958529D01*
X140719687Y-87947362D01*
X140716482Y-87945729D01*
X140605993Y-87889432D01*
X140540977Y-87868306D01*
X140540977Y-87868305D01*
X140535108Y-87866398D01*
X140517884Y-87858843D01*
X140490544Y-87851919D01*
X140486624Y-87850646D01*
X140381369Y-87816447D01*
X140381366Y-87816446D01*
X140304434Y-87804261D01*
X140304434Y-87804260D01*
X140298842Y-87803374D01*
X140277315Y-87797923D01*
X140250269Y-87795681D01*
X140245692Y-87794957D01*
X140245691Y-87794956D01*
X140148098Y-87779500D01*
X140148092Y-87779500D01*
X140104000Y-87779500D01*
X140036961Y-87759815D01*
X139991206Y-87707011D01*
X139980000Y-87655500D01*
X139980000Y-87409851D01*
X139999685Y-87342812D01*
X140052489Y-87297057D01*
X140112459Y-87286140D01*
X140270743Y-87296966D01*
G37*
%TD.AperFunction*%
%TA.AperFunction,NonConductor*%
G36*
X140280743Y-138296966D02*
G01*
X140289871Y-138297933D01*
X140340188Y-138305168D01*
X140347715Y-138306489D01*
X140551612Y-138348860D01*
X140561227Y-138351267D01*
X140608118Y-138365035D01*
X140614651Y-138367154D01*
X140813063Y-138437670D01*
X140823037Y-138441711D01*
X140864221Y-138460519D01*
X140869742Y-138463207D01*
X140940045Y-138499635D01*
X141060113Y-138561849D01*
X141070092Y-138567624D01*
X141103605Y-138589162D01*
X141107981Y-138592110D01*
X141260942Y-138700082D01*
X141287887Y-138719102D01*
X141297579Y-138726692D01*
X141321403Y-138747335D01*
X141324838Y-138750425D01*
X141479258Y-138894643D01*
X141491933Y-138906480D01*
X141501010Y-138915902D01*
X141513485Y-138930299D01*
X141515953Y-138933237D01*
X141545664Y-138969757D01*
X141668175Y-139120345D01*
X141677934Y-139134170D01*
X141810920Y-139352855D01*
X141818706Y-139367882D01*
X141920670Y-139602625D01*
X141926338Y-139618572D01*
X141995391Y-139865024D01*
X141998834Y-139881594D01*
X142033684Y-140135145D01*
X142034839Y-140152030D01*
X142034839Y-140407969D01*
X142033684Y-140424854D01*
X141998834Y-140678405D01*
X141995391Y-140694975D01*
X141926338Y-140941427D01*
X141920670Y-140957374D01*
X141818706Y-141192117D01*
X141810920Y-141207144D01*
X141677934Y-141425828D01*
X141668175Y-141439653D01*
X141515961Y-141626751D01*
X141513485Y-141629699D01*
X141501010Y-141644096D01*
X141491933Y-141653518D01*
X141324838Y-141809573D01*
X141321403Y-141812663D01*
X141297579Y-141833306D01*
X141287887Y-141840896D01*
X141108024Y-141967859D01*
X141103552Y-141970872D01*
X141070102Y-141992368D01*
X141060113Y-141998149D01*
X140869758Y-142096783D01*
X140864221Y-142099479D01*
X140823037Y-142118287D01*
X140813051Y-142122333D01*
X140614678Y-142192835D01*
X140608089Y-142194972D01*
X140561263Y-142208722D01*
X140551565Y-142211149D01*
X140483320Y-142225331D01*
X140347751Y-142253502D01*
X140340171Y-142254833D01*
X140289903Y-142262061D01*
X140280717Y-142263034D01*
X140122462Y-142273859D01*
X140054236Y-142258795D01*
X140004984Y-142209237D01*
X139990000Y-142150148D01*
X139990000Y-141904500D01*
X139990683Y-141902173D01*
X139990088Y-141899821D01*
X140000476Y-141868819D01*
X140009685Y-141837461D01*
X140011518Y-141835872D01*
X140012289Y-141833572D01*
X140037791Y-141813106D01*
X140062489Y-141791706D01*
X140065476Y-141790889D01*
X140066782Y-141789842D01*
X140075946Y-141788028D01*
X140100997Y-141781184D01*
X140107484Y-141780500D01*
X140158092Y-141780500D01*
X140258888Y-141764535D01*
X140262080Y-141764199D01*
X140262318Y-141764242D01*
X140264818Y-141763941D01*
X140287315Y-141762077D01*
X140303413Y-141758000D01*
X140314398Y-141755743D01*
X140391368Y-141743553D01*
X140500544Y-141708079D01*
X140527884Y-141701157D01*
X140545118Y-141693596D01*
X140615992Y-141670568D01*
X140729688Y-141612636D01*
X140755145Y-141601471D01*
X140767688Y-141593275D01*
X140826433Y-141563343D01*
X140941831Y-141479500D01*
X140962898Y-141465739D01*
X140970851Y-141458416D01*
X141017510Y-141424517D01*
X141131476Y-141310550D01*
X141145477Y-141297663D01*
X141149379Y-141292647D01*
X141184517Y-141257510D01*
X141293777Y-141107125D01*
X141297902Y-141101828D01*
X141298702Y-141100346D01*
X141323343Y-141066433D01*
X141430568Y-140855992D01*
X141503553Y-140631368D01*
X141515959Y-140553038D01*
X141540500Y-140398097D01*
X141540500Y-140161902D01*
X141503553Y-139928631D01*
X141430566Y-139704003D01*
X141323342Y-139493565D01*
X141314311Y-139481136D01*
X141298706Y-139459657D01*
X141297902Y-139458172D01*
X141293765Y-139452857D01*
X141292560Y-139451198D01*
X141184517Y-139302490D01*
X141149385Y-139267358D01*
X141145477Y-139262337D01*
X141131465Y-139249438D01*
X141017512Y-139135485D01*
X141017506Y-139135480D01*
X140976665Y-139105806D01*
X140970849Y-139101581D01*
X140962898Y-139094261D01*
X140941816Y-139080487D01*
X140939320Y-139078674D01*
X140939308Y-139078666D01*
X140851071Y-139014558D01*
X140826433Y-138996657D01*
X140773639Y-138969757D01*
X140767695Y-138966728D01*
X140755145Y-138958529D01*
X140729687Y-138947362D01*
X140726482Y-138945729D01*
X140615993Y-138889432D01*
X140550977Y-138868306D01*
X140550977Y-138868305D01*
X140545108Y-138866398D01*
X140527884Y-138858843D01*
X140500544Y-138851919D01*
X140496624Y-138850646D01*
X140391369Y-138816447D01*
X140391366Y-138816446D01*
X140314434Y-138804261D01*
X140314434Y-138804260D01*
X140308842Y-138803374D01*
X140287315Y-138797923D01*
X140260269Y-138795681D01*
X140255692Y-138794957D01*
X140255691Y-138794956D01*
X140158098Y-138779500D01*
X140158092Y-138779500D01*
X140114000Y-138779500D01*
X140046961Y-138759815D01*
X140001206Y-138707011D01*
X139990000Y-138655500D01*
X139990000Y-138409851D01*
X140009685Y-138342812D01*
X140062489Y-138297057D01*
X140122459Y-138286140D01*
X140280743Y-138296966D01*
G37*
%TD.AperFunction*%
%TA.AperFunction,Conductor*%
%TO.N,/Tx*%
G36*
X120091678Y-116156029D02*
G01*
X120099103Y-116161032D01*
X120100815Y-116169822D01*
X120100281Y-116171662D01*
X119937872Y-116597664D01*
X119931723Y-116604174D01*
X119926940Y-116605196D01*
X119793060Y-116605196D01*
X119784787Y-116601769D01*
X119782128Y-116597664D01*
X119619718Y-116171662D01*
X119619972Y-116162711D01*
X119626482Y-116156562D01*
X119628311Y-116156031D01*
X119857675Y-116109472D01*
X119862325Y-116109472D01*
X120091678Y-116156029D01*
G37*
%TD.AperFunction*%
%TD*%
%TA.AperFunction,Conductor*%
%TO.N,/Rx*%
G36*
X120691678Y-116646029D02*
G01*
X120699103Y-116651032D01*
X120700815Y-116659822D01*
X120700281Y-116661662D01*
X120537872Y-117087664D01*
X120531723Y-117094174D01*
X120526940Y-117095196D01*
X120393060Y-117095196D01*
X120384787Y-117091769D01*
X120382128Y-117087664D01*
X120219718Y-116661662D01*
X120219972Y-116652711D01*
X120226482Y-116646562D01*
X120228311Y-116646031D01*
X120457675Y-116599472D01*
X120462325Y-116599472D01*
X120691678Y-116646029D01*
G37*
%TD.AperFunction*%
%TD*%
M02*
